<svg xmlns="http://www.w3.org/2000/svg" width="22.954" height="28.276" viewBox="0 0 22.954 28.276">
  <path id="Path_10945" data-name="Path 10945" d="M40.736,30.678c.206-.744.91-.9,1.471-1.173a3.382,3.382,0,0,0,1.107-.775.659.659,0,0,1,.39-.228c.976-.074,1.611-.867,2.486-1.147.508-.162.91-.569,1.462-.635.158.026.328.092.425-.114a7.531,7.531,0,0,1,1.676-.735c.223-.271.587-.14.849-.3.1-.035.2-.07.293-.1.179.109.214-.07.3-.149.105-.088.254-.07.359-.158a9.868,9.868,0,0,1,2.079-.4c.2,0,.455-.079.5-.3.053-.267.223-.127.341-.162A.762.762,0,0,1,55,24.2c.293-.131.587-.276.814.1.118-.07.114-.232.232-.3.14-.2.341-.144.543-.144a.559.559,0,0,0,.508-.166c.2-.2.495-.105.722-.223-.171-.35-.538-.341-.836-.455-.32-.123-.7-.092-.95-.376a3.643,3.643,0,0,0-.613-.1,19.353,19.353,0,0,0-2.722-.967c-.1-.1-.236-.105-.337-.184-.538-.057-1.116.009-1.488-.521-.079-.114-.179-.039-.276-.048a1.425,1.425,0,0,1-.744-.2A9.93,9.93,0,0,0,48,19.981c-.031-.053-.048-.118-.127-.114-.547-.263-1.226-.153-1.716-.617-.083-.079-.254.083-.451,0A22.451,22.451,0,0,0,42.623,18c-.88-.245-1.72-.591-2.578-.88a3.8,3.8,0,0,1-1.379-.893.517.517,0,0,1-.521-.026,19.948,19.948,0,0,1-3.226-2.228,7.345,7.345,0,0,1-.573-.783c-.1-.074-.232-.109-.293-.232-.306-.661-.744-1.3-.411-2.088.079-.179.341.009.4-.206.4.162.91-.088,1.252.315.438.521-.206.451-.355.648a.193.193,0,0,0,.057.28,10.233,10.233,0,0,0,1.873,1.843c.626.455,1.348.674,1.987,1.081a10.479,10.479,0,0,0,1.7.709c.468.2.932.416,1.4.608a1.977,1.977,0,0,0,.46.074.358.358,0,0,1,.32.088c.018,0,.039,0,.053.009.613.6,1.5.481,2.2.836a16.691,16.691,0,0,0,1.777.551c.315.118.635.254.937.4.608.3,1.3.346,1.9.63.945.446,2,.516,2.95,1,.63.32,1.414.411,2.105.674a22.626,22.626,0,0,0,3.961,1.173,3.961,3.961,0,0,1,.77.3c.337.3.8.136,1.169.293.066.013.127.022.193.035a.932.932,0,0,1,.425.293c.035.035.07.07.1.105a1.018,1.018,0,0,1,.521.534c0,.031,0,.066,0,.1a6.276,6.276,0,0,1-.508.862c-.21.385-.617.5-.954.713a3.534,3.534,0,0,0-1.414.486c-.359-.039-.643.236-.989.245l-1.033.223c-.158.158-.359.07-.543.105-.074.236-.368.245-.464.236-.692-.074-1.173.433-1.76.578a17.818,17.818,0,0,1-2.876.788c-.184.013-.188.245-.359.267-.136.057-.28,0-.416.022a5.746,5.746,0,0,1-2.237.827c-.411-.009-.49.438-.836.556-.639.214-1.212.6-1.865.788a.844.844,0,0,1-.4.258c-.232.092-.407.28-.63.381A3.223,3.223,0,0,0,42.7,31.733a.266.266,0,0,1-.127.092c-1.05.306-1.97.91-2.985,1.309a4.136,4.136,0,0,1-1.676.486.536.536,0,0,1-.56-.368.551.551,0,0,1,.127-.709,15.681,15.681,0,0,1,2.407-1.554A2.641,2.641,0,0,1,40.736,30.678Z" transform="translate(33.62 -33.522) rotate(90)"/>
</svg>
