<?xml version="1.0" encoding="utf-8"?>
<!-- Generator: Adobe Illustrator 24.0.3, SVG Export Plug-In . SVG Version: 6.00 Build 0)  -->
<svg version="1.1" id="Layer_1" xmlns="http://www.w3.org/2000/svg" xmlns:xlink="http://www.w3.org/1999/xlink" x="0px" y="0px"
	 viewBox="0 0 197.38 197.38" style="enable-background:new 0 0 197.38 197.38;" xml:space="preserve">
<g>
	<path class="st0" d="M84.19,163.71c0,0.15,0,0.31,0,0.46c0.64,0,1.28,0,1.92,0c0.34-0.53,1.07-0.24,1.45-0.69
		c-0.56-0.01-1.12-0.02-1.69-0.02C85.34,163.75,84.75,163.64,84.19,163.71z"/>
	<path class="st0" d="M84.07,163.71c-0.75,0.01-1.51-0.27-2.23,0.12c-0.01,0.11-0.03,0.23-0.04,0.34c0.8,0,1.6,0,2.4,0
		C84.07,164.04,84.04,163.88,84.07,163.71z"/>
	<path class="st0" d="M170.6,90.63c-0.26,0.1-0.13,0.3-0.11,0.47c0.68-0.03,0.01,0.6,0.37,0.73c0.1,0,0.19,0,0.29,0
		c0-0.32,0-0.64,0-0.96C170.96,90.8,170.78,90.72,170.6,90.63z"/>
	<path class="st0" d="M42.11,58.17C42.11,58.17,42.11,58.17,42.11,58.17c-0.01,0-0.01,0-0.02,0C42.1,58.17,42.1,58.17,42.11,58.17z"
		/>
	<path class="st0" d="M66.04,34.2c0.01,0,0.02,0,0.04,0c0,0,0-0.01-0.01-0.01C66.06,34.19,66.05,34.2,66.04,34.2z"/>
	<path class="st0" d="M25.49,122.77c-0.03-0.09-0.06-0.17-0.1-0.26C25.41,122.6,25.44,122.68,25.49,122.77z"/>
	<path class="st0" d="M56.11,38.75c0.03-0.02,0.05-0.03,0.08-0.05c-0.02-0.01-0.05-0.01-0.07-0.02
		C56.12,38.71,56.11,38.73,56.11,38.75z"/>
	<path class="st0" d="M170.17,94.68c0.3-1.06,0.45-2.11-0.06-3.17c-0.13-0.27,0.04-0.34,0.22-0.38c-0.01-0.01-0.01-0.02-0.02-0.03
		c-0.03-0.23-0.03-0.44,0.27-0.47c0.19-1.45-0.17-2.87-0.17-4.31c-0.82-0.44-0.18-1.11-0.25-1.67c-0.24-0.09-0.2-0.18,0-0.27
		c-0.09-0.54-0.52-1.04-0.24-1.63c-0.07-0.32,0-0.65-0.02-0.97c-0.12-2.34-0.92-4.52-1.41-6.77c-0.21-0.94-0.02-2-0.69-2.83
		c-0.47-0.13-0.52-0.55-0.62-0.92c-0.24-0.85-0.33-1.75-0.95-2.46c-0.16-0.18-0.04-0.36,0.17-0.46c-1.22-3.59-2.93-6.93-5.06-10.07
		c-0.33-0.16-0.2-0.47-0.24-0.72c-0.45-0.8-1.34-1.25-1.71-2.12c-0.24-0.23-0.64-0.34-0.66-0.76c-0.04-0.19-0.12-0.34-0.27-0.5
		c-1.35-1.36-2.48-2.9-3.83-4.27c-1.15-1.15-2.15-2.44-3.57-3.29c-0.11-0.44-0.78-0.48-0.75-1.03c-1.09-0.89-2.09-1.92-3.28-2.64
		c-2.22-1.35-4.13-3.13-6.47-4.34c-1.7-0.87-3.25-2.01-5.04-2.8c-2.51-1.11-4.65-2.87-6.86-4.52c-1.01-0.76-1.86-1.8-3-2.31
		c-1.64-0.74-3.01-1.89-4.68-2.61c-2.82-1.2-5.35-3.03-8.29-4.02c-0.43,0.06-0.78-0.04-0.95-0.48c-1.68-0.56-3.36-1.12-5.04-1.68
		c-0.24,0-0.49,0-0.73,0c-0.6-0.03-0.94-0.75-1.58-0.62c-1.1,0.22-2.27-0.22-3.09-0.53c-1.62-0.61-3.29-0.45-4.88-0.92
		C94.77,17.66,93,17.89,91.27,18c-0.78,0.05-1.58-0.2-2.32,0.24c-0.6,1.41-1.27,0.22-1.91,0.05c-2-0.07-3.95,0.39-5.88,0.76
		c-2.68,0.51-5.32,1.32-7.82,2.4c-2.81,1.21-5.61,2.44-8.23,4.09c-1.03,0.65-2.01,1.38-3.07,2c-1,0.58-2.37,0.97-2.61,2.44
		c-0.02,0.1-0.2,0.32-0.34,0.17c-0.53-0.59-0.84-0.03-1.17,0.23c-1.42,1.11-2.56,2.57-4.15,3.48c0.03,0.84-0.64,0.97-1.21,1.2
		c-0.25,0.15-0.49,0.3-0.74,0.46c0.01,0.12,0.01,0.23,0.02,0.35c0.02,0.23,0.08,0.56-0.22,0.55c-0.38-0.01,0.18-0.48-0.2-0.59
		c-0.69,0.4-0.93,1.2-1.55,1.71c-1.21,1-2.46,1.96-3.36,3.31c-0.39,0.59-0.61,1.43-1.54,1.56c-0.19,0.03-0.37,0.29-0.51,0.47
		c-1.31,1.6-2.61,3.21-3.91,4.82c-1.83,2.27-3.54,4.64-4.99,7.15c-0.57,1-2.34,1.74-1.29,3.41c0.01,0.02-0.09,0.15-0.15,0.16
		c-1.32,0.16-1.64,1.32-2.12,2.23c-1.29,2.45-2.47,4.97-3.83,7.38c-0.13,0.24-0.62,0.65-0.06,1c-0.43,1.32-1.05,2.57-1.43,3.92
		c-0.71,2.52-1.8,2.17-1.31,5.43c0.06,0.38-0.54,0.77,0.07,1.42c-0.57-0.11-0.93-0.5-1.31-0.55c-0.12,0.04-0.26,0.07-0.42,0.09
		c-0.08,0.24-0.15,0.49-0.23,0.73c0.48-0.04,0.65,0.55,1.11,0.55c0,0,0,0,0,0c0.58,0.12,0.37,0.44,0.18,0.74
		c0.55,1.48-0.25,2.7-0.74,3.98c0,0,0,0,0,0c0.05,0.69-0.12,1.34-0.45,1.95c0,0,0,0,0,0c0.08,0.15,0.15,0.31,0.23,0.46c0,0,0,0,0,0
		l0,0c-0.08,0.4-0.16,0.81-0.24,1.21c0.05,0.64,0.6,1.26,0.06,1.91c0,0,0,0,0,0c-0.24,0.23,0.43,0.49-0.02,0.72
		c0.14,0.56-0.12,1.05-0.28,1.55c0,0,0,0,0,0c0,0,0,0,0,0c0,0.2,0,0.39,0,0.59c0.06,0.3,0.13,0.59,0.19,0.89
		c0.12,1.17,0.36,2.34,0,3.51c-0.06,0.06-0.12,0.12-0.18,0.18c0.07,0.24,0.13,0.48,0.2,0.72c0.14,0.71,0.1,1.42,0.04,2.14
		c0.17,0.48,0.13,1.02,0.46,1.45c0.22,1.11,0.72,2.18,0.48,3.35c0.42,2.1,0.75,4.21,1.67,6.17c0.59,0.66,0.64,1.68,1.46,2.19v0l0,0
		c0.89,0.54,0.11,0.67-0.22,0.91c-0.15,0.46,0.58,0.75,0.22,1.25c0,0,0,0,0,0c0,0,0,0,0,0c0.6,0.11,0.23,0.49,0.21,0.77
		c0.02,0.21,0.04,0.43,0.06,0.64c0.43,0.49,0.56,1.11,0.7,1.72c0.67,0.98,0.92,2.15,1.39,3.22c0.05-0.17,0.21-0.3,0.33-0.21
		c0.33,0.27-0.1,0.54-0.05,0.82c-0.16,0.72,0.78,0.98,0.69,1.68c0.28,0.22,0.56,0.45,0.83,0.67c0.8-0.57,0.84-0.04,0.84,0.57
		c-0.59,0.33-0.77,0.65-0.28,1.3c1.28,1.7,1.9,3.79,3.09,5.51c0.57,0.82,0.82,1.93,1.77,2.5c0.52-0.04,0.66,0.3,0.72,0.71
		c-0.04,1.05,0.9,1.57,1.39,2.28c0.62,0.91,1.1,1.98,2,2.71c0.16-0.07,0.22-0.38,0.43-0.26c0.42,0.24-0.09,0.52,0,0.79
		c1.11,0.79,1.59,2.1,2.54,3.07c1.55,1.6,3.09,3.21,4.65,4.8c0,0,0.01,0,0.01,0c0,0,0.01-0.01,0.01-0.01
		c-0.11-0.38,0.22-0.57,0.38-0.83c0.11,0.1,0.32,0.22,0.31,0.31c-0.04,0.39-0.29,0.57-0.68,0.53c0,0-0.01,0.01-0.01,0.01
		c0,0.01,0,0.01,0,0.02c0,0,0,0-0.01-0.01c0,0-0.01,0.01-0.01,0.01c0.1,0.65,1.11,0.55,1.06,1.31c-0.53,0.03-0.94-0.23-1.36-0.59
		c-1.25-1.08-2.78-1.81-3.9-3.05c-0.48-0.54-1.27-0.34-1.69-0.9c-0.01-0.02,0-0.07,0.02-0.09c0.02-0.03,0.06-0.05,0.1-0.07
		c-0.08-0.27-0.68-0.22-0.45-0.69c-0.71-0.64-1.42-1.28-2.14-1.92c-0.36-0.14-0.62-0.38-0.71-0.77c-1.04-0.3-0.87-1.52-1.53-2.03
		c-0.88-0.69-1.29-1.73-2.09-2.46c-0.6,0.04-0.72-0.23-0.46-0.73c-0.03-0.06-0.05-0.11-0.06-0.17c-0.23-0.25-0.45-0.5-0.68-0.76
		c-0.14,0.04-0.43,0.09-0.4-0.03c0.22-0.91-0.68-1.35-0.82-2.09c-0.19,0.24-0.6,0.26-0.69,0.17c-0.25-0.25,0.39-0.35,0.22-0.68
		c-0.25-0.54-0.49-1.09-0.74-1.63c-0.85,0.12-0.68-0.6-0.86-1.04c-0.68-1.35-1.36-2.7-2.04-4.04c-0.55-0.1-0.41-0.53-0.43-0.89
		c-1-0.85-0.56-2.24-1.19-3.25c-0.16-0.26-0.62-0.46-0.47-0.91c-0.75-0.1-0.1-0.63-0.27-0.91c-0.17-0.26-0.33-0.51-0.5-0.77
		c-0.38-0.33-0.95-0.46-0.58-1.26c0.31-0.68-0.61-0.62-0.87-1.02c-0.34,0.38-0.24,1.03-0.87,1.07c0.26,0.36-0.09,0.84,0.24,1.19
		c0.39,0,0.8-0.1,0.63,0.6c-0.11,0.42,0.02,0.91,0.04,1.36c0.5,1.42,1,2.84,1.5,4.26c0.31,0.36,0.86,0.58,0.69,1.21
		c0.01,0.69,0.35,1.24,0.71,1.8c0.88,1.4,1.29,3.03,2.22,4.42c0.54,0.81,1.48,1.57,1.72,2.26c0.56,1.63,1.68,2.84,2.61,4.11
		c2.44,3.35,5.2,6.45,8.34,9.19c0.43,0.1,0.96,0.06,0.94,0.73c0.99,0.73,1.94,1.5,2.96,2.17c1.3,0.84,2.67,1.59,4,2.38
		c1.01,0.13,1.97,0.3,2.77,1.07c0.32,0.31,0.72,0.74,1.3,0.62c0,0,0,0,0,0c0.31,0.16,0.62,0.32,0.93,0.48
		c0.34,0.43,0.81,0.73,1.32,0.84c1.33,0.3,2.54,0.93,3.89,1.25c1.39,0.33,2.79,1.03,4.26,1.33c2.46,0.5,4.79,1.51,7.28,1.89
		c0.38-0.23,0.77-0.46,1,0.18c0.23,0,0.45-0.01,0.68-0.01c0.06-0.23-0.37-0.55,0.12-0.71c0.5-0.17,0.32,0.42,0.58,0.52
		c0.74,0.51,1.74,0.03,2.44,0.65c0.07,0.02,0.15,0.03,0.22,0.05c0.32,0.01,0.65-0.23,0.97,0.01c0.92,0.49,1.98-0.1,2.91,0.36
		c0.7-0.85,1.47-0.49,2.23-0.17c0-0.01,0-0.01,0-0.01c0.54-0.54,1.3-0.21,1.91-0.46c0.27-0.34,0.91-0.08,1.13-0.49
		c0.78,0.83,1.6,0.17,2.41,0.06c1.84,0.12,3.66,0.22,5.44-0.5c0.67-0.27,1.34-0.64,2.11-0.67c2.72-0.11,5.14-1.41,7.75-1.96
		c1.74-0.36,3.23-1.43,5.04-1.8c1.25-0.26,2.47-1.01,3.74-1.43c1.62-0.54,3.11-1.32,4.64-2.05c1.42-0.68,2.87-1.26,4.31-1.89
		c0.33-0.3,0.71-0.46,1.17-0.46c0.47-0.26,0.94-0.52,1.41-0.78c0.64-0.7,1.34-1.27,2.37-1.21c0.33-0.25,0.66-0.49,0.99-0.74
		c0.23-0.36,0.51-0.64,0.97-0.65c0,0,0,0,0,0c0.25-0.08,0.49-0.16,0.74-0.24c1.11-0.8,2.35-1.54,3.53-2.04
		c1.74-0.74,3.02-2.16,4.79-2.72c0.24-0.1,0.49-0.2,0.73-0.3c2.72-1.83,5.51-3.55,7.98-5.71c0.1-0.3,0.23-0.54,0.61-0.52
		c0.32,0.02,0.34,0.22,0.31,0.46c0.14-0.69,1-0.77,1.18-1.41c-0.34-1.07,0.95-0.62,1.13-1.2c0.18-0.37,0.49-0.27,0.78-0.23
		l-0.01-0.01c0.18-0.42,0.31-0.9,0.95-0.72c1.16-1.3,2.67-2.23,3.79-3.61c0.48-0.6,0.86-1.28,1.44-1.81
		c2.65-2.42,4.7-5.28,6.27-8.51c0.36-0.38-0.05-1.07,0.55-1.36c2.09-2.49,3.03-5.53,3.75-8.59c0.47-2.01,1.48-3.9,1.39-6.04
		c-0.01-0.16,0.2-0.33,0.3-0.5c-0.44-0.31-0.49-0.62-0.02-0.95c-0.15-0.02-0.3-0.04-0.45-0.05c0.12-0.29,0.43-0.27,0.65-0.41
		c-0.24-1.15,0.99-2.36-0.13-3.49c-0.02-0.02,0.04-0.16,0.09-0.19c1.16-0.51,0.62-1.49,0.64-2.31
		C170.67,95.61,170.04,95.22,170.17,94.68z M167.24,78.96c0.04-0.08,0.17-0.12,0.24-0.17c0.2,0.08,0.33,0.19,0.25,0.37
		c-0.03,0.07-0.19,0.15-0.27,0.14C167.3,79.27,167.16,79.15,167.24,78.96z M155.08,51.44c0.06,0.07,0.15,0.13,0.18,0.22
		c0.06,0.15,0.04,0.31-0.14,0.34c-0.06,0.01-0.19-0.1-0.21-0.18C154.87,51.69,154.87,51.53,155.08,51.44z M38.28,52.82
		c-0.24,0.66-0.63,0.33-0.98,0.26C37.58,53.01,37.87,52.93,38.28,52.82z M52.34,152.92C52.33,152.92,52.33,152.92,52.34,152.92
		C52.33,152.91,52.33,152.91,52.34,152.92c-0.08-0.02-0.17-0.01-0.24-0.04c-0.44-0.14-0.82-0.34-0.69-0.9
		c0.06-0.27,0.26-0.21,0.46-0.12C52.35,152.07,52.71,152.33,52.34,152.92C52.33,152.91,52.33,152.91,52.34,152.92L52.34,152.92
		C52.33,152.92,52.33,152.91,52.34,152.92C52.33,152.91,52.33,152.91,52.34,152.92c0.28,0.07,0.56-0.35,0.91,0.04
		C52.9,153.21,52.62,153.24,52.34,152.92z M60.79,156.43c-0.18,0.08-0.29-0.01-0.29-0.22c0-0.22,0.06-0.41,0.31-0.39
		c0.14,0.01,0.26,0.14,0.36,0.21C61.19,156.37,60.94,156.37,60.79,156.43z M70.55,161.56c-0.24,0.05-0.27-0.14-0.23-0.27
		c0.03-0.12,0.15-0.27,0.27-0.32c0.27-0.1,0.11,0.18,0.19,0.24C70.79,161.41,70.73,161.52,70.55,161.56z M148.05,127.59
		c-1.32,1.9-2.79,3.7-4.51,5.23c-1.32,1.17-2.72,2.23-3.59,3.81c-0.14,0.26-0.82-0.18-0.92,0.45c-0.5,0.38-0.69,1.12-1.43,1.21
		c-1.08,0.45-1.8,1.36-2.66,2.07c-0.49,0.41-1.48,0.26-1.43,1.27c-0.05,0.44-0.43,0.21-0.65,0.32c-0.65,0.46-1.3,0.92-1.96,1.38
		c0.07,0.64-0.39,0.46-0.73,0.47c-1.45,0.55-2.62,1.58-3.95,2.34c-0.38,0.21-0.79,0.24-1.17,0.46c-2.08,1.2-4.19,2.44-6.44,3.22
		c-1.65,0.58-3.29,1.16-4.79,1.99c-2.76,1.53-5.82,2.24-8.74,3.32c-2.03,0.76-4.03,1.72-6.1,2.21c-2.24,0.54-4.5,1.14-6.88,1.25
		c-1.55,0.07-3.18,0.53-4.77,0.81c-0.53,0.11-1.09,0.37-1.5-0.24c-0.4,0-0.8-0.02-1.17,0.18c-0.27,0.34-0.62,0.32-0.99,0.23
		c-0.94-0.24-1.87-0.5-2.84-0.18c-0.12,0.72-0.55,0-0.79,0.16c-1.67-0.32-3.37-0.2-5.06-0.47c-2.5-0.4-4.99-0.78-7.38-1.66
		c-0.76-0.28-1.6-0.32-2.32-0.71c-0.51-0.02-0.78-0.51-1.23-0.65c-0.29-0.03-0.58-0.05-0.88-0.08c-0.44-0.41-1.6,0.24-1.47-1
		c-0.02-0.47-0.28-0.65-0.73-0.74c-0.92-0.19-1.8-0.46-2.37-1.33c-0.3-0.46-1.27-0.01-1.29-0.9c-0.31-0.19-1.11,0.52-0.95-0.53
		c-0.28-0.1-0.56-0.21-0.84-0.31c-0.52,0.08-0.86-0.05-0.8-0.66l0.01-0.02c-0.76,0.34-0.49-0.46-0.74-0.68
		c-0.54-0.02-0.69-0.7-1.22-0.73c-0.51-0.04-0.45-0.41-0.43-0.75c-1.01-1.04-2.37-1.66-3.3-2.81c-0.26-0.33-0.49-0.59-0.5-1l0,0
		c-0.46-0.05-0.9-0.12-1.02-0.69c0,0,0,0,0,0l0,0l0.01-0.03c-0.48-0.01-0.55-0.31-0.49-0.71c-1.86-1.56-3.1-3.62-4.53-5.53
		c-0.25-0.23-0.83-0.15-0.69-0.75c-0.49-0.63-0.99-1.25-1.48-1.88c-0.51-0.13-0.8-0.47-0.96-0.95c-0.03-0.48-0.2-0.92-0.5-1.29
		c-1.3-1.57-2.04-3.47-3.08-5.19c-0.13-0.26-0.68-0.24-0.51-0.72c-0.56-1.04-1.12-2.07-1.68-3.11c-0.29-0.39-0.71-0.71-0.65-1.27
		c0.01-0.06-0.01-0.12-0.05-0.17c-0.21-0.11-0.85,0.17-0.46-0.5c0.4-0.77-0.54-1.06-0.59-1.73c-0.1-1.54-1.2-2.69-1.75-4.05
		c-0.53-0.23-0.06-0.57-0.1-0.85c-0.85-0.54-0.54-1.52-0.83-2.27c-0.72-1.86-0.89-3.89-1.45-5.78c-0.64-2.16-1.03-4.35-1.25-6.55
		c-0.23-2.32-0.58-4.67-0.28-7.03c-0.35-0.24-0.51-0.48-0.01-0.73c-0.3-1.73,0.39-3.45,0.04-5.19c-0.01-1.65,0.08-3.29,0.67-4.87
		l0.01-0.01c-0.02-0.35,0.04-0.73-0.08-1.05c-0.23-0.64-0.09-1.06,0.53-1.33c0.57-2.76,1.53-5.42,2.33-8.1
		c0.58-1.93,1.39-3.93,2.47-5.75c0.85-1.44,1.66-2.93,2.22-4.55c0.25-0.72,0.51-1.61,1.32-2.16c0.4-0.27,0.44-1.05,0.73-1.54
		c1.24-2.1,2.74-4.01,4.31-5.87c1.11-1.32,2.53-2.35,3.44-3.84c-0.09-0.16-0.19-0.31-0.28-0.47c0.26-0.01,0.52-0.02,0.78-0.03
		c0.76-0.1,0.48-0.42,0.16-0.75c-0.3-0.55-0.47-1.04,0.39-1.22c0.1-0.02,0.27-0.12,0.27-0.18c-0.01-1.23,1.5-1.3,1.75-2.31
		c0.14-0.55,0.66-0.06,0.86-0.37c0,0,0,0,0,0c0.07-0.31,0.24-0.5,0.58-0.51c0,0,0,0,0,0c0.11-0.08,0.21-0.15,0.32-0.23
		c-0.4-0.84,0.15-0.88,0.75-0.89c0.64-1.08,1.53-1.92,2.49-2.7c-0.05-0.75,0.59-0.55,0.97-0.72c3.18-3.12,6.71-5.79,10.41-8.27
		c1.46-0.98,2.95-1.85,4.48-2.69c0.75-0.95,1.68-1.58,2.92-1.68c2.14-1.02,4.34-1.88,6.64-2.5c0.19-0.47,0.69-0.4,1.03-0.6
		c1.99-0.03,3.93-0.47,5.83-0.93c1.66-0.4,3.33-0.36,4.96-0.65c1.22-0.22,2.35,0.44,3.53,0.07c0.14-0.37,0.64,0.01,0.78-0.38
		c0.06-0.18,0.2-0.43,0.4-0.22c0.19,0.2,0.02,0.44-0.19,0.59c0.55,0.01,1.11,0.02,1.66,0.03c0.37-0.33,0.61-0.27,0.72,0.22
		c0.75,0.29,1.45,0.8,2.31,0.2c0.45-0.31,0.73,0.32,1.16,0.33c1.41,0.04,2.68,0.88,4,0.98c2.07,0.16,3.83,1.13,5.73,1.68
		c2.77,0.81,5.4,2.05,7.98,3.4c1.78,0.93,3.45,1.98,5.15,3.03c0.49-0.09,0.95-0.08,1.22,0.45c0.22,0.15,0.44,0.29,0.92,0.62
		c-0.76,0-1.16-0.12-1.49-0.45c0,0,0,0,0,0c0,0,0,0,0,0c0,0,0,0,0,0c0,0,0,0,0,0c-0.03-0.03-0.05-0.06-0.05-0.1
		c-0.3,0.66-0.71,0.62-1.14,0.15c-0.2-0.22-0.39-0.39-0.69-0.4c-2.37-0.06-4.68-0.61-7.08-0.63c-1.5-0.01-3.08-0.17-4.61-0.21
		c-2.15-0.06-4.3,0.37-6.46,0.55c-4.27,0.35-8.42,1.29-12.58,2.32c-1.89,0.47-3.66,1.35-5.67,1.48c-0.75,0.05-1.53,0.64-2.36,0.79
		c-0.03,0.19-0.01,0.52-0.1,0.55c-0.21,0.07-0.3-0.18-0.39-0.34c-1.35,0.5-2.69,1.01-4.04,1.51c-0.27,0.34-0.64,0.17-0.97,0.2
		c-1.34,0.79-2.93,1.01-4.25,1.78c-1.78,1.04-3.82,1.46-5.6,2.48c-0.83,0.48-1.73,0.85-2.59,1.28c-0.01,0.64-0.47,0.38-0.79,0.39
		c-2.46,1.13-4.88,2.32-7.12,3.87c-0.62,0.43-1.36,0.72-2.03,1.1c-0.74,0.42-1.79,0.36-0.81,1.74c-0.77-0.97-1.23-0.95-2.46,0.13
		c-0.84,0.74-1.74,1.27-2.8,1.65c-0.69,0.25-1.18,1.02-1.76,1.56c-0.34,0.71-0.98,1.02-1.68,1.23c-0.09,0.04-0.17,0.09-0.26,0.13v0
		l0,0c-0.14,1.21,0.18,1.46,1.29,1.03c0.22-0.08,0.44-0.13,0.66-0.2c1.28-0.46,2.22-1.46,3.38-2.12c2.79-1.59,5.56-3.21,8.37-4.77
		c2.3-1.28,4.73-2.27,7.07-3.45c2.6-1.31,5.34-2.31,8-3.48c2.21-0.97,4.57-1.54,6.67-2.82c0.69-0.42,1.8-0.49,2.71-0.77
		c1.87-0.58,3.84-0.9,5.65-1.63c1.74-0.7,3.67-0.55,5.37-1.45c0.34-0.18,1.28,0.21,1.79,0.01c1.66-0.63,3.42-0.65,5.1-1.11
		c0.48-0.72,0.98-0.23,1.47-0.01c2.53-0.23,5.06-0.41,7.58-0.71c1.38-0.17,2.76,0.59,4.17-0.06c0.1-0.05,1.08,0.15,1.63,0.33
		c1.21,0.11,2.5-0.44,3.61,0.44c0.04,0.06,0.1,0.09,0.17,0.06c1.29-0.36,2.45,0.36,3.68,0.46l0,0c0.47-0.02,0.48,0.32,0.48,0.65
		c0.53,0.16,0.99,0.4,1.65,0.23c0.95-0.24,1.68,0.7,2.62,0.8c0.27-0.01,0.71-0.68,0.76,0.19c0.41,0,0.46,0.58,0.89,0.55
		c0.44,0.08,0.88,0.16,1.31,0.24c1.84,0.87,3.2,2.45,4.44,3.87c2.01,2.31,4.47,4.19,6.16,6.85c1.06,1.67,2.38,3.26,3.72,4.76
		c0.63,0.71,1.28,1.46,1.61,2.26c0.51,1.24,1.53,2.01,2.21,3.07c0.23,0.36,0.35,0.79,0.52,1.19c0.2,0.35,0.84,0.4,0.67,1
		c0.08,0.16,0.01,0.39,0.25,0.46c0.32,0.08,0.64,0.16,0.97,0.23c0.12-0.25,0.21-0.57,0.58-0.44c0.09,0.03,0.17,0.26,0.16,0.39
		c-0.04,0.47-0.4,0.22-0.64,0.26c-0.23,0.05-0.47,0.09-0.6,0.32c0.03,0.14,0.05,0.29,0.08,0.43c0.45,0.05,0.67,0.3,0.65,0.75
		c0.06,0.24,0.35,0.4,0.25,0.69c0.02,0.08,0.02,0.16,0,0.24c0.41,0.4,0.97,0.71,0.72,1.44c0.75,0.19,0.44,0.97,0.76,1.39
		c0.39,0.23,0.68,0.53,0.62,1.03c0.45,0.43,0.72,0.86,0.7,1.59c-0.02,0.73,0.72,1.3,1.03,2.01c0.52,1.2,0.39,2.67,1.53,3.62
		c0.3,0.25-0.28,0.68-0.06,1.06c0.25-0.05,0.28-0.65,0.55-0.38c0.45,0.43-0.37,0.56-0.35,0.93c0.98,1.05,0.92,2.49,1.23,3.74
		c0.58,2.3,1.2,4.6,1.52,6.99c0.19,1.46-0.08,2.95,0.39,4.36c0.36,0.49,0.42,0.97-0.02,1.45c0,0.8,0,1.59,0,2.39
		c-0.01,0.33-0.02,0.66-0.03,0.99c-0.32,2.29-0.65,4.59-0.97,6.88c0.37,0.57,0.5,1.07-0.39,1.26c-0.58,2.41-1.11,4.8-2.2,7.08
		c-0.58,1.21-0.74,2.67-1.44,3.9c-0.14,0.48-0.13,1.01-0.46,1.42c0,0,0,0,0,0c0,0,0,0,0,0c-0.24,0.25-0.49,0.49-0.73,0.74
		c-0.32,0.94-0.58,1.96-1.25,2.68c-0.8,0.86-1.03,2.04-1.85,2.85c-0.05,0.61-0.2,1.19-0.59,1.68c0,0-0.08-0.02-0.09-0.05
		c-0.03-0.07-0.04-0.15-0.06-0.22c-0.83,0.38-1.36,1.16-1.67,1.89C148.84,126.66,148.4,127.09,148.05,127.59z M162.28,88.71
		c0.01,0.38,0.21,0.89-0.48,0.93c-0.54,0.06-0.75-0.14-0.73-0.72c0.02-0.65,0.45-0.32,0.72-0.39
		C162.02,88.44,162.27,88.34,162.28,88.71z M162.12,84.69c0.05-0.26,0.35-0.27,0.57-0.29c0.22-0.01,0.35,0.11,0.32,0.36
		c-0.15,0.13-0.2,0.44-0.49,0.38C162.31,85.09,162.07,84.94,162.12,84.69z M161.2,81.5c-0.13,0.01-0.24-0.06-0.16-0.22
		c0.03-0.06,0.12-0.12,0.19-0.13c0.13-0.03,0.22,0.03,0.23,0.22C161.38,81.41,161.29,81.49,161.2,81.5z M167.52,89.65
		c-0.03,0.31-0.08,0.62-0.43,0.75c0.26,2.96-0.09,5.91-0.25,8.86c0.44,0.74-0.38,1.46-0.03,2.2c-0.04,0.2,0.35,0.48,0,0.59
		c-1.03,0.32-1.14,1.37-1.06,1.98c0.19,1.32-0.49,2.41-0.58,3.62c0.04,0.48-0.09,0.89-0.52,1.15c-0.08,0.43-0.15,0.86-0.23,1.29
		c-0.78,2.05-1.39,4.17-2.39,6.13c-0.17,0.34-0.48,0.62-0.72,0.93c-1.54,1.98-2.46,4.34-4.22,6.22c-1.15,1.23-2.31,2.45-3.49,3.65
		c-0.39,0.61-0.54,1.42-1.37,1.66c-0.06,0.09-0.13,0.18-0.19,0.27c-0.11,0.75-1.03,0.79-1.27,1.43c-0.16,0.06-0.33,0.11-0.49,0.17
		c-0.31,0.59-0.68,1.1-1.67,1.38c0.63-0.67,1.04-1.1,1.45-1.54l0,0c0.08-0.17,0.16-0.33,0.25-0.5c0-0.15,0.01-0.3,0.01-0.46
		c-0.27-1.15,0.59-0.45,0.94-0.57c0.32-0.45,0.65-0.9,0.97-1.35c0.36-0.12,0.4-0.52,0.65-0.73c2.31-2.89,3.99-6.13,5.45-9.52
		c0.33-0.76,0.79-1.53,1.26-2.26c0.59-0.93,0.77-2,1.09-3.03c0.25-0.81,0.19-1.77,0.93-2.47c0.38-0.36,0.67-0.96,0.71-1.57
		c0.07-0.98,0.36-1.85,0.82-2.73c0.58-1.12,0.23-2.44,0.47-3.69c0.54-2.77,0.67-5.62,0.97-8.44c0.02-0.18,0.11-0.4-0.13-0.53
		c-0.03-0.05-0.05-0.11-0.07-0.16c-0.2-0.26-0.71-0.5,0.03-0.8c0.28-1.06-0.4-2.03-0.31-3.07c-0.26-0.8-0.47-1.6-0.43-2.45
		c-0.24-1.06-0.12-2.17-0.41-3.24c-0.16-0.57-0.38-0.91-1.41-0.83c1.32-0.53,1.06-1.24,0.77-1.89c-0.92-2.08-1.35-4.31-1.99-6.46
		c-0.24-0.8-0.65-1.36-1.2-1.91c-0.19-0.39-0.36-0.79-0.22-1.24c-0.14-0.2-0.35-0.37-0.31-0.65c-0.28-0.46-0.55-0.92-0.82-1.38
		c-0.01-0.01,0.03-0.07,0.06-0.08c0.03-0.02,0.08-0.01,0.12-0.02c-0.02-0.15-0.03-0.3-0.05-0.45c-0.48-0.18-0.74-0.45-0.46-0.99
		c-2.21-4.52-4.89-8.76-7.59-12.99c-0.37-0.06-0.95,0.06-0.61-0.66c-0.15-1.31-1.31-1.95-1.96-2.94c-0.79-1.21-1.85-2.25-2.62-3.47
		c-0.38-0.6-0.85-1.06-1.33-1.56c-0.33,0.1-0.12,0.5-0.39,0.66c-0.23-0.43-0.65-0.91,0.33-0.89c-0.23-0.3-0.45-0.6-0.68-0.91
		c-0.6-0.09-0.76-0.68-1.16-1.02c0.73-0.18,1.14,0.17,1.41,0.77c1.29,0.95,2.82,1.7,3.81,2.9c1.36,1.64,3.19,2.69,4.58,4.28
		c0.51,0.59,0.89,1.44,1.75,1.72c-0.04-0.26,0.08-0.41,0.33-0.41c0.08,0,0.15,0.16,0.22,0.24c-0.13,0.1-0.2,0.34-0.44,0.22
		c0.53,0.83,0.82,1.89,1.94,2.17c0.31,0.08,0.67-0.15,0.51,0.5c-0.15,0.62,0.2,1.17,0.69,1.58c0.82,0,0.93,0.69,1.19,1.22
		c0.42,0.62,0.83,1.24,1.25,1.87c0.48-0.03,0.26,0.54,0.56,0.67c-0.11,0.02-0.21,0.05-0.32,0.07c0.94,1.48,2.02,2.9,2.54,4.58
		c0.26,0.84,0.92,1.48,1.02,2.36c0.54,0.62,0.89,1.3,0.72,2.16c-0.05,0.42,0.23,0.67,0.46,0.95c0.48,0.38,0.47,0.93,0.49,1.47
		c0.77,1.71,0.71,3.65,1.45,5.37c0.45,1.04,0.04,2.14,0.26,3.2c0.53,0.23,1.06,0.47,0.26,1.03c0.54,1.77,0.48,3.61,0.67,5.42
		C167.14,88.24,167.9,88.83,167.52,89.65z M167.66,84.21c0.39,0.1,0.71,0.27,0.69,0.76C167.72,85.08,167.88,84.45,167.66,84.21z"/>
	<polygon class="st0" points="48.95,149.79 48.96,149.8 48.96,149.8 	"/>
	<path class="st0" d="M170.18,84.66c0.03,0.07,0.06,0.14,0.09,0.2C170.25,84.8,170.22,84.73,170.18,84.66z"/>
	<polygon class="st0" points="48.95,149.79 48.95,149.79 48.95,149.79 	"/>
	<path class="st0" d="M58.43,37.53c0.02-0.01,0.05-0.03,0.07-0.04c-0.01,0-0.03,0-0.04,0C58.45,37.49,58.44,37.5,58.43,37.53z"/>
	<path class="st0" d="M84.19,163.71c-0.04-0.02-0.08-0.03-0.13-0.05c0,0.02,0,0.03,0,0.05C84.11,163.71,84.15,163.72,84.19,163.71z"
		/>
	<path class="st0" d="M23.14,101.66c0.28-0.8-0.3-1.57-0.07-2.36c-0.26-0.38-0.36-0.79-0.26-1.24c-0.26-0.27-0.18-0.57-0.1-0.88
		c0.23-0.85-0.31-0.34-0.57-0.31l-0.11,0.01l-0.11-0.03c-0.24,0.09-0.48,0.18-0.72,0.28c-0.21,1.15,0.08,2.31-0.04,3.45
		c-0.17,1.55,0.61,2.97,0.44,4.54c-0.08,0.68-0.37,2.05,1.25,1.83c0.19-0.15,0.37-0.31,0.56-0.46
		C23.7,104.85,23.28,103.26,23.14,101.66z"/>
	<path class="st0" d="M22.9,98.04l0.03,0.03c0-0.01,0-0.02,0.01-0.03C22.93,98.04,22.91,98.04,22.9,98.04z"/>
	<path class="st0" d="M24.19,115.36c0.23-0.3,0.03-0.87,0.61-0.92c0.45,0.68,0.02,1.69,0.78,2.27c0,0,0.01-0.01,0.01-0.01
		c0.18-1.29-0.17-2.72-0.81-3.53c-0.48-0.6,0.28-0.71-0.03-0.94c-0.3-0.26-0.58-0.52-0.47-0.98c-0.48-0.22-0.82-0.44,0-0.68
		c0.26-0.08,0.33-0.15,0.1-0.51c-0.33-0.53-0.33-1.14-0.56-1.69c-0.25-0.08-0.49-0.17-0.74-0.25c-0.3-0.01-0.61-0.02-0.91-0.03
		c-0.1,0.01-0.21,0.02-0.31,0.03c0.05,0.26-0.11,0.57,0.18,0.77c0.79,0.55,0.5,1.39,0.58,2.14c0.06,0.24-0.11,0.57,0.27,0.68
		c0.56,0.31,0.79,0.63,0.02,0.97c0.17,1.33,0.33,2.67,0.52,4c0.01,0.06,0.25,0.08,0.38,0.11c-0.15-0.72-0.3-1.45-0.45-2.19
		C24.09,114.43,23.98,115.05,24.19,115.36z"/>
	<path class="st0" d="M22.96,87.2c0.19-0.15,0.35-0.05,0.51,0.03c0.09-0.58,0.25-1.14,0.38-1.71c0-0.01,0.01-0.02,0.01-0.03
		c-0.31,0.16-0.41-0.22-0.51-0.44c-0.11-0.24,0.04-0.48,0.33-0.47c0.23,0,0.33,0.08,0.36,0.18c0.26-1.11,0.9-2.15,0.55-3.35
		c0.01-0.04,0.01-0.09,0.02-0.13c-0.18-0.1-0.22-0.23-0.16-0.39c-0.04-0.03-0.08-0.05-0.13-0.07c-0.34-0.17-0.64-0.38-0.82-0.74
		c-0.77,2.14-0.94,4.41-1.38,6.62c0,0,0,0,0,0C22.24,87.12,22.22,87.78,22.96,87.2z"/>
	<path class="st0" d="M22.19,96.52c1.27-0.13,0.69,0.8,0.78,1.33c0.06-0.3,0.12-0.6,0.18-0.95c0.17,0.12,0.22,0.27,0.23,0.42
		c0.07-0.84,0.02-1.69-0.1-2.53c-0.07,0.02-0.14-0.02-0.23-0.2c-0.16-0.32-0.09-0.5,0.06-0.65c-0.01-0.06-0.03-0.11-0.03-0.17
		c-0.02-0.22,0.01-0.45,0.06-0.66c0.02-0.06,0.03-0.13,0.05-0.19c-0.16-0.34-0.08-0.72-0.09-1.08c-0.03-0.08-0.05-0.16-0.08-0.24
		c-1.52,0.07-1.42-0.99-1.39-2c-0.2,0.79-0.57,1.61,0.27,2.27c0.2,0.15,0.08,0.27,0,0.39c-0.96,1.36-1.01,2.28-0.2,3.57
		C22.18,95.92,22.22,96.21,22.19,96.52z M23.27,95.36c0.03,0.44,0.18,0.75-0.12,1.09C22.75,96.02,23.01,95.76,23.27,95.36z
		 M21.86,93.03c0.08-0.14,0.16-0.29,0.34-0.17c0.09,0.06,0.13,0.17,0.19,0.25c-0.1,0.19-0.25,0.19-0.4,0.15
		C21.89,93.24,21.77,93.19,21.86,93.03z"/>
	<path class="st0" d="M25.65,118.46c0.61,0.12,1.06,0.55,0.91,1.3c-0.07,0.34,0.12,0.53,0.32,0.72c-0.07-1.37-0.94-2.49-1.29-3.78
		c0,0,0-0.01-0.01-0.01c-0.03,0.03-0.04,0.07-0.08,0.1c-0.85-0.26-0.54-1.1-0.84-1.65c-0.24,0.01-0.32,0.28-0.44,0.41
		c-0.15,0.16-0.54-0.8-0.38,0.09c0.07,0.37,0.21,0.77-0.04,1.14c-0.24,1.07,0.29,1.94,0.77,2.83
		C24.91,119.2,24.82,118.3,25.65,118.46z"/>
	<path class="st0" d="M21.87,91.19c0.49-0.26,0.84,0.05,1.21,0.28c0.21-0.47-0.16-1.07,0.24-1.52c0.31,0.14,0.23,0.38,0.21,0.6
		c0.16-0.54-0.1-1.05-0.22-1.57c0-0.08,0.02-0.17,0.02-0.25c-0.22-0.27-0.11-0.47,0.09-0.65c0.01-0.07,0.03-0.14,0.04-0.21
		c-0.01-0.18-0.01-0.35,0-0.53c-1.12,0.5-1.29,0.4-1.35-0.66v0c-0.37,0.93-0.33,1.93-0.48,2.9c0.1,0.07,0.18,0.15,0.23,0.26
		C22.05,90.3,21.9,90.75,21.87,91.19z"/>
	<path class="st0" d="M23.47,87.23C23.47,87.24,23.47,87.24,23.47,87.23c-0.01,0.04,0,0.08,0,0.12c0.05-0.02,0.08-0.04,0.14-0.06
		c0,0,0,0,0,0C23.56,87.28,23.51,87.26,23.47,87.23z"/>
	<path class="st0" d="M24.15,79.26c0.87-0.28,0.87-1.04,0.76-1.92c-0.17-1.39,0.43-2.73,1.04-3.79c0.77-1.35,1.03-2.87,1.86-4.15
		c0.09-0.14,0.23-0.23,0.31-0.36c-0.19,0.03-0.39,0-0.52,0.21c-0.81,1.37-1.09,2.99-1.99,4.34c-0.25,0.37-0.29,0.88-0.46,1.32
		c-0.54,1.45-0.97,2.95-1.44,4.44C23.88,79.26,24.01,79.24,24.15,79.26z"/>
	<path class="st0" d="M55.13,157.11c-0.32,0-0.63,0-0.87-0.25c-0.86-0.86-2.05-1.05-3.08-1.57c1.27,0.81,2.5,1.68,4.03,1.94
		c0-0.03,0.01-0.05,0.01-0.08C55.19,157.14,55.15,157.13,55.13,157.11z"/>
	<path class="st0" d="M166.98,68.93c-0.07-0.25-0.1-0.67-0.57-0.59c0.78,1.17,0.65,2.66,1.4,3.84
		C167.54,71.1,167.28,70.01,166.98,68.93z"/>
	<path class="st0" d="M75.81,163.23c-0.18-0.04-0.36-0.11-0.52-0.24c-0.04-0.02-0.08-0.04-0.12-0.07c-0.16,0.12-0.37,0.03-0.56,0.05
		c0.11,0.56,0.63,0.34,0.96,0.49C75.66,163.31,75.74,163.25,75.81,163.23z"/>
	<path class="st0" d="M75.99,163.26c0.11,0.06,0.21,0.19,0.32,0.27c0.46-0.28,0.96,0.09,1.42-0.11
		C77.18,163.17,76.57,163.33,75.99,163.26z"/>
	<path class="st0" d="M88.95,18.24c-0.64-0.21-1.28-0.35-1.91,0.05C87.68,18.01,88.34,18.98,88.95,18.24z"/>
	<path class="st0" d="M24.82,120.8c-0.15,0.69,0.3,1.16,0.56,1.71C25.23,121.93,25.47,121.21,24.82,120.8z"/>
	<path class="st0" d="M23.86,108.21c0.11-0.56-0.15-1.04-0.37-1.54c-0.16,0.18-0.34,0.33-0.64,0.26c-0.04,0.42,0.76,0.67,0.24,1.18
		C23.38,107.9,23.63,108.01,23.86,108.21z"/>
	<path class="st0" d="M22.62,111.02c-0.43-0.65,0.02-1.53-0.58-2.14C22.26,109.59,21.91,110.45,22.62,111.02z"/>
	<path class="st0" d="M170.43,86.33c0.19-0.52,0.06-1-0.16-1.46C170.4,85.34,170.04,85.89,170.43,86.33z"/>
	<path class="st0" d="M53.77,33.86c-0.36,0.44-1.09,0.51-1.21,1.2C52.9,34.6,53.56,34.46,53.77,33.86z"/>
	<path class="st0" d="M151.06,46.62c0.15-0.03,0.47,0.13,0.36-0.22c-0.17-0.51-0.58-0.76-1.11-0.81
		C150.42,46.04,151.26,45.95,151.06,46.62z"/>
	<path class="st0" d="M170.18,84.39c0.51-0.63-0.04-1.11-0.24-1.63C169.97,83.31,170.38,83.81,170.18,84.39z"/>
	<path class="st0" d="M27.67,128.23c-0.18-0.43-0.54-0.76-0.69-1.21C26.68,127.73,27.44,127.83,27.67,128.23z"/>
	<path class="st0" d="M21.78,96.63c0.02-0.01,0.04-0.03,0.07-0.03c0.03-0.01,0.07-0.02,0.1-0.02c-0.1-0.24-0.12-0.52-0.23-0.75
		c-0.09,0.2-0.17,0.4-0.26,0.6C21.59,96.45,21.69,96.53,21.78,96.63z"/>
	<path class="st0" d="M22.17,96.52c-0.08,0.01-0.15,0.03-0.23,0.05c0.05,0.11,0.1,0.21,0.2,0.29c0.01-0.11,0.03-0.23,0.05-0.34
		C22.18,96.52,22.18,96.52,22.17,96.52z"/>
	<path class="st0" d="M43.26,150.02c0.15,0.45,0.53,0.61,0.94,0.73C44.01,150.35,43.55,150.28,43.26,150.02z"/>
	<path class="st0" d="M72.91,162.78c0.3,0.24,0.59,0.56,1,0.18C73.62,162.65,73.22,162.94,72.91,162.78z"/>
	<path class="st0" d="M22.89,111.7c0.01,0.32,0.01,0.65,0.02,0.97C23.39,112.34,23.06,112.02,22.89,111.7z"/>
	<path class="st0" d="M77.95,163.47c0.32,0.13,0.64,0.67,0.97,0.01C78.6,163.55,78.28,163.67,77.95,163.47z"/>
	<path class="st0" d="M75.57,163.47c0.18,0.74,0.48,0.22,0.74,0.06C76.06,163.57,75.82,163.44,75.57,163.47z"/>
	<path class="st0" d="M75.81,163.23c0.06,0.01,0.12,0.02,0.18,0.03C75.93,163.23,75.87,163.21,75.81,163.23z"/>
	<path class="st0" d="M22.18,108.08c0.05-0.35-0.2-0.53-0.41-0.77c-0.04,0.29-0.24,0.58,0.1,0.81
		C21.96,108.03,22.06,108.03,22.18,108.08z"/>
	<path class="st0" d="M51.82,35.52c-0.2,0.02-0.36,0.09-0.4,0.31C51.66,35.86,51.77,35.73,51.82,35.52z"/>
	<path class="st0" d="M159.39,55.44c-0.06-0.4,0.19-1.05-0.66-0.76C159.01,54.89,159.23,55.14,159.39,55.44z"/>
	<path class="st0" d="M21.67,96.68c-0.09-0.07-0.17-0.15-0.22-0.26c-0.08,0.23-0.16,0.46-0.24,0.7
		C21.31,96.92,21.48,96.78,21.67,96.68z"/>
	<path class="st0" d="M21.67,96.68c0.08,0.06,0.16,0.11,0.25,0.16c-0.04-0.08-0.09-0.15-0.15-0.21
		C21.74,96.64,21.71,96.67,21.67,96.68z"/>
	<path class="st0" d="M161.1,57.56c0.24,0.18,0.06,0.51,0.24,0.72C161.41,57.99,161.68,57.63,161.1,57.56z"/>
	<path class="st0" d="M55.2,157.24c0.23,0.44,0.62,0.23,0.96,0.23c-0.28-0.17-0.63-0.14-0.92-0.29
		C55.23,157.2,55.23,157.22,55.2,157.24z"/>
	<path class="st0" d="M55.21,157.16c0.01,0.01,0.02,0.01,0.03,0.02c0.04-0.06,0.05-0.12-0.01-0.19c0,0,0,0,0,0
		C55.23,157.04,55.22,157.1,55.21,157.16z"/>
	<path class="st0" d="M111.75,21.88c0.25,0.29,0.63,0.33,0.95,0.48C112.47,22.03,112.13,21.93,111.75,21.88z"/>
	<path class="st0" d="M106.71,20.21c-0.24-0.29-0.49-0.75-0.73,0C106.23,20.02,106.47,20.05,106.71,20.21z"/>
	<path class="st0" d="M87.43,163.23c-0.1-0.01-0.2-0.01-0.3-0.02c0.15,0.05,0.29,0.13,0.42,0.27c0.64-0.29,1.58,0.24,1.97-0.72
		C88.89,163.22,88.17,163.27,87.43,163.23z"/>
	<path class="st0" d="M87.13,163.21c-0.35-0.12-0.73-0.04-1.1-0.04c-0.02,0.01-0.03,0.01-0.05,0.02c-0.05,0.07-0.1,0.15-0.11,0.27
		C86.26,163.18,86.69,163.18,87.13,163.21z"/>
	<path class="st0" d="M170.53,91.56c0.1,1.01,0.02,2.02-0.09,3.03c-0.01,0.03-0.01,0.06-0.01,0.09c0.06,0,0.13,0,0.19,0
		c0.07-0.95,0.15-1.9,0.22-2.85C170.67,91.8,170.59,91.69,170.53,91.56z"/>
	<path class="st0" d="M170.53,91.56c-0.02-0.15-0.02-0.3-0.05-0.45c-0.05,0.01-0.1,0.02-0.15,0.03
		C170.43,91.26,170.47,91.42,170.53,91.56z"/>
	<path class="st0" d="M127.51,150.01c-0.84,0.3-1.55,0.87-2.37,1.21C126.14,151.24,126.82,150.62,127.51,150.01z"/>
	<path class="st0" d="M149.79,135.61c-0.61-0.14-0.29,0.38-0.45,0.53c0.57,0.04,0.74-0.56,1.18-0.73c-0.01-0.06-0.01-0.13-0.02-0.19
		C150.25,135.35,150.05,135.67,149.79,135.61z"/>
	<path class="st0" d="M147.24,137.61c0.32,0.22,0.64,0.49,0.91-0.05C147.85,137.47,147.54,137.43,147.24,137.61z"/>
	<path class="st0" d="M169.69,103.57c0.32-0.27,0.49-0.58,0.19-0.97c-0.04,0-0.08,0.01-0.13,0.01
		C169.73,102.93,169.75,103.25,169.69,103.57z"/>
	<path class="st0" d="M170.46,96.16c0.41-0.45,0.21-0.98,0.17-1.48c-0.07,0.07-0.13,0.11-0.2,0.12
		C170.43,95.25,170.69,95.71,170.46,96.16z"/>
	<path class="st0" d="M170.43,94.8c0-0.04,0.01-0.08,0.01-0.12c-0.09,0-0.18,0-0.27,0C170.26,94.78,170.34,94.81,170.43,94.8z"/>
	<path class="st0" d="M163.69,120.05c0.93-0.15,0.4-0.89,0.55-1.36C163.98,119.12,164.21,119.74,163.69,120.05z"/>
	<path class="st0" d="M123.72,152c-0.36,0.22-0.74,0.4-1.17,0.46C123.14,152.8,123.46,152.46,123.72,152z"/>
	<path class="st0" d="M152.2,133.97c-0.35,0.2-0.63,0.48-0.95,0.72C151.7,134.64,152.04,134.42,152.2,133.97z"/>
	<path class="st0" d="M128.5,149.27c0.44,0.15,0.74-0.04,0.98-0.38c0-0.04,0-0.09-0.01-0.13
		C129.13,148.88,128.86,149.17,128.5,149.27z"/>
	<path class="st0" d="M150.53,135.41c0.52,0.05,0.65-0.3,0.73-0.7c-0.18,0.2-0.4,0.32-0.63,0.44
		C150.64,135.23,150.61,135.32,150.53,135.41z"/>
	<path class="st0" d="M150.6,135.17c0.01-0.01,0.02-0.01,0.03-0.02c-0.01-0.07-0.06-0.15-0.16-0.21c0.01,0.09,0.02,0.19,0.03,0.28
		C150.53,135.2,150.56,135.18,150.6,135.17z"/>
	<path class="st0" d="M169.73,102.57c0.05-0.02,0.09-0.02,0.14,0.02c-0.06-0.15,0.35-0.31-0.01-0.45
		C170.36,102.44,169.13,102.26,169.73,102.57z"/>
	<path class="st0" d="M169.74,102.58c-0.01,0-0.01-0.01-0.02-0.01c-0.02,0.01-0.05,0.02-0.07,0.04c0.03,0,0.06,0,0.08-0.01
		C169.74,102.6,169.74,102.59,169.74,102.58z"/>
	<path class="st0" d="M138.53,143.62c0.44,0.37,0.67,0.24,0.73-0.3C139.06,143.53,138.86,143.72,138.53,143.62z"/>
	<path class="st0" d="M129.55,148.73c0.01,0.02,0.01,0.05,0,0.07c-0.02,0.06-0.05,0.09-0.07,0.09c0.15-0.3,1.03,0.45,0.73-0.51
		c-0.15,0.23-0.36,0.36-0.65,0.34C129.56,148.72,129.56,148.73,129.55,148.73z"/>
	<path class="st0" d="M129.55,148.73c-0.01-0.04-0.03-0.07-0.08-0.1h0c0,0.04,0,0.09,0.01,0.13
		C129.5,148.75,129.53,148.73,129.55,148.73z"/>
	<path class="st0" d="M48.89,149.85c-1.64-1.08-2.87-2.61-4.24-3.98c-1.15-1.14-2.09-2.48-2.99-3.84c-0.02-0.05-0.03-0.11-0.03-0.17
		c-0.16-0.09-0.22-0.27-0.28-0.44c-0.04,0-0.09-0.01-0.15,0c-1.49-1.38-2.54-3.08-3.54-4.83c-0.03-0.16-0.09-0.29-0.17-0.39
		c-0.05-0.03-0.08-0.08-0.11-0.12c-0.1-0.09-0.23-0.16-0.38-0.2c-0.82-0.8-1.34-1.83-1.92-2.79c-1.03-1.69-1.82-3.53-2.88-5.21
		c-0.35-0.55-0.44-1-0.01-1.51c0-0.02-0.01-0.03-0.01-0.06c-0.23-0.05-0.45-0.13-0.66-0.27c0,0,0,0,0,0
		c-0.4-0.09-0.52-0.34-0.54-0.66c-0.05-0.07-0.09-0.14-0.13-0.21c-0.22-0.58-0.96-0.92-0.81-1.68c0.01-0.1,0.02-0.19,0.02-0.28
		c-0.03-0.07-0.04-0.15-0.04-0.23c-0.04-0.1-0.1-0.19-0.23-0.25c-0.47-0.99-0.9-1.99-1.41-2.95c0.02-0.13,0.01-0.25,0-0.37
		c-0.33-0.29-0.46-0.65-0.46-1.07c-0.07-0.12-0.13-0.25-0.17-0.38c-0.06-0.2-0.09-0.41-0.08-0.62c0-0.04,0.01-0.08,0.01-0.12
		c-0.31-0.1-0.38-0.4-0.43-0.72c0.02-1.25-0.73-2.28-1.02-3.44c-0.06-0.24-0.29-0.48-0.18-0.72c-0.03-0.04-0.05-0.08-0.08-0.12
		c-1.05-1.92-1.28-4.05-1.6-6.16c-0.01-0.19-0.03-0.38-0.04-0.57c-0.32-0.74-0.55-1.49-0.41-2.29c-0.06-0.19-0.11-0.38-0.19-0.57
		c-0.11-0.2-0.19-0.41-0.25-0.62c0.21,1.48,0.62,2.96,0.21,4.47c-0.04,0.05-0.08,0.09-0.12,0.14c0.42,0.48,0.8,0.97,0.35,1.64
		c0.43,0.93,1.07,1.82,0.62,2.94c0.01,0.03,0.01,0.05,0.01,0.08c0.4,0.12,0.21,0.51,0.22,0.82c0.05,0.06,0.09,0.11,0.17,0.16
		c0.06,0.83,0.59,1.52,0.7,2.32c0.1,0.7,0.53,1.43-0.01,2.11c0,0.01,0,0.01,0,0.02c0.9,0.73,1.59,2.76,1.36,3.85
		c0.03,0.03,0.07,0.06,0.1,0.09c0.23,0.24,0.45,0.49,0.55,0.81c0.04,0.11,0.04,0.23,0.03,0.35c0.03,0.09,0.03,0.18,0.02,0.28
		c0.02,0.12,0.06,0.23,0.19,0.32c1.02,1.19,0.83,2.85,1.63,4.12c0.03,0.08,0.05,0.16,0.08,0.25c0.1,0.1,0.13,0.22,0.15,0.35
		c0.07,0.14,0.15,0.27,0.26,0.38c0.86,1.21,1.36,2.6,2.01,3.92c0.03,0.25,0.11,0.46,0.23,0.65c0.03,0.04,0.07,0.08,0.1,0.12
		c0.13,0.15,0.29,0.27,0.49,0.37c0.38,0.48,0.6,1.03,0.72,1.62c-0.01,0.03-0.01,0.05-0.01,0.08c0.21,0.05,0.29,0.21,0.34,0.4
		c0.04,0.01,0.07,0.01,0.11,0.02c0.52,0.59,0.83,1.33,1.27,1.97c0.05,0.05,0.09,0.1,0.14,0.14c0.3-0.03,0.33,0.17,0.33,0.4
		c0.07,0.1,0.15,0.2,0.21,0.31c0.04,0.09,0.07,0.19,0.08,0.29c0,0.06,0.01,0.11,0.02,0.17c0.06,0.08,0.11,0.17,0.15,0.26
		c0.08,0.08,0.19,0.15,0.31,0.2c0.93,1.17,2.15,2.13,2.67,3.6c0.17,0.49,0.8,0.37,0.96,0.82c0.06,0.12,0.13,0.21,0.21,0.31
		c0.09,0.05,0.16,0.12,0.2,0.21c0.1,0.08,0.2,0.17,0.34,0.22c0.44,0.9,1.52,1.13,2.04,1.95c0.07,0.12,0.15,0.23,0.22,0.35
		c0.18,0.04,0.33,0.11,0.21,0.34c0.02,0.03,0.04,0.07,0.07,0.11c2.05,1.23,3.83,2.82,5.78,4.18c-0.2-0.14-0.36-0.3-0.28-0.62
		c0.02-0.02,0.05-0.05,0.07-0.07c0-0.01,0-0.01-0.01-0.02C48.94,149.82,48.92,149.84,48.89,149.85z"/>
	<path class="st0" d="M23.46,102.01c-0.01-0.06-0.02-0.11-0.02-0.17c-0.02-0.15-0.03-0.3-0.04-0.45c-0.02,0.02-0.04,0.04-0.06,0.06
		C23.36,101.64,23.4,101.83,23.46,102.01z"/>
	<path class="st0" d="M26.88,120.49c0.01,0.11,0.02,0.22,0.01,0.33c0.03-0.08,0.04-0.17,0.06-0.26
		C26.93,120.54,26.91,120.51,26.88,120.49z"/>
	<path class="st0" d="M23.54,106.62c-0.04-0.05-0.09-0.1-0.13-0.15c0.03,0.07,0.06,0.14,0.09,0.21
		C23.51,106.66,23.53,106.64,23.54,106.62z"/>
	<path class="st0" d="M23.88,108.23c-0.01,0-0.01-0.01-0.02-0.01c-0.01,0.05-0.02,0.1-0.03,0.15c0.03-0.04,0.04-0.07,0.06-0.1
		C23.89,108.25,23.88,108.24,23.88,108.23z"/>
	<path class="st0" d="M54.83,39.68c-1.09,0.65-2.07,1.45-3.13,2.14c-0.06,0.12-0.13,0.23-0.21,0.33c0.11-0.03,0.23-0.07,0.32-0.13
		c1.05-0.71,2.11-1.43,3.16-2.14c-0.04-0.08-0.09-0.14-0.13-0.2C54.84,39.67,54.84,39.68,54.83,39.68z"/>
	<path class="st0" d="M50.56,42.76c-0.41,0.15-0.73,0.41-0.99,0.75c-0.03,0.04-0.07,0.07-0.11,0.11c0.09,0.03,0.17,0.06,0.26,0.09
		c0.31-0.24,0.62-0.47,0.93-0.71c0-0.11,0.01-0.21,0.03-0.29C50.64,42.72,50.6,42.74,50.56,42.76z"/>
	<path class="st0" d="M50.17,41.92c-0.02,0.04-0.05,0.07-0.08,0.1c0.03,0.02,0.04,0.04,0.07,0.06c0.4,0.02,0.51-0.32,0.7-0.56
		c0.03-0.04,0.06-0.06,0.09-0.09c-0.07-0.02-0.14-0.06-0.23-0.11C50.54,41.51,50.36,41.71,50.17,41.92z"/>
	<path class="st0" d="M51.38,40.82c0,0.09,0,0.17-0.01,0.25c0.06-0.04,0.12-0.09,0.19-0.13c0.79-0.53,1.6-1.04,2.36-1.62
		c0.09-0.05,0.17-0.1,0.26-0.15c-0.14-0.04-0.28-0.06-0.45-0.05C52.94,39.69,52.16,40.25,51.38,40.82z"/>
	<path class="st0" d="M49.27,43.8c-0.13,0.11-0.25,0.22-0.35,0.36c0.01,0.02,0,0.03,0.01,0.05c0.04,0,0.06-0.01,0.11-0.01
		c0.39,0.06,0.52-0.24,0.69-0.5C49.56,43.81,49.41,43.83,49.27,43.8z"/>
	<path class="st0" d="M46.18,46.85c0.71-0.74,1.54-1.36,2.31-2.02c0-0.09,0-0.18,0.01-0.25c-0.1,0-0.2,0.01-0.24,0.09
		c-1.1,0.77-1.92,1.96-3.37,2.19c-0.12,0.02-0.09,0.27-0.01,0.42C45.15,46.71,45.77,47.27,46.18,46.85z"/>
	<path class="st0" d="M49.02,43.46c-0.06-0.06-0.14-0.07-0.22-0.06c0.03,0.05,0.06,0.1,0.1,0.15c0.12,0.12,0.25,0.21,0.38,0.25
		c0.07-0.06,0.13-0.12,0.19-0.19C49.32,43.56,49.17,43.51,49.02,43.46z"/>
	<path class="st0" d="M27.44,116.24c0,0.09,0.02,0.17,0.04,0.25c0.03,0,0.07,0,0.1,0c0,0,0,0,0,0c-0.02-0.4-0.39-0.71-0.28-1.14
		c0.01-0.07,0.05-0.14,0.1-0.2c-0.11-0.26-0.2-0.52,0.03-0.69c-0.76-0.42-0.91-1.25-1.29-1.93c0.02,0.51,0.45,0.9,0.61,1.35
		C27.04,114.65,27.22,115.45,27.44,116.24z"/>
	<path class="st0" d="M26.03,112.34c0.04,0.06,0.08,0.12,0.12,0.19c0-0.12,0.01-0.25,0.06-0.38
		C26.11,112.21,26.06,112.27,26.03,112.34z"/>
	<path class="st0" d="M45.48,56.31c0.08,0.03,0.15,0.06,0.23,0.11c0.35-0.47,1.08-0.42,1.36-1c-0.44,0.36-1.04,0.45-1.46,0.84
		C45.56,56.28,45.52,56.3,45.48,56.31z"/>
	<path class="st0" d="M44.1,55.45c-0.41-0.01-0.39,0.38-0.36,0.7c0.07,0,0.12,0.01,0.18,0.03c0-0.01,0.01-0.01,0.01-0.02
		c0.36-0.55,1.08-0.82,1.18-1.57C44.73,54.82,44.74,55.47,44.1,55.45z"/>
	<path class="st0" d="M26.25,87.59c0.59-1.57,0.63-3.22,0.67-4.87C26.65,84.34,26.62,85.99,26.25,87.59z"/>
	<path class="st0" d="M153.59,127.03c-0.24-0.08-0.48-0.15-0.72-0.23C153.04,127.1,153.24,127.3,153.59,127.03z"/>
	<path class="st0" d="M24.05,103.74c0.04,0.25,0.09,0.5,0.15,0.75C24.16,104.24,24.11,103.99,24.05,103.74z"/>
	<path class="st0" d="M24.05,103.74c-0.05-0.37-0.07-0.74,0.01-1.12c-0.08,0.2-0.12,0.39-0.16,0.58
		C23.96,103.38,24.01,103.56,24.05,103.74z"/>
	<path class="st0" d="M24.31,105.49c0.07,0.16,0.14,0.32,0.22,0.48c-0.06-0.5-0.21-0.99-0.33-1.48
		C24.25,104.82,24.29,105.15,24.31,105.49z"/>
	<path class="st0" d="M119.64,33.84c-1.17-0.43-2.43-0.07-3.61-0.44C117.19,33.93,118.42,33.83,119.64,33.84z"/>
	<path class="st0" d="M71.06,25.5c-0.95,0.59-2.09,0.88-2.92,1.68C69.08,26.57,70.3,26.44,71.06,25.5z"/>
	<path class="st0" d="M123.28,34.54c-0.05-0.02-0.1-0.05-0.15-0.06c-1.12-0.13-2.18-0.59-3.32-0.57c1.07,0.48,2.25,0.44,3.36,0.72
		C123.21,34.6,123.25,34.57,123.28,34.54z"/>
	<path class="st0" d="M23.25,99.3C23.25,99.3,23.25,99.3,23.25,99.3c0-0.06-0.01-0.12-0.02-0.17c-0.01,0.01-0.03,0.02-0.04,0.03
		C23.21,99.21,23.23,99.25,23.25,99.3z"/>
	<path class="st0" d="M23.3,101.22c0.02-0.03,0.04-0.04,0.08-0.06c-0.03-0.61-0.03-1.22-0.11-1.83c0-0.01-0.01-0.02-0.01-0.03
		c0.03,0.6,0.01,1.21,0.02,1.81C23.28,101.15,23.29,101.18,23.3,101.22z"/>
	<path class="st0" d="M23.37,101.16c0,0.08,0.01,0.15,0.02,0.23c0.07-0.07,0.14-0.15,0.21-0.22
		C23.49,101.14,23.42,101.14,23.37,101.16z"/>
	<path class="st0" d="M23.3,101.22c-0.08,0.12-0.04,0.35-0.16,0.44c0.07-0.07,0.13-0.14,0.2-0.2
		C23.32,101.37,23.3,101.3,23.3,101.22z"/>
	<path class="st0" d="M61.7,155c0.57,0.22,1.03,0.6,1.47,1C62.86,155.41,62.67,154.64,61.7,155z"/>
	<path class="st0" d="M166.8,101.46c-0.64-0.74-0.05-1.47,0.03-2.2C166.29,99.99,165.95,100.71,166.8,101.46z"/>
	<path class="st0" d="M163.48,70.04c0.06-0.82-0.72-1.36-0.72-2.16C162.23,68.86,163.48,69.24,163.48,70.04z"/>
	<path class="st0" d="M142.88,44.17c0.08-0.08,0.16-0.16,0.25-0.25C142.89,43.85,142.82,43.96,142.88,44.17z"/>
	<path class="st0" d="M49.96,41.92c0.07,0,0.14-0.01,0.21-0.01c-0.12-0.12-0.25-0.23-0.37-0.35C49.81,41.72,49.87,41.83,49.96,41.92
		z"/>
	<path class="st0" d="M50.09,42.02c-0.05-0.03-0.09-0.06-0.12-0.1c-0.38,0.02-0.73,0.11-0.91,0.53
		C49.3,42.11,49.81,42.3,50.09,42.02z"/>
	<path class="st0" d="M26.93,82.72c0.4-0.75,0.24-1.6,0.46-2.38C26.8,81.05,27.27,81.96,26.93,82.72z"/>
	<path class="st0" d="M152.94,64.77c-0.22-0.49-0.69-0.86-0.72-1.44C151.8,64.14,152.45,64.42,152.94,64.77z"/>
	<path class="st0" d="M150.78,124.16c0.21-0.49,0.49-0.93,0.73-1.4C151.14,123.16,150.53,123.43,150.78,124.16z"/>
	<path class="st0" d="M23.38,90.87c-0.04,0.25-0.01,0.5-0.23,0.65c0.06,0.07,0.09,0.15,0.13,0.24c0.05-0.02,0.1-0.04,0.14-0.06
		c0.05-0.3-0.04-0.61,0.02-0.92C23.42,90.76,23.4,90.78,23.38,90.87z"/>
	<path class="st0" d="M23.53,90.56c-0.02,0.07-0.05,0.14-0.08,0.21c0,0,0,0,0,0.01c0.06,0.03,0.13,0.18,0.2,0.1l0,0
		C23.53,90.8,23.52,90.68,23.53,90.56z"/>
	<path class="st0" d="M23.15,91.52c-0.02-0.01-0.04-0.03-0.07-0.04c-0.02,0.04-0.03,0.08-0.06,0.12
		C23.08,91.58,23.12,91.55,23.15,91.52C23.15,91.52,23.15,91.52,23.15,91.52z"/>
	<path class="st0" d="M157.71,58.34c-0.38-0.42-0.77-0.84-1.19-1.22C156.51,57.92,157.27,57.97,157.71,58.34z"/>
	<path class="st0" d="M137.6,138.29c0.41-0.48,0.79-1,1.43-1.21C138.14,137.01,137.84,137.62,137.6,138.29z"/>
	<path class="st0" d="M152.22,127.52c-0.04,0.39-0.61,0.78,0,1.17C151.92,128.3,152.31,127.91,152.22,127.52z"/>
	<path class="st0" d="M151.27,129.07c0.01,0.06,0.02,0.12,0.03,0.18c0.08-0.49,0.61,0.12,0.73-0.3
		C151.75,128.87,151.5,128.91,151.27,129.07z"/>
	<path class="st0" d="M163.66,86.06c0.17,0.81,0.51,1.59,0.43,2.45C164.43,87.61,163.96,86.85,163.66,86.06z"/>
	<path class="st0" d="M158.24,68.36c0.48,0.37,0.5,0.95,0.65,1.47C158.91,68.58,158.87,68.48,158.24,68.36z"/>
	<path class="st0" d="M23.34,92.3c0.03-0.15,0.05-0.31,0.06-0.46c-0.02,0.02-0.05,0.02-0.08,0.03
		C23.35,92.01,23.34,92.15,23.34,92.3z"/>
	<path class="st0" d="M23.2,92.92c0.04,0.08,0.08,0.17,0.15,0.24c-0.02-0.29-0.01-0.57-0.01-0.86
		C23.31,92.51,23.26,92.71,23.2,92.92z"/>
	<path class="st0" d="M23.43,91.7c0,0.05-0.01,0.09-0.02,0.14c0.08-0.05,0.15-0.15,0.22-0.23C23.56,91.63,23.49,91.66,23.43,91.7
		C23.43,91.7,23.43,91.7,23.43,91.7z"/>
	<path class="st0" d="M23.33,91.87c0-0.01,0-0.01,0-0.02c-0.01-0.03-0.03-0.06-0.05-0.09c-0.06,0.03-0.12,0.05-0.17,0.08
		C23.2,91.88,23.27,91.88,23.33,91.87z"/>
	<path class="st0" d="M151.3,129.25c-0.05-0.04-0.07-0.09-0.09-0.14c-0.01,0.01-0.02,0.01-0.03,0.02c-0.27,0.18-0.61,0.13-0.87,0.31
		C150.68,129.6,151.06,129.8,151.3,129.25z"/>
	<path class="st0" d="M151.21,129.11c0.02-0.02,0.04-0.03,0.06-0.04c-0.01-0.07-0.02-0.13-0.03-0.2
		C151.19,128.96,151.18,129.03,151.21,129.11z"/>
	<path class="st0" d="M164.43,72.46c-0.3-0.44-0.48-0.93-0.49-1.47C163.66,71.63,163.91,72.08,164.43,72.46z"/>
	<path class="st0" d="M159.45,104.08c0.33-0.36,0.17-0.87,0.39-1.26C159.38,103.14,159.37,103.6,159.45,104.08z"/>
	<path class="st0" d="M85.84,159.17c0.47,0.29,1.04-0.11,1.5,0.24C87,158.36,86.33,159.32,85.84,159.17z"/>
	<path class="st0" d="M161.8,88.53c-1.11,0.38-0.26,0.74,0.01,1.11C161.87,89.27,161.13,88.9,161.8,88.53z"/>
	<path class="st0" d="M45.37,54.46c0.55-0.43,1.18-0.74,1.68-1.23C46.43,53.57,45.78,53.85,45.37,54.46z"/>
	<path class="st0" d="M94.03,20.88c-0.33-0.05-0.66,0.09-0.98,0.02C93.38,21.31,93.71,21.06,94.03,20.88z"/>
	<path class="st0" d="M28.15,118.79c0.03,0.09,0.08,0.18,0.12,0.26C28.24,118.96,28.2,118.87,28.15,118.79z"/>
	<path class="st0" d="M28.37,119.41c0.08,0.07,0.16,0.15,0.27,0.21c-0.15-0.18-0.26-0.37-0.36-0.57
		C28.32,119.16,28.35,119.28,28.37,119.41z"/>
	<path class="st0" d="M28.15,118.79c-0.11-0.28-0.18-0.58-0.22-0.89c-0.02,0.15-0.03,0.3-0.03,0.44
		C27.99,118.49,28.07,118.64,28.15,118.79z"/>
	<path class="st0" d="M31.93,126.02c-0.09-0.02-0.18-0.04-0.26-0.07c-0.01,0-0.01-0.01-0.02-0.01c0,0-0.01,0.01-0.01,0.01
		C31.73,125.98,31.83,126,31.93,126.02z"/>
	<path class="st0" d="M32.17,126.32c0.16,0.03,0.32,0.06,0.49,0.05c-0.18-0.26-0.46-0.3-0.73-0.35
		C32.06,126.06,32.16,126.13,32.17,126.32z"/>
	<path class="st0" d="M27.59,114.66c-0.02,0.12-0.06,0.23-0.09,0.34C27.59,114.9,27.64,114.79,27.59,114.66z"/>
	<path class="st0" d="M27.43,114.45c0.09,0.08,0.14,0.14,0.16,0.21c0.02-0.11,0.04-0.22,0.07-0.33
		C27.56,114.37,27.49,114.41,27.43,114.45L27.43,114.45z"/>
	<path class="st0" d="M27.4,115.14c0.01,0.03,0.03,0.06,0.04,0.09c0.03-0.08,0.05-0.16,0.07-0.24
		C27.47,115.05,27.43,115.1,27.4,115.14z"/>
	<path class="st0" d="M76.65,36.62c-0.01-0.01-0.02-0.01-0.03-0.02c-0.02,0.03-0.05,0.05-0.07,0.08c0.01,0.47,0.43,0.42,0.71,0.55
		C77.3,36.8,76.82,36.86,76.65,36.62z"/>
	<path class="st0" d="M77.44,36.76c-0.11-0.01-0.23-0.01-0.34-0.03c0.11,0.09,0.23,0.17,0.34,0.27c0.26,0.15,0.52,0.12,0.79,0.05
		C77.97,36.94,77.62,37.08,77.44,36.76L77.44,36.76z"/>
	<path class="st0" d="M39.39,134c0.6,0.03,0.59,0.69,0.96,0.95C40.2,134.47,40.1,133.93,39.39,134z"/>
	<path class="st0" d="M23.13,99.01c0.02-0.03,0.04-0.06,0.08-0.08c-0.03-0.17-0.05-0.35-0.02-0.52c0.01-0.06,0.03-0.12,0.05-0.17
		c-0.07-0.04-0.15-0.08-0.22-0.13C22.99,98.43,23.03,98.73,23.13,99.01z"/>
	<path class="st0" d="M22.88,98.01l-0.07,0.04c0.03,0,0.06-0.01,0.09-0.01L22.88,98.01z"/>
	<path class="st0" d="M23.23,99.13c0.09-0.07,0.19-0.11,0.33-0.09c-0.15-0.09-0.27-0.13-0.36-0.1C23.22,99,23.22,99.06,23.23,99.13z
		"/>
	<path class="st0" d="M23.19,99.16c-0.02-0.05-0.05-0.1-0.06-0.15c-0.04,0.06-0.07,0.14-0.06,0.28
		C23.11,99.24,23.15,99.2,23.19,99.16z"/>
	<path class="st0" d="M166.39,82.06c0.13-0.4-0.02-0.73-0.26-1.03C165.97,81.44,166.13,81.76,166.39,82.06z"/>
	<path class="st0" d="M155.09,116.27c0.03,0.02,0.06,0.05,0.08,0.07c0,0,0,0,0.01-0.01c0.28-0.39,0.24-0.93,0.63-1.27
		C155.3,115.31,155.21,115.8,155.09,116.27z"/>
	<path class="st0" d="M151.31,61.88c-0.07,0.69,0.5,0.89,0.91,1.21c-0.27-0.3-0.48-0.64-0.65-1.01
		C151.48,62.02,151.4,61.95,151.31,61.88z"/>
	<path class="st0" d="M54.72,150.53c0.24,0.25,0.53,0.44,0.8,0.66C55.6,150.55,55.05,150.68,54.72,150.53z"/>
	<path class="st0" d="M56.36,151.5c0.24,0.31,0.77,0.11,0.95,0.53C57.22,151.45,56.79,151.48,56.36,151.5z"/>
	<path class="st0" d="M48.69,43.18c0.12,0.04,0.23,0.2,0.33,0.28c-0.1-0.26-0.19-0.51-0.29-0.77c0,0,0,0,0,0
		C48.63,42.87,48.64,43.03,48.69,43.18z"/>
	<path class="st0" d="M48.8,43.4c-0.04-0.07-0.08-0.15-0.11-0.22c-0.07-0.03-0.15-0.01-0.22,0.1c-0.28,0.44-0.15-0.4-0.32-0.08
		c0,0,0,0,0,0C48.26,43.65,48.55,43.44,48.8,43.4z"/>
	<path class="st0" d="M160.84,92.56c-0.2-0.48,0.36-0.96,0.02-1.45C160.98,91.6,160.42,92.07,160.84,92.56z"/>
	<path class="st0" d="M74.61,162.96c0.03-0.04,0.07-0.06,0.11-0.08c0,0,0,0,0,0c-0.03,0.03-0.07,0.05-0.1,0.07c0,0-0.01,0-0.01,0
		c0,0.01,0,0.02,0,0.03c0,0,0.02-0.03,0.02-0.03C74.6,162.95,74.61,162.95,74.61,162.96z"/>
	<path class="st0" d="M74.77,162.84c0.06-0.02,0.12-0.03,0.18-0.04C74.89,162.79,74.83,162.8,74.77,162.84z"/>
	<path class="st0" d="M74.59,162.97c0.01,0,0.02,0,0.03,0c0-0.01,0-0.01,0-0.02C74.6,162.96,74.59,162.96,74.59,162.97z"/>
	<path class="st0" d="M75.17,162.92c0.05-0.03,0.09-0.08,0.12-0.16c-0.11,0.03-0.23,0.03-0.34,0.04
		C75.03,162.82,75.1,162.87,75.17,162.92z"/>
	<path class="st0" d="M74.77,162.84c-0.02,0.01-0.04,0.02-0.06,0.03C74.73,162.85,74.75,162.85,74.77,162.84z"/>
	<path class="st0" d="M27.68,116.94c0.01-0.14-0.01-0.27-0.08-0.41c-0.03,0.03-0.06,0.04-0.09,0.05
		C27.55,116.71,27.61,116.83,27.68,116.94z"/>
	<path class="st0" d="M27.66,117.21c0.07,0.02,0.13,0.05,0.22,0.05c-0.06-0.11-0.13-0.21-0.19-0.31
		C27.68,117.03,27.67,117.12,27.66,117.21z"/>
	<path class="st0" d="M27.6,116.54c0.02-0.02,0.04-0.03,0.06-0.05c-0.03,0-0.06,0-0.08,0C27.59,116.5,27.59,116.52,27.6,116.54z"/>
	<path class="st0" d="M27.51,116.59c-0.01-0.03-0.02-0.07-0.03-0.1c-0.08,0-0.17,0-0.25,0C27.32,116.59,27.42,116.62,27.51,116.59z"
		/>
	<path class="st0" d="M122.74,30.76c0.2,0.17,0.4,0.34,0.6,0.5C123.36,30.83,122.93,30.94,122.74,30.76z"/>
	<path class="st0" d="M123.39,31.37C123.39,31.37,123.39,31.37,123.39,31.37C123.39,31.37,123.39,31.38,123.39,31.37
		c0.19-0.05,0.38-0.1,0.57-0.16C123.74,31.15,123.55,31.22,123.39,31.37z"/>
	<path class="st0" d="M64.05,156.08c0.52,0,0.93,0.22,1.23,0.65C65.15,156,64.61,156.02,64.05,156.08z"/>
	<path class="st0" d="M150.52,60.01c-0.28-0.29-0.62-0.55-0.67-1C149.81,59.52,149.94,59.91,150.52,60.01z"/>
	<path class="st0" d="M23.12,93.94c0.05,0.27,0.13,0.53,0.16,0.8c0,0.02,0,0.03,0.01,0.05c0.09-0.02,0.16-0.14,0.25-0.16
		c-0.35-0.23-0.43-0.53-0.19-0.89C23.27,93.81,23.19,93.88,23.12,93.94z"/>
	<path class="st0" d="M32.21,132.08c-0.14-0.17-0.28-0.34-0.42-0.5c0.16,0.45,0.4,0.84,0.86,1.04c-0.11-0.14-0.23-0.28-0.34-0.41
		C32.28,132.16,32.24,132.12,32.21,132.08z"/>
	<path class="st0" d="M33.49,134.38c-0.01,0.17,0.1,0.24,0.26,0.28C33.65,134.58,33.56,134.48,33.49,134.38z"/>
	<path class="st0" d="M33.51,134.27c-0.04-0.01-0.07-0.02-0.12-0.02c0.02,0.05,0.06,0.09,0.1,0.14
		C33.49,134.35,33.5,134.31,33.51,134.27z"/>
	<path class="st0" d="M33.75,134.66c0.04,0.03,0.08,0.07,0.12,0.1c-0.01-0.03-0.01-0.05-0.02-0.08
		C33.81,134.67,33.78,134.66,33.75,134.66z"/>
	<path class="st0" d="M48.96,149.8C48.96,149.8,48.96,149.8,48.96,149.8c0,0,0.01,0.01,0.01,0.01c0,0,0,0,0,0L48.96,149.8z"/>
	<path class="st0" d="M48.99,149.79c0.08-0.08,0.15-0.15,0.23-0.22c-0.09,0.06-0.17,0.14-0.25,0.21c0,0,0,0.01,0,0.01
		C48.98,149.79,48.99,149.79,48.99,149.79z"/>
	<path class="st0" d="M48.97,149.81C48.97,149.81,48.98,149.8,48.97,149.81c0.01-0.01,0.01-0.01,0.01-0.02c0,0-0.01,0-0.01,0
		c0,0,0,0-0.01,0.01C48.96,149.8,48.97,149.8,48.97,149.81z"/>
	<polygon class="st0" points="48.97,149.81 48.98,149.82 48.97,149.81 	"/>
	<polygon class="st0" points="48.96,149.8 48.96,149.8 48.96,149.79 48.95,149.79 	"/>
	<polygon class="st0" points="48.95,149.79 48.95,149.79 48.95,149.79 	"/>
	<path class="st0" d="M23.22,97.53c0,0.19-0.07,0.34-0.21,0.45c0,0.01,0,0.02,0.01,0.02c0,0.02,0,0.03,0,0.05
		c0.11-0.01,0.18,0.03,0.24,0.09c0.01-0.05,0.02-0.1,0.04-0.15C23.2,97.87,23.25,97.69,23.22,97.53z"/>
	<path class="st0" d="M23.39,97.32c-0.02,0.2-0.03,0.4-0.06,0.61c-0.01,0.03-0.01,0.05-0.02,0.08c0.01,0.02,0.02,0.03,0.03,0.05
		c0.06,0.05,0.13,0.08,0.21,0.08C23.27,97.94,23.41,97.62,23.39,97.32z"/>
	<path class="st0" d="M22.97,98.03c0.02-0.01,0.02-0.03,0.04-0.05c-0.02-0.04-0.03-0.09-0.04-0.13c-0.01,0.06-0.02,0.12-0.04,0.18
		C22.95,98.04,22.96,98.03,22.97,98.03z"/>
	<path class="st0" d="M23.23,98.24c0.04,0.02,0.09,0.05,0.13,0.07c-0.03-0.06-0.06-0.12-0.1-0.16
		C23.25,98.18,23.24,98.21,23.23,98.24z"/>
	<path class="st0" d="M22.93,98.07c0.03,0.02,0.05,0.03,0.08,0.05c0-0.02,0-0.04,0-0.06C22.99,98.06,22.96,98.06,22.93,98.07z"/>
	<path class="st0" d="M52.34,148.35c0.24,0.19,0.33,0.47,0.43,0.75C53.28,148.48,52.89,148.37,52.34,148.35z"/>
	<path class="st0" d="M48.62,144.46c0.01-0.02-0.01-0.07-0.03-0.08c-0.35-0.18-0.71-0.35-1.06-0.53c0.26,0.35,0.73,0.38,1.02,0.69h0
		C48.57,144.51,48.61,144.49,48.62,144.46z"/>
	<path class="st0" d="M53.26,38.14c-0.27,0.32-0.63,0.5-0.97,0.72C52.8,38.88,53.15,38.67,53.26,38.14z"/>
	<path class="st0" d="M167.09,90.4c-0.09-0.38,0.2-0.55,0.43-0.75C167.05,89.71,166.5,89.73,167.09,90.4z"/>
	<path class="st0" d="M149.52,53.28c0.12,0.29,0.31,0.53,0.61,0.66C150.09,53.57,149.83,53.4,149.52,53.28z"/>
	<path class="st0" d="M78.73,22.41c-0.26,0.35-0.65,0.47-1.03,0.6C78.15,23.01,78.7,23.16,78.73,22.41z"/>
	<path class="st0" d="M24.61,81.27c0.05,0.03,0.1,0.06,0.19,0.09c-0.02-0.26-0.09-0.5-0.18-0.74c0,0,0,0,0,0
		c-0.08,0.09-0.13,0.18-0.16,0.26C24.58,80.98,24.62,81.11,24.61,81.27z"/>
	<path class="st0" d="M143.62,45.31c-0.02-0.08-0.04-0.16-0.06-0.24C143.44,45.19,143.46,45.27,143.62,45.31z"/>
	<path class="st0" d="M23.34,88.74c0.06,0.07,0.14,0.15,0.25,0.23c-0.4-0.5,0.01-0.84,0.24-1.21c-0.12,0.11-0.27,0.22-0.4,0.33
		C23.39,88.31,23.36,88.52,23.34,88.74z"/>
	<path class="st0" d="M83.68,159.58c0.31-0.17,0.65-0.21,0.99-0.23C84.22,158.89,83.97,159.33,83.68,159.58z"/>
	<path class="st0" d="M31.38,125.8c-0.01-0.01-0.02-0.02-0.03-0.03C31.35,125.78,31.36,125.79,31.38,125.8z"/>
	<path class="st0" d="M31.52,125.88c-0.03-0.02-0.07-0.03-0.1-0.05c0.03,0.02,0.06,0.04,0.09,0.06
		C31.52,125.89,31.52,125.88,31.52,125.88z"/>
	<path class="st0" d="M31.38,125.8c0.02,0.01,0.03,0.02,0.05,0.03C31.41,125.82,31.39,125.81,31.38,125.8z"/>
	<path class="st0" d="M31.34,125.77c-0.18-0.17-0.29-0.39-0.36-0.64c-0.01,0.09-0.01,0.18-0.01,0.26
		C31.08,125.54,31.2,125.67,31.34,125.77z"/>
	<path class="st0" d="M31.52,125.88c0.04,0.02,0.08,0.04,0.13,0.06c0.06-0.05,0.11-0.09,0.17-0.14
		C31.65,125.74,31.55,125.77,31.52,125.88z"/>
	<path class="st0" d="M31.57,125.93c-0.02-0.01-0.04-0.03-0.06-0.04c-0.01,0.04-0.01,0.09,0,0.15h0c0.04-0.03,0.08-0.07,0.12-0.1
		C31.62,125.94,31.59,125.94,31.57,125.93z"/>
	<polygon class="st0" points="164.63,108.81 164.63,108.81 164.64,108.8 	"/>
	<path class="st0" d="M164.63,108.81c0.12-0.41,0.29-0.8,0.53-1.16C164.75,107.93,164.59,108.32,164.63,108.81z"/>
	<path class="st0" d="M32.97,122.43c0.14,0.46,0.61,0.76,0.65,1.27C33.9,123.02,33.3,122.8,32.97,122.43z"/>
	<path class="st0" d="M157.72,76.03c-0.13-0.16-0.02-0.41-0.2-0.55C157.5,75.69,157.51,75.9,157.72,76.03z"/>
	<path class="st0" d="M159.2,70.49c0.09,0.41,0.35,0.79,0.22,1.24C159.91,71.21,159.5,70.86,159.2,70.49z"/>
	<path class="st0" d="M101.18,33.86c0.49,0,0.98-0.01,1.47-0.01C102.17,33.71,101.67,33.65,101.18,33.86z"/>
	<path class="st0" d="M64.04,43.16c0.24-0.18,0.55-0.21,0.79-0.39C64.49,42.76,64.12,42.68,64.04,43.16z"/>
	<path class="st0" d="M128.99,36.23c-0.2-0.26-0.53-0.04-0.76-0.19C128.44,36.3,128.71,36.31,128.99,36.23z"/>
	<path class="st0" d="M157.73,66.93c0.17,0.32,0.25,0.69,0.46,0.99C158.18,67.51,158.07,67.16,157.73,66.93z"/>
	<path class="st0" d="M155.15,116.36c-0.02-0.03-0.06-0.04-0.06-0.09c-0.53,0.14-0.48,0.56-0.47,0.96
		C154.76,116.91,154.83,116.56,155.15,116.36z"/>
	<path class="st0" d="M155.15,116.36c0.05,0.06,0.13,0.09,0.19,0.13c-0.06-0.05-0.11-0.1-0.17-0.15
		C155.17,116.35,155.16,116.35,155.15,116.36z"/>
	<path class="st0" d="M154.32,67.19c-0.14-0.38-0.36-0.72-0.62-1.03C153.85,66.54,153.85,67,154.32,67.19z"/>
	<path class="st0" d="M123.18,34.62c0.27,0.13,0.53,0.26,0.79,0.39c-0.14-0.19-0.32-0.31-0.52-0.41
		C123.41,34.67,123.32,34.69,123.18,34.62z"/>
	<path class="st0" d="M123.45,34.6c0.04-0.05,0.05-0.13,0.04-0.24c0,0,0,0,0,0c-0.07,0.06-0.14,0.11-0.21,0.17
		C123.34,34.55,123.4,34.58,123.45,34.6z"/>
	<path class="st0" d="M164.37,92.39c0.04,0.05,0.07,0.11,0.07,0.16c-0.02-0.32-0.03-0.64-0.05-0.96
		C164.3,91.86,164.27,92.13,164.37,92.39z"/>
	<path class="st0" d="M164.64,108.8C164.64,108.81,164.63,108.81,164.64,108.8c-0.45,0.37-0.51,0.8-0.23,1.29
		C164.15,109.6,164.45,109.21,164.64,108.8z"/>
	<polygon class="st0" points="164.64,108.8 164.64,108.8 164.64,108.8 	"/>
	<path class="st0" d="M30.06,123.21c0.04,0.1,0.12,0.18,0.24,0.24c-0.24-0.14,0.02-0.5-0.28-0.62c-0.01,0.05-0.01,0.1-0.01,0.15
		C30.04,123.05,30.06,123.13,30.06,123.21z"/>
	<path class="st0" d="M80.05,159.56c0.26-0.07,0.51-0.18,0.79-0.16C80.5,159.08,80.25,159.2,80.05,159.56z"/>
	<path class="st0" d="M150.77,60.46c0.16,0.25,0.31,0.5,0.47,0.76C151.17,60.91,151.11,60.6,150.77,60.46z"/>
	<path class="st0" d="M151.83,60.9c0.01-0.09-0.02-0.15-0.1-0.2C151.63,60.83,151.66,60.9,151.83,60.9z"/>
	<path class="st0" d="M159.2,60.94c-0.15-0.22-0.08-0.52-0.24-0.73C158.96,60.47,158.85,60.78,159.2,60.94z"/>
	<path class="st0" d="M44.72,48.03c-0.21,0.13-0.39,0.27-0.5,0.5C44.57,48.55,44.69,48.33,44.72,48.03z"/>
	<path class="st0" d="M29.57,126.78c-0.06-0.06-0.13-0.11-0.24-0.14c0.32,0.21,0.09,0.69,0.43,0.89c-0.02-0.13-0.02-0.27-0.04-0.4
		C29.66,127.02,29.61,126.91,29.57,126.78z"/>
	<path class="st0" d="M35.3,126.8c0.11,0.28,0.42,0.42,0.51,0.72C36.01,127.03,35.63,126.93,35.3,126.8z"/>
	<path class="st0" d="M150.29,129.9c0.13,0.19,0.32,0.32,0.47,0.49C150.8,130.04,150.61,129.9,150.29,129.9z"/>
	<path class="st0" d="M150.05,130.4c0.07,0.05,0.15,0.11,0.22,0.16C150.22,130.47,150.15,130.42,150.05,130.4L150.05,130.4z"/>
	<path class="st0" d="M131.2,37.02c-0.5,0.26-0.89-0.06-1.31-0.24C130.25,37.25,130.66,37.46,131.2,37.02z"/>
	<path class="st0" d="M53.99,149.84c0.25,0.23,0.4,0.55,0.74,0.68C54.6,150.17,54.36,149.92,53.99,149.84z"/>
	<path class="st0" d="M37.49,136.2c0.13,0.09,0.28,0.15,0.46,0.19c-0.31-0.17-0.48-0.48-0.72-0.71c0.01,0.18,0.06,0.3,0.14,0.4
		C37.42,136.12,37.46,136.16,37.49,136.2z"/>
	<path class="st0" d="M35.36,136.8c-0.07,0.01-0.16,0.03-0.27,0.07c0.57-0.06,0.46,0.49,0.68,0.76c-0.07-0.1-0.07-0.27-0.07-0.43
		C35.59,137.06,35.48,136.93,35.36,136.8z"/>
	<path class="st0" d="M130.18,143.81c0.19-0.24,0.54-0.24,0.73-0.47C130.59,143.38,130.15,143.23,130.18,143.81z"/>
	<path class="st0" d="M36.01,137.96c-0.05-0.06-0.11-0.11-0.18-0.16c0.07,0.29,0.14,0.6,0.46,0.73c-0.05-0.1-0.09-0.21-0.13-0.32
		C36.08,138.15,36.03,138.07,36.01,137.96z"/>
	<path class="st0" d="M41.38,141.43c0.08,0.06,0.15,0.12,0.21,0.19C41.56,141.53,41.5,141.45,41.38,141.43z"/>
	<path class="st0" d="M41.38,141.43c-0.02-0.01-0.03-0.03-0.04-0.04c0,0.01,0.01,0.02,0.01,0.03
		C41.36,141.42,41.37,141.43,41.38,141.43z"/>
	<path class="st0" d="M41.59,141.62c0.02,0.07,0.03,0.16,0.04,0.24c0.04,0.02,0.08,0.05,0.14,0.05
		C41.72,141.81,41.66,141.71,41.59,141.62z"/>
	<path class="st0" d="M40.31,143.15c-0.11-0.06-0.23-0.11-0.4-0.12c0.19,0.3,0.65,0.35,0.71,0.77c0.01-0.19-0.04-0.33-0.1-0.45
		C40.43,143.3,40.37,143.23,40.31,143.15z"/>
	<path class="st0" d="M132.86,141.96c0.14-0.26,0.29-0.49,0.65-0.32C132.98,141.1,132.99,141.66,132.86,141.96z"/>
	<path class="st0" d="M47.04,143.11c0.24,0.19,0.26,0.52,0.49,0.71C47.54,143.47,47.37,143.23,47.04,143.11z"/>
	<path class="st0" d="M41.83,136.84c0.1,0.37,0.55,0.41,0.69,0.75C42.48,137.16,42.21,136.95,41.83,136.84z"/>
	<path class="st0" d="M43.11,145.89c-0.14-0.04-0.31-0.06-0.36-0.16c0.01,0.32,0.67,0.23,0.45,0.69c0.06-0.08,0.1-0.14,0.13-0.2
		C43.25,146.12,43.18,146,43.11,145.89z"/>
	<path class="st0" d="M160.81,95.93c-0.19-0.33-0.14-0.66,0.03-0.99C160.74,95.27,160.1,95.58,160.81,95.93z"/>
	<path class="st0" d="M26.21,92.78c-0.19,0.25,0.23,0.48,0.01,0.73C26.7,93.26,26.27,93.02,26.21,92.78z"/>
	<path class="st0" d="M82.27,35.53c0.2,0.02,0.35-0.08,0.49-0.21C82.54,35.24,82.36,35.29,82.27,35.53z"/>
	<path class="st0" d="M27.66,122.09c-0.02-0.09-0.02-0.19-0.02-0.28c-0.03-0.09-0.1-0.17-0.24-0.22c0.34,0.23-0.03,0.67,0.27,0.91
		C27.62,122.37,27.65,122.23,27.66,122.09z"/>
	<path class="st0" d="M151.31,61.88c0.07-0.01,0.11,0.01,0.16,0.01c-0.05-0.08-0.1-0.16-0.16-0.25
		C151.27,61.73,151.27,61.8,151.31,61.88z"/>
	<path class="st0" d="M151.47,61.9c0,0.01,0.01,0.01,0.01,0.02c0.02,0.06,0.06,0.12,0.09,0.17c0.13,0.1,0.26,0.21,0.39,0.31
		C151.83,62.2,151.73,61.94,151.47,61.9z"/>
	<path class="st0" d="M95.69,20.91c0.24,0.07,0.48,0.15,0.72,0.22C96.19,20.99,95.98,20.81,95.69,20.91z"/>
	<path class="st0" d="M30.03,115.13c0.39,0.24-0.17,0.59,0.1,0.85C30.23,115.68,30.43,115.37,30.03,115.13z"/>
	<path class="st0" d="M32.47,121.76c0.12,0.2,0.31,0.33,0.46,0.5C33.02,121.86,32.71,121.84,32.47,121.76z"/>
	<path class="st0" d="M24.67,112.02c-0.04-0.19-0.03-0.41-0.12-0.58C24.57,111.64,24.58,111.85,24.67,112.02z"/>
	<path class="st0" d="M24.55,111.44c-0.01-0.05-0.02-0.11-0.03-0.16c-0.06-0.02-0.14-0.03-0.23-0.03
		C24.42,111.29,24.5,111.36,24.55,111.44z"/>
	<path class="st0" d="M24.67,112.02c0.02,0.07,0.04,0.15,0.09,0.21c-0.01-0.04-0.02-0.08-0.02-0.13
		C24.72,112.07,24.69,112.05,24.67,112.02z"/>
	<polygon class="st0" points="24.05,85.35 24.05,85.36 24.05,85.35 	"/>
	<path class="st0" d="M24.05,85.35c-0.06-0.17,0.05-0.43,0-0.6c-0.04,0.15-0.07,0.3-0.08,0.46c-0.04,0.09-0.07,0.18-0.1,0.27
		C23.92,85.46,23.98,85.42,24.05,85.35z"/>
	<path class="st0" d="M134.8,91.88c-2.18-1.76-5.04-2.04-7.59-2.78c-2.6-0.75-5.05-1.98-7.73-2.41c-1.02-0.17-1.79-1.08-2.9-0.88
		c-0.32-0.15-0.77-0.15-0.79-0.66l0-0.01c-0.67,0-1.39,0.15-1.87-0.53c-0.53,0.61-0.84,0.07-1.19-0.24
		c-0.02-0.14-0.05-0.28-0.07-0.42c-3.01-1.52-6.2-2.66-9.16-4.31c-1.74-0.97-3.51-1.9-5.35-2.66c-0.98-0.4-1.73-1.18-2.74-1.46
		c-1.18-0.34-2.27-0.89-3.31-1.52c-0.93-0.56-1.86-1.09-2.89-1.47c-1.86-0.7-3.6-1.72-5.38-2.57c-1.65-0.79-3.33-1.32-5.02-1.87
		c-0.56-0.18-1.08,0.11-1.38,0.67c-0.27,0.51-0.31,1.12,0.11,1.44c0.88,0.67,1.76,1.49,3.03,1.29c0.49,0.1,0.45,0.54,0.54,0.88
		c3,1.05,5.49,3.07,8.37,4.38c3.01,1.37,5.89,3.04,8.86,4.52c0.34,0,0.57,0.18,0.74,0.46c1.72,0.76,3.48,1.34,5.04,2.51
		c1.39,1.05,3.29,1.26,4.84,2.18c0.92,0.55,1.96,0.88,2.96,1.29c1.6,0.66,3.21,1.32,4.82,1.97c0.63,0.23,1.41-0.15,1.94,0.5
		c1.78,1,3.79,1.45,5.65,2.27c0.93,0.41,2.08,0.18,2.99,0.8c0.24-0.13,0.49-0.53,0.7,0.04c1.25,0.51,2.49,1.03,3.74,1.52
		c0.69,0.27,1.4,0.49,1.78,1.18c-0.52,0.3-0.99,0.57-1.45,0.84c-0.45,0.55-0.92,1.06-1.66,1.2c-0.46,0.02-0.65,0.65-1.18,0.51
		c-0.08,0.02-0.13,0.06-0.19,0.1c-0.21,0.26,0.11,0.91-0.53,0.84c-0.23,0.11-0.46,0.22-0.69,0.33l0,0c0,0,0,0,0,0
		c-0.47,0.26-0.89,0.65-1.48,0.63c-0.51-0.08-0.85,0.35-1.01,0.63c-0.34,0.59-0.84,1-1.38,1.24c-1.54,0.69-2.84,1.87-4.54,2.21
		c-0.18,0.26-0.33,0.54-0.72,0.47c-1.26,0.89-2.4,2.03-4.07,2.16c-0.4,0.42-0.91,0.59-1.46,0.7c-0.61-0.07-0.75,0.56-1.17,0.77
		c-0.09,0.23-0.22,0.41-0.5,0.42c-1.1-0.25-1.81,0.63-2.7,0.95c-2.17,0.79-4.34,1.58-6.39,2.67c-0.56,0.71-1.47,0.75-2.18,1.18
		c0,0,0,0,0,0c0,0,0,0,0,0c-0.34,0.07-0.68,0.13-1.02,0.2c-1.51,0.49-3.1,0.65-4.58,1.34c-0.61,0.29-1.25,0.81-2.05,0.61
		c-0.11,0.35-0.36,0.5-0.72,0.51c-0.23,0.35-0.47,0.19-0.71,0l-0.01-0.01c-0.24,0.54-0.48,1.07-1.24,0.9
		c-0.23,0.02-0.45,0.03-0.68,0.05c-1.47,1.38-3.33,1.82-5.23,2.18c0,0,0,0,0,0c0,0,0,0,0,0c-0.55-0.11-0.7,0.38-0.99,0.65
		c-0.6,0.18-0.72-0.18-0.75-0.65c-0.38-2.08-0.76-4.15-1.15-6.23c-0.16-0.24-0.47-0.46-0.07-0.74c0.14-0.5-0.77-0.61-0.45-1.18
		c0-0.56-0.17-1.13,0-1.69c-0.42-2.46-1.11-4.87-1.25-7.38c-0.89-0.21-0.08-0.68-0.16-1.02c-0.09-1.94-0.49-3.83-0.98-5.7
		c-0.44-1.36-0.7-2.74-0.46-4.18c0.02-1.39,0.42-2.81-0.14-4.17c-0.17-0.43-0.1-0.84-0.13-1.26c-0.71-0.19-0.26-0.63-0.21-0.99
		c0.18-0.42-0.23-0.73-0.22-1.11c0.06-0.26,0.13-0.52,0.19-0.77c-0.14-0.31,0.21-0.72-0.2-0.98c-0.56-0.4-0.24-0.95-0.26-1.44
		c0.01-0.82,0.23-1.7,0-2.44c-0.64-2.08-0.38-4.25-0.78-6.35c-0.06-0.32-0.07-0.79-0.1-1.17c-0.09-1.11-0.41-2.22-0.38-3.32
		c0.02-0.94-0.12-1.49-1.15-1.51c-0.24,0.39-0.55,0.71-0.96,0.93c-0.04,0.96-0.53,1.91-0.02,2.87c0.38,0.15,0.45,0.4,0.24,0.74
		c0.02,0.06,0.01,0.12-0.02,0.18c-0.11,0.25-0.33,0.47-0.23,0.79c-0.23,1.15-0.11,2.33-0.04,3.45c0.16,2.46-0.01,4.94,0.27,7.38
		c0.16,1.37-0.18,2.78,0.41,4.14c0.45,1.02,0.16,2.19,0.24,3.28c0.06,0.78-0.11,1.67-0.09,2.52c0.4,0.63,0.25,1.3,0.16,1.97
		c0.54,1.7,0.37,3.5,0.82,5.25c0.25,0.97,0.28,2.17,0.2,3.27c-0.07,1.06,0.51,1.97,0.58,3.05c0.09,1.45,0.29,2.94,0.45,4.41
		c0.09,0.85,0.65,1.69,0.59,2.5c-0.14,1.8,0.41,3.5,0.46,5.27c0.04,1.62,0.57,3.25,0.44,4.87c-0.07,0.91,0.28,1.38,0.83,1.87
		c0.75,0.68,3.4,1.09,4.12,0.48c1.52-1.29,3.35-1.86,5.15-2.54c0.03-0.19,0.06-0.38,0.08-0.58c-0.01-0.02-0.02-0.04-0.04-0.06
		c0.02,0.01,0.03,0.03,0.04,0.04c0.01-0.06,0.02-0.12,0.03-0.19c0.24,0.11,0.03,0.79,0.59,0.46c0.15-0.46,0.45-0.24,0.72-0.16
		c0.6-0.4,1.29-0.56,1.98-0.71c0.67-0.14,1.37-0.29,1.91-0.73c0.88-0.7,1.85-0.97,2.95-1.21c1.16-0.25,2.32-0.7,3.49-1.05
		c0.95-0.29,1.77-0.86,2.65-1.28c0.05-0.14-0.45-0.42,0.09-0.43c0.29,0,0.58,0.12,0.87,0.19c0.16-0.02,0.34,0.01,0.47-0.06
		c2.16-1.31,4.56-2.1,6.86-3.11c1.67-0.74,3.31-1.52,4.97-2.28c1.19-0.54,2.36-1.15,3.53-1.72c0.61-0.29,1.71-0.14,1.91-1.18
		c0.47-0.84,1.36-1.07,2.13-1.47l0,0c0.2,0-0.39-0.63,0.22-0.28c0.08,0.05,0.12,0.24,0.27,0.28c0.11-0.15,0.2-0.36,0.35-0.44
		c1.39-0.77,3.06-1.1,4.05-2.53c0.08-0.12,0.25-0.23,0.39-0.24c1.33-0.12,2.2-1.02,3.15-1.79c0.13-0.48,0.51-0.51,0.91-0.53
		c0.75-0.22,1.27-0.81,1.94-1.18c-0.05-0.51,0.16-0.78,0.7-0.73c0.34-0.58,0.99-0.27,1.45-0.51c-0.11-0.09-0.32-0.22-0.3-0.27
		c0.1-0.27,0.34-0.21,0.56-0.16c1.23-0.63,1.62-1.48,1.09-3.4C137.54,93.76,136.03,92.87,134.8,91.88z M75.46,88.84
		c-0.04-0.3-0.11-0.58,0.14-0.8c0.04-0.03,0.28,0.07,0.28,0.11C75.87,88.42,75.78,88.67,75.46,88.84z"/>
	<path class="st0" d="M41.96,57.45c0.03-0.04,0.07-0.06,0.1-0.1c-0.08,0-0.16,0.01-0.26,0c-0.21,0.08-0.28,0.26-0.29,0.46
		c0.04,0.02,0.09,0.05,0.13,0.07C41.75,57.74,41.85,57.59,41.96,57.45z"/>
	<path class="st0" d="M39.09,60.31c0.55-0.81,1.47-1.23,2.08-1.97c0.07-0.07,0.15-0.14,0.22-0.21c-0.09-0.03-0.18-0.06-0.27-0.05
		c-0.73,0.71-1.79,1.07-2.22,2.1c0.05,0.06,0.1,0.11,0.16,0.17C39.06,60.33,39.08,60.32,39.09,60.31z"/>
	<path class="st0" d="M42.37,58.6c-0.77,0.35-1.21,1.17-2.02,1.47c-0.12,0.07-0.24,0.16-0.34,0.25c0.13-0.03,0.26-0.05,0.39-0.08
		c0.98-0.09,1.32-1.08,2.1-1.45c0.07-0.18,0.15-0.33,0.25-0.48C42.63,58.41,42.5,58.5,42.37,58.6z"/>
	<path class="st0" d="M42.74,56.81c0.34-0.22,0.82-0.2,1.1-0.54c-0.03-0.04-0.07-0.08-0.1-0.12c-0.39,0.21-0.94,0.06-1.21,0.54
		c0.02,0.11,0,0.19-0.01,0.27C42.59,56.9,42.66,56.85,42.74,56.81z"/>
	<path class="st0" d="M44.58,56.7c0.01-0.03,0.03-0.05,0.04-0.08c0,0,0,0,0,0c-0.24-0.13-0.43-0.38-0.71-0.45
		c-0.02,0.04-0.06,0.06-0.08,0.09C44.03,56.51,44.26,56.68,44.58,56.7z"/>
	<path class="st0" d="M58.07,37.75c-0.62,0.33-1.27,0.61-1.88,0.95c0.91,0.33,1.35-0.67,2.11-0.77c-0.07-0.07-0.12-0.14-0.18-0.21
		C58.1,37.73,58.08,37.74,58.07,37.75z"/>
	<path class="st0" d="M54.98,39.87c0.67-0.09,1.15-0.37,1.13-1.12c-0.41,0.23-0.81,0.5-1.16,0.84
		C54.96,39.67,54.97,39.77,54.98,39.87z"/>
	<path class="st0" d="M54.41,39.03c1.14-0.67,2.25-1.42,3.44-2.02c-0.01-0.09-0.02-0.18-0.01-0.27c-1.46,0.64-2.76,1.55-4.12,2.38
		C53.98,39.04,54.22,39,54.41,39.03z"/>
	<path class="st0" d="M54.41,39.03c-0.08,0.05-0.16,0.1-0.24,0.14c0.28,0.07,0.5,0.25,0.67,0.5c0.03-0.03,0.07-0.05,0.1-0.08
		C54.87,39.23,54.68,39.06,54.41,39.03z"/>
	<path class="st0" d="M58.29,37.93c0.04-0.12,0.09-0.31,0.13-0.4c-0.06,0.04-0.13,0.08-0.19,0.12
		C58.25,37.75,58.26,37.84,58.29,37.93z"/>
	<path class="st0" d="M58.5,37.49c1.18,0.12,1.94-0.76,2.88-1.21c-0.06-0.06-0.14-0.1-0.23-0.14C60.27,36.61,59.35,36.98,58.5,37.49
		z"/>
	<path class="st0" d="M60.75,35.51c0.08-0.03,0.15-0.06,0.23-0.09c-0.09-0.04-0.19-0.08-0.28-0.12c-1.11,0.16-1.85,1.07-2.87,1.44
		c0.07,0.06,0.12,0.12,0.16,0.19C58.93,36.48,59.79,35.89,60.75,35.51z"/>
	<path class="st0" d="M57.85,37.01c0.03,0.26,0.11,0.5,0.26,0.71c0.04-0.03,0.08-0.05,0.11-0.07c-0.04-0.25-0.08-0.51-0.23-0.72
		c-0.01,0-0.02,0.01-0.03,0.02C57.93,36.97,57.89,36.99,57.85,37.01z"/>
	<path class="st0" d="M70.55,33.99c-0.06,0-0.13-0.01-0.19-0.01c-1.09-0.02-2.17,0.05-3.22,0.41c-0.13,0.05-0.26,0.08-0.39,0.1
		c0.14,0.04,0.29,0.07,0.43,0.11c1.1-0.14,2.21-0.28,3.31-0.42l0.03-0.07C70.55,34.06,70.55,34.03,70.55,33.99z"/>
	<path class="st0" d="M66.42,33.89c1.1-0.12,2.17-0.38,3.27-0.52c0.06-0.01,0.11-0.01,0.16-0.01c-0.02-0.05-0.04-0.1-0.02-0.18
		c-1.24-0.18-2.38,0.42-3.59,0.48c0,0.08,0,0.17,0,0.25C66.29,33.9,66.35,33.89,66.42,33.89z"/>
	<path class="st0" d="M65.94,34.52c-1-0.03-1.79,0.65-2.74,0.81c-0.09,0.03-0.17,0.06-0.26,0.09c0.07,0.08,0.13,0.15,0.2,0.23
		c1.05,0.06,1.76-1,2.84-0.83c0.05-0.1,0.1-0.2,0.15-0.3C66.07,34.52,66.01,34.52,65.94,34.52z"/>
	<path class="st0" d="M62.75,34.74c0.6-0.41,1.37-0.2,1.98-0.56c0.03-0.19,0.1-0.26,0.19-0.27c-0.04-0.03-0.08-0.05-0.13-0.04
		c-0.61,0.59-1.65-0.16-2.17,0.7c0.02,0.07,0.04,0.13,0.06,0.2C62.71,34.76,62.73,34.75,62.75,34.74z"/>
	<path class="st0" d="M65.62,33.97c-0.02-0.03-0.05-0.05-0.07-0.08l-0.05-0.03c-0.02,0.05-0.04,0.09-0.06,0.12
		C65.5,33.98,65.56,33.98,65.62,33.97z"/>
	<path class="st0" d="M66.07,34.2c0.02,0.08,0.05,0.16,0.1,0.23c0.02-0.03,0.03-0.06,0.05-0.09l0,0v0c0-0.07,0-0.14,0-0.22
		C66.17,34.18,66.12,34.2,66.07,34.2z"/>
	<path class="st0" d="M34.99,65.58c-0.03,0.05-0.05,0.1-0.08,0.14c0.07,0.01,0.13,0.01,0.2,0.02c0.9-0.85,1.92-1.58,2.58-2.66
		c-0.1,0.02-0.2,0.03-0.3,0.05C36.68,64.04,35.64,64.62,34.99,65.58z"/>
	<path class="st0" d="M35.77,64.23c0.08-0.1,0.16-0.2,0.23-0.31c0.51-0.63,0.94-1.33,1.53-1.9c-0.03-0.05-0.05-0.09-0.1-0.15
		c-0.73,0.48-1.14,1.24-1.64,1.91C35.83,63.95,35.81,64.1,35.77,64.23z"/>
	<path class="st0" d="M37.65,61.89c0.38-0.51,0.83-0.96,1.28-1.41c-0.08-0.08-0.11-0.17-0.03-0.3c-0.53,0.53-1.22,0.93-1.46,1.7
		C37.53,61.87,37.59,61.87,37.65,61.89z"/>
	<path class="st0" d="M38.96,61.51c-0.53,0.42-0.9,1-1.4,1.45c0.03,0.04,0.07,0.08,0.14,0.13c0.62-0.36,1.03-0.93,1.46-1.47
		c-0.01-0.08-0.03-0.16-0.05-0.23C39.05,61.42,39.01,61.47,38.96,61.51z"/>
	<path class="st0" d="M39.04,60.56c0.01,0,0.03,0,0.04,0.01c0.02-0.04,0.05-0.08,0.08-0.11c-0.03-0.04-0.07-0.08-0.1-0.11
		c-0.04,0.04-0.09,0.09-0.13,0.13C38.96,60.51,38.99,60.54,39.04,60.56z"/>
	<path class="st0" d="M37.72,62.44c0.09-0.22,0.21-0.49-0.07-0.55c-0.03,0.03-0.06,0.06-0.08,0.1c-0.01,0.01-0.02,0.03-0.04,0.04
		c0.29,0.53-0.8,0.6-0.5,1.17c0.11-0.02,0.24-0.04,0.36-0.06c0.04-0.06,0.1-0.1,0.14-0.16c0.01,0,0.01-0.01,0.02-0.02
		C37.44,62.78,37.65,62.62,37.72,62.44z"/>
	<path class="st0" d="M89.22,117.46c-1.76,0.64-3.51,1.28-5.27,1.92c0.01,0.04,0.01,0.07,0.02,0.11
		C85.82,119.07,87.6,118.46,89.22,117.46z"/>
	<path class="st0" d="M78.22,95.7c0.5-1.46,0.04-2.82-0.46-4.18C77.79,92.93,78.31,94.28,78.22,95.7z"/>
	<path class="st0" d="M61.74,35.83c-0.05,0.02-0.09,0.05-0.13,0.07c0.03,0.06,0.04,0.13,0.05,0.2c0.52-0.09,1.04-0.18,1.49-0.47
		c-0.11-0.05-0.22-0.11-0.32-0.19C62.46,35.58,62.09,35.69,61.74,35.83z"/>
	<path class="st0" d="M61.2,35.34c0.31-0.11,0.63-0.21,0.95-0.33c0.05-0.02,0.09-0.04,0.14-0.06c-0.06-0.06-0.12-0.12-0.2-0.15
		C61.6,34.9,61.12,35,60.71,35.3C60.9,35.17,61.06,35.17,61.2,35.34z"/>
	<path class="st0" d="M61.25,35.39c-0.02-0.02-0.03-0.04-0.05-0.05c-0.07,0.03-0.14,0.05-0.22,0.08c0.07,0.03,0.14,0.06,0.21,0.09
		c0.02,0.01,0.05,0.03,0.07,0.04C61.26,35.5,61.24,35.45,61.25,35.39z"/>
	<path class="st0" d="M62.63,35.26c0.02,0.04,0.04,0.07,0.07,0.11c0.03,0.04,0.08,0.06,0.12,0.09c0.04-0.01,0.08-0.03,0.12-0.04
		c-0.03-0.04-0.06-0.07-0.1-0.11C62.76,35.31,62.7,35.29,62.63,35.26z"/>
	<path class="st0" d="M100.1,113.68c0.63-0.63,1.52-0.69,2.29-1.01c-0.72-0.01-1.41,0.16-2.12,0.26c-0.56,0.08-0.22,0.47-0.35,0.68
		c0.04,0.03,0.07,0.06,0.11,0.09C100.06,113.7,100.08,113.69,100.1,113.68z"/>
	<path class="st0" d="M75.34,35.24c-0.52-0.17-1.08-0.19-1.59-0.39c-0.03-0.03-0.06-0.05-0.1-0.06c0,0.08,0.01,0.15,0.01,0.23
		c0.5,0.25,0.99,0.52,1.58,0.32C75.28,35.31,75.31,35.28,75.34,35.24C75.34,35.25,75.34,35.24,75.34,35.24z"/>
	<path class="st0" d="M73.85,34.29c0.46,0.41,1.02,0.64,1.59,0.87c0.05-0.05,0.1-0.09,0.15-0.14c-0.56-0.31-1.12-0.62-1.69-0.93
		c-0.05,0.05-0.11,0.09-0.16,0.14C73.78,34.25,73.81,34.27,73.85,34.29z"/>
	<path class="st0" d="M123.15,107.34c-0.64,0.51-1.4,0.82-2.06,1.29c0.82-0.22,1.57-0.57,2.16-1.2c-0.01-0.06-0.02-0.12-0.02-0.19
		C123.2,107.26,123.17,107.28,123.15,107.34z"/>
	<path class="st0" d="M118.66,90.2c-0.64-0.18-1.35-0.09-1.94-0.5C117.3,90.16,117.84,90.74,118.66,90.2z"/>
	<path class="st0" d="M42.52,58.79c0.63-0.39,1.33-0.7,1.68-1.42c0-0.03,0-0.06,0-0.08C43.63,57.78,42.95,58.15,42.52,58.79z"/>
	<path class="st0" d="M42.76,58.31c0.47-0.34,0.94-0.67,1.39-1.03c0.01-0.01,0.03-0.02,0.04-0.02c0-0.05,0-0.11,0-0.16
		C43.62,57.42,43.11,57.78,42.76,58.31z"/>
	<path class="st0" d="M130.41,98.04c0.54-0.42,1.13-0.77,1.66-1.2C131.34,97,130.73,97.32,130.41,98.04z"/>
	<path class="st0" d="M71.88,34.22c-0.33-0.17-0.68-0.2-1.03-0.22c-0.06,0.05-0.15,0.08-0.27,0.09c-0.03,0.03-0.05,0.06-0.09,0.08
		c0.29,0.55,0.98-0.27,1.24,0.36c0.06-0.1,0.12-0.21,0.17-0.31C71.9,34.22,71.89,34.23,71.88,34.22z"/>
	<path class="st0" d="M71.92,34.2c0.02-0.03,0.03-0.06,0.05-0.09c-0.33-0.22-0.3-0.93-0.95-0.7c0,0.08,0,0.17-0.01,0.24
		C71.37,33.75,71.57,34.11,71.92,34.2z"/>
	<path class="st0" d="M34.69,66.14c-0.15,0.32-0.37,0.6-0.56,0.89c-0.04,0.02-0.06,0.06-0.08,0.09c0.08,0.03,0.18,0.03,0.28,0.01
		c0.21-0.29,0.58-0.48,0.56-0.91c0,0,0,0,0,0C34.82,66.19,34.76,66.16,34.69,66.14C34.7,66.13,34.69,66.13,34.69,66.14z"/>
	<path class="st0" d="M33.98,67.08c0.02-0.03,0.04-0.05,0.05-0.08c0.16-0.32,0.3-0.64,0.47-0.96c0,0,0-0.01,0.01-0.01
		c-0.04-0.02-0.09-0.04-0.13-0.07c-0.3,0.24-0.49,0.54-0.54,0.92C33.87,66.99,33.92,67.05,33.98,67.08z"/>
	<path class="st0" d="M80.84,111.7c0.08,0.02,0.16,0.03,0.26,0.02c-0.08-0.66-0.02-1.36-0.49-1.92c0.16,0.45,0.22,0.92,0.23,1.39
		C80.78,111.37,80.8,111.53,80.84,111.7z"/>
	<path class="st0" d="M72.89,34.02c-0.29-0.12-0.52,0.09-0.77,0.17c-0.04,0.02-0.07,0.03-0.11,0.03c0.03,0.17-0.12,0.24-0.27,0.31
		c0.54,0.32,0.75-0.38,1.19-0.38c0-0.03,0-0.06-0.01-0.08C72.91,34.06,72.91,34.03,72.89,34.02z"/>
	<path class="st0" d="M72.12,34.19c0.25-0.12,0.41-0.48,0.77-0.33c0.01,0,0.01,0,0.02,0.01c0-0.07-0.01-0.14-0.01-0.2
		c-0.65-0.57-0.69,0.14-0.92,0.44c0.02,0.04,0.02,0.07,0.03,0.1C72.04,34.2,72.08,34.21,72.12,34.19z"/>
	<path class="st0" d="M71.91,34.22c0.01,0,0.03,0,0.04-0.01c-0.01,0-0.02-0.01-0.03-0.01C71.92,34.21,71.92,34.21,71.91,34.22z"/>
	<path class="st0" d="M71.95,34.21c0.01,0,0.02,0.01,0.04,0.01c0.01,0,0.01,0,0.01,0c0-0.01,0-0.01,0-0.02
		C71.99,34.21,71.97,34.21,71.95,34.21z"/>
	<path class="st0" d="M44.63,57.06c-0.07,0.3-0.24,0.21-0.37,0.2c0,0.01,0,0.01,0,0.02c-0.02,0.06-0.04,0.09-0.07,0.09
		c0.66-0.06,0.95-0.71,1.51-0.94c-0.26,0-0.51,0.06-0.74,0.16C44.81,56.7,44.68,56.85,44.63,57.06z"/>
	<path class="st0" d="M44.67,56.72c0.09-0.06,0.19-0.09,0.29-0.13c0.15-0.12,0.33-0.2,0.51-0.27c-0.33-0.14-0.63-0.12-0.85,0.31
		c0,0,0,0,0,0c0.02,0.03,0.01,0.06,0.02,0.09C44.66,56.71,44.66,56.72,44.67,56.72z"/>
	<path class="st0" d="M44.19,57.11c0.05,0.04,0.07,0.08,0.07,0.12c0,0,0.01-0.01,0.01-0.01c0.21-0.12,0.47-0.21,0.37-0.51
		c-0.02,0-0.04-0.01-0.06-0.01C44.51,56.89,44.38,57.02,44.19,57.11z"/>
	<path class="st0" d="M44.23,57.26c0.01,0,0.02,0,0.04,0c0-0.01,0-0.02,0-0.03C44.25,57.24,44.24,57.25,44.23,57.26z"/>
	<path class="st0" d="M44.2,57.28c0.01-0.01,0.02-0.02,0.03-0.03c-0.01,0-0.02,0-0.03,0.01C44.2,57.27,44.2,57.28,44.2,57.28z"/>
	<path class="st0" d="M34.83,65.52c0.12-0.68,0.88-1.03,0.96-1.73c-0.4,0.57-0.79,1.13-1.19,1.7c0.05,0.05,0.1,0.1,0.16,0.15
		C34.79,65.59,34.8,65.55,34.83,65.52z"/>
	<path class="st0" d="M34.85,65.72C34.85,65.72,34.85,65.72,34.85,65.72c0.11-0.59,0.76-0.92,0.92-1.49
		c-0.32,0.42-0.65,0.84-0.94,1.28c0,0,0,0,0,0c-0.01,0.05-0.01,0.1-0.02,0.16C34.83,65.69,34.84,65.7,34.85,65.72z"/>
	<path class="st0" d="M89.9,117.41c0.43-0.28,0.8-0.64,1.24-0.9C90.46,116.45,90.11,116.82,89.9,117.41z"/>
	<path class="st0" d="M127.55,99.5c-0.32,0.42-1.09,0.27-1.21,0.95c0.41-0.33,0.88-0.56,1.34-0.8
		C127.64,99.6,127.59,99.55,127.55,99.5z"/>
	<path class="st0" d="M39.3,61.2c-0.01,0.14-0.05,0.27-0.14,0.41c0.42-0.16,0.71-0.42,0.75-0.9c-0.06-0.01-0.12-0.02-0.18-0.03
		C39.6,60.87,39.45,61.04,39.3,61.2z"/>
	<path class="st0" d="M39.36,60.61c0.06,0,0.11-0.01,0.16-0.02c-0.05-0.03-0.09-0.08-0.12-0.14c0,0,0,0,0,0l0,0
		c-0.08,0-0.16,0-0.24,0.01c0.02,0.04,0.03,0.09,0.05,0.13C39.26,60.6,39.31,60.61,39.36,60.61z"/>
	<path class="st0" d="M39.2,60.59c-0.04-0.01-0.08-0.01-0.13-0.02c-0.16,0.27-0.06,0.54,0.02,0.81c0.07-0.06,0.14-0.11,0.2-0.18
		C39.32,61,39.28,60.79,39.2,60.59z"/>
	<path class="st0" d="M75.43,35.37c-0.05,0.01-0.11,0-0.19-0.02c-0.08,0.49,0.24,0.71,0.6,0.9c0.04-0.07,0.07-0.14,0.11-0.21
		C75.74,35.83,75.61,35.58,75.43,35.37z"/>
	<path class="st0" d="M75.55,35.29c0.17,0.17,0.29,0.38,0.41,0.58c0.01,0.02,0.03,0.02,0.04,0.04c0.03-0.06,0.06-0.12,0.09-0.18
		c-0.03-0.34-0.13-0.62-0.51-0.7C75.6,35.15,75.59,35.23,75.55,35.29z"/>
	<path class="st0" d="M75.55,35.29c-0.04-0.04-0.06-0.09-0.11-0.12c0,0,0,0-0.01,0c-0.03,0.03-0.06,0.05-0.09,0.08
		c0.04,0.03,0.06,0.08,0.09,0.12C75.49,35.36,75.53,35.33,75.55,35.29z"/>
	<path class="st0" d="M50.66,42.99c0.46-0.24,1.08-0.28,1.16-0.97C51.53,42.46,50.9,42.5,50.66,42.99z"/>
	<path class="st0" d="M51.49,42.15c-0.34,0.1-0.7,0.17-0.81,0.56C51,42.58,51.28,42.4,51.49,42.15z"/>
	<path class="st0" d="M74.17,92.28c-0.15,0.67-0.33,1.35,0.16,1.97C74.07,93.61,74.35,92.92,74.17,92.28z"/>
	<path class="st0" d="M61.33,36.05c0.02,0.08,0.04,0.15,0.05,0.23c0.09-0.06,0.18-0.12,0.27-0.17c-0.07-0.04-0.14-0.08-0.2-0.12
		C61.41,36.01,61.37,36.03,61.33,36.05z"/>
	<path class="st0" d="M61.19,35.51c-0.16,0.06-0.46-0.05-0.46,0.23c0,0.27,0.21,0.33,0.41,0.41c0.05-0.03,0.1-0.05,0.15-0.07
		c0.01-0.01,0.02-0.01,0.04-0.02c-0.02-0.09-0.03-0.17-0.05-0.26C61.23,35.71,61.2,35.62,61.19,35.51z"/>
	<path class="st0" d="M61.26,35.55c0,0.08,0.01,0.16,0.02,0.24c0.04,0.07,0.1,0.14,0.17,0.19c0.05-0.03,0.1-0.06,0.15-0.08
		C61.54,35.75,61.41,35.64,61.26,35.55z"/>
	<path class="st0" d="M73.06,34.27c-0.02-0.06-0.07-0.11-0.11-0.16c-0.01,0.01-0.01,0.03-0.02,0.04l-0.07,0.06l0.04,0.09
		c0.05,0,0.11,0,0.16,0C73.06,34.29,73.06,34.28,73.06,34.27z"/>
	<path class="st0" d="M73.03,33.91c0.2,0.06,0.39,0.14,0.57,0.24c0.07-0.07,0.16-0.11,0.3-0.06c-0.28-0.28-0.6-0.45-1-0.43
		C72.99,33.75,73.03,33.83,73.03,33.91z"/>
	<path class="st0" d="M73.64,34.32c0.03-0.03,0.07-0.06,0.1-0.09c-0.05-0.03-0.09-0.05-0.14-0.08c-0.04,0.04-0.08,0.1-0.11,0.16
		C73.54,34.32,73.59,34.32,73.64,34.32z"/>
	<path class="st0" d="M72.91,33.87c0,0.07,0.01,0.13,0.01,0.2c0.01,0.01,0.02,0.03,0.03,0.04c0.04-0.07,0.07-0.14,0.07-0.2
		C72.99,33.9,72.95,33.88,72.91,33.87z"/>
	<path class="st0" d="M113.92,84.62c0.53,0.5,1.27,0.27,1.87,0.53C115.24,84.71,114.56,84.73,113.92,84.62
		C113.92,84.62,113.92,84.62,113.92,84.62C113.92,84.62,113.92,84.62,113.92,84.62z"/>
	<path class="st0" d="M81.16,112.54c-0.02,0.05-0.02,0.1-0.03,0.15c0.05,0,0.1,0.01,0.15,0.02c0.05-0.35,0.01-0.68-0.18-0.98
		c-0.08,0.04-0.16,0.07-0.23,0.09C80.94,112.06,81.06,112.29,81.16,112.54z"/>
	<path class="st0" d="M80.86,111.81c-0.01-0.04-0.02-0.08-0.03-0.11c-0.1-0.03-0.18-0.09-0.24-0.2
		C80.6,111.8,80.71,111.85,80.86,111.81z"/>
	<path class="st0" d="M76.58,36.57c-0.16-0.13-0.33-0.25-0.48-0.39c-0.05,0.04-0.13,0.07-0.27,0.06c0.15,0.29,0.39,0.44,0.71,0.44
		l0,0v0C76.55,36.63,76.57,36.6,76.58,36.57z"/>
	<path class="st0" d="M76.58,36.32c0.05,0.03,0.09,0.08,0.14,0.11c0.01-0.13,0.03-0.26,0.04-0.39c-0.28,0.01-0.49-0.11-0.66-0.31
		c0.02,0.11,0.06,0.23,0.06,0.32C76.29,36.15,76.43,36.24,76.58,36.32z"/>
	<path class="st0" d="M76.58,36.57c0.01,0.01,0.03,0.02,0.04,0.03c0.03-0.03,0.06-0.06,0.08-0.09c0-0.02,0-0.03,0.01-0.05
		C76.65,36.47,76.61,36.51,76.58,36.57z"/>
	<path class="st0" d="M76.16,36.05c-0.05-0.04-0.11-0.09-0.15-0.14c-0.02,0.04-0.04,0.08-0.06,0.12c0.01,0.01,0.01,0.02,0.02,0.03
		c0.04,0.05,0.09,0.08,0.14,0.12C76.14,36.15,76.16,36.1,76.16,36.05z"/>
	<path class="st0" d="M91.97,116.28c0.04-0.08,0.08-0.17,0.12-0.25c-0.34,0.12-0.94-0.27-0.95,0.49c0.22-0.16,0.49-0.12,0.72-0.21
		C91.91,116.3,91.94,116.29,91.97,116.28z"/>
	<path class="st0" d="M73.04,34.42c-0.05-0.03-0.1-0.06-0.14-0.12c-0.19,0.72,0.35,0.65,0.77,0.72c-0.09-0.08-0.14-0.17-0.17-0.26
		C73.26,34.74,73,34.75,73.04,34.42z"/>
	<path class="st0" d="M73.47,34.44c-0.02,0.11-0.01,0.22,0.03,0.32c0.06,0.01,0.11,0.01,0.16,0.03c-0.01-0.16-0.01-0.31-0.02-0.47
		C73.58,34.37,73.52,34.41,73.47,34.44z"/>
	<path class="st0" d="M73.47,34.44c0-0.03,0.01-0.07,0.02-0.1c0-0.01,0.01-0.01,0.01-0.02c-0.15,0-0.29-0.01-0.44-0.01
		c-0.01,0.04-0.01,0.08-0.02,0.11C73.18,34.51,73.32,34.51,73.47,34.44z"/>
	<path class="st0" d="M33.97,67.25c-0.03,0.02-0.06,0.04-0.12,0.03c0.02-0.03,0.04-0.07,0.07-0.1c-0.04-0.06-0.07-0.15-0.07-0.29
		c-0.17,0.3-0.63,0.68-0.16,0.92c0.41,0.21,0.38-0.48,0.64-0.68C34.17,67.25,34.05,67.29,33.97,67.25z"/>
	<path class="st0" d="M33.92,67.18c0.02,0.02,0.03,0.05,0.05,0.06c0.04-0.03,0.06-0.08,0.09-0.13c-0.03-0.01-0.05-0.02-0.07-0.04
		C33.96,67.12,33.94,67.15,33.92,67.18z"/>
	<path class="st0" d="M88.73,122.77L88.73,122.77L88.73,122.77c0.27-0.14,0.65-0.13,0.68-0.56c-0.26,0.06-0.48,0.21-0.71,0.34
		C88.72,122.62,88.73,122.69,88.73,122.77z"/>
	<path class="st0" d="M113.16,107.86c0.46-0.29,0.96-0.48,1.46-0.7C114.02,107.17,113.5,107.33,113.16,107.86z"/>
	<path class="st0" d="M77.28,85.1c0.05,0.34,0.05,0.68,0.21,0.99C77.89,85.66,77.38,85.42,77.28,85.1z"/>
	<path class="st0" d="M129.04,98.65c0.04-0.05,0.09-0.09,0.19-0.1c-0.48-0.23-0.54,0.2-0.72,0.45c0,0.08,0,0.17,0,0.25
		C128.73,99.1,128.83,98.82,129.04,98.65z"/>
	<path class="st0" d="M127.75,99.62c0.21-0.12,0.45-0.16,0.65-0.29c0,0,0,0,0.01-0.01c-0.03-0.11,0-0.21,0.09-0.32
		c-0.3,0.2-0.75,0.12-0.96,0.5C127.64,99.52,127.71,99.56,127.75,99.62z"/>
	<path class="st0" d="M127.71,99.64c-0.01,0.01-0.02,0.01-0.03,0.02c0.05,0.06,0.09,0.11,0.14,0.17c0-0.09-0.02-0.15-0.07-0.2
		C127.74,99.63,127.73,99.63,127.71,99.64z"/>
	<path class="st0" d="M128.41,99.32c0.02,0.06,0.04,0.12,0.1,0.17c0-0.08,0-0.16,0-0.24C128.48,99.28,128.45,99.31,128.41,99.32z"/>
	<path class="st0" d="M113.92,84.62C113.92,84.62,113.92,84.62,113.92,84.62C113.92,84.62,113.92,84.62,113.92,84.62
		c-0.08-0.08-0.16-0.17-0.25-0.25c-0.17,0-0.35,0.01-0.52,0.01C113.38,84.53,113.63,84.63,113.92,84.62z"/>
	<polygon class="st0" points="113.92,84.62 113.92,84.62 113.92,84.62 113.92,84.62 	"/>
	<polygon class="st0" points="113.92,84.62 113.92,84.62 113.92,84.62 	"/>
	<path class="st0" d="M77.04,82.23c-0.32-0.44,0.35-1.06-0.26-1.44C77.08,81.23,76.65,81.81,77.04,82.23z"/>
	<path class="st0" d="M88.59,122.61c-0.43,0.09-0.35-0.34-0.51-0.52c0,0.01,0,0.02,0,0.02c0.12,0.2,0.13,0.4-0.08,0.58
		c0.24,0.14,0.49,0.15,0.74,0.07c-0.06-0.06-0.09-0.12-0.1-0.18C88.62,122.59,88.6,122.6,88.59,122.61z"/>
	<path class="st0" d="M88.63,122.59c0.03-0.01,0.05-0.03,0.08-0.05c-0.01-0.06-0.01-0.12-0.02-0.17
		C88.64,122.44,88.62,122.52,88.63,122.59z"/>
	<path class="st0" d="M82.96,120.02c0.01-0.01,0.01-0.02,0.02-0.03c0-0.07-0.01-0.14-0.01-0.21c-0.24-0.05-0.47-0.09-0.71-0.14
		C82.53,119.7,82.6,120.14,82.96,120.02z"/>
	<path class="st0" d="M83.89,119.49c0.01-0.04,0.02-0.07,0.06-0.11c-0.34,0.1-0.88-0.28-0.98,0.4c0.04,0.04,0.06,0.07,0.08,0.11
		C83.24,119.59,83.51,119.44,83.89,119.49z"/>
	<path class="st0" d="M83.94,119.5c-0.02,0-0.04,0-0.05,0c-0.01,0.06,0.01,0.11,0.11,0.15c-0.01-0.05-0.02-0.1-0.03-0.15
		C83.96,119.49,83.95,119.49,83.94,119.5z"/>
	<path class="st0" d="M83.05,119.89c-0.02,0.03-0.04,0.06-0.06,0.1c0.01,0.1,0.01,0.21,0.02,0.31
		C83.1,120.16,83.12,120.02,83.05,119.89z"/>
	<path class="st0" d="M74.37,65.99c-0.57,0.05-0.88,0.37-0.96,0.93C73.67,66.55,73.96,66.21,74.37,65.99z"/>
	<path class="st0" d="M99.93,113.61c-0.29,0.08-0.83-0.27-0.73,0.44c0.22-0.25,0.53-0.27,0.82-0.35
		C99.98,113.68,99.94,113.66,99.93,113.61z"/>
	<path class="st0" d="M100.02,113.71c0.07,0.05,0.14,0.09,0.2,0.15c-0.06-0.05-0.12-0.1-0.18-0.15
		C100.03,113.7,100.03,113.7,100.02,113.71z"/>
	<path class="st0" d="M73.64,70.54c-0.09-0.25-0.18-0.49-0.24-0.74C72.9,70.23,73.41,70.34,73.64,70.54z"/>
	<path class="st0" d="M92.13,116.22c0.15-0.08,0.28-0.18,0.45-0.22c-0.18-0.36-0.33-0.11-0.48,0.02
		C92.14,116.1,92.14,116.16,92.13,116.22z"/>
	<path class="st0" d="M92.13,116.22c-0.05,0.03-0.1,0.04-0.15,0.06c-0.04,0.08-0.08,0.16-0.12,0.24
		C91.95,116.42,92.1,116.35,92.13,116.22z"/>
	<path class="st0" d="M102.4,117.23c0.32-0.07,0.71,0.13,0.96-0.24C103.09,117.28,102.65,116.87,102.4,117.23z"/>
	<path class="st0" d="M34.58,65.93c0.04-0.07,0.08-0.13,0.12-0.19c-0.11,0-0.15-0.07-0.09-0.26c-0.22,0.09-0.25,0.28-0.22,0.49
		C34.46,65.94,34.52,65.93,34.58,65.93z"/>
	<path class="st0" d="M34.89,65.77c-0.05,0.08-0.09,0.17-0.14,0.25c0.05,0.05,0.09,0.12,0.13,0.2h0c0.24-0.08,0.19-0.3,0.23-0.48
		C35.04,65.8,34.96,65.8,34.89,65.77z"/>
	<path class="st0" d="M34.85,65.72c-0.02,0.01-0.03,0.01-0.05,0.01c0,0,0,0.01,0,0.01c0.03,0.02,0.06,0.02,0.08,0.03
		c0.01-0.02,0.02-0.03,0.03-0.05C34.9,65.72,34.88,65.72,34.85,65.72L34.85,65.72z"/>
	<path class="st0" d="M34.58,65.93c-0.02,0.04-0.05,0.07-0.06,0.11c0.06,0.03,0.12,0.06,0.18,0.09c0.02-0.04,0.04-0.07,0.06-0.11
		C34.71,65.97,34.65,65.94,34.58,65.93z"/>
	<path class="st0" d="M34.81,65.73c0-0.02,0-0.03,0-0.05c-0.02-0.02-0.03-0.03-0.05-0.05c-0.02,0.04-0.04,0.07-0.07,0.11
		C34.73,65.74,34.77,65.74,34.81,65.73z"/>
	<path class="st0" d="M48.69,44.57c-0.06,0.09-0.12,0.18-0.2,0.25c0.23-0.17,0.7-0.13,0.55-0.63c-0.04,0.02-0.07,0.05-0.1,0.08
		C48.97,44.52,48.84,44.57,48.69,44.57z"/>
	<path class="st0" d="M48.69,44.57c0.07-0.11,0.15-0.21,0.25-0.3c0-0.02,0-0.05-0.01-0.07c-0.28,0-0.4,0.15-0.43,0.37
		C48.56,44.57,48.63,44.57,48.69,44.57z"/>
	<path class="st0" d="M73.61,70.72c-0.31,0.01-0.51,0.19-0.59,0.47c-0.08,0.29,0.17,0.28,0.35,0.32
		C73.14,71.15,73.42,70.95,73.61,70.72z"/>
	<path class="st0" d="M132.55,101.63c-0.23,0.3-0.68,0.22-0.91,0.53C132.05,102.16,132.42,102.09,132.55,101.63z"/>
	<path class="st0" d="M80.56,71.5c-0.04,0.43-0.1,0.87,0.54,0.88C80.72,72.22,80.85,71.74,80.56,71.5z"/>
	<path class="st0" d="M39.78,60.6c0.05,0.03,0.09,0.06,0.13,0.11c0.26-0.05,0.41-0.24,0.51-0.47c-0.18,0.07-0.36,0.17-0.54,0.25
		C39.84,60.53,39.8,60.56,39.78,60.6z"/>
	<path class="st0" d="M39.69,60.56c0.06-0.02,0.12-0.04,0.18-0.06c0.05-0.06,0.1-0.12,0.15-0.17c-0.21,0.04-0.41,0.09-0.62,0.13
		C39.49,60.49,39.6,60.52,39.69,60.56z"/>
	<path class="st0" d="M39.52,60.59c0.06,0.04,0.12,0.07,0.2,0.09c0.02-0.03,0.04-0.05,0.05-0.08c0,0,0,0,0-0.01
		c-0.03-0.02-0.06-0.03-0.08-0.04C39.64,60.57,39.58,60.58,39.52,60.59z"/>
	<path class="st0" d="M66.27,34.52c-0.01,0.14-0.18,0.2-0.29,0.3c0.4-0.06,0.86,0.17,1.2-0.23C66.85,34.8,66.56,34.71,66.27,34.52z"
		/>
	<path class="st0" d="M66.27,34.51c0.16,0,0.32-0.01,0.48-0.04c-0.18-0.05-0.35-0.09-0.53-0.14C66.26,34.41,66.28,34.47,66.27,34.51
		z"/>
	<path class="st0" d="M66.18,34.43c-0.01,0.03-0.03,0.06-0.04,0.08c0.04,0,0.09,0,0.13,0c-0.02-0.02-0.05-0.03-0.07-0.04
		C66.19,34.46,66.19,34.44,66.18,34.43z"/>
	<polygon class="st0" points="66.27,34.52 66.27,34.51 66.26,34.51 	"/>
	<path class="st0" d="M41.52,58c0.02-0.02,0.05-0.05,0.07-0.07c-0.03-0.04-0.06-0.08-0.09-0.12c-0.23-0.06-0.41-0.05-0.39,0.27
		C41.26,57.94,41.39,57.95,41.52,58z"/>
	<path class="st0" d="M42.1,58.17c0.02-0.01,0.03-0.01,0.04-0.02c-0.19-0.1-0.35-0.18-0.51-0.27c-0.01,0.01-0.02,0.03-0.03,0.04
		c0,0-0.01,0.01-0.01,0.01C41.73,58.1,41.9,58.2,42.1,58.17z"/>
	<path class="st0" d="M42.09,58.17c-0.19,0.1-0.37-0.09-0.57-0.17c-0.04,0.04-0.09,0.08-0.13,0.13
		C41.6,58.21,41.82,58.33,42.09,58.17z"/>
	<path class="st0" d="M42.53,56.68c-0.35,0.1-0.53,0.39-0.73,0.66C42.1,57.19,42.34,56.96,42.53,56.68z"/>
	<path class="st0" d="M42.52,56.95c-0.17,0.11-0.33,0.25-0.46,0.4C42.32,57.34,42.48,57.21,42.52,56.95z"/>
	<path class="st0" d="M79.35,102.42c0.06-0.36,0.19-0.73-0.16-1.02C79.28,101.74,79.11,102.11,79.35,102.42z"/>
	<path class="st0" d="M112.98,84.27c0,0,0.01,0,0.01,0.01c0.23-0.04,0.45,0.03,0.68,0.09c-0.29-0.26-0.61-0.45-1.02-0.4
		C112.79,84.03,112.89,84.15,112.98,84.27z"/>
	<path class="st0" d="M112.99,84.27c-0.09,0.02-0.18,0.04-0.27,0.11c0.14,0,0.28-0.01,0.42-0.01
		C113.1,84.34,113.04,84.32,112.99,84.27z"/>
	<path class="st0" d="M77.06,83.98c0.1,0.04,0.2,0.08,0.3,0.13c0.1-0.32,0.22-0.63-0.11-0.9C77.49,83.54,77.25,83.76,77.06,83.98z"
		/>
	<path class="st0" d="M136.64,99.21c0.54,0.13,0.1-0.33,0.26-0.42C136.72,98.87,136.61,99,136.64,99.21z"/>
	<path class="st0" d="M115.79,85.15c0.21,0.29,0.53,0.43,0.79,0.66C116.5,85.37,116.13,85.29,115.79,85.15z"/>
	<path class="st0" d="M134.49,100.45c0.23-0.24,0.47-0.49,0.7-0.73C134.83,99.85,134.59,100.08,134.49,100.45z"/>
	<path class="st0" d="M98.33,81.28c0.04,0.49,0.34,0.55,0.74,0.46C98.82,81.61,98.52,81.54,98.33,81.28z"/>
	<path class="st0" d="M118.68,105.01c0.24-0.16,0.47-0.33,0.72-0.47C118.83,104.17,118.92,104.84,118.68,105.01z"/>
	<path class="st0" d="M123.26,107.2c0.04,0.04,0.06,0.08,0.05,0.13c-0.01,0.07-0.03,0.1-0.05,0.1c0.19-0.02,0.38-0.04,0.46-0.26
		C123.59,107.25,123.4,107.14,123.26,107.2z"/>
	<path class="st0" d="M123.23,107.24c0.01-0.01,0.02-0.03,0.03-0.04c-0.01-0.01-0.02-0.03-0.04-0.04h0
		C123.23,107.19,123.23,107.21,123.23,107.24z"/>
	<path class="st0" d="M127.31,93.27c0.2,0.69,0.46,0.16,0.7,0.04C127.78,93.04,127.53,93.49,127.31,93.27z"/>
	<path class="st0" d="M111.98,108.64c-0.73-0.53-0.37,0.23-0.5,0.42C111.65,108.91,111.72,108.66,111.98,108.64z"/>
	<path class="st0" d="M81.12,112.72c-0.02,0.23,0.05,0.47-0.01,0.7c0.33-0.18,0.16-0.47,0.16-0.72
		C81.22,112.74,81.17,112.74,81.12,112.72z"/>
	<path class="st0" d="M81.13,112.68c-0.03,0-0.05-0.01-0.08-0.01c0.02,0.03,0.05,0.03,0.08,0.04
		C81.12,112.71,81.13,112.7,81.13,112.68z"/>
	<path class="st0" d="M70.85,33.59c0.04-0.07,0.09-0.14,0.17-0.18c-0.38-0.16-0.74-0.45-1.2-0.24c0.17,0.1,0.39,0.15,0.57,0.25
		C70.54,33.47,70.7,33.54,70.85,33.59z"/>
	<path class="st0" d="M70.65,33.99c0.01-0.02,0.02-0.04,0.03-0.06c0-0.28-0.12-0.42-0.28-0.51c-0.17-0.06-0.35-0.09-0.54-0.07
		c0.14,0.28,0.79,0.19,0.71,0.64C70.58,33.99,70.61,33.99,70.65,33.99C70.64,33.99,70.64,33.99,70.65,33.99z"/>
	<path class="st0" d="M70.94,33.63c-0.03-0.01-0.06-0.02-0.09-0.04c-0.07,0.13-0.12,0.27-0.2,0.39c0,0,0,0.01,0,0.01
		c0.07,0,0.14,0.01,0.21,0.01c0.11-0.08,0.16-0.2,0.17-0.35C70.99,33.65,70.97,33.63,70.94,33.63z"/>
	<path class="st0" d="M70.64,33.99C70.64,33.99,70.64,33.99,70.64,33.99c-0.04,0.04-0.06,0.08-0.11,0.11c0.02,0,0.03-0.01,0.05-0.01
		C70.61,34.06,70.63,34.03,70.64,33.99z"/>
	<path class="st0" d="M65.8,33.95c0.09-0.01,0.19-0.03,0.28-0.04c0.03-0.09,0.07-0.18,0.15-0.26c-0.26-0.01-0.58-0.21-0.68,0.24
		C65.67,33.82,65.74,33.87,65.8,33.95z"/>
	<path class="st0" d="M66.07,34.19c0.05-0.01,0.1-0.02,0.16-0.07c0-0.07,0-0.15,0-0.22c-0.05,0-0.1,0.01-0.15,0.01
		c-0.02,0.07-0.04,0.15-0.03,0.23C66.05,34.16,66.06,34.17,66.07,34.19z"/>
	<path class="st0" d="M66.04,34.2c-0.1-0.02-0.16-0.16-0.24-0.25c-0.05,0.01-0.1,0.01-0.15,0.02c-0.01,0-0.02,0-0.02,0
		C65.74,34.1,65.86,34.23,66.04,34.2z"/>
	<path class="st0" d="M51.38,40.82c-0.28,0.08-0.49,0.25-0.65,0.49C51.06,41.31,51.23,41.08,51.38,40.82z"/>
	<path class="st0" d="M51.37,41.07c-0.15,0.1-0.29,0.22-0.42,0.36C51.27,41.54,51.35,41.35,51.37,41.07z"/>
	<path class="st0" d="M62.45,34.87c0.02-0.01,0.04-0.02,0.06-0.03c0.01-0.09,0.04-0.18,0.12-0.28c-0.18,0.07-0.36,0.15-0.54,0.22
		C62.27,34.73,62.37,34.78,62.45,34.87z"/>
	<path class="st0" d="M62.85,35.3c-0.05-0.18-0.11-0.36-0.16-0.53c-0.06,0.03-0.12,0.05-0.18,0.08c0,0.03-0.01,0.07,0,0.1
		C62.61,35.09,62.68,35.27,62.85,35.3z"/>
	<path class="st0" d="M62.63,35.26c-0.07-0.1-0.11-0.2-0.13-0.31c-0.02-0.03-0.04-0.05-0.05-0.07c-0.05,0.02-0.11,0.05-0.17,0.07
		C62.4,35.06,62.5,35.19,62.63,35.26z"/>
	<path class="st0" d="M76.78,36.45c0.01,0,0.02-0.01,0.03-0.01c0.16,0.21,0.47,0.12,0.63,0.32h0c-0.23-0.24-0.45-0.48-0.68-0.72
		C76.88,36.19,76.9,36.33,76.78,36.45z"/>
	<path class="st0" d="M76.71,36.51c0.11,0.14,0.24,0.19,0.39,0.22c-0.11-0.09-0.22-0.18-0.34-0.26
		C76.74,36.48,76.73,36.49,76.71,36.51z"/>
	<path class="st0" d="M76.75,36.45c-0.01-0.01-0.02-0.02-0.03-0.02c0,0.01,0,0.02,0,0.03C76.73,36.46,76.74,36.46,76.75,36.45z"/>
	<path class="st0" d="M76.78,36.45c-0.01,0-0.02,0-0.03,0.01c0,0,0.01,0.01,0.01,0.01C76.77,36.46,76.77,36.45,76.78,36.45z"/>
	<path class="st0" d="M65.5,33.86c-0.23,0.03-0.48-0.47-0.7,0.01C65.03,33.69,65.27,34.09,65.5,33.86z"/>
	<path class="st0" d="M65.43,33.98c-0.03,0-0.06,0.01-0.09,0.01c-0.13,0.01-0.29-0.09-0.42-0.08
		C65.09,34.02,65.27,34.26,65.43,33.98z"/>
</g>
</svg>
