<?xml version="1.0" encoding="utf-8"?>
<!-- Generator: Adobe Illustrator 24.0.3, SVG Export Plug-In . SVG Version: 6.00 Build 0)  -->
<svg version="1.1" id="Layer_1" xmlns="http://www.w3.org/2000/svg" xmlns:xlink="http://www.w3.org/1999/xlink" x="0px" y="0px"
	 viewBox="0 0 136.9 144.4" style="enable-background:new 0 0 136.9 144.4;" xml:space="preserve">
<g>
	<path class="st0" d="M80.55,56.23c0.02-0.01,0.04-0.02,0.06-0.04c0-0.02,0.01-0.04,0.01-0.07c-0.02,0.03-0.04,0.06-0.06,0.09
		C80.56,56.22,80.55,56.22,80.55,56.23z"/>
	<path class="st0" d="M123.17,27.25c0.02,0,0.04,0,0.07,0c-0.01-0.01-0.01-0.03-0.02-0.04c-0.14-0.28-0.41-0.56-0.41-0.84
		c0-1.16-0.73-1.19-1.58-1.15c-1.47,0.07-2.91,0.43-4.27,0.86c-3.19,1-6.01,2.9-9.06,4.25c-0.03,0-0.06,0.01-0.08,0.03
		c0.01,0.01,0.02,0.01,0.03,0.01c-0.18,0.24-0.23,0.79-0.7,0.28c-0.64,0.88-1.66,1.28-2.46,1.98c-0.75,0.67-1.75,1.05-2.61,1.6
		c-0.39,0.25-0.68,0.08-0.98-0.1c-0.22-0.13-0.28-0.28-0.17-0.58c0.36-1-0.09-2-0.09-3.01c0-1.29-0.76-2.51-0.24-3.87
		c0.18-0.45-0.06-0.95-0.72-1.05c1.24-0.74,1.53-1.57,1.11-2.97c-0.02-0.04-0.04-0.06-0.06-0.1c0,0.05,0.01,0.09,0.01,0.14
		c-0.64-0.77-1.41-1.22-2.46-0.97c0.01-0.02,0.01-0.03,0.02-0.04c-0.89-0.05-1.75-0.02-2.62,0.3c-0.67,0.25-1.1,0.87-1.83,0.96
		c-0.01,0.02-0.03,0.03-0.04,0.05c0.18,0.54,0.01,0.69-0.51,0.46c0-0.01,0.01-0.01,0.01-0.02c-0.45,0.23-0.84,0.47-1.15,0.95
		c-0.3,0.46-0.58,1.09-1.06,1.33c-1.32,0.68-1.96,2.04-2.74,3.08c-0.71,0.94-1.26,2.17-1.98,3.21c-0.02,0.02-0.03,0.04-0.04,0.06
		c-0.03,0.28,0.33,0.55,0.08,0.8c-0.19,0.19-0.39-0.05-0.58-0.12c-0.29,0.31-0.16,0.8-0.47,1.14c-1.68,1.91-2.66,4.27-4.06,6.37
		c-1.44,2.17-2.95,4.27-4.5,6.36c-0.06,0.03-0.1,0.07-0.14,0.11c-0.09,0.23,0.23,0.75-0.37,0.6c-0.66,1.29-2.02,1.95-2.82,3.15
		c-0.26,0.39-0.01,0.87-0.45,1.12c-0.91,0.51-1.74,1.15-2.4,1.95c-1.04,1.26-1.99,2.58-3.03,3.84c-1.27,1.54-1.39,2.85-0.33,3.9
		c0.35,0.35,1.14,0.29,1.08,0.95c-0.05,0.56-0.63,0.88-1,1.28c-0.22,0.25-0.36,0.59-0.76,0.68c0.22-1.21-0.52-1.92-1.38-2.38
		c-1.72-0.93-3.35-1.85-3.23-4.17c0-0.02-0.01-0.04-0.01-0.06c-0.01,0.03-0.01,0.05-0.02,0.08c-0.22-0.63-1.02-0.93-0.97-1.71
		c0.03,0.02,0.05,0.03,0.08,0.05c-0.02-0.02-0.03-0.05-0.05-0.07c0.06-1.96-1.14-3.43-2-5.02c-0.94-1.74-2.84-2.65-3.89-4.3
		c-0.7-1.1-2.13-1.43-2.75-2.61c-0.02-0.01-0.03-0.01-0.05-0.02c0.01,0.02,0.02,0.03,0.03,0.05c-0.31,0.12-0.68,0.38-0.71-0.26
		c0.01-0.01,0.02-0.02,0.03-0.03c0,0-0.01,0-0.01,0c-2-1.51-3.99-3.02-5.99-4.53c-0.03-0.02-0.06-0.04-0.09-0.06
		c0.02,0.03,0.04,0.06,0.06,0.09c-0.32-0.03-0.57-0.16-0.71-0.45c0.01-0.01,0.01-0.02,0.01-0.04c-1.53-0.89-2.98-1.91-4.28-3.14
		c-0.03-0.01-0.04-0.02-0.07-0.03c0.01,0.01,0.02,0.03,0.04,0.05c-0.86,0.06-0.98-0.77-1.44-1.19c0.03,0,0.05,0,0.07,0
		c-0.01-0.01-0.03-0.01-0.04-0.02c-1-1.23-2.42-1.99-3.48-3.22c-0.81-0.93-1.73-1.74-2.38-2.84c-0.85-1.43-1.85-1.57-3.21-0.61
		c-0.01,0.02-0.01,0.04-0.01,0.06c0.07,0.21,0.14,0.42,0.21,0.63c0,0,0,0,0,0c0.49,0.12,0.8,0.49,0.54,0.91
		c-0.32,0.53-0.72,0.1-1.04-0.16c-0.19,0.08-0.22,0.26-0.24,0.44c0.01,0.01,0.01,0.02,0.02,0.03c0.03,0.7,0.03,1.4,0.09,2.1
		c0.14,1.72-0.48,3.35-0.98,4.88c-0.32,0.99-1.02,1.95-1.25,3.06c0,0.01-0.01,0.02-0.01,0.03c0.3,0.52-0.16,0.66-0.44,0.88
		c-0.01,0.01-0.02,0.03-0.03,0.05c-0.07,0.4-0.29,0.72-0.31,1.18c-0.06,1.48-1.42,2.33-2.64,1.65c-2-1.12-4.12-1.73-6.39-1.88
		c-0.01,0-0.02,0-0.03,0c0,0,0,0,0.01,0c-0.65-0.07-1.3-0.05-1.91,0.24c0-0.01-0.01-0.01-0.01-0.02c-0.14-0.14-0.28-0.27-0.43-0.42
		c-1.53,0.49-2.36,2.59-1.86,4.45c0.33,1.24,1.03,2.39,1.2,3.61c0.33,2.36,1.14,4.61,1.33,6.99c0,0,0,0.01,0.01,0.01
		c0.59,0.06,0.47,0.51,0.47,0.88c0.01,0.65,0,1.29-0.01,1.95c0,0.01,0.01,0.03,0.01,0.04c0.05,0.6,0,1.22,0.55,1.64
		c0,0,0,0.01,0,0.01c0.19,0.16,0.22,0.37,0.1,0.57c-0.03,0.05-0.24-0.02-0.38-0.03c-0.23,1.25,0.37,2.5,0,3.75
		c0.31,0.31,0.23,0.67,0.19,1.03c0.01,0.03,0.01,0.06,0.03,0.08c0.15,2.4,0.6,4.77,0.65,7.19c0.02,1.08,0.55,2.31,0.36,3.18
		c-0.26,1.19-0.08,2.25-0.05,3.36c0.03,1.14,0.34,2.39,0.16,3.39c-0.34,1.85,0.34,3.43,0.58,5.12c0.12,0.2,0.15,0.4,0.14,0.6
		c0.12,0.59-0.11,1.19-0.17,1.78c0.01,0.02,0.02,0.04,0.04,0.06c-0.1,0.26-0.22,0.5-0.17,0.8c0.2,1.17,0.31,2.36,0.5,3.53
		c0.15,0.91-0.1,1.77,0.07,2.65c0.52,2.61,0.5,5.28,0.85,7.91c0.15,1.09-0.27,2.26,0.43,3.28c0,0.06,0,0.11,0.01,0.17
		c0.27,0.28,0.2,0.62,0.18,0.95c0.02,0.04,0.03,0.07,0.05,0.11c-0.02,0.03-0.03,0.07-0.05,0.1c0,0,0,0.01,0,0.01c0,0,0,0,0,0
		c-0.05,0.1-0.1,0.21-0.16,0.31c0.03,0.06,0.07,0.09,0.12,0.11c0.31,0.01,0.48-0.6,0.88-0.23c0.12,0.11,0.13,0.26,0.02,0.42
		c-0.28,0.43-0.64,0.26-0.98,0.16c0.13,1.18,0.31,2.34,0.35,3.52c0.12,3.04,0.33,6.04,2.47,8.49c0.63,0,1.27,0,1.91,0
		c0.84-0.66,2.01-0.74,2.75-1.63c1.23-1.47,2.76-2.56,4.61-3.14c-0.1-0.62,0.32-0.37,0.61-0.34c0.07-0.03,0.14-0.07,0.19-0.13
		c1.75-0.5,3.49-1.08,5.27-1.48c3.03-0.68,6.2-0.39,9.23-1.32c1.62-0.5,3.38-0.58,5.07-0.85c0.03-0.02,0.06-0.03,0.09-0.04
		c0.24-0.27,0.55-0.32,0.89-0.31c0.08-0.03,0.16-0.06,0.24-0.1c0.71-0.4,1.51-0.58,2.28-0.58c1.68-0.01,3.26-0.47,4.88-0.75
		c1.6-0.28,3.02-1.21,4.66-1.28c0.93-0.04,1.69-0.57,1.63-1.35c-0.06-0.83-0.17-2.01-1.55-2.07c-0.87-0.04-1.8-0.54-2.44,0.52
		c-0.1,0.18-0.21,0.09-0.36-0.03c-0.74-0.62-1.52-0.25-2.12,0.14c-0.75,0.49-1.52,0.55-2.34,0.56c-0.31,0-0.63-0.09-0.93,0.06
		c-2.22,1.14-4.65,1.46-7.05,1.94c-0.04,0-0.07,0.01-0.11,0.01c0.02,0.03,0.05,0.04,0.07,0.08c-0.1,0.2-0.29,0.22-0.48,0.24
		c0,0,0,0,0,0c0,0,0,0,0,0c-0.28,0.22-0.52,0.66-0.95,0.21c0.05-0.02,0.11-0.04,0.16-0.06c-0.04-0.01-0.08,0-0.13-0.02h0.01
		c-0.12-0.03-0.23-0.02-0.34,0.01c0.1,0.02,0.2,0.04,0.3,0.08c-0.47,0.15-0.89,0.58-1.44,0.25c0.04-0.03,0.08-0.05,0.12-0.08
		c-0.03,0-0.06,0-0.08-0.01c-0.76-0.27-1.43,0.15-2.14,0.26c-0.15,0.05-0.3,0.07-0.45,0.09c0.13,0.01,0.26,0.01,0.4,0
		c-0.61,0.52-1.62-0.18-2.12,0.69c-0.02-0.15-0.03-0.31-0.05-0.46c0.06-0.05,0.13-0.08,0.19-0.11c-0.05,0.01-0.09,0.01-0.14,0.03
		c-1.67,0.57-3.47,0.73-5.16,0.81c-2.29,0.11-4.41,0.47-6.47,1.37c-0.77,0.34-1.51,0.7-2.33,0.96c-0.71,0.22-1.7,0.22-2.09,1.13
		c-0.05,0.02-0.09,0.05-0.14,0.07c0.03,0.01,0.06,0.01,0.09,0.01c-0.47,0.6-1.09,1.01-1.69,1.45c0.01-0.02,0.02-0.05,0.04-0.07
		c-0.14,0.03-0.35,0.23-0.38,0.02c-0.16-0.96-0.51-1.86-0.58-2.85c-0.1-1.27,0.2-2.56-0.18-3.83c-0.02,0.02-0.02,0.04-0.05,0.06
		c-0.25-0.39-0.3-0.73,0.18-0.97c0.02-0.03,0.02-0.06,0.05-0.09c-0.14-1.65-0.47-3.28-0.56-4.95c-0.11-1.89-0.41-3.77-0.58-5.67
		c-0.25-2.82-0.54-5.64-0.74-8.47c-0.01,0.01-0.03,0.02-0.04,0.03c0-0.24,0-0.48,0-0.72c0.04,0.01,0.07,0.03,0.11,0.04
		c-0.02-0.04-0.04-0.07-0.07-0.11c0.17-1.61-0.31-3.19-0.24-4.79c-0.03-0.03-0.03-0.05-0.05-0.08c0,0.05,0,0.1,0.01,0.15
		c-0.49-0.32-0.52-0.63-0.01-0.96c0,0,0,0.01,0.01,0.01c0.01-0.03,0.02-0.05,0.03-0.08c-0.32-0.43-0.41-0.97-0.41-1.46
		c-0.02-2.78,0.13-5.57-0.01-8.35c-0.08-1.57-0.57-3.12-0.32-4.73c0.09-0.58-0.06-1.21-0.16-1.74c-0.32-1.74,0.24-3.6-0.7-5.24
		c0,0,0-0.01,0-0.01c-0.01,0.03-0.03,0.05-0.04,0.08c-0.25-0.45-0.14-0.85,0.19-1.21c0.01,0.02,0.01,0.03,0.01,0.05
		c0.01-0.04,0.01-0.08,0.03-0.12c-0.01-1.46-0.6-2.83-0.71-4.28c-0.02,0.02-0.02,0.03-0.04,0.05c-0.43-0.24-0.09-0.49-0.01-0.74
		c0.03,0.03,0.05,0.06,0.08,0.08c0-0.05-0.01-0.1-0.04-0.15c-0.15-0.85-0.48-1.64-0.66-2.48c-0.3-1.45-0.25-3.01-0.94-4.34
		c-0.52-1.01-0.66-2.1-1.01-3.14c-0.02,0-0.04,0-0.06,0c-0.41-0.27-0.13-0.56,0.05-0.75c0.15-0.16,0.27,0,0.38,0.14
		c0.03,0,0.05-0.01,0.09-0.01c2.03,0.31,3.96,0.94,5.91,1.53c0.08,0.05,0.16,0.09,0.25,0.14c0.55,0.1,1.14,0.06,1.58,0.5
		c0.05,0.01,0.1,0.02,0.15,0.03c0.56,0.28,1.1,0.65,1.7,0.82c1.01,0.28,1.89,1.1,3.06,0.72c0.15-0.04,0.36,0.14,0.55,0.19
		c0.52,0.15,0.91,0.8,1.28,0.8c1.35-0.01,2.4,0.68,3.5,1.25c1.08,0.56,2.29,0.72,3.36,1.3c1.86,1.02,3.99,1.44,5.85,2.48
		c0.49,0.28,0.93,0.81,1.45,0.89c2.28,0.35,4.01,1.94,6.2,2.54c1.39,0.38,2.69,1.24,3.99,1.94c0.56,0.3,1.22,0.65,1.76,0.89
		c1.17,0.51,2.2,1.47,3.67,1.31c1.24-0.13,2.27,1.01,2.14,2.26c-0.06,0.61,0.03,1.19,0.15,1.76c0.21,0.96,0.36,1.91,0.13,2.89
		c0.02,0.05,0.05,0.1,0.08,0.15c0.35,0.3,0.58,0.6,0.25,1.18c-0.18,0.32-0.14,0.75-0.16,1.17c0.01,0.05,0.02,0.11,0.03,0.16
		c-0.18,1.52-0.08,3.08,0.05,4.55c0.24,2.72,0.25,5.42,0.21,8.13c0,0.03,0,0.06,0,0.09c0.28,0.29,0.29,0.57,0,0.86
		c0,0,0,0.01,0,0.01c-0.08,3.4,0.32,6.78,0.46,10.17c0.03,0.72,0.52,1.34,0.37,2.08c-0.36,1.78,0.55,3.22,1.36,4.64
		c0.26,0.46,0.63,1.24,1.33,0.95c0.62-0.25,0.21-1.01,0.31-1.53c-0.01-0.03-0.03-0.04-0.05-0.06c0,0.03,0,0.07,0,0.1
		c-0.52-0.04-0.51-0.38-0.42-0.87c0.17,0.23,0.3,0.4,0.42,0.58c0.02-0.01,0.04,0,0.06-0.02c-0.18-1.48,0.16-3.01-0.41-4.43
		c-0.22-0.54-0.3-1.02-0.05-1.54c0-0.01,0-0.02,0-0.03c-0.01,0.02-0.02,0.04-0.04,0.06c-0.55-0.4,0.04-0.81-0.02-1.21
		c0.04,0.05,0.06,0.09,0.09,0.14c-0.01-0.06-0.01-0.11-0.05-0.17c-0.48-0.65,0.27-1.17,0.17-1.8c-0.51-3.23,0.08-6.5-0.35-9.76
		c-0.25-1.85,0.17-3.78-0.11-5.66c-0.05-0.33-0.04-0.63,0.02-0.94c0-0.01,0-0.01,0-0.02c-0.01,0.02-0.01,0.03-0.03,0.05
		c-0.03-0.26-0.75-0.52,0-0.77c0,0.01,0.01,0.01,0.01,0.02c0.01-0.02,0.01-0.03,0.02-0.05c-0.67-1.85-0.24-3.88-0.97-5.71
		c0-0.01,0-0.01,0-0.02c-0.01,0.02-0.01,0.03-0.03,0.05c-0.56-0.25-0.19-0.65-0.17-1c0.03,0.02,0.04,0.04,0.06,0.06
		c-0.01-0.03-0.02-0.06-0.03-0.09c-0.01-0.23,0.01-0.48-0.05-0.71c-0.44-1.55-0.41-2.73,1.32-3.69c2.08-1.14,3.4-3.35,5.61-4.39
		c-0.03-0.36-0.02-0.68,0.45-0.73c0,0.01,0,0.02,0,0.03c0.02-0.02,0.02-0.04,0.04-0.06c1.06-0.31,1.55-1.3,2.37-1.91
		c-0.01,0-0.02,0.01-0.03,0.01c0.11-0.49,0.92-0.66,0.62-1.4c-0.04-0.1,0.36,0.24,0.6,0.24c0,0.01-0.01,0.01-0.01,0.02
		c0.02-0.02,0.04-0.04,0.07-0.05c0.3-0.24,0.61-0.49,0.91-0.73c-0.01,0-0.01,0-0.02-0.01c0.07-0.59,0.48-0.7,0.97-0.68
		c-0.46-0.83,0.26-0.8,0.71-0.97c-0.01,0.01-0.02,0.02-0.02,0.03c0.03-0.02,0.05-0.04,0.07-0.05c1.25-1.74,3.3-2.55,4.77-4.03
		c-0.01,0-0.01,0-0.02,0c0.14-0.32,0.36-0.5,0.73-0.46c0,0.01,0,0.01,0,0.01c0.02-0.02,0.04-0.03,0.05-0.04
		c1.52-0.8,2.31-2.56,4.03-3.1c0,0,0,0,0,0c0.18-0.28,0.15-0.75,0.66-0.74c0,0.01,0,0.02,0.01,0.04c0.01-0.02,0.03-0.04,0.04-0.06
		c1.17-1.25,2.47-2.38,3.92-3.26c2.42-1.47,4.69-3.13,6.86-4.94c0.98-0.81,2.12-1.35,3.27-1.85c0.18-0.45,0.28-1.02,1-0.66
		c0.03,0,0.04-0.02,0.07-0.02c1.55-1.75,3.85-2.3,5.7-3.59c0,0-0.01,0-0.01,0c-0.02-0.14-0.23-0.32-0.03-0.39
		c0.14-0.05,0.35,0.11,0.52,0.18c0,0,0,0,0,0c0.02-0.01,0.04-0.01,0.06-0.02c0.35-0.17,0.71-0.34,1.06-0.52
		c0.99-0.5,1.96-1.03,2.96-1.5c0.33-0.16,0.81-0.54,1.05-0.14c0.2,0.35,0.14,0.95-0.14,1.33c-0.32,0.42-0.52,0.86-0.65,1.37
		c-0.39,1.58-0.84,3.14-1.24,4.71c-0.48,1.9-0.9,3.81-1.42,5.69c-0.15,0.52,0.52,0.74,0.16,1.42c-0.9,1.68-0.77,3.65-0.89,5.48
		c-0.16,2.27-0.26,4.56-0.32,6.84c-0.05,1.87-0.24,3.78-0.37,5.67c-0.02,0.03-0.02,0.05-0.04,0.08c0.03,0.47-0.07,0.96,0.32,1.37
		c0.36,0.38-0.12,0.32-0.26,0.45c0,0.01,0,0.02,0,0.03c-0.07,0.3-0.19,0.6-0.21,0.91c-0.1,1.56-0.14,3.13-0.26,4.7
		c-0.13,1.63-0.68,3.23-0.45,4.9c0.09,0.66,0.41,1.33-0.25,1.88c0.01,0.02,0.01,0.03,0.02,0.05c0.41,0.08,0.6,0.3,0.34,0.74
		c-0.05,0.18-0.21,0.23-0.37,0.24c0.14,0.84,0.07,1.67-0.03,2.53c-0.09,0.76-0.52,1.44-0.53,2.12c-0.01,1.11-0.14,2.23-0.05,3.32
		c0.12,1.54-1.16,3.01-0.18,4.56c0.04,0.05-0.12,0.27-0.22,0.37c-0.31,0.3-0.29,0.68-0.37,1.07c-0.39,1.88-0.18,3.81-0.4,5.69
		c-0.23,1.97-0.31,3.96-0.63,5.92c0.02,0.1,0.02,0.2,0.03,0.3c0.33,1.09,0.23,2.14-0.28,3.16c-0.01,0.04-0.02,0.08-0.03,0.12
		c0.28,0.54-0.27,0.94-0.23,1.43c-0.01,0.02-0.01,0.05-0.02,0.07c0.12,0.27,0.38,0.57-0.14,0.7c-0.03,0.07-0.05,0.14-0.05,0.21
		c-0.01,0.03-0.02,0.06-0.03,0.1c0.06,0.42,0.09,0.82-0.52,0.87c0-0.01,0.01-0.02,0.01-0.03c-1.06,0.02-2.11-0.04-2.97-0.77
		c-0.19-0.16-0.35-0.15-0.53-0.12c-1.5,0.23-2.95-0.34-4.4-0.51c-1.74-0.21-3.57-0.35-5.29-1c-0.89-0.34-2.04,0.01-2.96-0.29
		c-0.53-0.17-0.25,0.75-0.91,0.32c-0.51-0.33-1.09-0.78-1.76-0.93c-0.02,0.02-0.03,0.03-0.05,0.05c-0.39,0.87-0.99-0.06-1.46,0.16
		c0.05-0.04,0.1-0.05,0.15-0.08c-0.04,0.01-0.08,0.02-0.11,0.05c-0.07,0.01-0.15,0.01-0.22-0.01c-0.06-0.02-0.11-0.03-0.17-0.05
		c0.04,0.03,0.08,0.04,0.12,0.08c-0.4,0.02-0.86,0.19-1-0.42c0.05,0,0.08,0.02,0.13,0.03c-0.03-0.02-0.05-0.03-0.08-0.06
		c-1.12,0.36-2.13-0.34-3.22-0.41c-0.89-0.05-1.86,0.58-2.71-0.12c-0.04-0.02-0.07-0.02-0.11-0.02c0.02,0.02,0.05,0.03,0.07,0.05
		c-0.25,0.08-0.49,0.42-0.75,0.01c0.01-0.01,0.02-0.02,0.03-0.03c-0.07,0.01-0.14,0.02-0.22,0.02c-0.02,0.01-0.04,0.02-0.07,0.02
		c0.01,0,0.01,0,0.02,0.01c-0.06,0.55-0.65,0.53-0.93,0.84c-0.01,0.02-0.02,0.03-0.03,0.05c0,0,0-0.01-0.01-0.01
		c-0.01,0.01-0.03,0.03-0.03,0.04c0-0.04,0.01-0.06,0.01-0.1c-0.24-0.53-0.51-0.87-1.27-0.63c-0.7,0.22-1.49,0.17-2.24,0.25
		c-1.82,0.19-3.54,0.57-4.98,1.85c-0.4,0.35-0.43,0.72-0.43,1.11c0.01,0.3,0.36,0.41,0.65,0.39c1.5-0.1,3.01,0.13,4.5-0.19
		c0.06,0.02,0.12,0.02,0.17,0.04c0.72-0.01,1.44-0.02,2.16-0.03c0.11-0.02,0.22-0.03,0.33-0.04c1.1-0.12,2.19,0.39,3.29,0.04
		c0.04-0.29-0.11-0.78,0.19-0.78c0.43,0.01,0.26,0.39,0.25,0.69c0.02,0.03,0.05,0.05,0.07,0.09c1.05,0.67,2.26,0.17,3.36,0.45
		c0.02,0.01,0.03,0.01,0.05,0.01c0.77-0.14,1.47,0.33,2.23,0.24c0.42-0.05,0.9,0.46,1.28-0.18c0.09-0.15,0.19-0.08,0.45,0.61
		c0.03,0.01,0.06,0.01,0.08,0.02c3.29,0.58,6.61,0.86,9.9,1.46c1.32,0.24,2.7,0.29,3.97,0.73c0.47,0.17,0.77-0.26,1.16-0.05
		c1.44,0.79,3.04,0.91,4.62,1.19c0.83,0.15,1.21-0.15,1.63-0.67c-0.01,0-0.03,0-0.04,0c0.66-0.37,1.2-0.89,1.73-1.41
		c0,0.04-0.01,0.07-0.01,0.11c0.02-0.05,0.06-0.09,0.08-0.14c0.25-0.19,0.2-0.47,0.23-0.73c0-0.02,0-0.05,0-0.07
		c-0.03,0.03-0.05,0.07-0.07,0.1c-0.36-0.23,0.05-0.5-0.03-0.74c0.05,0.01,0.08,0.03,0.11,0.05c-0.02-0.03-0.02-0.05-0.04-0.08
		c0.01-0.15-0.03-0.42,0.04-0.45c1.23-0.61,1.51-1.71,1.67-2.94c0.06-0.44-0.17-1.04,0.39-1.36c-0.02-0.01-0.02-0.03-0.04-0.04
		c-0.01,0.03-0.01,0.05-0.03,0.08c-0.77-0.14-0.26-0.62-0.25-0.96c0.08,0.05,0.14,0.11,0.2,0.17c-0.02-0.07-0.05-0.14-0.13-0.2
		c-0.32-0.73,0.56-1.38,0.2-2.06c-0.62-1.16,0.24-2.23,0.16-3.41c-0.09-1.24,0.61-2.57,0.45-3.95c-0.27-2.33,0.55-4.56,0.69-6.86
		c0.02-0.04,0.03-0.07,0.05-0.11c-0.04,0.05-0.07,0.09-0.12,0.14c0.18-0.88-0.25-1.82,0.26-2.67c0,0.09,0.02,0.19,0.03,0.28
		c0.01-0.1,0.02-0.21,0.04-0.31c-0.01-0.4-0.02-0.79-0.03-1.18c0-0.02,0.01-0.05,0.01-0.07c-0.03,0.03-0.06,0.07-0.09,0.1
		c-0.39-0.49,0.17-0.96,0.02-1.45c0.08,0.05,0.14,0.1,0.2,0.15c-0.03-0.06-0.07-0.12-0.12-0.18c0.07-0.15,0.15-0.31,0.23-0.46
		c0.02-0.07,0.04-0.14,0.05-0.21c-0.03,0.08-0.07,0.17-0.12,0.25c0.02-0.83-0.73-1.8,0.45-2.41c-0.01,0.03-0.02,0.05-0.03,0.08
		c0.03-0.04,0.06-0.08,0.1-0.12c0.11-1.45,0.38-2.88,0.35-4.36c-0.03-1.17,0.51-2.35-0.21-3.49c-0.09-0.14-0.09-0.3,0.04-0.44
		c0.9-0.99,0.86-2.15,0.63-3.36c-0.11-0.57-0.21-1.17,0.11-1.73c-0.03-0.1-0.03-0.21-0.05-0.31c0,0.11,0,0.23-0.01,0.34
		c-0.26-0.45-0.37-0.92-0.2-1.43c-0.43-0.42,0.19-0.48,0.25-0.73c0.02,0.01,0.04,0.02,0.06,0.03c-0.01-0.02,0-0.04-0.01-0.06
		c0.06-1.51,0.13-3.01,0.2-4.52c0-0.02,0-0.04,0-0.06c-0.02,0.03-0.03,0.06-0.05,0.09c-0.48-0.42-0.24-0.83,0.04-1.23
		c0.01,0.03,0.02,0.05,0.03,0.08c0.01-0.04,0.01-0.07,0.02-0.11c-0.09-0.22-0.12-0.44-0.06-0.69c0.48-1.99,0.27-4.03,0.51-6.05
		c0.36-3.1,0.63-6.23,0.98-9.35c0.13-1.19,0.82-2.3,0.48-3.55c-0.02,0.01-0.04,0.02-0.06,0.04c0.01-0.25,0.01-0.49,0.01-0.72
		c-0.64-0.07-0.27-0.58-0.17-0.67c0.4-0.34,0.33-0.87,0.61-1.24c0.03,0.02,0.05,0.05,0.07,0.07c-0.01-0.04-0.01-0.07-0.02-0.11
		c0.95-2.95,2.25-5.78,2.93-8.82c0-0.01,0-0.01,0-0.02c-0.02,0.02-0.03,0.04-0.05,0.06C123.02,28.07,123.1,27.66,123.17,27.25z
		 M53.85,111.53c0.19-0.14,0.7-0.18,0.82-0.04c0.2,0.24,0.4,0.64,0.05,0.97c-0.12,0.13-0.26,0.38-0.37,0.36
		c-0.3-0.05-0.37-0.32-0.37-0.59C53.75,112.02,53.63,111.69,53.85,111.53z M19.29,73.17c0.08,0.05,0.12,0.16,0.17,0.22
		c-0.03,0.16-0.11,0.25-0.23,0.19c-0.07-0.04-0.13-0.17-0.14-0.26C19.08,73.21,19.14,73.08,19.29,73.17z M44.71,53.29
		c-0.08-0.02-0.14-0.13-0.21-0.2c0.08-0.05,0.17-0.16,0.24-0.14c0.09,0.01,0.16,0.12,0.28,0.24C44.88,53.24,44.78,53.31,44.71,53.29
		z M59.23,58.44c-0.2,0.09-0.16-0.18-0.21-0.3c0,0,0.01-0.01,0.01-0.01c-1.43-0.76-2.86-1.53-4.3-2.28
		c-0.96-0.5-2.09-0.63-2.99-1.29c-1.73-1.26-3.66-2.05-5.67-2.78c-1.29-0.46-2.54-1.17-3.79-1.8c0,0,0,0-0.01-0.01
		c0,0.01,0,0.01,0,0.02c-0.53,0-1.01-0.14-1.45-0.45c0.02,0,0.04,0,0.07,0c-0.02-0.01-0.04-0.01-0.06-0.02
		c-1.8-0.42-3.18-1.87-5.14-2.01c-0.7-0.05-1.41-0.57-2.14-0.83c-1.06-0.37-2.07-0.86-3.19-1.07c-0.48-0.09-0.65-0.42-0.42-0.89
		c0.28-0.56,0.58-1.12,0.86-1.68c0.01-0.02,0.02-0.04,0.03-0.07c0.02-0.29-0.51-0.73,0.18-0.86c0-0.01,0-0.02,0.01-0.03
		c0.88-1.88,1.78-3.75,2.4-5.74c0,0,0,0,0,0c-0.15-0.21-0.36-0.21-0.6-0.23c-0.17-0.01-0.48,0.29-0.5-0.12
		c-0.01-0.12,0.26-0.25,0.4-0.37c0.56-0.69,1.11-1.13,1.68-0.01c0.59,0.52,1.13,1.09,1.91,1.34c0.43,0.14,0.73,0.47,1.01,0.81
		c1.33,1.63,2.98,2.83,4.93,3.62c0.62,0.33,0.96,1.08,1.73,1.22c1.15,1.48,2.93,2.11,4.37,3.19c1.62,1.22,3.33,2.33,4.57,4
		c0.32,0.43,0.91,0.54,1.33,0.91c1.28,1.15,2.02,2.72,3.34,3.87c0.86,0.75,1.12,2.19,1.65,3.32c0,0-0.01,0.01-0.01,0.01
		C59.52,58.08,59.49,58.32,59.23,58.44z M97.76,35.36c0,0.01,0,0.02,0.01,0.02c0.49,0.99,0.25,1.81-0.69,2.36
		c-1.48,0.86-2.72,2.05-4.21,2.92c-1.72,1.01-3.22,2.39-4.54,3.92c-0.1,0.12-0.17,0.31-0.3,0.35c-2.31,0.68-3.53,2.76-5.33,4.09
		c0,0.01-0.01,0.01-0.01,0.02c-0.02,0.8-0.43,0.97-1.13,0.74c-1.46,0.98-2.77,2.23-3.95,3.44c-1.74,1.79-3.57,3.53-5.23,5.41
		c-0.72,0.81-1.64,1.46-2.38,2.28c-0.21,0.24-0.39,0.22-0.54-0.08c-0.11-0.22-0.37-0.35,0.01-0.65c1.88-1.48,3.32-3.38,4.85-5.18
		c0,0,0.01-0.01,0.01-0.01c-0.01,0-0.01,0.01-0.02,0.01c-0.05-0.25-0.36-0.51,0-0.73c0.23-0.15,0.25,0.07,0.28,0.22
		c0,0,0,0.01,0,0.01c0.01,0,0.01-0.01,0.01-0.01c0.78-0.38,1.67-0.62,1.8-1.74c0.06-0.49,0.69-0.6,1.02-0.94
		c0.56-0.56,1.2-1.05,1.48-1.82c0,0-0.01,0-0.01,0c-0.27-0.61,0.19-0.45,0.49-0.47c0,0,0,0.01,0,0.01c0,0,0.01-0.01,0.01-0.01
		c1-0.56,1.53-1.56,2.06-2.48c1.12-1.97,2.31-3.86,3.81-5.58c0.83-0.95,1.02-2.35,1.92-3.29c1.3-1.37,1.8-3.23,2.96-4.69
		c0,0,0,0-0.01,0c-0.12-0.75,0.59-0.86,0.95-1.23c0,0,0,0.01,0,0.01c0-0.01,0.01-0.01,0.01-0.02c-0.12-0.43,0.22-0.76,0.26-1.15
		c0,0,0,0,0.01-0.01c-0.01,0-0.01,0-0.02,0.01c-0.21-0.98,0.93-0.85,1.2-1.44c1.17-1.22,2.02-2.76,3.58-3.58
		c0.07-0.5,0.31-0.99,0.85-0.82c0.45,0.14,0.47,0.62,0.16,1.02c0,0.01,0,0.01,0,0.02c-0.31,1.12-0.15,2.23-0.09,3.37
		c0.09,1.75,0.54,3.44,0.56,5.19c0.18-0.03,0.38-0.15,0.49,0.06C98.24,35.22,97.84,35.19,97.76,35.36z M98.77,111.35
		c-0.25,0.06-0.24-0.16-0.23-0.28c0.02-0.25,0.16-0.44,0.43-0.46c0.21-0.03,0.23,0.15,0.26,0.3C99.22,111.2,99,111.29,98.77,111.35z
		 M111.56,109.52c-0.09-0.2-0.2-0.33-0.21-0.47c-0.01-0.14,0.15-0.16,0.24-0.1c0.09,0.06,0.19,0.17,0.19,0.26
		C111.79,109.29,111.67,109.38,111.56,109.52z"/>
	<path class="st0" d="M123.41,27.25c-0.06,0.01-0.12,0-0.17,0c0.21,0.44-0.19,0.77-0.23,1.17c0.14-0.15,0.27-0.3,0.41-0.45
		C123.41,27.73,123.41,27.49,123.41,27.25z"/>
	<path class="st0" d="M84.95,110.54c-0.04,0.01-0.07,0.01-0.11,0.02c0.05,0.2,0.14,0.43,0.36,0.41c1.26-0.11,2.45,0.64,3.73,0.3
		c-0.01-0.02-0.02-0.04-0.02-0.06c-0.82-0.31-1.69-0.23-2.55-0.36C85.88,110.78,85.41,110.72,84.95,110.54z"/>
	<path class="st0" d="M109.61,103.88c-0.03-0.09-0.04-0.18-0.07-0.26c-0.09,1.19-0.19,2.38-0.28,3.58c0.03-0.05,0.04-0.1,0.07-0.16
		C109.59,105.99,109.73,104.95,109.61,103.88z"/>
	<path class="st0" d="M27.55,116.73c-1.13-0.25-1.22,0.72-1.56,1.39c0,0,0.01,0,0.01-0.01C26.44,117.55,26.87,116.99,27.55,116.73z"
		/>
	<path class="st0" d="M24.49,48.11c0.61,0.36,0.95,1.52,1.97,0.67c-0.03-0.04-0.07-0.07-0.1-0.1c-0.55-0.1-1.09-0.23-1.58-0.5
		C24.68,48.16,24.58,48.14,24.49,48.11z"/>
	<path class="st0" d="M115.63,88.88c0.6-0.7,0.28-1.49,0.17-2.25C115.75,87.38,115.97,88.15,115.63,88.88z"/>
	<path class="st0" d="M65.53,71.71c0.19-0.33,0-0.57-0.15-0.81c-0.04-0.03-0.08-0.06-0.11-0.1c0.11,0.88-0.52,1.82,0.19,2.66
		c0.01-0.07,0.01-0.14,0.01-0.21C65.37,72.73,65.24,72.22,65.53,71.71z"/>
	<path class="st0" d="M119.65,38.92c0.03-0.05,0.07-0.1,0.13-0.13c0.01-0.01,0.01-0.03,0.03-0.04c0.16-0.45,0.91-0.82,0.28-1.38
		C120.22,37.93,119.65,38.38,119.65,38.92z"/>
	<path class="st0" d="M75.26,110.12c-0.07,0-0.15,0-0.22,0c0.9,0.83,1.77,0.1,2.66-0.04c-0.09,0-0.18,0-0.28,0
		C76.7,110.18,75.98,110.32,75.26,110.12z"/>
	<path class="st0" d="M110.31,113.86c-0.01,0.01-0.02,0.02-0.03,0.03c0.93,0.01,1.66-0.21,1.68-1.3
		C111.63,113.28,111.09,113.73,110.31,113.86z"/>
	<path class="st0" d="M113.11,62.72c0-0.02,0-0.04,0-0.06c-0.64,0.65-0.43,1.29,0.02,1.93c0.01-0.02,0.02-0.04,0.04-0.05
		C113.17,63.93,112.8,63.33,113.11,62.72z"/>
	<path class="st0" d="M116.12,83.02c0.26-0.67,0.05-1.42,0.3-2.08C115.91,81.56,116.24,82.33,116.12,83.02z"/>
	<path class="st0" d="M78.92,107.32c0.2-0.4,0.46-0.72,0.92-0.84c-0.86-0.3-0.88-0.3-0.98,0.83c0.01,0.02,0.02,0.04,0.03,0.06
		C78.89,107.35,78.9,107.33,78.92,107.32z"/>
	<path class="st0" d="M77.47,58.79c-0.01,0.01-0.02,0.01-0.02,0.02c0.59-0.19,1.06-0.49,1.19-1.13
		C78.17,57.98,77.96,58.53,77.47,58.79z"/>
	<path class="st0" d="M43.89,112.36c0.51-0.15,1.06-0.06,1.58-0.12C44.94,112.21,44.39,112.1,43.89,112.36z"/>
	<path class="st0" d="M115.83,85.07c0.35-0.39,0.58-0.78,0.13-1.19C116.15,84.28,115.9,84.67,115.83,85.07z"/>
	<path class="st0" d="M79.61,56.9c0.61,0.22,0.8-0.2,0.94-0.67c-0.29,0.23-0.64,0.39-0.91,0.64C79.63,56.88,79.62,56.89,79.61,56.9z
		"/>
	<path class="st0" d="M81.1,110.06c-0.02,0.01-0.04,0.01-0.06,0.02c0,0.01,0,0.02,0,0.02c0.14,0.26,0.3,0.03,0.45,0.02
		c-0.01-0.04-0.01-0.09-0.01-0.13C81.36,109.85,81.23,109.91,81.1,110.06z"/>
	<path class="st0" d="M117.67,60.7c0.21-0.35,0.2-0.7,0.03-1.06C117.62,60,117.62,60.35,117.67,60.7z"/>
	<path class="st0" d="M105.64,36.79C105.64,36.79,105.64,36.8,105.64,36.79c0.53,0.08,0.78-0.28,1.02-0.65c-0.01,0-0.01,0-0.02-0.01
		c-0.41,0.07-0.56,0.53-0.95,0.64C105.67,36.78,105.66,36.78,105.64,36.79z"/>
	<path class="st0" d="M49.15,111.65c-0.36-0.07-0.7,0.04-1.01,0.25C48.5,111.95,48.82,111.72,49.15,111.65z"/>
	<path class="st0" d="M117.33,66.03c0.03,0,0.06,0,0.08,0c0.18-0.03,0.4-0.01,0.41-0.26c0.01-0.23-0.15-0.34-0.34-0.43
		C117.57,65.59,117.33,65.79,117.33,66.03z"/>
	<path class="st0" d="M69.13,97.09c0.23-0.34,0.25-0.68,0.03-1.01C69.24,96.41,69.04,96.75,69.13,97.09z"/>
	<path class="st0" d="M89.45,107.25c0-0.01,0.01-0.01,0.01-0.02c-0.45,0-0.91-0.14-1.32,0.1C88.56,107.16,89.06,107.66,89.45,107.25
		z"/>
	<path class="st0" d="M18.15,47.06c0.01,0.02,0.01,0.05,0.02,0.07c0.37,0.01,0.21-0.43,0.42-0.55c-0.02-0.02-0.03-0.04-0.05-0.06
		C18.2,46.52,18.18,46.8,18.15,47.06z"/>
	<path class="st0" d="M65.72,86.13c-0.34,0.32-0.33,0.64,0,0.96c0.02-0.02,0.02-0.03,0.04-0.05c0.01-0.29,0.01-0.58,0-0.86
		C65.74,86.16,65.73,86.15,65.72,86.13z"/>
	<path class="st0" d="M80.62,56.13c0.21-0.28,0.41-0.56,0.62-0.85C80.94,55.48,80.65,55.71,80.62,56.13z"/>
	<path class="st0" d="M112.16,77.56c0.04-0.21-0.05-0.38-0.14-0.55c-0.03-0.01-0.04-0.02-0.07-0.02c-0.09,0.17-0.18,0.35-0.27,0.53
		c0.15,0.05,0.29,0.1,0.44,0.15C112.13,77.63,112.14,77.6,112.16,77.56z"/>
	<path class="st0" d="M117.33,66.1c-0.02,0.34,0,0.69,0.06,1.03c0.01-0.37,0.02-0.73,0.03-1.1
		C117.39,66.07,117.36,66.08,117.33,66.1C117.33,66.1,117.33,66.1,117.33,66.1z"/>
	<path class="st0" d="M117.33,66.1c0-0.02,0.01-0.04,0.01-0.06c-0.05,0-0.1,0.01-0.16,0.01C117.23,66.11,117.28,66.12,117.33,66.1z"
		/>
	<path class="st0" d="M67.74,70.36c0.13,0.29,0.02,0.61,0.13,0.9C68.08,70.91,68.08,70.61,67.74,70.36z"/>
	<path class="st0" d="M53.01,114.58c0.49,0.08,0.9-0.07,1.22-0.45c-0.07-0.01-0.13-0.01-0.2-0.01c-0.3,0.11-0.61,0.16-0.89,0.31
		C53.09,114.48,53.04,114.51,53.01,114.58z"/>
	<path class="st0" d="M50.37,111.35c0.13-0.11,0.28-0.15,0.45-0.16c-0.18-0.2-0.42-0.21-0.65-0.11c-0.19,0.07-0.06,0.26-0.02,0.4
		c0.02,0,0.03,0,0.04,0.01C50.25,111.44,50.31,111.4,50.37,111.35z"/>
	<path class="st0" d="M21.47,62.25c-0.11,0.35-0.13,0.72-0.16,1.08C21.49,62.99,21.61,62.64,21.47,62.25z"/>
	<path class="st0" d="M32.68,118.59c0.01,0.03,0,0.05,0.01,0.09c0.35,0.01,0.69,0.02,0.75-0.45c-0.04,0.02-0.09,0.03-0.15,0.02
		c-0.2,0.09-0.42,0.12-0.56,0.32C32.71,118.58,32.69,118.59,32.68,118.59z"/>
	<path class="st0" d="M108.83,109.66c0-0.02-0.01-0.04-0.01-0.07c-0.26,0.25-0.44,0.55-0.5,0.91c0.01,0,0.02,0,0.03,0
		C108.63,110.28,108.73,109.97,108.83,109.66z"/>
	<path class="st0" d="M22.86,85.74c0.01-0.27,0.23-0.53,0.01-0.8C22.76,85.21,22.65,85.47,22.86,85.74z"/>
	<path class="st0" d="M90.93,47.58c-0.02,0.01-0.03,0.01-0.05,0.02c0.35-0.11,0.83-0.11,0.67-0.7
		C91.37,47.16,91.18,47.39,90.93,47.58z"/>
	<path class="st0" d="M114.3,106.19c0.15-0.29,0.1-0.52-0.09-0.71C114.27,105.7,114.12,105.99,114.3,106.19z"/>
	<path class="st0" d="M86.88,107.01c0.22,0.18,0.49,0.24,0.76,0.32C87.42,107.14,87.17,107.03,86.88,107.01z"/>
	<path class="st0" d="M109.04,108.65c-0.01-0.01-0.01-0.03-0.02-0.04c-0.33,0.19-0.4,0.44-0.16,0.75c0.01,0,0.02-0.01,0.04-0.01
		c0-0.01,0-0.01,0-0.02C109.03,109.12,108.96,108.87,109.04,108.65z"/>
	<path class="st0" d="M119.74,39.28c0,0.21,0.08,0.43-0.11,0.6c0,0,0,0.01,0,0.01c0.56-0.28,0.01-0.78,0.18-1.13
		c-0.01,0.01-0.02,0.02-0.03,0.03c-0.06,0.08-0.07,0.19-0.11,0.29C119.69,39.15,119.7,39.21,119.74,39.28z"/>
	<path class="st0" d="M119.65,38.92c-0.05,0.08-0.07,0.18-0.07,0.29c0.05-0.03,0.08-0.08,0.09-0.13
		C119.66,39.03,119.65,38.97,119.65,38.92z"/>
	<path class="st0" d="M24.85,111.44c0,0.01,0,0.02,0.01,0.02c0.27-0.27,0.17-0.6,0.14-0.92c0,0,0,0-0.01,0.01
		C24.81,110.82,24.94,111.15,24.85,111.44z"/>
	<path class="st0" d="M69.35,103.03c-0.04,0.17,0.11,0.19,0.19,0.27c0-0.06,0.01-0.12,0.01-0.18c0,0,0-0.01-0.01-0.01
		C69.46,103.15,69.39,103.14,69.35,103.03z"/>
	<path class="st0" d="M86.09,51.19c0.33-0.01,0.67,0.02,0.71-0.44c-0.2,0.18-0.47,0.24-0.68,0.42
		C86.11,51.17,86.1,51.18,86.09,51.19z"/>
	<path class="st0" d="M23.16,91.33c0,0.01,0,0.03,0,0.04c0.3-0.22,0.65-0.43,0.06-0.65C23.34,90.92,23.3,91.13,23.16,91.33z"/>
	<path class="st0" d="M80.77,106.4c-0.22-0.19-0.44-0.22-0.65,0.03c0,0,0.01,0,0.01,0C80.34,106.49,80.56,106.36,80.77,106.4z"/>
	<path class="st0" d="M20.79,57.83c0,0.01,0,0.01,0,0.02c0.22-0.21,0.21-0.41,0.02-0.61C20.83,57.44,20.72,57.63,20.79,57.83z"/>
	<path class="st0" d="M74.59,61.48C74.59,61.49,74.59,61.49,74.59,61.48c0.3-0.14,0.47-0.36,0.45-0.7
		c-0.17,0.21-0.25,0.47-0.41,0.68C74.61,61.47,74.6,61.48,74.59,61.48z"/>
	<path class="st0" d="M112.04,77.84c-0.15-0.03-0.26-0.17-0.36-0.32c-0.14,0.29-0.15,0.5,0.27,0.48c0.02,0,0.03-0.01,0.04-0.01
		c0-0.01,0-0.01,0-0.02C112,77.93,112.02,77.88,112.04,77.84z"/>
	<path class="st0" d="M112.04,77.84c0.09,0.02,0.19,0.01,0.32-0.09c-0.08-0.03-0.16-0.06-0.24-0.08
		C112.09,77.72,112.07,77.78,112.04,77.84z"/>
	<path class="st0" d="M68.84,77.74c0.15-0.23,0.14-0.47-0.01-0.7C68.71,77.27,68.76,77.5,68.84,77.74z"/>
	<path class="st0" d="M112.27,111.65c0.18-0.2,0.44-0.41,0.01-0.6C112.4,111.25,112.27,111.46,112.27,111.65z"/>
	<path class="st0" d="M112.41,32.53c0.23,0.1,0.47,0.2,0.48-0.21c-0.15,0.06-0.33,0.03-0.44,0.19
		C112.43,32.51,112.42,32.52,112.41,32.53z"/>
	<path class="st0" d="M50.17,111.5c-0.01-0.01-0.02-0.01-0.03-0.02c-0.18,0.06-0.35,0.12-0.53,0.18
		C49.83,111.7,50.01,111.62,50.17,111.5z"/>
	<path class="st0" d="M50.17,111.5c0.07,0.08,0.14,0.09,0.23,0.01c-0.07-0.01-0.14-0.02-0.21-0.02
		C50.19,111.49,50.18,111.5,50.17,111.5z"/>
	<path class="st0" d="M100.92,22.55c-0.03-0.46-0.23-0.88-0.67-0.97c-0.56-0.11-1.29-1.22-1.76,0.1c0.01,0,0.02,0,0.03,0
		C99.84,21.24,100.15,21.34,100.92,22.55z"/>
	<path class="st0" d="M16.16,56.47c-0.25,1.03,0.17,1.94,0.48,2.88c0-0.02,0-0.04,0-0.05c-0.26-0.92,0.03-1.94-0.46-2.82
		C16.17,56.47,16.16,56.47,16.16,56.47z"/>
	<path class="st0" d="M29.96,29.1c0.06-0.01,0.11-0.01,0.17,0c0.14-0.17,0.35-0.3,0.39-0.53c-0.01-0.02-0.03-0.03-0.04-0.05
		c-0.12-0.22-0.22-0.45-0.14-0.71c-0.01-0.02-0.01-0.03-0.02-0.05c-0.65,0.51-1.25,1.02-0.51,1.9c0-0.01,0-0.02,0-0.03
		C29.69,29.41,29.73,29.24,29.96,29.1z"/>
	<path class="st0" d="M18.98,89.24c-0.03-0.17-0.09-0.33-0.19-0.49c-0.34,0.81-0.57,1.63,0.01,2.44c0-0.06,0.01-0.11,0.01-0.17
		c-0.03-0.05-0.06-0.09-0.06-0.15C18.64,90.31,18.96,89.78,18.98,89.24z"/>
	<path class="st0" d="M16.1,41.5c0.61-0.46,1.16,0.05,1.75,0.11c-0.56-0.45-1.23-0.49-1.9-0.48c0,0.11,0,0.22,0,0.33
		C16,41.48,16.05,41.5,16.1,41.5z"/>
	<path class="st0" d="M61.27,56c0.33,0.51,0.83,0.93,0.91,1.58C62.37,56.77,61.86,56.36,61.27,56z"/>
	<path class="st0" d="M40.8,35.59c-0.4-0.44-0.53-1.2-1.33-1.15C40.05,34.66,40.19,35.4,40.8,35.59z"/>
	<path class="st0" d="M21.15,111.12c-0.13-0.16-0.33-0.07-0.48-0.12c-0.02,0-0.03,0-0.05,0c-0.04-0.01-0.08,0-0.12,0
		c0,0.11,0.01,0.22,0.02,0.33c0.02,0.01,0.04,0.01,0.07,0.02c0-0.04-0.01-0.09-0.02-0.13C20.7,110.91,20.94,111.12,21.15,111.12z"/>
	<path class="st0" d="M86.54,32.06c0-0.01,0-0.02,0-0.03c-0.71-0.17-0.62,0.26-0.52,0.7c0.01,0,0.01,0.01,0.02,0.01
		c0.01-0.01,0.01-0.03,0.02-0.04C86.37,32.6,86.38,32.28,86.54,32.06z"/>
	<path class="st0" d="M20.71,110.36c-0.14-0.3-0.16-0.63-0.18-0.95c-0.02-0.02-0.03-0.04-0.06-0.06c-0.46,0.51-0.22,0.89,0.23,1.23
		c0,0,0,0,0-0.01C20.7,110.5,20.71,110.43,20.71,110.36z"/>
	<path class="st0" d="M27.67,39.7c-0.43,0.18-0.51,0.55-0.48,0.96c0.02-0.02,0.04-0.03,0.06-0.05c0.19-0.27,0.31-0.58,0.44-0.88
		C27.68,39.72,27.67,39.71,27.67,39.7z"/>
	<path class="st0" d="M51.88,43.74c0.21,0.1,0.44,0.15,0.65,0.24C52.37,43.72,52.25,43.38,51.88,43.74z"/>
	<path class="st0" d="M76.87,46.72c0.02-0.04,0.04-0.07,0.1-0.09c-0.41,0.06-0.75,0.16-0.49,0.69c0.01,0,0.02,0,0.03,0
		c0-0.01,0.01-0.02,0.01-0.02C76.7,47.16,76.72,46.89,76.87,46.72z"/>
	<path class="st0" d="M45.79,39.15c-0.12-0.21-0.23-0.43-0.4-0.57c-0.3-0.27-0.21,0.04-0.24,0.17c0.01,0,0.01,0.01,0.02,0.01
		C45.41,38.84,45.6,39,45.79,39.15z"/>
	<path class="st0" d="M107.81,30.36c-0.33-0.18-0.56-0.12-0.68,0.28c0,0,0,0,0.01,0.01c0.01-0.02,0.03-0.03,0.04-0.05
		C107.53,30.88,107.61,30.46,107.81,30.36z"/>
	<path class="st0" d="M15.83,41.41c0.01-0.09,0.05-0.19,0.12-0.28c0,0,0-0.01,0-0.01c-0.35-0.21-0.39,0.05-0.46,0.28
		c0,0,0.01,0.01,0.01,0.01c0,0,0,0,0.01,0C15.63,41.34,15.73,41.37,15.83,41.41z"/>
	<path class="st0" d="M15.95,41.46c-0.04-0.02-0.08-0.04-0.12-0.06c-0.02,0.14,0.02,0.28,0.11,0.42c0,0,0.01,0.01,0.01,0.01
		C15.95,41.72,15.95,41.59,15.95,41.46z"/>
	<path class="st0" d="M17.09,66.5c0-0.06,0.01-0.13,0.02-0.19c-0.14-0.28,0.02-0.67-0.19-1.03C16.94,65.7,16.75,66.14,17.09,66.5z"
		/>
	<path class="st0" d="M94.01,22.99c0-0.01,0-0.01,0-0.01c-0.25,0.05-0.45,0.18-0.5,0.45c0.01-0.01,0.02-0.01,0.03-0.02
		C93.75,23.33,93.91,23.2,94.01,22.99z"/>
	<path class="st0" d="M17.19,60.99C17.19,60.99,17.19,60.98,17.19,60.99c-0.25,0.1-0.3,0.3-0.29,0.54c0,0,0.01,0,0.01,0
		c0,0,0-0.01,0-0.01C17.09,61.38,17.15,61.2,17.19,60.99z"/>
	<path class="st0" d="M30.28,29.13c0.16,0.04,0.32,0.09,0.44-0.04c0.13-0.15,0.03-0.27-0.08-0.39
		C30.66,28.94,30.5,29.06,30.28,29.13z"/>
	<path class="st0" d="M30.13,29.1c-0.02,0.03-0.05,0.06-0.07,0.09c0.08-0.02,0.15-0.04,0.22-0.06
		C30.23,29.12,30.18,29.11,30.13,29.1z"/>
	<path class="st0" d="M30.52,28.57c0.03,0.04,0.07,0.09,0.11,0.13c-0.01-0.07-0.03-0.16-0.08-0.26c0,0-0.01,0-0.01,0
		C30.55,28.49,30.53,28.52,30.52,28.57z"/>
	<path class="st0" d="M92.54,29.65c-0.17,0.67-0.81,0.94-1.18,1.43C92.07,30.88,92.54,30.45,92.54,29.65z"/>
	<path class="st0" d="M33.34,35.49c-0.02,0.04-0.04,0.08-0.04,0.11c0.04,0,0.09,0,0.13,0.04c0.31-0.56,0.65,0.06,0.97-0.02
		C34.05,35.57,33.81,34.62,33.34,35.49z"/>
	<path class="st0" d="M43.98,42.61c-0.99,0.18-1.24-0.69-1.73-1.22C42.63,42.08,42.82,43.03,43.98,42.61z"/>
	<path class="st0" d="M97.12,26.3c0.01-0.01,0.01-0.02,0.01-0.03c0.08-0.26,0.18-0.58-0.09-0.69c-0.43-0.18-0.69,0.16-0.91,0.48
		c0,0-0.01,0-0.01,0.01c0,0,0,0,0,0C96.47,26.1,97.03,25.16,97.12,26.3z"/>
	<path class="st0" d="M33.43,35.64c-0.04,0.03-0.08,0.06-0.12,0.1c0.05,0.2,0.25,0.39,0.11,0.61c0,0,0.01,0.01,0.01,0.01
		C33.82,36.12,33.42,35.88,33.43,35.64z"/>
	<path class="st0" d="M33.3,35.74c-0.01-0.04-0.02-0.09-0.01-0.13c-0.19,0.02-0.39,0.3-0.58,0.03C32.91,36.06,33.11,35.9,33.3,35.74
		z"/>
	<path class="st0" d="M81.55,49.78C81.55,49.78,81.55,49.78,81.55,49.78c0.01,0,0.01,0,0.01,0c0.33-0.31,0.92-0.24,1.13-0.74
		c0-0.01,0-0.01,0-0.02C82.33,49.31,81.62,49.06,81.55,49.78z"/>
	<path class="st0" d="M91.08,32.26c-0.17,0.52-0.69,0.76-0.94,1.21c0,0,0,0,0,0.01C90.56,33.16,91.21,33.01,91.08,32.26z"/>
	<path class="st0" d="M42.06,49.52c-0.39,0-0.79,0.01-1.17,0.02c0.46,0.17,1.01,0.02,1.39,0.44C42.32,49.77,42.44,49.53,42.06,49.52
		z"/>
	<path class="st0" d="M53.98,112.23c0.2,0.21,0.45,0.26,0.74,0.23C54.54,112.18,54.25,112.23,53.98,112.23z"/>
	<path class="st0" d="M79.38,49.53c-0.17,0.14-0.28,0.34-0.48,0.46c0,0,0,0,0,0C79.34,50.13,79.34,49.81,79.38,49.53z"/>
	<path class="st0" d="M74.59,54.5c-0.18,0.11-0.1,0.37-0.26,0.49C74.54,54.9,74.57,54.7,74.59,54.5z"/>
	<path class="st0" d="M31.03,42.11c-0.01,0-0.01,0-0.02,0.01c-0.11,0.27-0.04,0.59-0.18,0.86c0,0.03,0,0.06-0.02,0.09
		C31.12,42.8,31.23,42.49,31.03,42.11z"/>
	<path class="st0" d="M59.23,57.91C59.23,57.91,59.23,57.91,59.23,57.91c-0.07,0.06-0.14,0.14-0.2,0.22c0,0,0,0,0,0
		C59.12,58.09,59.19,58.02,59.23,57.91z"/>
	<path class="st0" d="M97.6,34.85c-0.01,0-0.01,0-0.02,0c-0.02,0.2-0.01,0.39,0.17,0.53c0-0.01,0.01-0.02,0.01-0.02
		C97.7,35.19,97.77,34.98,97.6,34.85C97.6,34.85,97.6,34.85,97.6,34.85z"/>
</g>
</svg>
