
<svg width="50px" height="50px" viewBox="0 0 50 50" version="1.1" xmlns="http://www.w3.org/2000/svg" xmlns:xlink="http://www.w3.org/1999/xlink">
    <!-- Generator: Sketch 45.2 (43514) - http://www.bohemiancoding.com/sketch -->
    <desc>Created with Sketch.</desc>
    <defs>
        <polygon id="path-1" points="0.00731707317 0.0487804878 0.00731707317 50.0002439 49.9514634 50.0002439 49.9514634 0.0487804878 0.00731707317 0.0487804878"></polygon>
    </defs>
    <g id="Mobile" stroke="none" stroke-width="1" fill="none" fill-rule="evenodd">
        <g id="Home---Petition-Signed---414" transform="translate(-145.000000, -1033.000000)">
            <g id="009-facebook-logo-button" transform="translate(145.000000, 1033.000000)">
                <mask id="mask-2" fill="white">
                    <use xlink:href="#path-1"></use>
                </mask>
                <g id="Clip-2"></g>
                <path d="M24.9757317,0.0487804878 C11.2042683,0.0487804878 0,11.2530488 0,25.0245122 C0,38.795 11.2042683,50.0002439 24.9757317,50.0002439 C38.7462195,50.0002439 49.9514634,38.795 49.9514634,25.0245122 C49.9514634,11.2530488 38.7480488,0.0487804878 24.9757317,0.0487804878 Z M31.1865854,25.9039024 L27.1236585,25.9039024 L27.1236585,40.3865854 L21.1023171,40.3865854 L21.1023171,25.9039024 L18.2402439,25.9039024 L18.2402439,20.7847561 L21.1023171,20.7847561 L21.1023171,17.4740244 C21.1023171,15.1030488 22.2289024,11.3978049 27.1789024,11.3978049 L31.6406098,11.415 L31.6406098,16.3835366 L28.4021951,16.3835366 C27.874878,16.3835366 27.1256098,16.6469512 27.1256098,17.7779268 L27.1256098,20.7862195 L31.7130488,20.7862195 L31.1865854,25.9039024 Z" id="Fill-1" fill="#FFFFFF" mask="url(#mask-2)"></path>
            </g>
        </g>
    </g>
</svg>