
<svg width="50px" height="50px" viewBox="0 0 50 50" version="1.1" xmlns="http://www.w3.org/2000/svg" xmlns:xlink="http://www.w3.org/1999/xlink">
    <!-- Generator: Sketch 45.2 (43514) - http://www.bohemiancoding.com/sketch -->
    <desc>Created with Sketch.</desc>
    <defs></defs>
    <g id="Mobile" stroke="none" stroke-width="1" fill="none" fill-rule="evenodd" opacity="0.25">
        <g id="Home---Children-Drawer-Open---414" transform="translate(-145.000000, -3973.000000)" fill="#231F20">
            <g id="Pillars" transform="translate(0.000000, 2041.000000)">
                <g id="Child-Drawer-Open" transform="translate(6.000000, 377.000000)">
                    <path d="M170.216889,1580.88024 L166.150014,1580.88024 L166.150014,1595.377 L160.122822,1595.377 L160.122822,1580.88024 L157.257967,1580.88024 L157.257967,1575.75612 L160.122822,1575.75612 L160.122822,1572.44218 C160.122822,1570.0689 161.250502,1566.36005 166.205311,1566.36005 L170.671354,1566.37726 L170.671354,1571.35063 L167.429793,1571.35063 C166.901963,1571.35063 166.151967,1571.6143 166.151967,1572.74637 L166.151967,1575.75759 L170.743864,1575.75759 L170.216889,1580.88024 Z M164,1555 C150.215155,1555 139,1566.21516 139,1580 C139,1593.78387 150.215155,1605 164,1605 C177.783868,1605 189,1593.78387 189,1580 C189,1566.21516 177.785699,1555 164,1555 L164,1555 Z" id="Page-1"></path>
                </g>
            </g>
        </g>
    </g>
</svg>