
<svg width="20px" height="23px" viewBox="0 0 20 23" version="1.1" xmlns="http://www.w3.org/2000/svg" xmlns:xlink="http://www.w3.org/1999/xlink">
    <!-- Generator: Sketch 45.2 (43514) - http://www.bohemiancoding.com/sketch -->
    <desc>Created with Sketch.</desc>
    <defs>
        <polygon id="path-1" points="0.109012698 0.0954321633 8.87489683 0.0954321633 8.87489683 8.84126177 0.109012698 8.84126177 0.109012698 0.0954321633"></polygon>
        <polygon id="path-3" points="0 8.8899431 0 0.144058857 8.76586587 0.144058857 8.76586587 8.8899431 8.83296713e-17 8.8899431"></polygon>
        <polygon id="path-5" points="8.87489683 0.17815218 8.87489683 8.924 0.109012698 8.924 0.109012698 0.17815218 8.87489683 0.17815218"></polygon>
    </defs>
    <g id="Symbols" stroke="none" stroke-width="1" fill="none" fill-rule="evenodd">
        <g id="Header---Mobile" transform="translate(-377.000000, -14.000000)">
            <g id="Page-1" transform="translate(377.000000, 14.000000)">
                <g id="Group-3" transform="translate(10.769841, 0.086690)">
                    <mask id="mask-2" fill="white">
                        <use xlink:href="#path-1"></use>
                    </mask>
                    <g id="Clip-2"></g>
                    <path d="M8.87493333,4.46831965 C8.87493333,6.88344544 6.91263175,8.84126177 4.49197302,8.84126177 C2.07131429,8.84126177 0.109012698,6.88344544 0.109012698,4.46831965 C0.109012698,2.05319385 2.07131429,0.0953775265 4.49197302,0.0953775265 C6.91263175,0.0953775265 8.87493333,2.05319385 8.87493333,4.46831965" id="Fill-1" fill="#FFFFFF" mask="url(#mask-2)"></path>
                </g>
                <g id="Group-6" transform="translate(0.000000, 6.643098)">
                    <mask id="mask-4" fill="white">
                        <use xlink:href="#path-3"></use>
                    </mask>
                    <g id="Clip-5"></g>
                    <path d="M8.76586587,4.51700098 C8.76586587,6.93212678 6.80356429,8.8899431 4.38290556,8.8899431 C1.96224683,8.8899431 -5.47619048e-05,6.93212678 -5.47619048e-05,4.51700098 C-5.47619048e-05,2.10187518 1.96224683,0.144058857 4.38290556,0.144058857 C6.80356429,0.144058857 8.76586587,2.10187518 8.76586587,4.51700098" id="Fill-4" fill="#FFFFFF" mask="url(#mask-4)"></path>
                </g>
                <g id="Group-9" transform="translate(10.769841, 13.745874)">
                    <mask id="mask-6" fill="white">
                        <use xlink:href="#path-5"></use>
                    </mask>
                    <g id="Clip-8"></g>
                    <path d="M8.87493333,4.5510943 C8.87493333,6.9662201 6.91263175,8.92403642 4.49197302,8.92403642 C2.07131429,8.92403642 0.109012698,6.9662201 0.109012698,4.5510943 C0.109012698,2.13596851 2.07131429,0.17815218 4.49197302,0.17815218 C6.91263175,0.17815218 8.87493333,2.13596851 8.87493333,4.5510943" id="Fill-7" fill="#FFFFFF" mask="url(#mask-6)"></path>
                </g>
            </g>
        </g>
    </g>
</svg>