
<svg width="50px" height="50px" viewBox="0 0 50 50" version="1.1" xmlns="http://www.w3.org/2000/svg" xmlns:xlink="http://www.w3.org/1999/xlink">
    <!-- Generator: Sketch 45.2 (43514) - http://www.bohemiancoding.com/sketch -->
    <desc>Created with Sketch.</desc>
    <defs>
        <polygon id="path-1" points="0.00731707317 0.0486618005 0.00731707317 49.8785888 49.9514634 49.8785888 49.9514634 0.0486618005 0.00731707317 0.0486618005"></polygon>
    </defs>
    <g id="Mobile" stroke="none" stroke-width="1" fill="none" fill-rule="evenodd">
        <g id="Home---Petition-Signed---414" transform="translate(-220.000000, -1033.000000)">
            <g id="008-twitter-logo-button" transform="translate(220.000000, 1033.000000)">
                <mask id="mask-2" fill="white">
                    <use xlink:href="#path-1"></use>
                </mask>
                <g id="Clip-2"></g>
                <path d="M24.9757317,0 C11.2042683,0 0,11.1770073 0,24.9149635 C0,38.6519465 11.2042683,49.829927 24.9757317,49.829927 C38.7462195,49.829927 49.9514634,38.6519465 49.9514634,24.9149635 C49.9514634,11.1770073 38.7480488,0 24.9757317,0 Z M36.117561,19.2124088 C36.1285366,19.4594891 36.1342683,19.7085158 36.1342683,19.957056 C36.1342683,27.5352798 30.3539024,36.2701946 19.777561,36.2701946 C16.5310976,36.2701946 13.5089024,35.3239659 10.9656098,33.6958637 C11.4152439,33.7491484 11.8730488,33.7762774 12.3370732,33.7762774 C15.0309756,33.7762774 17.5090244,32.8591241 19.4764634,31.3217762 C16.9617073,31.2756691 14.8380488,29.6176399 14.1063415,27.3385645 C14.4564634,27.4046229 14.817561,27.4416058 15.1867073,27.4416058 C15.7112195,27.4416058 16.22,27.3737226 16.7020732,27.2420925 C14.072561,26.7164234 12.0912195,24.3989051 12.0912195,21.6188564 C12.0912195,21.5951338 12.0912195,21.5699513 12.0921951,21.5465937 C12.8673171,21.9753041 13.7532927,22.2343066 14.695122,22.2632603 C13.1535366,21.2367397 12.1389024,19.4804136 12.1389024,17.4911192 C12.1389024,16.4395377 12.4213415,15.4538929 12.9163415,14.607056 C15.7502439,18.0776156 19.987561,20.3594891 24.7641463,20.6004866 C24.6656098,20.179927 24.6164634,19.7431873 24.6164634,19.2927007 C24.6164634,16.126399 27.189878,13.5582725 30.3639024,13.5582725 C32.0179268,13.5582725 33.509878,14.2549878 34.559878,15.3688564 C35.8708537,15.1118005 37.0984146,14.6361314 38.2117073,13.9770073 C37.7791463,15.316545 36.8707317,16.4395377 35.6807317,17.15 C36.8445122,17.0116788 37.9553659,16.7046229 38.982439,16.2480535 C38.2159756,17.3961071 37.2408537,18.4064477 36.117561,19.2124088 Z" id="Fill-1" fill="#FFFFFF" mask="url(#mask-2)"></path>
            </g>
        </g>
    </g>
</svg>