
<svg width="33px" height="28px" viewBox="0 0 33 28" version="1.1" xmlns="http://www.w3.org/2000/svg" xmlns:xlink="http://www.w3.org/1999/xlink">
    <!-- Generator: Sketch 45.2 (43514) - http://www.bohemiancoding.com/sketch -->
    <desc>Created with Sketch.</desc>
    <defs>
        <polygon id="path-1" points="5.08447637 0.0698901726 5.08447637 7.23463129 0.0169921953 7.23463129 0.0169921953 0.0698901726 5.08447637 0.0698901726"></polygon>
        <polygon id="path-3" points="0 7.22237855 0 0.11434831 5.08717711 0.11434831 5.08717711 7.22237855 3.14338743e-16 7.22237855"></polygon>
        <polygon id="path-5" points="0.0459609142 3.67422622 20.0604199 3.67422622 20.0604199 0.0361313336 0.0459609142 0.0361313336"></polygon>
    </defs>
    <g id="Symbols" stroke="none" stroke-width="1" fill="none" fill-rule="evenodd">
        <g id="Header---Mobile" transform="translate(-15.000000, -11.000000)">
            <g id="Header">
                <g id="Page-1" transform="translate(15.000000, 11.000000)">
                    <path d="M16.3047428,18.4595202 L16.3904272,18.5841244 C16.3904272,19.0493134 16.4473358,19.5256848 16.3904272,19.9852826 C16.8127403,19.8432657 17.3035367,19.8662696 17.7602521,19.7924656 C17.669102,19.7582793 17.577791,19.7355949 17.5093078,19.6448575 C17.2411623,19.6280839 17.1152882,19.3498012 17.0297646,19.1400508 C16.9895749,18.9868515 17.0924605,18.8620876 17.1554779,18.7315727 C17.0411785,18.4989782 16.6871878,18.6694303 16.4817382,18.5841244 C16.4245081,18.5387557 16.3846399,18.4705429 16.3047428,18.4595202 L16.3047428,18.4595202 Z M9.78549499,18.0622245 L9.76829381,18.1304373 L8.59234387,19.3044325 C10.3735503,20.8361055 12.3828734,21.8233542 14.6777039,22.1350244 C15.0431085,22.197646 15.4597951,22.1637792 15.813625,22.2712903 L15.7282621,22.1350244 L15.7282621,20.5980796 L15.7853314,20.5129334 L15.6081753,20.5584618 C13.3816673,20.4049431 11.4123731,19.6220134 9.78549499,18.0622245 L9.78549499,18.0622245 Z M22.4585861,18.0791579 L22.4299711,17.9432115 C22.2701769,18.2552013 21.916347,18.4536095 21.6480407,18.6917952 C21.2768488,19.0604958 20.6719138,19.1400508 20.4833439,19.6732928 C20.2836816,19.8544482 20.2150376,20.1384818 19.9354782,20.2405614 C19.8327534,20.5129334 19.5416194,20.4958403 19.3758771,20.6944082 C18.8964947,21.1198197 18.5881595,20.4220362 18.154111,20.33689 L17.2808697,20.4900893 C16.9783218,20.4900893 16.6756132,20.5980796 16.3904272,20.5015912 C16.4302954,21.0800422 16.4302954,21.7041814 16.3904272,22.2826324 L16.4987786,22.2147391 C19.2503246,22.0957261 21.625213,21.0575176 23.6633118,19.2192863 L22.4585861,18.0791579 Z M11.9089567,17.0184248 C11.9433591,17.1543711 12.125981,17.2395173 12.0745382,17.4098097 C11.9776007,17.5631687 11.7776169,17.5687599 11.6179835,17.5631687 C11.2926079,17.5118893 11.0527559,17.7556662 10.7444207,17.7898525 C10.4647005,17.8749987 10.367763,17.5345737 10.1107099,17.5631687 C11.6978806,18.9414828 13.5130071,19.803648 15.6367904,19.91691 L15.7965845,20.0249003 L15.7282621,19.8320833 L15.7282621,18.3344367 L15.5912957,18.3911476 C14.2037873,18.3232543 12.9879692,17.8181281 11.9089567,17.0184248 L11.9089567,17.0184248 Z M11.8692493,16.9728963 C11.7948181,16.9275276 11.7493234,16.8823186 11.7321222,16.7971724 L11.8692493,16.9728963 Z M11.6864667,16.7289596 L11.6634782,16.6891821 L11.6864667,16.7575547 L11.6864667,16.7289596 Z M20.8657888,16.5134583 L20.8259207,16.4057875 C20.7746387,16.5418936 20.6719138,16.6267203 20.5690283,16.7289596 C20.5746548,16.8195373 20.5404132,16.9559629 20.6490861,17.0184248 C20.8773635,17.0922288 21.174124,17.2395173 21.2255668,17.5061384 C21.1340951,17.7556662 20.6547127,17.9828293 20.9514732,18.2552013 C21.0484107,18.3911476 20.8145068,18.4422673 20.8545357,18.5556891 L20.934272,18.4480183 C21.2768488,18.1813972 21.6480407,17.9317096 21.9505886,17.6026267 L21.9904567,17.6026267 C21.9221343,17.5799424 21.8362891,17.6479954 21.7563921,17.6139689 C21.5965979,17.5403246 21.5681436,17.3984676 21.5681436,17.2339261 L20.8657888,16.5134583 Z M12.9366872,14.9306655 C12.5997369,15.3393034 12.2002515,15.7647149 11.8006054,16.0880468 C11.9776007,16.099389 12.0745382,16.2923657 12.2229185,16.3773522 C13.0794409,17.0863181 14.1467179,17.4267431 15.1402067,17.6708395 L14.8661132,17.5457561 C14.6605028,17.3133214 14.3695295,17.0409494 14.3581156,16.7176175 C14.5635653,16.6495644 14.5407375,16.4227209 14.6092207,16.2696814 C14.7805895,16.0880468 14.9860391,15.9917182 15.20869,15.9405985 C14.6320485,16.1787842 14.1296775,15.7535324 13.6501343,15.5321204 C13.4046558,15.3506456 13.0850674,15.2031973 12.9366872,14.9306655 L12.9366872,14.9306655 Z M18.4454058,14.7720348 C18.2682497,14.7720348 18.1770995,14.9083007 18.0457596,15.0158117 C17.8861262,15.1067089 17.8060684,14.8456791 17.6747285,14.9083007 C17.6805158,14.9365762 17.7091309,14.9479184 17.7319586,14.9591008 C17.7660395,14.9987186 17.7776141,15.0838648 17.7319586,15.1236423 C17.5377621,15.2995259 17.4462904,15.0386558 17.2636685,15.0554295 L17.2636685,15.1236423 C17.2694558,15.1634198 17.2524154,15.2257219 17.1953461,15.2031973 C17.0810466,15.0158117 16.8471427,15.0838648 16.7328433,14.9193233 C16.6585727,14.8798654 16.5900895,14.9306655 16.5388075,14.9760342 C16.4987786,15.0613402 16.3161567,14.9650116 16.3616514,15.1123001 C16.2190584,15.1634198 16.2018572,15.316619 16.0992932,15.4071967 C15.9222979,15.3787614 15.8424008,15.5774891 15.6766586,15.5718979 C15.6940205,15.6059244 15.6766586,15.6624755 15.7282621,15.6682265 C15.8308262,15.7135952 15.933551,15.7250971 16.0592643,15.7078442 C16.2304723,15.4354723 16.5159798,15.6624755 16.755671,15.5605557 C16.904212,15.5886715 16.8013265,15.7476217 16.9098386,15.8043326 C17.1437425,15.7306883 17.3208986,16.0029006 17.5093078,15.8329277 C17.4977332,15.5661469 17.8002811,15.5886715 17.9658625,15.5207782 C18.2229157,15.3677387 18.513889,15.1634198 18.4854347,14.8229947 L18.4454058,14.7720348 Z M17.8002811,14.3464636 C17.7834014,14.3918323 17.7205447,14.4713872 17.8002811,14.4996628 C17.9374082,14.3578057 18.2285423,14.3635567 18.2399561,14.1593975 C18.0399723,14.1308025 17.9374082,14.238633 17.8002811,14.3464636 L17.8002811,14.3464636 Z M14.4838289,13.3539432 C14.2381896,13.7507597 13.7700603,14.1138691 13.4274835,14.4827294 C14.0383666,14.9819449 14.7235202,15.2939347 15.4826228,15.4244496 C15.5226517,15.2710906 15.4597951,15.0782736 15.5398529,14.9479184 C15.5967615,14.8229947 15.7509291,14.8287457 15.8652285,14.85143 C15.933551,14.8456791 15.9735799,14.7605329 15.933551,14.7036622 C15.768291,14.6697955 15.8424008,14.4883206 15.7853314,14.386241 C15.790958,14.3295302 15.8878955,14.3407126 15.8652285,14.2670683 C15.7509291,14.1763309 15.9222979,14.0740916 15.8251996,13.9777629 C15.8652285,13.9494874 15.8936828,13.8870255 15.9509129,13.8870255 C15.5912957,14.0740916 15.2029026,13.847248 14.8833143,13.705391 C14.734934,13.6204045 14.5179098,13.5352583 14.4838289,13.3539432 L14.4838289,13.3539432 Z M21.6766558,13.3539432 C21.5110743,13.3424413 21.3112512,13.4389297 21.1683367,13.3253482 C21.1168939,13.2799795 21.0829738,13.3480325 21.0882789,13.3934012 C21.0315311,13.4787072 20.974301,13.586378 20.8431219,13.5466005 C20.740397,13.5012318 20.740397,13.3934012 20.7061554,13.314006 C20.711782,13.3764678 20.6889543,13.4331787 20.6777012,13.4898896 C20.5574536,13.6146535 20.517907,13.7338263 20.4320618,13.8700921 C20.3121359,14.0004473 20.1181001,13.9550786 19.9925475,14.0629091 C19.969559,14.3351214 19.6673327,14.2784105 19.4958031,14.3635567 C19.48455,14.3975832 19.5244182,14.4031744 19.5416194,14.4316098 C19.6213557,14.4542941 19.7298678,14.4542941 19.7869372,14.3748989 C20.0267891,14.4373607 19.9753464,14.1367132 20.1123128,14.0346336 C20.2323995,14.0175404 20.3463775,13.9153011 20.47193,13.9948561 C20.5976433,14.1478956 20.6260976,14.3691479 20.6088964,14.5677159 C20.47193,14.7036622 20.5404132,14.9250743 20.4434757,15.0838648 C20.4661427,15.2710906 20.2380261,15.356077 20.2666411,15.5434626 C20.1922099,15.6286088 20.0666573,15.6399509 19.9526794,15.6399509 C19.5014297,15.4696585 19.0276738,15.361828 18.5253028,15.316619 C18.4798081,15.3335524 18.4511931,15.3734897 18.4568196,15.4244496 C18.6622692,15.5321204 18.9136959,15.5378713 19.1303986,15.6286088 C19.3247559,15.6795687 19.455935,15.9179141 19.7012528,15.8441101 C19.9068632,15.7306883 20.24944,15.9121632 20.3862456,15.6966618 C20.3637394,15.4867517 20.5462005,15.3335524 20.6375115,15.1520776 L20.7061554,15.1351442 C20.8201334,15.2541572 20.8145068,15.429881 20.8657888,15.5605557 C21.0259045,15.3902633 21.1514571,15.2031973 21.29405,15.0273136 C21.6705469,14.4827294 21.9904567,13.8985275 22.1272624,13.2743882 C21.9732556,13.2799795 21.8192487,13.3084148 21.6766558,13.3539432 L21.6766558,13.3539432 Z M18.4454058,13.3424413 C18.4511931,13.4275875 18.4626069,13.5410093 18.5368775,13.6146535 C18.7595283,13.580627 18.6622692,13.8870255 18.8678796,13.8585902 C18.9820183,13.8245637 18.8736669,13.7282351 18.9079086,13.654431 C18.8736669,13.4842984 18.7080855,13.467365 18.593786,13.3649659 C18.5825329,13.3310991 18.6053607,13.3026638 18.6224011,13.2743882 C18.5368775,13.2290195 18.4966878,13.2799795 18.4454058,13.3424413 L18.4454058,13.3424413 Z M13.9356418,12.8774121 C13.9014002,13.0189497 13.8043019,13.1440331 13.7015771,13.2459529 L13.7186175,13.2572951 C13.8557447,13.1608067 13.9528429,12.9849231 14.1296775,12.9737407 L13.9356418,12.8774121 Z M12.1430214,12.4291565 C12.3029763,12.7242128 12.3885,13.0585674 12.5540814,13.3539432 C12.6568063,13.6146535 12.8852444,13.8189725 12.9879692,14.0740916 C13.0963206,13.8700921 13.3133448,13.705391 13.4675124,13.5183249 C13.4789263,13.4331787 13.4617251,13.3593747 13.4162304,13.2970726 C13.3647876,13.1780596 13.4104431,13.0077672 13.3191321,12.9055279 C13.1705911,12.9566476 13.3704141,13.1042556 13.3077183,13.189242 C13.2448616,13.2290195 13.1763784,13.1780596 13.1705911,13.1213487 C13.039412,13.0983449 12.9366872,12.9849231 12.8966582,12.8659101 C13.0051704,12.7978571 12.8682039,12.7694218 12.8395889,12.7127109 C12.7825196,12.6844353 12.7765715,12.6900265 12.7310768,12.7411462 C12.7026225,12.7411462 12.6682201,12.7467374 12.6455531,12.7299638 C12.6455531,12.4063124 12.2801486,12.5992891 12.1430214,12.4291565 L12.1430214,12.4291565 Z M9.20885351,11.7312132 L9.08330096,11.7880839 C8.55247572,11.7767417 7.99866197,11.8222701 7.49629101,11.7484661 L7.56477422,11.8449545 L7.69048753,12.8885945 C7.74176956,13.2914814 7.91876489,13.6771154 7.90719027,14.0740916 C7.97020768,13.9891051 7.930018,13.8189725 8.08434636,13.8018793 C8.02148971,13.6771154 8.2041116,13.5694446 8.10138678,13.4614543 C8.15282957,13.189242 8.18691042,12.9112788 8.42676241,12.7127109 C8.71805718,12.7015285 8.74072416,12.3213259 9.03201894,12.3042328 C9.18039922,12.2988013 9.27171017,12.4972095 9.33456682,12.5652626 C9.15178417,12.3440103 9.16319804,11.9810606 9.20885351,11.7312132 L9.20885351,11.7312132 Z M6.97671887,11.7312132 L6.82271203,11.7880839 L5.23570208,11.7767417 C5.32701303,13.5919692 5.8121828,15.2426553 6.63414207,16.7575547 C7.03973629,17.5061384 7.63341819,18.1813972 8.15282957,18.879021 L9.28875059,17.7104573 L9.42555625,17.6537464 C9.23184201,17.5176403 9.06047323,17.296388 8.89489176,17.1090024 C8.70648256,17.0580425 8.51228604,16.9275276 8.4155093,16.7460528 C8.3582792,16.6835909 8.40956123,16.5703289 8.34686533,16.52512 L8.27822136,16.6099467 C8.07839829,16.7062753 8.00444928,16.5019564 7.86732211,16.4171297 C7.69048753,16.3206413 7.77601116,15.9858074 7.53631993,16.0482693 C7.44484823,16.0426781 7.41639394,15.9405985 7.35916384,15.8837279 C7.13667379,15.9067317 7.07944369,15.6624755 6.95967845,15.5434626 C6.93685072,15.5944225 6.95967845,15.6624755 6.89103448,15.6966618 C6.66275712,15.7476217 6.58286004,15.4696585 6.42869244,15.356077 C6.38882428,15.3734897 6.36020924,15.4186986 6.30313989,15.4071967 C6.16601272,15.2883435 6.07486253,15.1180511 6.06923598,14.9306655 C5.88082677,14.7209151 5.9663504,14.386241 6.00059201,14.1308025 C6.03483361,14.0629091 6.13193187,14.0232914 6.11473069,13.9381452 C6.16601272,13.8189725 6.29172603,13.8076303 6.41165202,13.8018793 C6.45730749,13.8245637 6.50296297,13.8700921 6.5257907,13.9095501 C6.60006123,13.8641814 6.76564269,13.9153011 6.70278604,13.7507597 C6.79972354,13.6657732 6.94263803,13.6374976 7.07381713,13.6146535 C7.16512808,13.7282351 7.21078355,13.8585902 7.3308703,13.9664208 L7.25081247,13.8416568 C7.11384605,13.2855707 7.00533392,12.7184618 6.97671887,12.117007 C6.98250619,12.0831402 6.90244835,12.0660471 6.94810382,12.0320205 L6.95967845,12.0491137 C6.96546576,11.92419 6.9540519,11.8163594 6.97671887,11.7312132 L6.97671887,11.7312132 Z M9.72842565,11.7086886 L9.81394928,11.8449545 C9.82536315,12.2192463 9.97374344,12.5766048 9.89400712,12.9566476 C9.95686377,12.848817 9.97374344,12.7015285 10.1107099,12.6333156 C10.127911,12.5310763 9.97374344,12.5029605 9.99094462,12.4008809 C10.0994567,12.190811 9.99657118,11.850386 10.2764521,11.7598083 C10.0764683,11.7938348 9.89963368,11.8334526 9.72842565,11.7086886 L9.72842565,11.7086886 Z M23.0464807,11.6915955 C23.0808831,12.0376118 22.9895721,12.3724456 22.9667444,12.7127109 L23.1551536,12.9168701 C23.2064356,12.996425 23.1893952,13.115438 23.1151247,13.1780596 C23.0350668,13.2290195 22.9326635,13.2232686 22.8526057,13.1608067 C22.6129145,13.9210521 22.3330336,14.6642043 21.8534903,15.3279612 C21.6650811,15.5661469 21.4824592,15.89507 21.2369807,16.0199937 L21.7563921,16.4738405 C21.7848464,16.445565 21.7681275,16.4000365 21.7734325,16.360259 C21.7734325,16.2923657 21.8078349,16.2129705 21.8935192,16.2243127 C22.1447851,16.2184019 22.1505724,16.4851827 22.2930046,16.6212888 C22.2645503,16.8369499 22.4529595,17.0070826 22.3901029,17.2054908 C23.8287326,15.6966618 24.5481278,13.847248 24.6789854,11.7995858 L24.7590432,11.7086886 C24.2454191,11.7598083 23.70318,11.725622 23.172194,11.7312132 L23.0464807,11.6915955 Z M25.3358454,11.7312132 L25.2387472,11.6633199 L25.2958165,11.8163594 C25.2046663,13.705391 24.5707947,15.3734897 23.4861558,16.8538833 C23.2750796,17.103571 23.0750957,17.4098097 22.8125768,17.5855336 C23.2464645,17.9259586 23.725847,18.4366761 24.085625,18.828061 L24.1314412,18.7429148 C25.8780845,16.7631459 26.8712518,14.4713872 26.9799247,11.8163594 L27.0484079,11.6804131 L26.9625628,11.7200308 L25.3358454,11.7312132 Z M21.4310164,11.6519777 L21.6080118,11.8277016 C21.7848464,11.9468743 21.6650811,12.2021532 21.8534903,12.3042328 C22.0761411,12.4178143 22.156199,12.6729334 22.2529757,12.8659101 C22.2875388,12.8147905 22.2875388,12.7524884 22.30474,12.7015285 C22.3843156,12.389379 22.3730625,12.0376118 22.47,11.7312132 C22.1272624,11.7484661 21.7337251,11.7824927 21.4310164,11.6519777 L21.4310164,11.6519777 Z M21.7848464,11.0960513 C21.7391909,11.1187357 21.6766558,11.1016426 21.6194257,11.1073935 C21.6705469,11.0845494 21.7337251,11.0960513 21.7848464,11.0960513 L21.7848464,11.0960513 Z M11.0984113,10.9030746 C10.6360693,11.0506826 11.1726819,11.3966989 11.0583824,11.6804131 C10.9956865,11.8449545 10.8244785,11.6915955 10.7045525,11.7598083 L10.658897,12.0602961 C10.5900923,12.2363395 10.367763,12.1056648 10.2650382,12.2248375 C10.1906069,12.3382593 10.2706648,12.457432 10.3333607,12.5483292 C10.1737273,12.9112788 10.6929779,13.0248604 10.6873513,13.3539432 C10.8473062,13.5579427 10.6646844,13.852999 10.8931225,14.0346336 C10.9442437,14.4031744 10.8415189,14.9022302 11.1670553,15.1915356 L11.2239639,15.5434626 C11.2926079,15.787559 10.9328299,15.7250971 10.9784854,15.9405985 C11.0469686,15.9067317 11.0641697,15.9973094 11.0697963,16.0199937 L11.0697963,16.0086515 C11.5094714,15.5036851 12.0176296,14.9702833 12.537041,14.5225069 L12.3201775,14.3066861 C11.9147441,13.705391 11.594995,13.0644781 11.4411489,12.3611034 L11.2752459,12.2759572 C11.2696194,12.457432 11.183935,12.5992891 11.1953488,12.7807639 L11.1382795,12.848817 C11.0185143,12.8432258 10.9442437,12.7467374 10.8415189,12.6844353 C10.8186912,12.6219735 10.7558345,12.5198939 10.8530936,12.4687742 C10.9100021,12.463183 10.9500311,12.4801164 10.99006,12.508392 C11.041342,12.4460899 11.0185143,12.3553524 11.0469686,12.2759572 C11.0641697,12.1396913 10.9442437,12.0149274 11.0299281,11.8959144 C11.1382795,11.8845722 11.2183373,12.0149274 11.2639928,12.0887314 C11.3725049,12.122758 11.4581893,12.0320205 11.5495003,11.992243 C11.5495003,11.8959144 11.6864667,11.7653995 11.5380864,11.7086886 C11.6179835,11.4874363 11.5609141,11.2548418 11.5265118,11.0391807 C11.4638159,10.8519549 11.2525789,10.8859815 11.0984113,10.9030746 L11.0984113,10.9030746 Z M16.0592643,9.50191642 C15.9679533,9.39983683 15.768291,9.46213892 15.648365,9.50191642 C15.7621822,9.61533818 15.7166875,9.81949736 15.7853314,9.96151419 C15.6141234,10.2449089 15.3284552,10.3073707 15.0603097,10.3869257 C14.9860391,10.4776631 15.0032403,10.6762311 14.8260842,10.6591379 C14.7690149,10.7839019 14.5749791,10.8577059 14.6492497,11.0391807 C14.5579387,11.2321575 14.6034334,11.4816854 14.5521514,11.6915955 C14.2153619,11.9015056 14.3124602,11.413792 14.1412521,11.311393 L14.0841828,11.4078813 C14.0155388,11.4249745 13.9698834,11.3853567 13.9242279,11.339988 C13.8727851,11.3227351 13.7872615,11.3058017 13.741606,11.3511704 C13.6673355,11.4760941 13.5531968,11.5781737 13.5818118,11.7484661 C13.5475702,11.850386 13.3762015,11.8163594 13.39919,11.92419 C13.5874384,11.9185988 13.792888,11.8845722 13.9755099,11.8449545 C14.1068498,11.8788213 14.2153619,11.7824927 14.3467018,11.7767417 C14.3923572,11.7995858 14.4436393,11.8449545 14.4265988,11.9130076 L14.4724151,11.9130076 C14.5635653,11.8449545 14.6034334,11.7427152 14.5635653,11.6406356 C14.5749791,11.5214628 14.706319,11.5214628 14.7863768,11.4874363 C14.8603258,11.5214628 14.8146704,11.5952669 14.8260842,11.6519777 C15.0829766,11.7484661 14.7635491,11.9356919 14.7291467,12.0716383 C14.6605028,12.1794688 14.7291467,12.4234055 14.5121225,12.389379 C14.4724151,12.3778771 14.4436393,12.3382593 14.4552139,12.2928906 L14.4265988,12.2928906 C14.4209723,12.383628 14.4894555,12.508392 14.5807664,12.5483292 C14.7405606,12.4178143 14.7461872,12.1964022 14.9746253,12.1681267 C15.0943905,12.0433627 14.9231825,11.850386 15.1001778,11.7484661 C15.3970992,11.7427152 15.7166875,11.6179512 15.9509129,11.8561369 C15.933551,11.9582165 15.8936828,12.0035852 15.9793672,12.0887314 C15.9222979,12.2192463 15.8822689,12.3611034 15.7737568,12.4687742 C15.8022111,12.5425782 15.7793834,12.6333156 15.7166875,12.6844353 C15.6367904,13.0304516 15.2371442,12.8659101 15.0032403,12.9849231 C15.3628576,13.2572951 15.7965845,13.3593747 16.2647139,13.3253482 C16.5101924,13.314006 16.4018411,13.0133584 16.5273936,12.8774121 C16.6072907,12.4801164 16.9726952,12.7524884 17.1953461,12.6446578 C17.2808697,12.4745252 17.3667148,12.3099837 17.3893818,12.117007 C17.2464673,12.0264293 17.1895587,11.8561369 17.235375,11.6915955 C17.138116,11.5610806 17.1493691,11.3227351 16.9382929,11.3003703 C16.904212,11.2548418 16.9328271,11.1979712 16.9614421,11.1641044 C16.9553333,11.0391807 17.0810466,10.999563 17.1152882,10.9030746 C16.9841091,10.8179284 17.01819,10.6307026 17.0297646,10.5230318 C16.806953,10.5854937 16.7841253,10.2960285 16.6187046,10.2337264 C16.5786757,10.1032115 16.4359219,10.0805272 16.3217832,10.0578428 C16.0478504,10.1883577 16.0021949,9.85352389 15.7965845,9.7742884 C15.7737568,9.71198631 15.7282621,9.62108915 15.7965845,9.56996948 C15.8994701,9.48498303 16.0364365,9.5586273 16.1562018,9.55303609 L16.0592643,9.50191642 Z M13.2905171,8.56035601 L13.4162304,8.56035601 C13.5531968,8.69646213 13.7758476,8.66802682 13.8785724,8.84966139 C13.9298544,8.95174098 13.7814742,8.9403988 13.7872615,9.02538525 C13.8157158,9.0480696 13.8557447,9.05382057 13.8785724,9.09359806 C13.9869238,9.1332158 13.9640961,9.03113621 14.004125,8.98560776 C14.1467179,8.84407018 14.1697064,9.12187363 14.3068336,9.12187363 C14.4037711,9.05941178 14.5407375,9.05382057 14.6092207,9.16149137 C14.7005317,9.08209613 14.8947282,9.15590016 14.9231825,9.00845186 C15.1001778,8.82138582 15.0032403,8.5319207 15.2657593,8.41274797 C15.3570702,8.46370789 15.259972,8.54885409 15.2940528,8.62840907 C15.4712089,8.70205334 15.6711928,8.48080103 15.813625,8.65668464 C15.6824459,8.28798403 15.7166875,7.82838625 15.7282621,7.42006789 C14.8090438,7.53924062 13.9640961,7.85123035 13.2905171,8.56035601 L13.2905171,8.56035601 Z M16.3616514,7.37453944 C16.4703243,7.69803109 16.373226,8.17456226 16.4417092,8.54885409 L16.8527692,8.68496021 C16.9726952,8.48655199 17.235375,8.4467745 17.3495137,8.25970846 C17.4236234,8.19724661 17.5093078,8.25970846 17.5663771,8.32776152 C17.5834176,8.48080103 17.5435494,8.63384054 17.4977332,8.78144858 C17.3437263,9.0878471 16.9783218,9.12746484 16.7728722,9.34887691 C16.904212,9.42252118 16.9783218,9.28625531 17.0869947,9.25797975 C17.2464673,9.27491314 17.3720199,9.411179 17.4692789,9.51325859 C17.5720037,9.5586273 17.669102,9.4963252 17.7602521,9.46213892 C17.8232696,8.99151847 18.4169515,9.05941178 18.593786,8.61706689 L18.4854347,8.65668464 C18.43994,8.59422279 18.3256405,8.62265811 18.3312671,8.52041877 C18.4283653,8.42968136 18.5539179,8.28798403 18.6738439,8.24820653 C18.160059,7.93046584 17.6292338,7.6582536 17.046805,7.51080531 C16.8186884,7.45968564 16.5786757,7.45393467 16.3616514,7.37453944 L16.3616514,7.37453944 Z M11.4295743,7.1874734 C10.6416959,8.12344259 10.1052441,9.15590016 9.89400712,10.3300551 C9.83098971,10.602427 9.86539207,10.9201677 9.75687994,11.1754466 C9.95686377,11.0845494 10.247837,11.1187357 10.4704878,11.1470113 C10.339148,11.0789582 10.4476601,10.9144168 10.3735503,10.8238391 C10.3563492,10.6818223 10.3333607,10.5060984 10.4704878,10.415361 C10.4534474,10.1827665 10.7045525,10.0635938 10.7273803,9.85352389 C10.7902369,9.61533818 11.0641697,9.7742884 11.1953488,9.64936471 C11.281194,9.60399601 11.2069235,9.52460077 11.2069235,9.46213892 C11.3210622,9.30909942 11.4980575,9.31453088 11.6350239,9.22970418 C11.7321222,9.08209613 11.8576747,8.92330566 12.0176296,8.8324085 C12.3600457,8.84407018 12.365833,8.36753901 12.6912086,8.35603708 C12.2457462,8.021363 11.8234331,7.57326715 11.4295743,7.1874734 L11.4295743,7.1874734 Z M20.7175693,7.13076252 L20.6889543,7.19881558 C20.1637556,7.74324005 19.5869533,8.30507716 19.0849039,8.86100357 C19.1189847,8.92889688 19.1762148,8.99151847 19.2390715,9.02538525 C19.2617385,8.88927913 19.336009,8.7701064 19.3474229,8.62840907 C19.48455,8.44118328 19.6898389,8.56035601 19.866995,8.6001335 C20.1407671,8.53751191 20.397981,8.66227585 20.6777012,8.65668464 C20.88299,8.75860448 20.9001912,9.01979404 21.0882789,9.12187363 C21.1398824,9.19567765 21.1000143,9.2806641 21.0315311,9.33753473 C21.0882789,9.76294623 21.29405,9.22395322 21.5110743,9.32603281 C21.6023852,9.36021908 21.7166847,9.34887691 21.7848464,9.44520553 C21.8192487,9.62108915 22.036273,9.58706262 22.0475261,9.75719526 C22.0306464,9.84234146 21.9391747,9.86486607 21.8821054,9.91039452 C21.9335482,10.0805272 21.70511,10.1883577 21.7848464,10.3699923 C22.1160093,10.4322944 22.1272624,10.0522516 22.2815908,9.88211896 C22.1959064,9.58706262 22.1332105,9.28625531 21.9620025,9.02538525 C21.7734325,8.98560776 21.6594546,8.76451519 21.4710454,8.7247377 C21.1056408,8.58288062 21.5279539,8.35603708 21.4824592,8.14053573 C21.2882627,7.77742633 20.9800883,7.45393467 20.7175693,7.13076252 L20.7175693,7.13076252 Z M9.79690886,5.55356098 L9.78549499,5.66139153 L9.1688246,6.43873 C8.15861688,7.81704407 7.6789129,9.411179 7.53631993,11.1470113 L9.10034139,11.1187357 L9.24888243,11.1754466 C9.18586502,11.1356691 9.20322696,11.067616 9.18039922,11.0109051 C9.30595177,9.39424561 9.87680594,7.95330994 11.0013131,6.75071973 C10.5675861,6.3761084 10.1623134,5.97929197 9.79690886,5.55356098 L9.79690886,5.55356098 Z M16.344611,5.12814948 L16.4018411,5.25307317 L16.3904272,6.79033747 L16.5388075,6.76190215 C17.4863193,6.89241706 18.3540948,7.19306461 19.1017836,7.80011068 L19.1419732,7.91928341 C19.3988656,7.56192498 19.7869372,7.25552646 20.0896458,6.91510141 L20.3749925,6.75071973 L20.2380261,6.69400884 C19.6099418,6.17194922 18.924949,5.77497304 18.1825653,5.51394323 C17.6060845,5.30978405 16.9726952,5.2247976 16.344611,5.12814948 L16.344611,5.12814948 Z M15.7453025,5.1168073 L15.648365,5.17367793 C14.1981607,5.27575752 12.9423137,5.87705263 11.8404735,6.77899529 C12.2743613,7.0798026 12.6624328,7.56192498 13.0564524,7.90794124 C13.0850674,7.86816374 13.1136825,7.82838625 13.1421368,7.78301754 C13.6843759,7.39738354 14.2438162,7.04577607 14.8833143,6.8866661 C15.168661,6.85839053 15.4482204,6.72228441 15.7453025,6.79033747 C15.6824459,6.25709542 15.6824459,5.66714249 15.7453025,5.1168073 L15.7453025,5.1168073 Z M8.2383532,3.93131023 C6.61147509,5.72960434 5.60673318,7.78301754 5.31559916,10.1260556 C5.25290326,10.4664807 5.29261067,10.8179284 5.22428822,11.1641044 C5.79514238,11.1187357 6.41727858,11.1187357 6.98813274,11.1641044 L6.94810382,10.9428521 C7.05677671,9.1332158 7.63904475,7.52214748 8.66082708,6.08137156 C8.9177195,5.79190643 9.1061287,5.42895678 9.42555625,5.21329568 C9.05468591,4.86727942 8.6666144,4.46439253 8.27822136,4.08434974 L8.2383532,3.93131023 Z M23.9370839,3.89153273 C23.6232829,4.31135302 23.1951825,4.70273798 22.8013237,5.10530538 L22.6071271,5.14524262 C22.7270531,5.17367793 22.7612947,5.31537527 22.8413526,5.40052147 C23.2575569,5.62177378 23.3662298,6.06427842 23.7317951,6.31396605 C23.9370839,6.73937755 24.4111613,7.06830067 24.4282018,7.55617401 C24.9249462,8.64534246 25.2614141,9.79697276 25.2958165,11.0789582 L25.250161,11.1470113 C25.3014431,11.1470113 25.3472593,11.1244867 25.3871275,11.0960513 L27.031046,11.067616 C26.9226946,10.9086658 26.9685109,10.6762311 26.9400566,10.4832543 C26.7230323,7.95890116 25.6382326,5.79749765 23.9370839,3.89153273 L23.9370839,3.89153273 Z M11.2525789,4.40784139 C10.8985883,4.65177806 10.5730519,4.96935901 10.2079689,5.18502011 C10.630282,5.45164114 10.9784854,5.89398602 11.3610911,6.24575324 L11.40112,6.35342405 C12.3714595,5.42895678 13.5531968,4.88996377 14.8260842,4.62893396 C15.1287929,4.60065839 15.4313408,4.4985788 15.7282621,4.56104065 C15.7052736,4.02188789 15.6596181,3.46037028 15.7166875,2.92712823 C14.0611943,3.02377635 12.5770699,3.52283212 11.2525789,4.40784139 L11.2525789,4.40784139 Z M21.4996604,2.88175952 C21.3797344,2.99518129 21.2768488,2.77967993 21.1683367,2.91003509 C21.1627102,2.97265668 21.174124,3.02936757 21.2083656,3.07457652 C21.4482176,3.15972272 21.4766719,3.50589873 21.7848464,3.42650349 C21.8764788,3.32426416 21.727777,3.2164336 21.7563921,3.08607845 C21.7166847,2.96690572 21.6136383,2.91578605 21.4996604,2.88175952 L21.4996604,2.88175952 Z M16.3333579,2.87041734 L16.3904272,2.9782479 C16.3790133,3.50589873 16.4130942,4.06741635 16.3616514,4.56104065 C16.5786757,4.48707688 16.8013265,4.57797404 17.01819,4.583725 C18.1372313,4.76519983 19.1930945,5.12255827 20.0896458,5.80899957 C19.9812944,5.69541806 19.8499546,5.5650629 19.8268053,5.40052147 C19.8441673,5.37783711 19.866995,5.3722459 19.89561,5.37783711 C19.9068632,5.20179375 19.7184539,5.11121609 19.6898389,4.95226587 C19.7184539,4.91823934 19.7584829,4.88437256 19.8153914,4.90130595 C20.0094272,5.08278077 20.1753302,5.28134874 20.3177624,5.48582741 C20.4434757,5.434548 20.5462005,5.51394323 20.6375115,5.58199629 C20.8032537,5.67848467 20.7003681,5.88839481 20.8259207,6.00197632 C20.8487484,6.33649066 21.2598084,6.52371645 21.2369807,6.85839053 C21.242768,6.93778577 21.3397055,6.87548367 21.3739471,6.91510141 L21.7166847,7.33492169 C21.653828,7.41431693 21.70511,7.51080531 21.7734325,7.56751619 C21.9276001,7.63556925 22.0132845,7.44275225 22.1672913,7.47102781 C22.3901029,7.5959515 22.1332105,7.74324005 22.156199,7.87950592 C22.2415618,7.88525688 22.3502347,7.81161261 22.4187179,7.89659906 C22.4471722,8.021363 22.3159931,8.10075824 22.2645503,8.18015347 C22.2645503,8.30507716 22.3671144,8.27664185 22.4585861,8.30507716 C22.5614717,8.2993262 22.6243283,8.42409014 22.5955525,8.50907659 C22.8812207,8.80429268 22.5097074,9.12187363 22.6469953,9.43386336 C22.738467,9.63818228 22.6243283,9.8365905 22.4987758,9.98994951 C22.5044023,10.2394774 22.2758035,10.3925169 22.184814,10.602427 L21.8935192,10.6591379 C21.7391909,10.8123372 22.0246984,10.999563 21.8706915,11.0960513 L22.5097074,11.1073935 L22.4413849,11.0391807 C22.3502347,10.7896528 22.3730625,10.4549787 22.5270693,10.2337264 C22.6243283,10.0294075 22.6469953,9.78563058 22.8296172,9.60974697 C22.8696461,9.59856454 22.9439166,9.52460077 22.9781582,9.60974697 C22.9895721,9.80256397 22.9725317,10.0238163 22.8812207,10.1939489 C23.0635211,10.4549787 23.0410149,10.7954038 23.0578946,11.1187357 C23.6232829,11.0845494 24.1769359,11.073367 24.7305889,11.0789582 L24.6789854,10.9712874 C24.5936225,9.9217367 24.3765982,8.92889688 23.9370839,8.03270518 C23.8173187,8.03829639 23.7317951,8.13478477 23.5946679,8.10075824 C23.5490124,8.0836651 23.5203974,8.03829639 23.5260239,7.98717672 C23.2977465,7.77183512 23.1551536,7.48812095 22.8981004,7.2951442 C22.6071271,7.32357952 22.475948,6.98890543 22.2129468,6.9548789 C21.9790429,6.85839053 22.138837,6.4840987 21.8020475,6.58601854 C21.6364661,6.51796548 21.4766719,6.39320154 21.4424303,6.2061355 C21.4424303,5.91107916 21.385361,5.59333847 21.1168939,5.40052147 C20.9116051,5.32687719 20.8259207,5.59908943 20.6204711,5.55356098 C20.5061716,5.49700984 20.5574536,5.3494018 20.5233728,5.25307317 C20.4833439,5.16792697 20.3862456,5.10530538 20.4036076,4.99204336 C20.6719138,4.64043589 20.0780712,4.6460271 20.2095718,4.30001084 C20.1753302,4.05048296 19.918277,3.95399458 19.7869372,3.75542662 C18.9021212,3.35813094 18.0173053,3.08607845 17.01819,2.96690572 C16.7728722,2.93303894 16.5445948,2.98383911 16.3333579,2.87041734 L16.3333579,2.87041734 Z M17.6634754,1.46941891 L16.8411946,1.82118614 C16.7728722,1.79259107 16.6415323,1.75856454 16.5960376,1.84930195 C16.5614745,1.87773727 16.5960376,1.91751476 16.6072907,1.94595008 C16.9098386,2.33158408 17.4348765,2.11592298 17.8120164,2.0422787 C18.0859493,2.15554072 18.3483075,2.01959435 18.5539179,1.84930195 L18.5539179,1.80952446 C18.3598821,1.53731222 17.9944776,1.49753473 17.6634754,1.46941891 L17.6634754,1.46941891 Z M15.7052736,0.61252546 C13.4104431,0.703422622 11.3725049,1.48076109 9.56284419,2.77408872 C9.21448007,3.01227443 8.90614487,3.37538383 8.55247572,3.579543 L8.60359698,3.579543 C9.05468591,3.90862587 9.48294711,4.37940608 9.86539207,4.78788418 L9.89400712,4.70848895 C11.5609141,3.19950021 13.501754,2.37136157 15.7282621,2.26912224 L15.6766586,2.13285637 L15.6596181,0.771475681 L15.7052736,0.61252546 Z M16.344611,0.555814577 C16.4130942,1.00422992 16.3960538,1.61670746 16.3616514,2.12167394 C16.3616514,2.07055427 16.3846399,2.02518557 16.4130942,1.98540807 C16.493152,1.94003937 16.5614745,2.00825218 16.5960376,2.06480331 C16.6015034,2.14435829 16.635745,2.28046441 16.5674225,2.32583312 C16.635745,2.3371753 16.6699866,2.28605563 16.7328433,2.28605563 C18.0399723,2.38270375 19.2503246,2.76258679 20.3351243,3.37538383 L20.3351243,3.34710826 C20.5574536,3.23911796 20.8431219,3.09742062 21.07156,3.29023763 C21.3453321,3.18799829 21.3967748,3.52283212 21.6194257,3.56260961 C21.8877319,3.72140009 22.1902798,4.01645643 22.2246822,4.32844616 C22.2758035,4.43052575 22.4359191,4.50417002 22.4585861,4.61184082 C22.641208,4.22620682 23.0066125,3.95399458 23.320735,3.6193205 L23.5144493,3.53976551 C21.7906337,1.90601284 19.7414424,1.00422992 17.4577043,0.692080445 C17.0924605,0.629618599 16.6929751,0.663804878 16.344611,0.555814577 L16.344611,0.555814577 Z M26.403444,6.47834774 C27.590647,8.75317301 27.9274365,11.8845722 27.1569201,14.4542941 C26.3745074,17.489205 23.8057441,20.5584618 20.8145068,21.8061013 C17.4462904,23.4457647 12.6624328,23.0372865 9.65994244,20.8985674 C5.48696794,18.0564735 3.77987124,13.1608067 5.04150557,8.32776152 C5.80655625,5.45723235 8.1071741,2.55842761 10.921416,1.22532249 C12.5027994,0.448303523 14.2324023,0.0340744544 16.1161729,4.79246898e-05 C20.4204872,0.00579888746 24.5307658,2.51865012 26.403444,6.47834774 L26.403444,6.47834774 Z" id="Fill-1" fill="#FEFEFE"></path>
                    <path d="M26.8028169,2.14999743 C27.6421381,2.89314962 28.0187957,3.85755413 28.2641135,4.85582542 L28.4014014,5.17356611 C27.1852618,4.30564998 26.0835824,3.13708629 25.3072786,1.90606076 L24.3597668,0.95315818 C25.1929792,1.30476565 26.0895305,1.5146758 26.8028169,2.14999743" id="Fill-3" fill="#FEFEFE"></path>
                    <path d="M5.57818243,3.63056682 C5.01874213,4.31716788 4.30529499,4.77085494 3.67142341,5.36080787 C4.01400022,4.65727343 4.02541409,3.81779261 4.51058386,3.1711288 C5.20136402,1.9741298 6.48003877,1.55430951 7.62174711,1.11180488 C6.78274742,1.84361489 6.20047938,2.76840165 5.57818243,3.63056682" id="Fill-5" fill="#FEFEFE"></path>
                    <path d="M29.7715157,4.88437256 C30.0396613,6.0756206 29.6515897,7.23843332 29.8970683,8.44118328 L29.8856544,8.45236571 C29.2345817,7.17613122 27.8475555,6.57467637 26.8942564,5.55356098 C26.3406034,4.94667465 26.1007514,4.20927343 25.963785,3.42650349 C26.5119722,4.73676451 27.984522,5.02606989 28.829309,6.12658052 C29.1148164,6.38185936 29.2062881,6.73362659 29.38891,7.02293196 L29.4175251,6.9946564 C28.9321945,5.96219883 28.7667738,4.79922636 28.4298236,3.69871573 C28.2586155,3.22218457 27.9218261,2.75140436 27.4707371,2.45059706 C28.5783646,2.67760034 29.5432384,3.82907089 29.7715157,4.88437256" id="Fill-7" fill="#FEFEFE"></path>
                    <path d="M4.53921499,2.65497989 C3.40892052,3.42640765 3.48303029,4.81047269 3.12341306,5.96226273 C3.00927438,6.38767423 2.80945131,6.77905919 2.71235305,7.21581287 L2.7409681,7.23849722 C2.9293773,6.74503266 3.26037948,6.27984367 3.67143949,5.87711653 C4.47635833,5.13955556 5.6638829,4.67995778 6.05774173,3.59078933 C6.04054055,5.10536928 4.76749235,6.29661732 3.5515135,7.14775981 C3.0493033,7.58451348 2.56397276,8.083729 2.29003993,8.64540636 C2.26142488,8.26520382 2.34710927,7.87956982 2.31865498,7.47109171 C2.18731511,6.14932877 2.09021685,4.64034004 3.03210211,3.65900214 C3.43737481,3.15403566 3.95694695,2.80226844 4.53921499,2.65497989" id="Fill-9" fill="#FEFEFE"></path>
                    <path d="M30.4850272,5.14521067 C31.4952349,6.50675111 31.7180465,8.67358608 30.9817716,10.2338542 C30.707678,10.8974514 30.5134815,11.6009859 30.4051301,12.3326361 C30.3538481,12.2078722 30.3422734,12.0375798 30.296618,11.8958825 C29.8971326,10.3699603 28.4414625,9.28063215 27.8419933,7.83969648 C27.6534233,7.36891627 27.4937899,6.88104293 27.4021575,6.37048524 C28.0418164,7.54479989 29.6174124,8.15200571 30.0455129,9.44517358 C30.2223475,9.77425645 30.2109336,10.1827346 30.319285,10.534342 C30.3422734,10.534342 30.3652619,10.5174086 30.3652619,10.4947243 C30.1768527,9.16161917 30.2337613,7.7660522 30.4163832,6.44988047 C30.4051301,5.7351636 30.3366469,5.04313108 29.93684,4.49279589 C30.1937324,4.64040394 30.3080318,4.9241181 30.4850272,5.14521067" id="Fill-11" fill="#FEFEFE"></path>
                    <path d="M2.12437808,4.71986307 C1.25676334,6.03028384 1.97615855,7.6809699 1.93596887,9.1728655 L1.82199095,10.6989474 C1.83887062,10.7101298 1.83887062,10.755818 1.87889953,10.7385651 C1.93018156,10.5684325 1.94175619,10.3869576 1.97615855,10.2109143 C2.18144742,8.9800485 3.2548333,8.1063814 4.19671856,7.25555841 C4.39654164,7.03430609 4.57337621,6.80730281 4.67626178,6.54643275 C4.60199126,7.15907003 4.40779475,7.77745828 4.15106309,8.34472686 C3.42025401,9.76281843 2.0674695,10.9257909 1.82199095,12.5483611 C1.7019042,10.9940037 0.634466387,9.83087149 0.742978514,8.18018542 C0.70857615,6.84132934 1.26817721,5.74640993 2.05589487,4.74813864 C2.07872261,4.73679646 2.09592379,4.71411211 2.12437808,4.71986307" id="Fill-13" fill="#FEFEFE"></path>
                    <path d="M31.4326354,13.9778109 C30.8331662,14.8230426 30.1083052,15.6115635 29.5543307,16.4738885 C29.6173481,15.7930384 29.6972452,14.9533978 29.4287782,14.306734 C28.9664361,12.916918 28.5611634,11.5044176 28.4298236,9.97849551 L28.446864,9.39413379 C28.7953889,10.9542422 30.3367433,12.0263175 30.2396451,13.7734919 C30.2738867,14.1990632 30.1425468,14.5562619 30.0626498,14.9307135 L30.091104,14.9591488 L30.1595873,14.8797535 C30.3881861,14.0231796 30.5021641,13.1212369 30.855994,12.3213738 C31.3641522,11.1697435 31.9920757,10.0067711 31.7351833,8.61695507 C32.5056998,10.256299 32.2717959,12.4461378 31.4326354,13.9778109" id="Fill-15" fill="#FEFEFE"></path>
                    <path d="M1.68481555,13.4331308 C1.85055777,14.0061503 1.89042593,14.6246983 2.12432985,15.1633718 C2.14715759,15.1748738 2.16451953,15.1520297 2.18139919,15.1350963 C1.59366536,13.5013436 2.43845236,11.9866039 3.28902668,10.7102097 C3.49447631,10.3641934 3.61424154,9.97855941 3.71728787,9.58126373 C3.80859882,10.3188247 3.62018961,11.1698074 3.51167749,11.935644 C3.3060671,12.9112309 2.9977319,13.8358579 2.72958638,14.7833291 C2.55259104,15.3734417 2.59824652,16.0426302 2.6893967,16.6610184 L2.60403383,16.5929653 C1.98173688,15.4526772 0.7487176,14.5622365 0.38331306,13.3139581 C0.0807651741,12.321278 -0.119057898,11.1698074 0.0865524876,10.0862302 C0.183489988,9.66640993 0.25776051,9.23524747 0.440543159,8.84961346 C0.0921790423,10.6194723 1.29095672,11.8958665 1.68481555,13.4331308" id="Fill-17" fill="#FEFEFE"></path>
                    <g id="Group-21" transform="translate(27.168221, 12.983278)">
                        <mask id="mask-2" fill="white">
                            <use xlink:href="#path-1"></use>
                        </mask>
                        <g id="Clip-20"></g>
                        <path d="M1.90671079,3.67782057 C1.86668187,4.44349736 1.61541601,5.12434745 1.21014331,5.73698474 L1.27862652,5.73698474 C1.82681371,5.02226786 2.25507491,4.26202254 2.89441228,3.58133219 C3.88774033,2.62826986 4.89778728,1.65268293 5.02944866,0.330760234 C5.36623815,2.5373727 4.12164425,4.47177293 2.27790264,5.71973185 C1.51847851,6.2135159 0.747962034,6.67279418 0.0169921953,7.23463129 L0.0169921953,7.16673798 C1.13603355,5.31716446 0.587846362,2.78146912 1.27862652,0.750420767 L1.53551894,0.0698901726 C1.39292596,1.33494223 1.94657895,2.40701754 1.90671079,3.67782057" id="Fill-19" fill="#FEFEFE" mask="url(#mask-2)"></path>
                    </g>
                    <g id="Group-24" transform="translate(0.000000, 13.143027)">
                        <mask id="mask-4" fill="white">
                            <use xlink:href="#path-3"></use>
                        </mask>
                        <g id="Clip-23"></g>
                        <path d="M4.56197842,6.02537955 C4.68206517,6.44504008 4.92738296,6.8196514 5.08717711,7.22237855 C3.38602848,6.0705885 1.06837021,4.97598859 0.314894154,2.86570475 C-0.00501567164,2.1396457 -0.0390965174,1.23754329 0.0293866915,0.403653687 C0.166353109,2.28134303 2.19866468,3.27402311 3.14054994,4.8282208 C3.3633615,5.14612124 3.55739726,5.49788846 3.85415784,5.76434974 C3.80866312,5.56578177 3.62025392,5.39580887 3.55160995,5.1913302 C3.22060777,4.53891542 3.10068178,3.76189645 3.1804181,2.9732158 C3.27205056,2.01472201 3.6771625,1.12396177 3.5229949,0.11434831 C4.35090224,1.88979832 4.09963638,4.10232149 4.56197842,6.02537955" id="Fill-22" fill="#FEFEFE" mask="url(#mask-4)"></path>
                    </g>
                    <path d="M26.540314,20.5696443 C26.2490192,21.0742913 25.8324934,21.5623243 25.3756171,21.9593005 C25.5243189,21.9537093 25.6553373,21.8233542 25.7868379,21.738208 C27.0140699,20.5241158 28.6126544,20.1836908 29.9368239,19.1967617 C30.4679707,18.7767816 30.9529797,18.2266062 31.1872051,17.631062 C30.9359393,19.6448575 28.9208289,21.533889 27.0196964,22.1350244 C26.0377822,22.3962139 24.9873849,22.4812004 24.0340857,22.8045323 C25.6498715,21.4260585 25.5585605,19.2930903 26.6374122,17.6708395 C26.9798283,17.2112418 27.2653357,16.7289596 27.6649819,16.2923657 C27.0084433,17.6026267 27.29379,19.2988412 26.540314,20.5696443" id="Fill-25" fill="#FEFEFE"></path>
                    <path d="M6.15474353,18.8676309 C6.7255977,20.2631978 6.94262195,21.8400799 8.26132562,22.8955413 C6.83410983,22.4303523 5.16157624,22.5605477 3.90556847,21.6868806 C2.52979546,20.8475595 1.30240274,19.4235573 1.04551032,17.8580174 C1.9931829,19.9908258 4.36791051,20.1667095 5.96054701,21.465788 C6.25184179,21.7210669 6.56001623,21.9421595 6.89117917,22.0956782 L6.90838035,22.0785851 C6.54297581,21.749662 6.12034117,21.3748909 5.86344876,20.9496391 C4.93313812,19.6619027 5.25835299,17.8580174 4.56194627,16.4739524 C5.19581785,17.2279675 5.77229857,18.0110569 6.15474353,18.8676309" id="Fill-27" fill="#FEFEFE"></path>
                    <path d="M23.0865257,23.0201615 C22.7384831,23.247005 22.298808,23.2867825 21.9391908,23.4569151 C22.4529756,23.4682573 22.9209442,23.2867825 23.4289417,23.2358226 C25.3130338,22.9406065 27.4707371,23.2414138 28.7894408,21.6472788 C28.2986445,22.7591317 27.0712517,23.6895096 25.9525319,24.0810543 C24.0284109,24.8013624 22.0930369,23.9165129 20.249456,23.6214566 L19.8954654,23.5759281 L19.8954654,23.5645859 C20.7746547,23.3661777 21.6308556,23.1051479 22.3330496,22.475737 C23.3662458,21.4884884 24.2853034,20.4732837 25.4329598,19.6957855 C24.5822247,20.7795225 24.4909137,22.322378 23.0865257,23.0201615" id="Fill-29" fill="#FEFEFE"></path>
                    <path d="M9.88240034,22.5041084 C10.6132094,23.13943 11.4923988,23.4341669 12.4170829,23.6213927 C12.1945928,23.7009477 11.9034588,23.6782633 11.6636068,23.7405654 C10.0023263,24.1492033 8.15279742,24.8129602 6.38879213,24.2170966 C5.24129649,23.8597381 4.05971999,22.9577955 3.48307851,21.8346005 C5.00160525,23.5534994 7.48484499,22.9804798 9.51136925,23.4287354 C9.79687671,23.4681934 10.0595564,23.5817749 10.3619436,23.5362465 C10.1222523,23.383207 9.78546284,23.4001404 9.52278312,23.264194 C7.93593392,22.7081078 7.70170849,21.0005511 6.8397203,19.8492403 C7.94156048,20.5752994 8.86640532,21.5566373 9.88240034,22.5041084" id="Fill-31" fill="#FEFEFE"></path>
                    <g id="Group-35" transform="translate(6.108831, 23.526709)">
                        <mask id="mask-6" fill="white">
                            <use xlink:href="#path-5"></use>
                        </mask>
                        <g id="Clip-34"></g>
                        <path d="M16.1727921,1.30312024 C17.4056506,1.7568073 19.0043959,1.63220311 20.0604199,0.883140208 C19.5181808,1.55839909 18.7759578,2.04052147 18.0052806,2.31289345 C16.2927181,2.94837484 14.5060458,2.28461789 13.1699802,1.27452517 C12.6275803,0.934259877 12.1483586,0.440795322 11.4461646,0.486164028 C11.194738,0.480572814 10.9494202,0.491914991 10.7323959,0.554376836 C12.0340592,1.15567194 13.2386242,1.98381058 14.3459301,3.04454372 C14.1578424,3.25445386 13.9179905,3.45318157 13.6897131,3.63449665 C12.6275803,2.49452803 11.4461646,1.39960862 10.1274609,0.758376266 C9.87040774,0.792402796 9.62508996,0.945761803 9.39086452,1.07068549 C8.31780016,1.74562488 7.25582814,2.61354101 6.45669661,3.67427414 L5.771543,3.11275653 C6.86775662,2.01208615 8.07778741,1.15567194 9.40243915,0.542874911 C8.1007759,0.134556554 7.25036234,1.21797404 6.26266085,1.76830923 C5.10953865,2.56801255 3.45404549,2.94262388 2.0610713,2.39212894 C1.3132218,2.10841478 0.588200031,1.69466496 0.0459609142,1.01956583 C1.14201377,1.76830923 2.7746792,1.84786421 4.01911234,1.35983112 C5.69180669,0.639523035 7.42735768,-0.273921552 9.44214655,0.162832121 C9.75642982,0.168583084 10.0644435,0.480572814 10.3615256,0.21395179 C11.8570638,-0.171841963 13.5524252,0.0947790615 14.8426745,0.775469405 L16.1727921,1.30312024 Z" id="Fill-33" fill="#FEFEFE" mask="url(#mask-6)"></path>
                    </g>
                </g>
            </g>
        </g>
    </g>
</svg>