
<svg width="84px" height="27px" viewBox="0 0 84 27" version="1.1" xmlns="http://www.w3.org/2000/svg" xmlns:xlink="http://www.w3.org/1999/xlink">
    <!-- Generator: Sketch 45.2 (43514) - http://www.bohemiancoding.com/sketch -->
    <desc>Created with Sketch.</desc>
    <defs>
        <polygon id="path-1" points="6.72e-05 26.4286794 28.0732032 26.4286794 28.0732032 0.0429760627 6.72e-05 0.0429760627 6.72e-05 26.4286794"></polygon>
    </defs>
    <g id="Symbols" stroke="none" stroke-width="1" fill="none" fill-rule="evenodd">
        <g id="Header---Share---Mobile" transform="translate(-62.000000, -11.000000)">
            <g id="Page-1" transform="translate(62.000000, 11.000000)">
                <g id="Group-3" transform="translate(0.000000, 0.125410)">
                    <mask id="mask-2" fill="white">
                        <use xlink:href="#path-1"></use>
                    </mask>
                    <g id="Clip-2"></g>
                    <path d="M26.5781712,5.69147502 L26.1912672,5.69147502 L25.9103712,5.69147502 L25.9103712,5.98168549 C26.0004192,6.08066679 26.0456112,6.13015743 26.1358272,6.22913873 L26.1358272,6.59493185 C25.9355712,6.37525398 25.8354432,6.26549921 25.6351872,6.04582133 L25.6351872,5.57717519 L25.4248512,5.57717519 L25.0228272,5.57717519 L25.0228272,5.72009206 L24.7694832,5.72009206 L24.3777072,5.72009206 C24.2212992,5.89145764 24.1431792,5.97714043 23.9869392,6.14867434 L23.9869392,6.34764695 L24.5221872,6.34764695 C24.6349152,6.47137357 24.6913632,6.53315271 24.8042592,6.65704767 C24.8828832,6.7434038 24.9223632,6.7864977 25.0011552,6.87285383 L25.0011552,7.33745991 C24.8790192,7.471455 24.8180352,7.53828421 24.6958992,7.67227929 C24.6076992,7.76890389 24.5635152,7.81738453 24.4753152,7.91417746 C24.5974512,8.04800421 24.6584352,8.11500176 24.7804032,8.24882851 L24.7804032,8.50840191 L24.5134512,8.50840191 C24.4526352,8.44174104 24.4222272,8.4084106 24.3614112,8.34158139 L24.3614112,8.09783153 C24.2834592,8.01231708 24.2444832,7.96955985 24.1665312,7.88387706 L23.9367072,7.88387706 C23.8678272,7.80846274 23.8333872,7.77058725 23.7645072,7.69500459 C23.6438832,7.82748466 23.5834032,7.89364053 23.4627792,8.02595226 C23.5556832,8.12779526 23.6022192,8.17880093 23.6951232,8.28064393 L23.9430912,8.28064393 C23.8758912,8.35437489 23.8421232,8.39140871 23.7749232,8.46513968 C23.9314992,8.63701026 24.0097872,8.72286138 24.1665312,8.89473197 C24.1665312,9.0147552 24.1628352,9.07468266 24.1525872,9.19470589 C23.8930272,9.45596265 23.7527472,9.58642269 23.4614352,9.84767944 L23.0580672,9.84767944 C22.9038432,9.98689293 22.8247152,10.0565838 22.6641072,10.1959657 C22.8045552,10.4190103 22.8680592,10.5306167 22.9849872,10.7536613 C22.9493712,10.8560093 22.9307232,10.9073517 22.8925872,11.0096997 C22.8317712,11.0588536 22.8013632,11.0832623 22.7405472,11.1324163 C22.6404192,11.1324163 22.5901872,11.1324163 22.4897232,11.1325846 C22.3872432,10.9263736 22.3323072,10.8231839 22.2130272,10.6169729 C22.1809392,10.7210042 22.1641392,10.7730199 22.1293632,10.8772196 C22.0865232,11.0056596 22.0641792,11.0699638 22.0186512,11.1985721 C22.0917312,11.3403107 22.1266752,11.4111799 22.1933712,11.5527501 C22.1446512,11.6810218 22.1199552,11.7451576 22.0710672,11.8734293 C22.0285632,11.9845308 22.0073952,12.0400815 21.9655632,12.1510146 C21.9193632,12.0476566 21.8956752,11.9959776 21.8467872,11.8924512 C21.8751792,11.8156902 21.8894592,11.7773097 21.9180192,11.7003804 C21.8608992,11.5813671 21.8314992,11.5217764 21.7701792,11.4027631 C21.8056272,11.3031085 21.8232672,11.2534495 21.8577072,11.1539632 C21.9133152,10.9389987 21.9398592,10.8314323 21.9860592,10.6164678 C21.9534672,10.5610855 21.9368352,10.5334784 21.9030672,10.478096 C21.8414112,10.53028 21.8103312,10.5563721 21.7480032,10.6085561 C21.7745472,10.5193382 21.7874832,10.4747293 21.8116752,10.3853432 C21.6774432,10.1718937 21.6057072,10.065169 21.4508112,9.8517195 L21.2092272,9.8517195 L20.9830992,9.8517195 C20.9681472,9.92932218 20.9600832,9.96820769 20.9429472,10.0458104 C20.6573472,10.294947 20.5068192,10.4196836 20.1956832,10.6688202 C20.1585552,10.7942302 20.1390672,10.856851 20.0997552,10.9820926 C20.1320112,11.032425 20.1479712,11.057507 20.1797232,11.1076709 C20.0085312,11.2428444 19.9216752,11.3105153 19.7572032,11.4456887 C19.7674512,11.3600059 19.7726592,11.3170804 19.7827392,11.2313976 L19.7645952,11.2313976 C19.7761872,11.1948688 19.7820672,11.1765202 19.7934912,11.139823 C19.7980272,11.1016109 19.8002112,11.0824206 19.8045792,11.0442084 C19.7704752,10.9861327 19.7533392,10.957179 19.7188992,10.8991032 C19.7390592,10.832779 19.7489712,10.7994486 19.7686272,10.7331244 C19.6876512,10.6003076 19.6466592,10.5338151 19.5619872,10.4009984 C19.6313712,10.1350282 19.6631232,10.0022115 19.7108352,9.73624132 C19.6138992,9.60359292 19.5634992,9.53710038 19.4586672,9.40445197 L18.5541552,9.40445197 C18.5008992,9.33812777 18.4736832,9.30496567 18.4182432,9.23864147 L17.8169712,9.23864147 C17.7045792,9.10548806 17.6462832,9.03899552 17.5259952,8.90601045 C17.5263312,8.83968625 17.5259952,8.80652415 17.5259952,8.74019994 L17.2232592,8.74019994 C17.2232592,8.87301668 17.2242672,8.93950922 17.2212432,9.07232596 C17.3391792,9.2051427 17.3962992,9.27163524 17.5065072,9.40445197 L17.8053792,9.40445197 C17.9144112,9.53710038 17.9668272,9.60359292 18.0677952,9.73624132 L18.2156352,9.73624132 C18.2065632,9.80290219 18.2016912,9.83623263 18.1912752,9.9028935 C17.8458672,10.2350195 17.6701392,10.4009984 17.3354832,10.7331244 L16.9180032,10.7331244 C16.8716352,10.6669685 16.8481152,10.6339747 16.8000672,10.5676505 C16.8168672,10.4346655 16.8249312,10.3681729 16.8395472,10.2351879 C16.7394192,10.1022028 16.6876752,10.0357102 16.5806592,9.9028935 C16.5907392,9.77007676 16.5951072,9.70358422 16.6019952,9.57076749 C16.4899392,9.43778241 16.4319792,9.37145821 16.3137072,9.23864147 L16.0131552,9.23864147 C16.0119792,9.37145821 16.0106352,9.43778241 16.0064352,9.57076749 C16.0642272,9.63692335 16.0927872,9.67008545 16.1490672,9.73624132 C16.1399952,9.93588727 16.1337792,10.0357102 16.1196672,10.2351879 C16.3854432,10.5671455 16.5079152,10.7331244 16.7335392,11.0652504 L17.5498512,11.0652504 C17.5365792,11.1317429 17.5300272,11.164905 17.5165872,11.2313976 C16.9789872,11.7631695 16.7333712,12.0289713 16.2943872,12.560575 C16.2827952,12.6933917 16.2774192,12.7597159 16.2685152,12.8925326 C16.3123632,12.9588568 16.3340352,12.9920189 16.3775472,13.0583432 C16.3572192,13.3904692 16.3572192,13.5566163 16.3572192,13.8887424 C16.1720832,14.1545442 16.0791792,14.2873609 15.8890032,14.5529944 L15.8890032,14.8852887 L15.7695552,14.8852887 C15.7215072,14.9516129 15.6974832,14.9849434 15.6489312,15.0512676 L15.6489312,15.3837303 C15.4548912,15.6495321 15.3557712,15.7823488 15.1504752,16.0479823 L14.3370192,16.0479823 L14.3370192,15.3837303 C14.2219392,15.2507452 14.1633072,15.1842527 14.0431872,15.0512676 L14.0431872,14.3870155 C13.9828752,14.3203547 13.9519632,14.2870242 13.8911472,14.2205317 C13.8911472,14.087715 13.8911472,14.0213908 13.8913152,13.8887424 C14.0127792,13.7559256 14.0739312,13.6896014 14.1903552,13.5566163 C14.1900192,13.4901238 14.1900192,13.4569617 14.1896832,13.3904692 C14.0725872,13.2576524 14.0126112,13.1911599 13.8914832,13.0583432 L13.8914832,12.8925326 C13.7708592,12.7597159 13.7107152,12.6933917 13.5902592,12.560575 C13.5902592,12.2281123 13.5900912,12.0619651 13.5899232,11.7293341 L13.2880272,11.7293341 C13.2275472,11.6631782 13.1971392,11.6300161 13.1366592,11.5638602 L12.6845712,11.5638602 C12.6245952,11.6300161 12.5946912,11.6631782 12.5347152,11.7293341 L11.7824112,11.7293341 C11.4803472,11.3972081 11.3289792,11.2312292 11.0252352,10.8991032 C11.0228832,10.6334697 11.0218752,10.5008213 11.0200272,10.2351879 C11.0796672,10.1686953 11.1097392,10.1355332 11.1695472,10.0690407 C11.1690432,10.0025481 11.1688752,9.96938604 11.1685392,9.9028935 L11.0180112,9.9028935 C11.0171712,9.77007676 11.0168352,9.70358422 11.0163312,9.57076749 C11.1965952,9.37128987 11.2869792,9.27163524 11.4682512,9.07232596 L11.6202912,9.07232596 C11.6807712,9.00583342 11.7110112,8.97250299 11.7714912,8.90601045 C11.7716592,8.77336204 11.7714912,8.70686951 11.7714912,8.5742211 C11.8323072,8.50806524 11.8625472,8.47490314 11.9233632,8.40874727 L12.6805392,8.40874727 C12.7410192,8.34225473 12.7712592,8.3089243 12.8317392,8.24226342 L13.5894192,8.24226342 L13.5894192,8.5742211 C13.6498992,8.64054531 13.6803072,8.67370741 13.7407872,8.74019994 L14.3464272,8.74019994 C14.4069072,8.80652415 14.4363072,8.83968625 14.4976272,8.90601045 L14.6489952,8.90601045 C14.6469792,8.77336204 14.6489952,8.70686951 14.6489952,8.5742211 L14.9520672,8.5742211 C15.0731952,8.70686951 15.1311552,8.77336204 15.2551392,8.90601045 L15.8606112,8.90601045 C15.9793872,8.77336204 16.0422192,8.70686951 16.1633472,8.5742211 L16.1633472,8.24226342 L15.4061712,8.24226342 C15.2850432,8.10944668 15.2245632,8.04295415 15.1034352,7.91013741 L15.1034352,7.7438219 L14.9520672,7.7438219 C14.8914192,7.81031443 14.8611792,7.84364487 14.8005312,7.91013741 L14.6489952,7.91013741 L14.6489952,7.41169588 C14.5280352,7.27887914 14.4673872,7.21255494 14.3464272,7.0797382 L13.8913152,7.0797382 L13.8913152,7.41169588 C14.0127792,7.54468096 14.0734272,7.61100516 14.1947232,7.7438219 L14.3464272,7.7438219 L14.3464272,8.07594791 L14.0433552,8.07594791 C13.9825392,8.00962371 13.9521312,7.97646161 13.8913152,7.91013741 L13.8913152,7.7438219 C13.7705232,7.61100516 13.7102112,7.54468096 13.5894192,7.41169588 L13.1348112,7.41169588 C13.0135152,7.54468096 12.9530352,7.61100516 12.8317392,7.7438219 L12.8317392,7.91013741 C12.7712592,7.97646161 12.7410192,8.00962371 12.6805392,8.07594791 L12.0747312,8.07594791 C12.0142512,8.00962371 11.9840112,7.97646161 11.9233632,7.91013741 L11.9233632,7.41169588 C11.9840112,7.34554002 12.0142512,7.31220958 12.0747312,7.24605371 L12.2264352,7.24605371 C12.2869152,7.31220958 12.3171552,7.34554002 12.3778032,7.41169588 L12.6805392,7.41169588 L12.6805392,7.0797382 L12.5293392,7.0797382 L12.5293392,6.9139277 C12.5898192,6.84743516 12.6200592,6.81410472 12.6805392,6.74761219 L12.9831072,6.74761219 C13.1045712,6.61479545 13.1652192,6.54830291 13.2866832,6.41548617 L13.4377152,6.41548617 C13.4983632,6.34899363 13.5287712,6.3156632 13.5894192,6.24917066 L13.7407872,6.24917066 L13.7407872,5.91738131 L13.2866832,5.91738131 L13.2866832,5.58491863 C13.3469952,5.51859443 13.3772352,5.48526399 13.4377152,5.41893979 L13.5894192,5.41893979 C13.6498992,5.35227892 13.6803072,5.31894848 13.7407872,5.25228761 L13.7407872,5.08681377 C13.8009312,5.0201529 13.8311712,4.98682246 13.8913152,4.92032993 L14.0433552,4.92032993 C14.1646512,4.78734485 14.2251312,4.72102065 14.3464272,4.58803558 L15.7092432,4.58803558 C15.7697232,4.65469645 15.7999632,4.68802688 15.8606112,4.75468776 L15.8606112,5.08681377 L16.0118112,5.08681377 C16.1327712,4.95399703 16.1932512,4.8875045 16.3142112,4.75468776 L16.4662512,4.75468776 L16.4662512,5.08681377 L16.6172832,5.08681377 C16.7384112,4.95399703 16.7988912,4.8875045 16.9200192,4.75468776 L17.8287312,4.75468776 L17.8287312,4.42256174 L18.1316352,4.42256174 C18.1921152,4.48871761 18.2223552,4.52187971 18.2828352,4.58803558 L18.2828352,4.92032993 L18.5855712,4.92032993 L18.5855712,4.58803558 C18.7068672,4.45555551 18.7675152,4.38923131 18.8888112,4.2565829 L19.0403472,4.2565829 C19.1008272,4.18975369 19.1310672,4.15642326 19.1915472,4.08959405 L19.9492272,4.08959405 C19.9687152,4.06838377 19.9784592,4.0576103 19.9981152,4.03640002 C19.9981152,4.03640002 20.0199552,4.07663221 20.0512032,4.20338887 L20.3677152,4.20338887 C20.4874992,4.33469059 20.5473072,4.40050979 20.6670912,4.53181151 L21.3189312,4.53181151 L21.7930272,4.53181151 C21.8442672,4.58820391 21.8699712,4.61631595 21.9213792,4.67270835 L22.4630112,4.67270835 C22.5681792,4.55723017 22.6207632,4.49965942 22.7259312,4.38418124 L23.2574832,4.38418124 C23.3115792,4.44360368 23.3387952,4.47339907 23.3928912,4.53282152 L24.2271792,4.53282152 C24.3002592,4.61294923 24.3367152,4.65301309 24.4097952,4.73314081 L25.8505632,4.73314081 C25.9774032,4.87218596 26.0407392,4.94170854 26.1674112,5.08075369 L26.9464272,5.08075369 L26.9464272,5.19404351 L26.4202512,5.19404351 C26.3611152,5.25885269 26.3317152,5.29134145 26.2724112,5.35615063 C26.3947152,5.49031406 26.4558672,5.5573116 26.5781712,5.69147502 L26.5781712,5.69147502 Z M25.8618192,8.2681871 C25.7999952,8.33585798 25.7690832,8.36986176 25.7074272,8.43753265 C25.6237632,8.52927551 25.5819312,8.57523112 25.4980992,8.66714232 L25.3299312,8.66714232 L25.1617632,8.66714232 L25.1617632,8.77319371 C25.1274912,8.81073253 25.1101872,8.82958611 25.0759152,8.86712494 C25.0056912,8.7901956 24.9433632,8.70148277 24.9433632,8.70148277 L25.0273632,8.55671421 L25.1421072,8.42238245 C25.1421072,8.42238245 25.2555072,8.39662711 25.3415232,8.39662711 C25.4152752,8.31582605 25.4520672,8.27542552 25.5258192,8.19462447 L25.5258192,8.00541532 L25.5463152,7.802571 C25.5463152,7.802571 25.4082192,7.751397 25.3299312,7.66554587 L25.3299312,7.37196869 L25.5258192,7.37196869 C25.5879792,7.44014459 25.6190592,7.4743167 25.6812192,7.54249259 L25.6812192,7.68305277 C25.6812192,7.72799836 25.6088112,7.78691579 25.6088112,7.78691579 C25.6088112,7.78691579 25.7895792,7.9143458 25.8618192,7.9934635 L25.8618192,8.2681871 Z M24.8390352,13.4653785 C24.8227392,13.4145411 24.8146752,13.3891225 24.7987152,13.3382852 C24.7706592,13.249404 24.7568832,13.2051317 24.7294992,13.1162506 L24.6327312,13.1162506 C24.5482272,13.175168 24.5062272,13.2046267 24.4235712,13.2633758 C24.3990432,13.3076481 24.3869472,13.3297 24.3625872,13.3739723 L24.2014752,13.3739723 C24.2212992,13.3371068 24.2313792,13.3185899 24.2513712,13.2817244 C24.1288992,13.2818927 24.0687552,13.2818927 23.9503152,13.2818927 C24.0106272,13.2364422 24.0410352,13.2137169 24.1025232,13.1682663 C24.1277232,13.1213006 24.1403232,13.0977337 24.1655232,13.0507681 C24.1304112,12.9300715 24.1129392,12.8698073 24.0769872,12.7492791 L23.9541792,12.7492791 C23.9338512,12.6809349 23.9234352,12.6465944 23.9024352,12.5782502 L23.8622832,12.5782502 C23.8723632,12.5587233 23.8774032,12.5487915 23.8874832,12.5292646 C23.8935312,12.5487915 23.8965552,12.5585549 23.9024352,12.5782502 C24.0613632,12.5780819 24.1416672,12.5780819 24.3052992,12.5779135 C24.3419232,12.5100743 24.3604032,12.4762389 24.3970272,12.4083996 C24.5467152,12.4082313 24.6224832,12.4082313 24.7768752,12.408063 C24.8425632,12.611749 24.8741472,12.713592 24.9391632,12.9174463 C24.8961552,12.9915139 24.8748192,13.0285478 24.8319792,13.1027837 C24.8773392,13.2475523 24.9003552,13.3201049 24.9480672,13.4652101 C24.9040512,13.4653785 24.8822112,13.4653785 24.8390352,13.4653785 L24.8390352,13.4653785 Z M22.4260512,13.2251637 C22.4914032,13.2251637 22.5239952,13.2251637 22.5895152,13.2249953 C22.5701952,13.274991 22.5606192,13.2999046 22.5418032,13.349732 L22.3739712,13.349732 C22.3566672,13.303103 22.3479312,13.2797044 22.3302912,13.2330754 C22.1715312,13.2330754 22.0922352,13.2330754 21.9324672,13.2332438 C21.9144912,13.1911599 21.9055872,13.1701179 21.8874432,13.1280341 C21.9015552,13.0844352 21.9087792,13.0625515 21.9232272,13.0189526 C21.9921072,13.0187843 22.0263792,13.0187843 22.0949232,13.0187843 C22.1950512,13.0144076 22.2449472,13.0122192 22.3450752,13.0080108 C22.3780032,13.094872 22.3941312,13.1383025 22.4260512,13.2251637 L22.4260512,13.2251637 Z M22.4453712,12.2949415 C22.4650272,12.2462925 22.4751072,12.2220522 22.4949312,12.1734032 C22.5780912,12.1734032 22.6195872,12.1734032 22.7024112,12.1732349 C23.0034672,11.9296534 23.1597072,11.8077784 23.4740352,11.5643653 C23.5083072,11.6507214 23.5249392,11.6938153 23.5571952,11.7801714 C23.4590832,11.8555857 23.4101952,11.8932929 23.3132592,11.9687072 C23.3460192,12.0582617 23.3619792,12.1032073 23.3928912,12.1927618 C23.2322832,12.3173301 23.1529872,12.3794459 22.9982592,12.5041826 C22.9515552,12.6082139 22.9283712,12.6602296 22.8830112,12.764261 C22.8058992,12.7644293 22.7674272,12.7644293 22.6904832,12.7644293 C22.5757392,12.7644293 22.5184512,12.7645976 22.4038752,12.7645976 C22.4485632,12.6513078 22.4714112,12.5947471 22.5179472,12.4814573 C22.4895552,12.4068846 22.4749392,12.3695141 22.4453712,12.2949415 L22.4453712,12.2949415 Z M21.9932832,12.6274042 C22.0265472,12.5986188 22.0431792,12.5843103 22.0767792,12.5553566 C22.0918992,12.5913804 22.0992912,12.6092239 22.1140752,12.6450794 C22.0641792,12.6881733 22.0394832,12.7097203 21.9904272,12.7528142 C21.9600192,12.8378236 21.9450672,12.8804125 21.9163392,12.9655903 L21.8449392,12.9655903 C21.7520352,12.7526458 21.7041552,12.6462578 21.6036912,12.4334816 C21.5635392,12.3483039 21.5430432,12.3058833 21.5015472,12.2208739 C21.5212032,12.1641448 21.5311152,12.1356961 21.5511072,12.078967 C21.4953312,11.9650038 21.4667712,11.9079381 21.4079712,11.7938066 C21.4403952,11.6813585 21.4566912,11.624966 21.4889472,11.5125179 C21.5428752,11.6150343 21.5692512,11.6663766 21.6203232,11.7690613 C21.6828192,11.8943029 21.7130592,11.9569237 21.7716912,12.0821654 C21.8079792,12.1597681 21.8257872,12.1984852 21.8608992,12.2762562 L21.9796752,12.2762562 C21.9538032,12.3449371 21.9410352,12.3794459 21.9158352,12.4482952 C21.9472512,12.5200061 21.9627072,12.5556932 21.9932832,12.6274042 L21.9932832,12.6274042 Z M23.9780352,14.5992867 C23.8997472,14.7179632 23.8597632,14.7777223 23.7777792,14.8974089 C23.7912192,14.9876367 23.7981072,15.032919 23.8132272,15.1238202 C23.6741232,15.3204361 23.6022192,15.4190807 23.4543792,15.616875 C22.9102272,15.9537144 22.6498272,16.1223866 22.1890032,16.4560276 C22.1375952,16.4555226 22.1128992,16.4553543 22.0658592,16.4550176 C21.9598512,16.5358187 21.9084432,16.5762192 21.8088192,16.6568519 C21.7233072,16.6560103 21.6851712,16.6555053 21.6156192,16.6544952 C21.6376272,16.5792493 21.6482112,16.5415421 21.6680352,16.4661278 C21.7668192,16.3149625 21.8157072,16.2393798 21.9116352,16.0877095 C21.8753472,16.0875411 21.8578752,16.0873728 21.8237712,16.0870361 C21.8488032,15.9565761 21.8592192,15.8912619 21.8740032,15.7609702 C21.8314992,15.7606335 21.8108352,15.7606335 21.7701792,15.7602969 C21.7254912,15.8091142 21.7034832,15.8335228 21.6608112,15.8823401 C21.5894112,15.8818351 21.5553072,15.8814985 21.4870992,15.8809934 C21.4366992,15.9449609 21.4121712,15.9767764 21.3647952,16.0405755 C21.3021312,16.0399022 21.2712192,16.0397339 21.2068752,16.0390605 C21.1479072,16.1259217 21.1196832,16.1693522 21.0654192,16.256045 C21.0410592,16.2558767 21.0286272,16.2557084 21.0032592,16.2553717 C21.0333312,16.1429235 21.0481152,16.0866995 21.0771792,15.974083 C21.1252272,15.8996787 21.1499232,15.8624765 21.2009952,15.7880722 C21.3038112,15.4232891 21.3526992,15.2406451 21.4424112,14.8777136 C21.5084352,14.799606 21.5422032,14.7605521 21.6115872,14.6824444 C21.7565712,14.6822761 21.8274672,14.6821077 21.9711072,14.6819394 C22.0388112,14.6087135 22.0734192,14.5720163 22.1441472,14.499127 C22.1627952,14.450478 22.1718672,14.4262377 22.1900112,14.3777571 C22.3158432,14.2498221 22.3811952,14.1860229 22.5162672,14.0590979 C22.6041312,14.0589296 22.6483152,14.0589296 22.7378592,14.0587613 C22.9854912,13.837905 23.1113232,13.7284869 23.3829792,13.5051057 C23.4046512,13.5786683 23.4154032,13.6153654 23.4369072,13.6890964 C23.4936912,13.6890964 23.5224192,13.6890964 23.5800432,13.6889281 C23.5459392,13.7613124 23.5282992,13.7964945 23.4910032,13.8671954 L23.3849952,13.8671954 C23.3512272,13.9328463 23.3339232,13.96584 23.2989792,14.0319959 C23.3290512,14.1792895 23.3408112,14.2533571 23.3604672,14.4025024 C23.4389232,14.4023341 23.4790752,14.4021657 23.5610592,14.4021657 C23.6736192,14.2185117 23.7277152,14.1272738 23.8310352,13.9469865 C23.9098272,13.889584 23.9494752,13.860967 24.0287712,13.8040696 C24.0546432,13.9027142 24.0667392,13.9523732 24.0900912,14.0521962 C23.9598912,14.268844 23.8910112,14.3785988 23.7470352,14.5996233 C23.8367472,14.599455 23.8829472,14.599455 23.9780352,14.5992867 L23.9780352,14.5992867 Z M9.8714112,14.8112211 C9.7576752,14.9440378 9.7012272,15.010362 9.5893392,15.1433471 L9.2926512,15.1433471 C9.2370432,15.2096713 9.2093232,15.2428334 9.1540512,15.3091576 C9.1725312,15.6412836 9.1832832,15.8074308 9.2044512,16.1395568 C9.0408192,16.3390344 8.9595072,16.4386891 8.7960432,16.6379984 L8.5015392,16.6379984 C8.3923392,16.7708151 8.3377392,16.8373076 8.2276992,16.9701244 C8.2366032,17.1031094 8.2408032,17.169602 8.2486992,17.3027554 C8.1932592,17.3690796 8.1653712,17.40241 8.1092592,17.4687342 C8.1129552,17.5352268 8.1148032,17.5683889 8.1179952,17.6348814 C8.1809952,17.7010373 8.2124112,17.7341994 8.2747392,17.8003552 L8.4227472,17.8003552 C8.4370272,18.1328179 8.4420672,18.2989651 8.4432432,18.6314278 L7.9965312,18.6314278 C7.8762432,18.4986111 7.8152592,18.4321185 7.6906032,18.2993018 C7.6865712,18.0996558 7.6830432,18.0000012 7.6744752,17.8003552 C7.6104672,17.7341994 7.5783792,17.7010373 7.5138672,17.6348814 C7.5005952,17.3689113 7.4920272,17.2359262 7.4738832,16.9701244 C7.3423392,16.8373076 7.2761472,16.7708151 7.1434272,16.6379984 C7.1291472,16.4386891 7.1217552,16.3390344 7.1071392,16.1395568 C7.0406112,16.0732326 7.0073472,16.0400705 6.9408192,15.9737463 C6.8978112,15.3756502 6.8749632,15.0766862 6.8521152,14.4785901 L6.5471952,14.4785901 C6.4200192,14.3459417 6.3568512,14.2794491 6.2315232,14.1468007 C6.2300112,14.0806449 6.2293392,14.0476511 6.2283312,13.9814952 C6.1038432,13.8483418 6.0425232,13.781681 5.9195472,13.6485275 C5.9193792,13.5823717 5.9192112,13.5493779 5.9188752,13.483222 C5.7962352,13.350237 5.7347472,13.2837444 5.6116032,13.150591 C5.6095872,12.8849575 5.6082432,12.7519725 5.6052192,12.4861707 C5.7255072,12.3531856 5.7856512,12.2868614 5.9054352,12.1538763 C5.9025792,11.954567 5.9010672,11.8547441 5.8978752,11.6554348 L5.4409152,11.6554348 C5.3789232,11.5891106 5.3480112,11.5559485 5.2860192,11.4896243 C5.2851792,11.4231317 5.2846752,11.3898013 5.2838352,11.3233088 C5.1598512,11.190492 5.0978592,11.1241678 4.9742112,10.9911828 L4.5180912,10.9911828 C4.5174192,10.9251952 4.5170832,10.8920331 4.5164112,10.8258773 L3.9064032,10.8258773 C3.8454192,10.7592164 3.8148432,10.7258859 3.7538592,10.6592251 L3.6013152,10.6592251 C3.4790112,10.5264083 3.4178592,10.4600841 3.2958912,10.3272674 C3.2955552,10.2607749 3.2955552,10.2274444 3.2952192,10.1607835 C3.3556992,10.094291 3.3859392,10.0609606 3.4464192,9.99446803 C3.4460832,9.92831217 3.4460832,9.8953184 3.4457472,9.82916254 C3.2627952,9.62968492 3.1714032,9.52986195 2.9892912,9.33038434 C2.9891232,9.1975676 2.9891232,9.1312434 2.9892912,8.99842666 L2.8382592,8.99842666 C2.8380912,9.19773593 2.8382592,9.29755891 2.8384272,9.49703652 C2.8989072,9.56336072 2.9291472,9.59652282 2.9897952,9.66284702 C2.9294832,9.72933956 2.8992432,9.76267 2.8389312,9.82916254 C2.7174672,9.69617746 2.6566512,9.62985326 2.5353552,9.49703652 C2.5351872,9.16507884 2.5355232,8.99893166 2.5355232,8.66697398 C2.4750432,8.60031311 2.4448032,8.56698268 2.3841552,8.50015347 L2.3841552,8.00238528 C2.5052832,7.86940021 2.5659312,7.80290767 2.6868912,7.6699226 L2.6868912,7.50394376 C2.8078512,7.37095868 2.8683312,7.30446614 2.9892912,7.1716494 L2.9892912,6.67337621 C2.9289792,6.60688368 2.8987392,6.57355324 2.8384272,6.5070607 L2.8384272,6.17493469 C2.7172992,6.04194961 2.6566512,5.97545708 2.5355232,5.84230367 L1.9295472,5.84230367 C1.8688992,5.90913287 1.8386592,5.94246331 1.7781792,6.00912418 L1.1720352,6.00912418 C1.1115552,5.94246331 1.0813152,5.90913287 1.0206672,5.84230367 L1.0206672,5.6766615 C1.0813152,5.61016896 1.1115552,5.57700686 1.1720352,5.51051432 L1.6268112,5.51051432 L1.6268112,5.34470382 C1.6872912,5.27804294 1.7176992,5.24488084 1.7781792,5.17821997 L2.0814192,5.17821997 C2.2025472,5.04540323 2.2630272,4.97907903 2.3841552,4.84626229 L3.2925312,4.84626229 C3.3531792,4.91292316 3.3835872,4.94608526 3.4442352,5.0125778 L4.2002352,5.0125778 C4.2610512,4.94608526 4.2914592,4.91292316 4.3521072,4.84626229 L5.1092832,4.84626229 C5.2304112,4.97907903 5.2910592,5.04540323 5.4121872,5.17821997 L5.5640592,5.17821997 L5.5640592,4.68078846 C5.5032432,4.61429592 5.4728352,4.58096548 5.4121872,4.51447295 L5.4121872,4.34815743 L6.1691952,4.34815743 L6.1691952,4.68078846 L6.4719312,4.68078846 C6.5325792,4.74694432 6.5628192,4.78010642 6.6236352,4.84626229 L6.6236352,5.0125778 L6.3205632,5.0125778 L6.3205632,5.17821997 L6.9267072,5.17821997 C6.9871872,5.11189577 7.0174272,5.078902 7.0780752,5.0125778 L7.0780752,4.51447295 L7.5323472,4.51447295 L7.5323472,4.68078846 C7.4716992,4.74694432 7.4414592,4.78010642 7.3808112,4.84626229 L7.3808112,5.0125778 L7.6835472,5.0125778 L7.6835472,4.68078846 C7.7440272,4.61429592 7.7742672,4.58096548 7.8347472,4.51447295 L8.5915872,4.51447295 C8.7127152,4.64728968 8.7731952,4.71361389 8.8943232,4.84626229 L9.0463632,4.84626229 C9.1674912,4.97907903 9.2279712,5.04540323 9.3490992,5.17821997 L9.3490992,5.34470382 L8.8943232,5.34470382 C8.8340112,5.41102802 8.8039392,5.44419012 8.7436272,5.51051432 L8.4403872,5.51051432 L8.4403872,5.34470382 C8.5008672,5.27804294 8.5311072,5.24488084 8.5915872,5.17821997 L8.5915872,5.0125778 L7.9862832,5.0125778 C7.9256352,5.078902 7.8953952,5.11189577 7.8347472,5.17821997 L7.6835472,5.17821997 C7.6230672,5.24488084 7.5928272,5.27804294 7.5323472,5.34470382 L7.5323472,5.51051432 L6.6236352,5.51051432 C6.5023392,5.64333106 6.4416912,5.70965526 6.3205632,5.84230367 L6.3205632,6.17493469 C6.3810432,6.24142722 6.4112832,6.27475766 6.4719312,6.3412502 L6.9267072,6.3412502 L6.9267072,6.67337621 L7.0780752,6.67337621 C7.1990352,6.54055947 7.2596832,6.47406694 7.3808112,6.3412502 L7.6835472,6.3412502 L7.6835472,5.6766615 L8.2891872,5.6766615 L8.2891872,6.00912418 L8.4403872,6.00912418 C8.5008672,5.94246331 8.5311072,5.90913287 8.5915872,5.84230367 L8.8943232,5.84230367 L8.8943232,6.17493469 C8.9551392,6.24142722 8.9855472,6.27475766 9.0463632,6.3412502 L9.0463632,6.5070607 C8.9855472,6.57355324 8.9551392,6.60688368 8.8943232,6.67337621 L8.8943232,6.83901838 C9.0154512,6.97200346 9.0759312,7.03849599 9.1970592,7.1716494 L9.1970592,7.33762824 L8.7436272,7.33762824 C8.6828112,7.27113571 8.6524032,7.23797361 8.5915872,7.1716494 L8.5915872,7.00550223 L7.9862832,7.00550223 C7.7441952,7.27130404 7.6230672,7.40412078 7.3808112,7.6699226 L7.3808112,7.83606977 L7.0780752,7.83606977 C6.8961312,8.03521071 6.8054112,8.13486535 6.6236352,8.33417463 L6.6236352,8.50015347 C6.3813792,8.76595528 6.2597472,8.89877202 6.0186672,9.1644055 C6.0196752,9.36371477 6.0203472,9.46353775 6.0221952,9.66284702 L5.8699872,9.66284702 C5.8090032,9.59652282 5.7784272,9.56336072 5.7176112,9.49703652 C5.7166032,9.36388311 5.7162672,9.29739057 5.7155952,9.1644055 L4.6558512,9.1644055 C4.5348912,9.29739057 4.4744112,9.36388311 4.3536192,9.49703652 C4.3541232,9.62985326 4.3544592,9.69617746 4.3552992,9.82916254 C4.2348432,9.96181094 4.1746992,10.0281351 4.0540752,10.1607835 C4.1763792,10.293937 4.2376992,10.3604295 4.3605072,10.4935829 L4.6650912,10.4935829 C4.7850432,10.3604295 4.8450192,10.293937 4.9648032,10.1607835 L5.1170112,10.1607835 C5.1784992,10.2274444 5.2092432,10.2607749 5.2707312,10.3272674 C5.2722432,10.4600841 5.2730832,10.5264083 5.2747632,10.6592251 L5.4268032,10.6592251 C5.4886272,10.7258859 5.5197072,10.7592164 5.5816992,10.8258773 C5.5845552,11.0248499 5.5860672,11.1243362 5.5889232,11.3233088 L6.3496272,11.3233088 C6.4092672,11.2569846 6.4390032,11.2238225 6.4986432,11.1574983 L6.9547632,11.1574983 C6.9561072,11.2238225 6.9566112,11.2569846 6.9579552,11.3233088 C7.0197792,11.3898013 7.0506912,11.4231317 7.1125152,11.4896243 L7.8695232,11.4896243 C7.9931712,11.6226094 8.0548272,11.6891019 8.1781392,11.8219186 L8.4791952,11.8219186 C8.6021712,11.9547354 8.6636592,12.0210596 8.7861312,12.1538763 C8.7871392,12.2203688 8.7876432,12.2536993 8.7886512,12.3201918 C8.9107872,12.4530086 8.9717712,12.5195011 9.0932352,12.6523178 L9.8421792,12.6523178 C9.9634752,12.7851346 10.0239552,12.8516271 10.1447472,12.9844439 L10.2937632,12.9844439 C10.2946032,13.1172606 10.2951072,13.1837531 10.2956112,13.3167382 C10.1171952,13.5160475 10.0271472,13.6157021 9.8488992,13.8151797 C9.8510832,14.2136299 9.8566272,14.4127709 9.8714112,14.8112211 L9.8714112,14.8112211 Z M20.3562912,0.0429760627 C16.2710352,0.0429760627 14.0366352,2.9965914 14.0366352,2.9965914 C14.0366352,2.9965914 11.8022352,0.0429760627 7.7168112,0.0429760627 C3.3733392,0.0429760627 6.72e-05,3.42281698 6.72e-05,7.77378562 C6.72e-05,11.4239734 2.2255632,14.6176352 5.9578512,18.3349889 L14.0366352,26.4287299 L22.1154192,18.3349889 C25.8477072,14.6176352 28.0732032,11.4239734 28.0732032,7.77378562 C28.0732032,3.42281698 24.6997632,0.0429760627 20.3562912,0.0429760627 L20.3562912,0.0429760627 Z" id="Fill-1" fill="#FEFEFE" mask="url(#mask-2)"></path>
                </g>
                <path d="M40.1245656,19.9500506 C40.1136456,19.9195818 40.1081016,19.8933215 40.1081016,19.8712695 C40.1081016,19.8463559 40.1148216,19.8241356 40.1287656,19.8049453 C40.1536296,19.7716149 40.1978136,19.7549497 40.2614856,19.7549497 L41.1113976,19.7549497 C41.2108536,19.7549497 41.2757016,19.7992219 41.3061096,19.8877664 L42.2556456,22.3286317 L43.2050136,19.8877664 C43.2354216,19.7992219 43.3016136,19.7549497 43.4040936,19.7549497 L44.2498056,19.7549497 C44.3133096,19.7549497 44.3574936,19.7716149 44.3823576,19.8049453 C44.3963016,19.8241356 44.4031896,19.8463559 44.4031896,19.8712695 C44.4031896,19.8933215 44.3976456,19.9195818 44.3865576,19.9500506 L42.8345736,23.7315401 L42.8345736,26.3840031 C42.8345736,26.4974613 42.7776216,26.554022 42.6637176,26.554022 L41.8474056,26.554022 C41.7335016,26.554022 41.6767176,26.4974613 41.6767176,26.3840031 L41.6767176,23.7315401 L40.1245656,19.9500506 Z M37.5812136,24.2089397 L38.6685096,24.2089397 L38.1248616,21.2410158 L37.5812136,24.2089397 Z M35.9835336,26.4087485 L37.3943976,19.8712695 C37.4110296,19.7936668 37.4594136,19.7549497 37.5397176,19.7549497 L38.7182376,19.7549497 C38.7983736,19.7549497 38.8469256,19.7936668 38.8635576,19.8712695 L40.2744216,26.4087485 C40.2771096,26.4227203 40.2786216,26.4365238 40.2786216,26.4503273 C40.2786216,26.5195132 40.2384696,26.554022 40.1581656,26.554022 L39.2534856,26.554022 C39.1815816,26.554022 39.1373976,26.5139582 39.1207656,26.4338305 L38.8800216,25.1926925 L37.3695336,25.1926925 L37.1371896,26.4338305 C37.1205576,26.5139582 37.0762056,26.554022 37.0043016,26.554022 L36.0955896,26.554022 C36.0152856,26.554022 35.9751336,26.5237216 35.9751336,26.4627842 C35.9751336,26.4462873 35.9778216,26.428107 35.9835336,26.4087485 L35.9835336,26.4087485 Z M33.0174936,25.433244 L33.7976856,25.433244 C34.0244856,25.433244 34.1380536,25.3197859 34.1380536,25.0930379 L34.1380536,21.2243506 C34.1380536,20.9918792 34.0244856,20.8757277 33.7976856,20.8757277 L33.0174936,20.8757277 L33.0174936,25.433244 Z M31.8598056,26.4171652 L31.8598056,19.8877664 C31.8598056,19.7992219 31.9053336,19.7549497 31.9967256,19.7549497 L34.0384296,19.7549497 C34.4396136,19.7549497 34.7438616,19.8601594 34.9513416,20.0705788 C35.1588216,20.2808299 35.2626456,20.5865272 35.2626456,20.9878391 L35.2626456,25.3295493 C35.2626456,25.7308613 35.1588216,26.0352119 34.9513416,26.2427696 C34.7438616,26.4503273 34.4396136,26.554022 34.0384296,26.554022 L31.9967256,26.554022 C31.9053336,26.554022 31.8598056,26.5084031 31.8598056,26.4171652 L31.8598056,26.4171652 Z M80.3676216,17.0492926 L80.3676216,10.5198937 C80.3676216,10.4313493 80.4133176,10.387077 80.5045416,10.387077 L81.3468936,10.387077 C81.4243416,10.387077 81.4757496,10.4231008 81.5004456,10.4949801 L82.7911896,14.1104908 L82.8409176,14.1104908 L82.8409176,10.5198937 C82.8409176,10.4313493 82.8866136,10.387077 82.9778376,10.387077 L83.8618536,10.387077 C83.9530776,10.387077 83.9986056,10.4313493 83.9986056,10.5198937 L83.9986056,17.0492926 C83.9986056,17.0907031 83.9863416,17.1238652 83.9614776,17.1487789 C83.9364456,17.1736925 83.9033496,17.1861494 83.8618536,17.1861494 L83.0193336,17.1861494 C82.9447416,17.1861494 82.8948456,17.1487789 82.8698136,17.0740379 L81.5669736,13.4462387 L81.5254776,13.4462387 L81.5254776,17.0492926 C81.5254776,17.1405304 81.4797816,17.1861494 81.3883896,17.1861494 L80.5045416,17.1861494 C80.4630456,17.1861494 80.4297816,17.1736925 80.4050856,17.1487789 C80.3800536,17.1238652 80.3676216,17.0907031 80.3676216,17.0492926 L80.3676216,17.0492926 Z M76.6538136,14.8408987 L77.7411096,14.8408987 L77.1976296,11.8731431 L76.6538136,14.8408987 Z M75.0563016,17.0408758 L76.4671656,10.5033969 C76.4837976,10.4259625 76.5321816,10.387077 76.6123176,10.387077 L77.7910056,10.387077 C77.8711416,10.387077 77.9196936,10.4259625 77.9361576,10.5033969 L79.3471896,17.0408758 C79.3498776,17.0548476 79.3512216,17.0686512 79.3512216,17.0824547 C79.3512216,17.1516406 79.3112376,17.1861494 79.2309336,17.1861494 L78.3264216,17.1861494 C78.2543496,17.1861494 78.2099976,17.1460855 78.1935336,17.0657895 L77.9527896,15.8246515 L76.4423016,15.8246515 L76.2097896,17.0657895 C76.1931576,17.1460855 76.1489736,17.1861494 76.0770696,17.1861494 L75.1683576,17.1861494 C75.0878856,17.1861494 75.0479016,17.1556806 75.0479016,17.0947432 C75.0479016,17.0782463 75.0507576,17.0602344 75.0563016,17.0408758 L75.0563016,17.0408758 Z M72.7864536,17.0492926 L72.7864536,10.5198937 C72.7864536,10.4313493 72.8319816,10.387077 72.9233736,10.387077 L73.8072216,10.387077 C73.8986136,10.387077 73.9443096,10.4313493 73.9443096,10.5198937 L73.9443096,17.0492926 C73.9443096,17.0907031 73.9317096,17.1238652 73.9068456,17.1487789 C73.8819816,17.1736925 73.8487176,17.1861494 73.8072216,17.1861494 L72.9233736,17.1861494 C72.8319816,17.1861494 72.7864536,17.1405304 72.7864536,17.0492926 L72.7864536,17.0492926 Z M69.2636616,13.7866132 L70.1061816,13.7866132 C70.3329816,13.7866132 70.4463816,13.673155 70.4463816,13.4462387 L70.4463816,11.8482295 C70.4463816,11.6213132 70.3329816,11.507855 70.1061816,11.507855 L69.2636616,11.507855 L69.2636616,13.7866132 Z M68.1059736,17.0492926 L68.1059736,10.5198937 C68.1059736,10.4313493 68.1516696,10.387077 68.2430616,10.387077 L70.3786776,10.387077 C70.7803656,10.387077 71.0847816,10.49094 71.2925976,10.6983294 C71.5004136,10.9058871 71.6042376,11.2104061 71.6042376,11.6115497 L71.6042376,13.6829185 C71.6042376,14.2529026 71.3972616,14.6279542 70.9838136,14.8077366 L71.5711416,17.0326274 C71.5958376,17.1349754 71.5556856,17.1861494 71.4501816,17.1861494 L70.5631416,17.1861494 C70.4825016,17.1861494 70.4339496,17.1460855 70.4173176,17.0657895 L69.8489736,14.9073912 L69.2636616,14.9073912 L69.2636616,17.0492926 C69.2636616,17.0907031 69.2512296,17.1238652 69.2263656,17.1487789 C69.2015016,17.1736925 69.1682376,17.1861494 69.1267416,17.1861494 L68.2428936,17.1861494 C68.2013976,17.1861494 68.1681336,17.1736925 68.1432696,17.1487789 C68.1184056,17.1238652 68.1059736,17.0907031 68.1059736,17.0492926 L68.1059736,17.0492926 Z M64.3090056,14.8408987 L65.3963016,14.8408987 L64.8526536,11.8731431 L64.3090056,14.8408987 Z M62.7113256,17.0408758 L64.1223576,10.5033969 C64.1388216,10.4259625 64.1872056,10.387077 64.2675096,10.387077 L65.4461976,10.387077 C65.5261656,10.387077 65.5747176,10.4259625 65.5913496,10.5033969 L67.0022136,17.0408758 C67.0050696,17.0548476 67.0064136,17.0686512 67.0064136,17.0824547 C67.0064136,17.1516406 66.9662616,17.1861494 66.8861256,17.1861494 L65.9814456,17.1861494 C65.9093736,17.1861494 65.8651896,17.1460855 65.8485576,17.0657895 L65.6078136,15.8246515 L64.0973256,15.8246515 L63.8648136,17.0657895 C63.8483496,17.1460855 63.8039976,17.1861494 63.7320936,17.1861494 L62.8233816,17.1861494 C62.7430776,17.1861494 62.7030936,17.1556806 62.7030936,17.0947432 C62.7030936,17.0782463 62.7057816,17.0602344 62.7113256,17.0408758 L62.7113256,17.0408758 Z M59.1344376,11.3708299 L59.1344376,10.5198937 C59.1344376,10.4313493 59.1801336,10.387077 59.2713576,10.387077 L62.3964936,10.387077 C62.4875496,10.387077 62.5332456,10.4313493 62.5332456,10.5198937 L62.5332456,11.3708299 C62.5332456,11.4620677 62.4877176,11.507855 62.3968296,11.507855 L61.4128536,11.507855 L61.4128536,17.0492926 C61.4128536,17.1405304 61.3683336,17.1861494 61.2796296,17.1861494 L60.3925896,17.1861494 C60.3008616,17.1861494 60.2549976,17.1405304 60.2549976,17.0492926 L60.2549976,11.507855 L59.2710216,11.507855 C59.2296936,11.507855 59.1964296,11.4952299 59.1717336,11.4704845 C59.1468696,11.4455709 59.1344376,11.4122404 59.1344376,11.3708299 L59.1344376,11.3708299 Z M56.9563176,17.0492926 L56.9563176,10.5198937 C56.9563176,10.4313493 57.0018456,10.387077 57.0932376,10.387077 L57.9770856,10.387077 C58.0684776,10.387077 58.1140056,10.4313493 58.1140056,10.5198937 L58.1140056,17.0492926 C58.1140056,17.0907031 58.1015736,17.1238652 58.0765416,17.1487789 C58.0518456,17.1736925 58.0185816,17.1861494 57.9770856,17.1861494 L57.0932376,17.1861494 C57.0018456,17.1861494 56.9563176,17.1405304 56.9563176,17.0492926 L56.9563176,17.0492926 Z M52.1387496,17.0492926 L52.1387496,10.5198937 C52.1387496,10.4313493 52.1842776,10.387077 52.2756696,10.387077 L53.1180216,10.387077 C53.1954696,10.387077 53.2467096,10.4231008 53.2715736,10.4949801 L54.5623176,14.1104908 L54.6118776,14.1104908 L54.6118776,10.5198937 C54.6118776,10.4313493 54.6577416,10.387077 54.7489656,10.387077 L55.6328136,10.387077 C55.7240376,10.387077 55.7697336,10.4313493 55.7697336,10.5198937 L55.7697336,17.0492926 C55.7697336,17.0907031 55.7574696,17.1238652 55.7324376,17.1487789 C55.7075736,17.1736925 55.6744776,17.1861494 55.6328136,17.1861494 L54.7904616,17.1861494 C54.7158696,17.1861494 54.6659736,17.1487789 54.6409416,17.0740379 L53.3379336,13.4462387 L53.2964376,13.4462387 L53.2964376,17.0492926 C53.2964376,17.1405304 53.2509096,17.1861494 53.1595176,17.1861494 L52.2756696,17.1861494 C52.2341736,17.1861494 52.2009096,17.1736925 52.1760456,17.1487789 C52.1511816,17.1238652 52.1387496,17.0907031 52.1387496,17.0492926 L52.1387496,17.0492926 Z M48.4247736,14.8408987 L49.5120696,14.8408987 L48.9685896,11.8731431 L48.4247736,14.8408987 Z M46.8270936,17.0408758 L48.2381256,10.5033969 C48.2545896,10.4259625 48.3031416,10.387077 48.3832776,10.387077 L49.5619656,10.387077 C49.6419336,10.387077 49.6904856,10.4259625 49.7071176,10.5033969 L51.1181496,17.0408758 C51.1208376,17.0548476 51.1221816,17.0686512 51.1221816,17.0824547 C51.1221816,17.1516406 51.0821976,17.1861494 51.0018936,17.1861494 L50.0972136,17.1861494 C50.0253096,17.1861494 49.9809576,17.1460855 49.9643256,17.0657895 L49.7237496,15.8246515 L48.2130936,15.8246515 L47.9807496,17.0657895 C47.9641176,17.1460855 47.9197656,17.1861494 47.8480296,17.1861494 L46.9393176,17.1861494 C46.8588456,17.1861494 46.8188616,17.1556806 46.8188616,17.0947432 C46.8188616,17.0782463 46.8215496,17.0602344 46.8270936,17.0408758 L46.8270936,17.0408758 Z M41.0384856,17.0159621 L41.0384856,10.5572642 C41.0384856,10.4438061 41.0951016,10.387077 41.2083336,10.387077 L42.3310776,10.387077 C42.4305336,10.387077 42.4926936,10.4369043 42.5175576,10.536559 L43.4580216,14.7701977 L44.3983176,10.536559 C44.4231816,10.4369043 44.4851736,10.387077 44.5847976,10.387077 L45.7073736,10.387077 C45.8206056,10.387077 45.8772216,10.4438061 45.8772216,10.5572642 L45.8772216,17.0159621 C45.8772216,17.1294203 45.8209416,17.1861494 45.7082136,17.1861494 L44.9216376,17.1861494 C44.8089096,17.1861494 44.7526296,17.1294203 44.7526296,17.0159621 L44.7526296,13.1888537 L44.6945016,13.1888537 L43.8519816,17.0326274 C43.8272856,17.1349754 43.7649576,17.1861494 43.6653336,17.1861494 L43.2503736,17.1861494 C43.1509176,17.1861494 43.0885896,17.1349754 43.0637256,17.0326274 L42.2212056,13.1888537 L42.1632456,13.1888537 L42.1632456,17.0159621 C42.1632456,17.1294203 42.1064616,17.1861494 41.9930616,17.1861494 L41.2086696,17.1861494 C41.0951016,17.1861494 41.0384856,17.1294203 41.0384856,17.0159621 L41.0384856,17.0159621 Z M36.4492296,15.9616767 L36.4492296,10.5572642 C36.4492296,10.5102986 36.4656936,10.4702348 36.4989576,10.4369043 C36.5322216,10.4037422 36.5722056,10.387077 36.6192456,10.387077 L37.4367336,10.387077 C37.4837736,10.387077 37.5239256,10.4037422 37.5571896,10.4369043 C37.5902856,10.4702348 37.6069176,10.5102986 37.6069176,10.5572642 L37.6069176,15.7249969 C37.6069176,15.9519132 37.7203176,16.0653714 37.9472856,16.0653714 L38.3871096,16.0653714 C38.6139096,16.0653714 38.7274776,15.9519132 38.7274776,15.7249969 L38.7274776,10.5572642 C38.7274776,10.5102986 38.7439416,10.4702348 38.7772056,10.4369043 C38.8104696,10.4037422 38.8504536,10.387077 38.8974936,10.387077 L39.6818856,10.387077 C39.7289256,10.387077 39.7690776,10.4037422 39.8021736,10.4369043 C39.8354376,10.4702348 39.8519016,10.5102986 39.8519016,10.5572642 L39.8519016,15.9616767 C39.8519016,16.3628203 39.7482456,16.6673392 39.5407656,16.8747286 C39.3332856,17.0824547 39.0290376,17.1861494 38.6278536,17.1861494 L37.6734456,17.1861494 C37.2720936,17.1861494 36.9678456,17.0824547 36.7603656,16.8747286 C36.5528856,16.6673392 36.4492296,16.3628203 36.4492296,15.9616767 L36.4492296,15.9616767 Z M31.8598056,17.0492926 L31.8598056,10.5198937 C31.8598056,10.4313493 31.9081896,10.387077 32.0049576,10.387077 L32.8805736,10.387077 C32.9719656,10.387077 33.0174936,10.4313493 33.0174936,10.5198937 L33.0174936,13.2263925 L34.1047896,13.2263925 L34.1047896,10.5198937 C34.1047896,10.4313493 34.1504856,10.387077 34.2417096,10.387077 L35.1173256,10.387077 C35.2140936,10.387077 35.2626456,10.4313493 35.2626456,10.5198937 L35.2626456,17.0492926 C35.2626456,17.1405304 35.2140936,17.1861494 35.1173256,17.1861494 L34.2417096,17.1861494 C34.2002136,17.1861494 34.1671176,17.1736925 34.1422536,17.1487789 C34.1172216,17.1238652 34.1047896,17.0907031 34.1047896,17.0492926 L34.1047896,14.3470022 L33.0174936,14.3470022 L33.0174936,17.0492926 C33.0174936,17.0907031 33.0050616,17.1238652 32.9801976,17.1487789 C32.9553336,17.1736925 32.9220696,17.1861494 32.8805736,17.1861494 L32.0049576,17.1861494 C31.9081896,17.1861494 31.8598056,17.1405304 31.8598056,17.0492926 L31.8598056,17.0492926 Z M53.0936616,6.6974987 L53.8738536,6.6974987 C54.1006536,6.6974987 54.2142216,6.58420888 54.2142216,6.35729258 L54.2142216,2.48860525 C54.2142216,2.25630221 54.1006536,2.13998235 53.8738536,2.13998235 L53.0936616,2.13998235 L53.0936616,6.6974987 Z M51.9359736,7.68141991 L51.9359736,1.15202108 C51.9359736,1.06364493 51.9815016,1.01920435 52.0728936,1.01920435 L54.1144296,1.01920435 C54.5156136,1.01920435 54.8200296,1.12441406 55.0275096,1.33466514 C55.2349896,1.54508456 55.3386456,1.8507819 55.3386456,2.25209382 L55.3386456,6.59380401 C55.3386456,6.99511593 55.2349896,7.29963491 55.0275096,7.5070243 C54.8200296,7.71458201 54.5156136,7.81844504 54.1144296,7.81844504 L52.0728936,7.81844504 C51.9815016,7.81844504 51.9359736,7.77265777 51.9359736,7.68141991 L51.9359736,7.68141991 Z M47.5953576,1.15202108 C47.5953576,1.06364493 47.6408856,1.01920435 47.7322776,1.01920435 L48.6161256,1.01920435 C48.7075176,1.01920435 48.7530456,1.06364493 48.7530456,1.15202108 L48.7530456,6.6974987 L50.7740856,6.6974987 C50.8654776,6.6974987 50.9110056,6.74193928 50.9110056,6.83031544 L50.9110056,7.68141991 C50.9110056,7.77265777 50.8654776,7.81844504 50.7740856,7.81844504 L47.7322776,7.81844504 C47.6408856,7.81844504 47.5953576,7.77265777 47.5953576,7.68141991 L47.5953576,1.15202108 Z M44.0723976,4.41874053 L44.9149176,4.41874053 C45.1415496,4.41874053 45.2551176,4.30528237 45.2551176,4.0785344 L45.2551176,2.48035681 C45.2551176,2.25344051 45.1415496,2.13998235 44.9149176,2.13998235 L44.0723976,2.13998235 L44.0723976,4.41874053 Z M42.9145416,7.68141991 L42.9145416,1.15202108 C42.9145416,1.06364493 42.9604056,1.01920435 43.0517976,1.01920435 L45.1874136,1.01920435 C45.5889336,1.01920435 45.8935176,1.12306737 46.1013336,1.33062509 C46.3091496,1.53818281 46.4129736,1.84253346 46.4129736,2.24367705 L46.4129736,4.31504583 C46.4129736,4.8851983 46.2059976,5.25991321 45.7923816,5.44003223 L46.3797096,7.66492303 C46.4045736,7.7671027 46.3644216,7.81844504 46.2589176,7.81844504 L45.3717096,7.81844504 C45.2912376,7.81844504 45.2426856,7.77821285 45.2260536,7.69808513 L44.6575416,5.53968687 L44.0723976,5.53968687 L44.0723976,7.68141991 C44.0723976,7.72283046 44.0599656,7.75599256 44.0349336,7.78107455 C44.0102376,7.80581988 43.9769736,7.81844504 43.9354776,7.81844504 L43.0516296,7.81844504 C43.0101336,7.81844504 42.9767016,7.80581988 42.9520056,7.78107455 C42.9271416,7.75599256 42.9145416,7.72283046 42.9145416,7.68141991 L42.9145416,7.68141991 Z M39.4497096,6.3820379 C39.4497096,6.60912254 39.5636136,6.72258069 39.7914216,6.72258069 L40.2824856,6.72258069 C40.5102936,6.72258069 40.6241976,6.60912254 40.6241976,6.3820379 L40.6241976,2.45544315 C40.6241976,2.22869518 40.5102936,2.11506869 40.2824856,2.11506869 L39.7914216,2.11506869 C39.5636136,2.11506869 39.4497096,2.22869518 39.4497096,2.45544315 L39.4497096,6.3820379 Z M38.3252856,6.59380401 L38.3252856,2.24367705 C38.3252856,1.84253346 38.4291096,1.53818281 38.6369256,1.33062509 C38.8445736,1.12306737 39.1493256,1.01920435 39.5508456,1.01920435 L40.5065976,1.01920435 C40.9082856,1.01920435 41.2127016,1.12306737 41.4205176,1.33062509 C41.6281656,1.53818281 41.7321576,1.84253346 41.7321576,2.24367705 L41.7321576,6.59380401 C41.7321576,6.99511593 41.6281656,7.29963491 41.4205176,7.5070243 C41.2127016,7.71458201 40.9082856,7.81844504 40.5065976,7.81844504 L39.5508456,7.81844504 C39.1493256,7.81844504 38.8445736,7.71458201 38.6369256,7.5070243 C38.4291096,7.29963491 38.3252856,6.99511593 38.3252856,6.59380401 L38.3252856,6.59380401 Z M31.8598056,1.19780835 L31.8598056,1.17289469 C31.8598056,1.07054668 31.9140696,1.01920435 32.0227656,1.01920435 L32.8377336,1.01920435 C32.9492856,1.01920435 33.0090936,1.07324005 33.0174936,1.18114313 L33.3484536,5.15773353 L33.3897816,5.15773353 L34.2292776,1.1686863 C34.2543096,1.06903166 34.3164696,1.01920435 34.4159256,1.01920435 L34.9264776,1.01920435 C35.0261016,1.01920435 35.0884296,1.06903166 35.1131256,1.1686863 L35.9403576,5.15773353 L35.9858856,5.15773353 L36.3333096,1.18114313 C36.3415416,1.07324005 36.4016856,1.01920435 36.5135736,1.01920435 L37.3275336,1.01920435 C37.4365656,1.01920435 37.4909976,1.07054668 37.4909976,1.17289469 L37.4909976,1.19780835 L36.7528056,7.65650625 C36.7444056,7.76440933 36.6849336,7.81844504 36.5743896,7.81844504 L35.7402696,7.81844504 C35.6406456,7.81844504 35.5784856,7.7671027 35.5536216,7.66492303 L34.6697736,3.82114937 L33.7776936,7.67300314 C33.7528296,7.76996441 33.6906696,7.81844504 33.5910456,7.81844504 L32.7404616,7.81844504 C32.6297496,7.81844504 32.5702776,7.76440933 32.5620456,7.65650625 L31.8598056,1.19780835 Z" id="Fill-4" fill="#FEFEFE"></path>
            </g>
        </g>
    </g>
</svg>