<?xml version="1.0" encoding="utf-8"?>
<!-- Generator: Adobe Illustrator 24.0.3, SVG Export Plug-In . SVG Version: 6.00 Build 0)  -->
<svg version="1.1" id="Layer_1" xmlns="http://www.w3.org/2000/svg" xmlns:xlink="http://www.w3.org/1999/xlink" x="0px" y="0px"
     viewBox="0 0 154.73 93.24" style="enable-background:new 0 0 154.73 93.24;" xml:space="preserve">
<style type="text/css">
	.st0{fill:#FFFFFF;}
</style>
  <g>
	<path class="st0" d="M29.38,20.54c-0.63-0.4-0.5-0.91-0.21-1.44c0.04-0.61,0.56-0.59,0.95-0.74c0.08,0,0.16,0,0.24,0
		c0.49,0.63,1.66,0.58,1.69,1.67c-0.13,0.14-0.29,0.16-0.47,0.11c-0.1-0.06-0.18-0.15-0.28-0.21C30.21,19.2,29.92,19.3,29.38,20.54z
		"/>
    <path class="st0" d="M30.12,18.36c-0.3,0.26-0.74,0.36-0.95,0.74c0-0.25-0.01-0.49-0.01-0.74C29.48,18.36,29.8,18.36,30.12,18.36z"
    />
    <path class="st0" d="M93.07,70.09c0.47-1.7,2.08-2.06,3.36-2.68c0.97-0.47,1.87-1.01,2.53-1.77c0.29-0.34,0.7-0.51,0.89-0.52
		c2.23-0.17,3.68-1.98,5.68-2.62c1.16-0.37,2.08-1.3,3.34-1.45c0.36,0.06,0.75,0.21,0.97-0.26c1.19-0.76,2.5-1.23,3.83-1.68
		c0.51-0.62,1.34-0.32,1.94-0.69c0.22-0.08,0.45-0.16,0.67-0.23c0.41,0.25,0.49-0.16,0.68-0.34c0.24-0.2,0.58-0.16,0.82-0.36
		c1.58-0.32,3.1-0.94,4.75-0.92c0.46,0.01,1.04-0.18,1.14-0.68c0.12-0.61,0.51-0.29,0.78-0.37c0.37-0.23,0.77-0.3,1.2-0.24
		c0.67-0.3,1.34-0.63,1.86,0.22c0.27-0.16,0.26-0.53,0.53-0.69c0.32-0.46,0.78-0.33,1.24-0.33c0.4,0,0.87,0.02,1.16-0.38
		c0.46-0.45,1.13-0.24,1.65-0.51c-0.39-0.8-1.23-0.78-1.91-1.04c-0.73-0.28-1.59-0.21-2.17-0.86c-0.45-0.2-0.94-0.1-1.4-0.22
		c-2-0.94-4.11-1.58-6.22-2.21c-0.22-0.22-0.54-0.24-0.77-0.42c-1.23-0.13-2.55,0.02-3.4-1.19c-0.18-0.26-0.41-0.09-0.63-0.11
		c-0.59-0.04-1.2-0.1-1.7-0.45c-1.28-0.88-2.86-0.84-4.23-1.44c-0.07-0.12-0.11-0.27-0.29-0.26c-1.25-0.6-2.8-0.35-3.92-1.41
		c-0.19-0.18-0.58,0.19-1.03-0.01c-2.31-1.04-4.62-2.16-7.04-2.84c-2.01-0.56-3.93-1.35-5.89-2.01c-1.17-0.39-2.23-1.16-3.15-2.04
		c-0.41,0.2-0.8,0.17-1.19-0.06c-2.45-1.71-5.26-2.9-7.37-5.09c-0.51-0.53-0.87-1.19-1.31-1.79c-0.23-0.17-0.53-0.25-0.67-0.53
		c-0.7-1.51-1.7-2.97-0.94-4.77c0.18-0.41,0.78,0.02,0.91-0.47c0.92,0.37,2.08-0.2,2.86,0.72c1,1.19-0.47,1.03-0.81,1.48
		c-0.17,0.25-0.08,0.46,0.13,0.64c1.28,1.55,2.62,3.01,4.28,4.21c1.43,1.04,3.08,1.54,4.54,2.47c1.16,0.75,2.59,1.08,3.89,1.62
		c1.07,0.45,2.13,0.95,3.2,1.39c0.32,0.13,0.7,0.12,1.05,0.17c0.27-0.03,0.52-0.01,0.73,0.2c0.04,0.01,0.09,0,0.12,0.02
		c1.4,1.36,3.42,1.1,5.03,1.91c1.28,0.64,2.73,0.77,4.06,1.26c0.72,0.27,1.45,0.58,2.14,0.91c1.39,0.68,2.96,0.79,4.33,1.44
		c2.16,1.02,4.57,1.18,6.74,2.28c1.44,0.73,3.23,0.94,4.81,1.54c2.95,1.12,5.93,2.11,9.05,2.68c0.61,0.11,1.18,0.45,1.76,0.69
		c0.77,0.69,1.82,0.31,2.67,0.67c0.15,0.03,0.29,0.05,0.44,0.08c0.39,0.13,0.71,0.36,0.97,0.67c0.08,0.08,0.16,0.16,0.23,0.24
		c0.6,0.21,0.9,0.71,1.19,1.22c0,0.07,0.01,0.15,0.01,0.22c-0.3,0.71-0.76,1.33-1.16,1.97c-0.48,0.88-1.41,1.14-2.18,1.63
		c-1.15,0.16-2.24,0.49-3.23,1.11c-0.82-0.09-1.47,0.54-2.26,0.56c-0.79,0.17-1.57,0.34-2.36,0.51c-0.36,0.36-0.82,0.16-1.24,0.24
		c-0.17,0.54-0.84,0.56-1.06,0.54c-1.58-0.17-2.68,0.99-4.02,1.32c-2.21,0.54-4.27,1.63-6.57,1.8c-0.42,0.03-0.43,0.56-0.82,0.61
		c-0.31,0.13-0.64,0.01-0.95,0.05c-1.69,0.68-3.17,1.93-5.11,1.89c-0.94-0.02-1.12,1-1.91,1.27c-1.46,0.49-2.77,1.36-4.26,1.8
		c-0.23,0.32-0.58,0.45-0.92,0.59c-0.53,0.21-0.93,0.64-1.44,0.87c-1.69,0.39-3.05,1.3-4.14,2.64c-0.07,0.09-0.18,0.18-0.29,0.21
		c-2.4,0.7-4.5,2.08-6.82,2.99c-1.27,0.5-2.42,1.16-3.83,1.11c-0.61-0.02-1.03-0.2-1.28-0.84c-0.24-0.64-0.26-1.2,0.29-1.62
		c1.74-1.33,3.55-2.56,5.5-3.55C91.74,70.47,92.37,70.2,93.07,70.09z"/>
    <path class="st0" d="M42.57,64.86c1.19-0.66,2.38-1.32,3.56-1.98c1.38-0.19,2.69-0.56,3.85-1.35c1.15-1.28,2.83-1.25,4.3-1.74
		c0.39-0.17,0.77-0.36,1.21-0.4c0.16-0.1,0.31-0.19,0.47-0.29c0.33-0.13,0.68-0.24,0.96-0.48c1.04-0.94,2.45-0.88,3.67-1.19
		c1.36-0.35,2.65-0.86,3.99-1.23c0.33-0.13,0.69-0.19,0.97-0.44c0.78-0.17,1.57-0.34,2.35-0.51c0.26-0.18,0.52-0.15,0.77,0.01
		c0.28-0.28,0.27-0.88,0.87-0.81c1.59,0.19,2.74-0.93,4.13-1.34c0.55-0.13,1.07-0.29,1.44-0.76c0.58-0.53,1.21-1,2-1.12
		c0.4-0.06,0.47-0.35,0.63-0.6c0.25-0.17,0.51-0.19,0.79-0.1c0.3,0.12,0.28,0.4,0.33,0.64c0.06,0.27,0.31,0.31,0.52,0.42
		c0.29,0.47,0.85,0.7,1.06,1.22c0.4,0.96,0.04,1.75-0.56,2.49c-0.04,0.1-0.11,0.19-0.19,0.27c-0.29,0.1-0.67-0.06-0.84,0.34
		c-0.23,0.18-0.42,0.4-0.61,0.61c-1.12,1.15-2.51,1.63-4.08,1.66c-0.34,0.17-0.75,0.12-1.07,0.37c-0.2,0.07-0.4,0.2-0.63,0.09
		c-0.28-0.06-0.49,0.09-0.71,0.23c-0.48,0.15-0.99,0.23-1.45,0.45c-2.36,0.34-4.5,1.53-6.89,1.76c-0.53,0.05-0.55,1.06-1.28,0.64
		c-0.18,0.24-0.55,0.21-0.68,0.5c-0.39-0.01-0.77,0.24-1.17,0.05c-1.68,0.64-3.47,0.98-5.06,1.88c-0.62,0.66-1.26,1.07-2.31,0.94
		c-0.53-0.07-1.15,0.6-1.79,0.86c-1.33,0.55-2.56,1.38-3.9,1.88c-0.82,0.3-1.35,1.1-2.26,1.13c-0.72,0-1.17,0.61-1.81,0.79
		c-0.27,0.2-0.62,0.18-0.9,0.34c-1.21,0.41-2.12,1.51-3.5,1.5c-0.17,0.45-0.3,0.78-0.95,0.87c-0.61,0.09-1.01,0.9-1.74,0.99
		c-1.51,1.05-3.02,2.1-4.54,3.14c-0.29,0.23-0.59,0.44-0.87,0.68c-0.57,0.24-1.26,0.32-1.51,1.04c-0.58,1.65-1.08,1.91-3.13,1.65
		c-1.15-1.31-0.91-3.21,0.48-4.36c0.67-0.56,1.32-1.29,1.75-1.94c1.04-1.6,2.86-1.99,4.1-3.22c1.02-1.01,2.31-1.74,3.75-2.09
		c0.46-0.11,0.76-0.41,0.96-0.82c0.16-0.09,0.38-0.04,0.48-0.25c0.55-0.25,1.1-0.5,1.64-0.75c0.74-0.35,1.33-0.99,2.17-1.17
		c0.07-0.02,0.14-0.03,0.21-0.04C41.89,65.13,42.26,65.06,42.57,64.86z"/>
    <path class="st0" d="M77.76,50.72c0.07,0.43,0.22,0.83-0.54,0.83c-0.77-0.01-1.4,0.45-1.86,1.09c-0.64,0.18-1.28,0.52-1.93,0.01
		l0.01,0.01c-1.51-0.66-3.04-1.3-4.56-1.92c-0.15,0-0.3-0.01-0.45-0.01c-1.33-0.13-2.59-0.43-3.55-1.47
		c-0.03-0.06-0.05-0.12-0.06-0.19c-1.1-0.24-2.28-0.21-3.19-1.04c-1.18-0.37-2.4-0.57-3.54-1.06c-0.24-0.33-0.6-0.36-0.96-0.36
		c-0.45-0.16-0.92-0.28-1.22-0.7c-0.16-0.52-0.6-0.24-0.91-0.32c-1.39-0.25-2.46-1.16-3.65-1.83c-0.18-0.45-0.43-0.79-0.98-0.78
		c-0.1-0.03-0.18-0.09-0.24-0.18c-1.14-0.25-2-1.03-3.01-1.54c-0.32-0.18-0.54-0.5-0.89-0.66c-0.3-0.3-0.81-0.33-0.98-0.79
		c-0.47-0.6-0.29-1.28-0.23-1.94c0.1-0.33-0.06-0.55-0.31-0.74c-0.36-0.63-0.29-1.07,0.51-1.2c0.68-0.02,1.18,0.37,1.68,0.76
		c1.17,0.92,2.37,1.82,3.79,2.34c0.51,0.32,0.88,0.88,1.53,0.99c0.1,0.02,0.2,0.06,0.29,0.1c0.22,0.12,0.45,0.23,0.7,0.3
		c0.1,0.03,0.2,0.06,0.31,0.09c0.19,0.06,0.43,0.06,0.55,0.2c0.93,1.1,2.31,1.23,3.54,1.67c0.37,0.21,0.76,0.38,1.19,0.42
		c0.11,0.02,0.21,0.06,0.3,0.1c0.57,0.3,0.72,1.05,1.35,1.29c0.55,0.17,1.12,0.24,1.7,0.25c0.25-0.09,0.5-0.2,0.77-0.23
		c0.46-0.06,0.89-0.05,1.03,0.52c0.46,0.72,1.14,0.89,1.93,0.81c0.4,0.05,0.81,0.08,1.13,0.36c0.07-0.01,0.14,0,0.2,0.02
		c0.15,0.26,0.39,0.29,0.67,0.35c0.59,0.13,1.26,0.11,1.65,0.74c0.2,0.31,0.5,0.08,0.75,0.06c0.83,0.17,1.45,0.9,2.35,0.88
		c0.22,0.22,0.48,0.34,0.8,0.24c0.28-0.03,0.52,0.12,0.78,0.15c0.11,0.03,0.2,0.08,0.29,0.14c0.31,0.31,0.66,0.54,1.09,0.65
		c0.38,0.16,0.86-0.14,1.19,0.25c0.3,0.42,0.87,0.23,1.23,0.54c0.07,0.09,0.1,0.19,0.11,0.3C78.13,50.47,77.93,50.58,77.76,50.72z"
    />
    <path class="st0" d="M34.45,24.1c0.67,0.25,0.82,0.93,1.18,1.45c0.42,0.32,0.73,0.71,0.81,1.26c-0.05,0.32-0.24,0.51-0.56,0.56
		c-0.87-0.38-0.88-1.44-1.57-1.98c-0.14-0.11-0.18-0.37-0.37-0.45c-1.64-0.65-1.69-2.02-1.59-3.46c0.07-0.17,0.18-0.28,0.37-0.29
		c0.23,0.11,0.29,0.33,0.37,0.54C33.7,22.43,33.81,23.41,34.45,24.1z"/>
    <path class="st0" d="M50.7,39.22c-1.61-0.26-2.68-1.47-3.96-2.31c-0.5-0.33-0.95-0.69-1.55-0.81c-0.32-0.16-0.93,0.03-0.81-0.67
		c0.51-0.5,1.06,0,1.39,0.15c0.64,0.29,1.35,0.63,1.79,1.26c0.83,0.81,1.99,1.08,2.94,1.7c0.52,0.34,1.08,0.61,1.63,0.92
		c0.51,0,0.76,0.25,0.74,0.76c-0.18,0.11-0.34,0.09-0.5-0.04l0,0C51.74,39.99,51.25,39.55,50.7,39.22z"/>
    <path class="st0" d="M79.43,26.5c0.19-0.11,0.38-0.27,0.59-0.32c0.64-0.14,0.75-0.54,0.61-1.09c1.16,0.26,1.33,1.53,2.15,2.13
		c0.18,0.13,0.32,0.33,0.48,0.5c0.22,0.55,0,0.63-0.48,0.47c-0.9-0.57-1.7-1.33-2.85-1.38C79.72,26.77,79.57,26.65,79.43,26.5z"/>
    <path class="st0" d="M79.67,55.27c0.26-0.73,1.02-1.3,0.62-2.23c-0.24-0.57-1.03-0.67-1.1-1.36c-0.07-0.11-0.06-0.21,0.03-0.31
		c0.59-0.13,0.98,0.25,1.4,0.55c0.06,0.22,0.03,0.45,0.21,0.66c0.75,0.86,0.68,1.47-0.2,2.2C80.57,55.42,80.24,55.57,79.67,55.27z"
    />
    <path class="st0" d="M57.65,42.57c-1.72-0.02-3.03-0.94-4.31-1.92c0.24-0.33,0.24-0.33,0.99-0.02c1.09,0.26,1.91,1.19,3.08,1.23
		c0.23,0.06,0.34,0.22,0.37,0.44C57.76,42.4,57.72,42.49,57.65,42.57z"/>
    <path class="st0" d="M70.33,47.13c-0.3,0.51-0.62,1.07-1.01,0.08C69,46.42,68,46.4,67.73,46.52c-1.2,0.52-0.35-0.42-0.5-0.6
		c0.5-0.81,1.07-0.17,1.52,0.02c0.53,0.22,1.02,0.56,1.59,0.71c0.14,0.1,0.15,0.23,0.1,0.38C70.4,47.06,70.36,47.1,70.33,47.13z"/>
    <path class="st0" d="M55.25,64.14c0.27-0.77,1.11-0.74,1.66-1.05c0.92-0.53,2.07-0.68,3.12-0.97c0.07-0.02,0.18,0.1,0.28,0.15
		c-0.28,0.85-1.14,0.6-1.71,0.84C57.53,63.57,56.37,63.81,55.25,64.14z"/>
    <path class="st0" d="M35.86,27.23c0.23-0.09,0.38-0.25,0.48-0.48c0.14-0.13,0.3-0.15,0.47-0.08c0.51,0.64,0.79,1.45,1.44,2
		c0.25,0.18,0.72,0.2,0.5,0.7c0.05,0.11,0.02,0.19-0.07,0.26c-0.37-0.01-0.7-0.19-1.06-0.24c-0.32-0.09-0.62-0.2-0.86-0.43
		c-0.2-0.25-0.26-0.59-0.49-0.83C36.08,27.86,35.52,27.74,35.86,27.23z"/>
    <path class="st0" d="M41.12,32.29c0.98-0.1,1.48,0.64,2.03,1.23c0.44,0.48,0.76,1.07,1.13,1.61c-0.02,0.05-0.05,0.11-0.07,0.16
		c-1.15,0.69-1.35-0.3-1.73-0.97c0.23-0.67-0.46-0.73-0.73-1.07c-0.26-0.19-0.52-0.37-0.68-0.66
		C41.04,32.48,41.06,32.38,41.12,32.29z"/>
    <path class="st0" d="M72.71,48.09c-1.02,0.24-1.69-0.4-2.39-0.96c0,0,0.02-0.02,0.02-0.02c0.24-0.19,0.48-0.2,0.73-0.01
		c1.16-0.09,2.04,0.73,3.09,0.98c0.15,0.14,0.14,0.3,0.03,0.46c-0.25-0.07-0.5-0.15-0.75-0.22C73.16,48.37,72.88,48.43,72.71,48.09z
		"/>
    <path class="st0" d="M139.78,55.03c0.34-0.73,0.79-1.38,1.41-1.91c0.77,1.2,0.02,1.72-0.95,2.16
		C140.05,55.28,139.9,55.18,139.78,55.03z"/>
    <path class="st0" d="M47.57,36.83c-1.01-0.52-1.91-1.3-3.1-1.44c-0.2,0.05-0.29-0.05-0.29-0.24c0,0,0.1-0.02,0.1-0.02
		c0.57-0.4,1.21-0.16,1.64,0.1c0.58,0.35,1.05,0.91,1.71,1.18C47.66,36.42,47.59,36.69,47.57,36.83z"/>
    <path class="st0" d="M74.2,48.54c-0.01-0.15-0.02-0.31-0.03-0.46c0.02-0.15,0.04-0.31,0.05-0.46c0.39,0.87,0.88-0.16,1.33,0.08
		c0.55,0.29,0.76,0.86,1.17,1.26c0.03,0.03,0.04,0.07,0.06,0.1c-0.66,0.39-1.14-0.46-1.77-0.27c-0.22-0.02-0.43-0.09-0.61-0.23
		C74.34,48.54,74.27,48.54,74.2,48.54z"/>
    <path class="st0" d="M41.12,32.29c0,0.07,0,0.14,0,0.21c0.07,0.06,0.09,0.12,0.07,0.19c-0.02,0.07-0.04,0.1-0.06,0.1
		c-0.99,0.13-0.96-0.93-1.52-1.3c-0.12-0.12-0.22-0.26-0.29-0.41c-0.06-0.17-0.05-0.34,0.02-0.51c0.15-0.19,0.31-0.35,0.58-0.23
		c0.01,0.48,0.48,0.57,0.72,0.86C40.93,31.53,41.17,31.84,41.12,32.29z"/>
    <path class="st0" d="M36.08,73.45c0.59-0.5,1.14-1.1,1.96-1.17c0.48-0.04,0.36-0.6,0.73-0.69c0.02,0.33,0.52,0.84-0.26,0.89
		c-0.54,0.03-0.83,0.15-1.06,0.74C37.23,73.79,36.57,73.51,36.08,73.45z"/>
    <path class="st0" d="M80.63,51.92c-0.6,0.19-0.95-0.35-1.43-0.49c-0.06-0.07-0.09-0.15-0.08-0.25c0.05-0.17,0.05-0.34-0.01-0.51
		c-0.01-0.09,0.03-0.17,0.09-0.23C80.29,50.34,80.5,51.09,80.63,51.92z"/>
    <path class="st0" d="M138.35,50.69c-0.82,0.29-1.62-0.08-2.42-0.12c-0.37-0.02-0.19-0.35-0.25-0.55
		C136.55,50.33,137.6,49.91,138.35,50.69z"/>
    <path class="st0" d="M34.45,24.1c-0.9-0.54-1.16-1.47-1.47-2.37c0.08-0.08,0.17-0.09,0.26-0.02C33.99,22.33,34.16,23.24,34.45,24.1
		z"/>
    <path class="st0" d="M32.74,21.24c-0.08,0.08-0.16,0.16-0.24,0.24c-0.97,0.12-1.33-0.42-0.96-1.43c0.17,0,0.33-0.01,0.5-0.01
		c0.52-0.02,0.39,0.56,0.68,0.74C32.88,20.93,32.9,21.08,32.74,21.24z"/>
    <path class="st0" d="M93.07,70.09c-0.58,0.41-1.15,0.87-1.93,0.74C91.56,70.01,92.07,69.41,93.07,70.09z"/>
    <path class="st0" d="M139.78,55.03c0.2,0.01,0.37,0.06,0.47,0.25c-0.66,0.72-1.36,1.37-2.4,1.44
		C138.21,55.83,139.49,55.99,139.78,55.03z"/>
    <path class="st0" d="M59.08,43.08c-0.08-0.01-0.17-0.02-0.25-0.03c-0.12-0.26,0.03-0.37,0.24-0.46c0.59-0.02,0.97,0.42,1.43,0.68
		c0.33-0.08,0.59,0.02,0.81,0.27c0.09,0.18,0.07,0.35-0.04,0.52c-0.21,0.16-0.44,0.18-0.69,0.13
		C59.92,44.04,59.74,43.23,59.08,43.08z"/>
    <path class="st0" d="M115.6,58.41c-0.45,0.79-1.29,0.46-1.94,0.69C113.96,57.89,114.84,58.31,115.6,58.41z"/>
    <path class="st0" d="M38.25,28.67c-1.01-0.23-1.08-1.18-1.44-1.91c-0.06-0.06-0.08-0.11-0.06-0.17c0.02-0.05,0.04-0.08,0.07-0.08
		C37.37,27.19,38.15,27.71,38.25,28.67z"/>
    <path class="st0" d="M63.63,44.97c0.07-0.61-0.28-0.61-0.71-0.49c-0.17-0.31-0.81-0.14-0.73-0.71c0.76,0,1.51,0.07,2.18,0.49
		c0.1,0.32,0.01,0.57-0.24,0.79C63.95,45.09,63.78,45.1,63.63,44.97z"/>
    <path class="st0" d="M59.07,42.59c-0.08,0.15-0.16,0.31-0.24,0.46c-0.46-0.01-0.95,0.07-1.19-0.48c0-0.08,0-0.16,0-0.24
		c0.11-0.18,0.21-0.37,0.48-0.25C58.4,42.33,58.86,42.23,59.07,42.59z"/>
    <path class="st0" d="M54.32,40.63c-0.33,0.15-0.66-0.21-0.99,0.02c-0.08,0-0.15,0-0.23,0c-0.16-0.12-0.25-0.27-0.24-0.47
		c-0.17-0.32-0.42-0.55-0.73-0.72C53.12,39.37,53.64,40.15,54.32,40.63z"/>
    <path class="st0" d="M67.02,45.9c-0.42-0.03-0.88,0.18-1.23-0.22c-0.26-0.12-0.63-0.13-0.56-0.57c0.53-0.44,1.01-0.04,1.51,0.1
		C66.83,45.45,66.92,45.67,67.02,45.9z"/>
    <path class="st0" d="M66.74,45.22c-0.48,0-0.95-0.01-1.43-0.01c-0.28,0.21-0.47,0.08-0.61-0.18c-0.05-0.2-0.01-0.38,0.13-0.53
		C65.57,44.44,66.21,44.69,66.74,45.22z"/>
    <path class="st0" d="M62.19,43.77c0.16,0.32,0.77,0.18,0.73,0.71c-0.24,0.08-0.48,0.16-0.72,0.24c-0.48-0.03-0.72-0.37-0.96-0.72
		c0-0.16,0-0.31,0-0.47c0.08-0.09,0.16-0.09,0.24-0.01C61.72,43.61,61.95,43.69,62.19,43.77z"/>
    <path class="st0" d="M75.12,48.56c0.74-0.45,1,0.69,1.66,0.5c0.01,0.06,0.02,0.12,0.03,0.19c0.12,0.09,0.12,0.18-0.01,0.27
		c-0.28-0.14-0.51-0.21-0.81,0.06c-0.28,0.26-0.34-0.08-0.39-0.3C75.45,49.03,74.97,49.01,75.12,48.56z"/>
    <path class="st0" d="M78.26,56.52c-0.03-0.37-0.06-0.73,0.46-0.77c0.24,0.23,0.49-0.2,0.73,0C79.44,56.61,79.06,56.89,78.26,56.52z
		"/>
    <path class="st0" d="M132.35,58.39c0.48-0.42,1.24-0.28,1.67-0.89c0.17-0.24,0.48,0.05,0.59,0.33
		C133.91,58.2,133.17,58.46,132.35,58.39z"/>
    <path class="st0" d="M39.93,30.34c-0.16,0.08-0.32,0.15-0.47,0.23c-0.15,0.14-0.25,0.03-0.35-0.07c-0.05-0.08-0.1-0.16-0.13-0.25
		c-0.07-0.17-0.16-0.33-0.23-0.5c-0.01-0.04-0.01-0.09-0.02-0.13c0-0.08,0.01-0.17,0.01-0.25C39.51,29.24,39.79,29.71,39.93,30.34z"
    />
    <path class="st0" d="M36.82,26.52c0,0.08,0,0.17,0,0.25c-0.16-0.01-0.32-0.01-0.47-0.02c-0.24-0.4-0.47-0.8-0.71-1.21
		C36.25,25.6,36.61,25.96,36.82,26.52z"/>
    <path class="st0" d="M79.2,50.45c0,0.09-0.01,0.18-0.01,0.26c-0.22,0.14-0.37-0.07-0.55-0.12c-0.24-0.07-0.48-0.14-0.65-0.34
		c0-0.08,0-0.15-0.01-0.23c-0.08-0.11-0.08-0.21,0-0.32c0.18-0.09,0.34-0.08,0.49,0.06C78.96,49.73,79.25,49.91,79.2,50.45z"/>
    <path class="st0" d="M43.03,69.62c0.63-0.28,1.17-0.83,1.96-0.66c-0.66,0.14-0.98,0.9-1.7,0.93
		C43.14,69.86,43.05,69.77,43.03,69.62z"/>
    <path class="st0" d="M101.7,69.88c0.22-0.69,0.89-0.72,1.42-0.97c0.07,0.05,0.09,0.1,0.07,0.16c-0.02,0.06-0.04,0.09-0.06,0.09
		C102.65,69.4,102.46,70.21,101.7,69.88z"/>
    <path class="st0" d="M82.78,28.2c0.3-0.02,0.48-0.15,0.48-0.47c0.04,0.01,0.1,0.02,0.1,0.04c0.11,0.33,0.75,0.62,0.36,0.95
		C83.28,29.08,83.03,28.51,82.78,28.2z"/>
    <path class="st0" d="M29.18,78.31c-0.11-1.07,0.98-0.78,1.41-1.24c0.15,0.16,0.14,0.3-0.03,0.44
		C30.04,77.68,29.56,77.91,29.18,78.31z"/>
    <path class="st0" d="M79.67,55.27c0.42,0.03,0.79-0.06,0.97-0.5c0.06,0.78-0.03,0.87-0.97,0.99c-0.14-0.08-0.14-0.17,0-0.25
		C79.67,55.43,79.67,55.35,79.67,55.27z"/>
    <path class="st0" d="M141.18,52.89c-0.51-0.21-0.59-0.95-1.22-1.03c-0.02,0-0.05-0.07-0.04-0.1c0.01-0.03,0.05-0.06,0.08-0.09
		C140.79,51.69,141.18,52.1,141.18,52.89z"/>
    <path class="st0" d="M30.56,77.51c0.01-0.15,0.02-0.29,0.03-0.44c0.27-0.25,0.5-0.6,0.96-0.48C31.3,76.99,31.37,77.72,30.56,77.51z
		"/>
    <path class="st0" d="M117.04,57.93c-0.04,0.28-0.13,0.55-0.43,0.62c-0.26,0.06-0.29-0.19-0.34-0.37c0.17-0.25,0.34-0.5,0.5-0.75
		C117,57.51,117.16,57.65,117.04,57.93z"/>
    <path class="st0" d="M43.03,69.62c0.09,0.09,0.17,0.18,0.26,0.27c-0.24,0.55-0.61,0.46-1.01,0.2
		C42.32,69.61,42.7,69.65,43.03,69.62z"/>
    <path class="st0" d="M126.6,51.46c0.54-0.37,0.97-0.08,1.4,0.22C127.51,51.82,127,51.99,126.6,51.46z"/>
    <path class="st0" d="M117.04,57.93c-0.09-0.17-0.18-0.34-0.27-0.51c0.36-0.45,0.66,0.1,1,0.05
		C117.7,57.91,117.37,57.92,117.04,57.93z"/>
    <path class="st0" d="M72.96,58.38c0.35-0.41,0.8-0.22,1.22-0.2c0.15,0.8-0.58,0.15-0.74,0.45C73.18,58.75,73.05,58.6,72.96,58.38z"
    />
    <path class="st0" d="M132.09,53.58c-0.49,0.37-1.07,0.44-1.65,0.51C130.8,53.31,131.52,53.69,132.09,53.58z"/>
    <path class="st0" d="M77.99,49.77c0,0.08-0.01,0.16-0.01,0.24c-0.42-0.1-0.89-0.1-1.18-0.51c0-0.09,0.01-0.18,0.01-0.26
		c0.32,0.09,0.63,0.18,0.95,0.26C77.9,49.55,77.98,49.63,77.99,49.77z"/>
    <path class="st0" d="M128.76,59.13c0.34-0.44,0.84-0.07,1.24-0.24C129.7,59.56,129.27,59.56,128.76,59.13z"/>
    <path class="st0" d="M139.76,51.44c-0.49,0.01-0.73-0.34-0.97-0.67C139.33,50.67,139.71,50.82,139.76,51.44z"/>
    <path class="st0" d="M87.13,37.02c0.4,0.02,0.79,0.04,1.19,0.06C88.12,37.68,88.12,37.68,87.13,37.02z"/>
    <path class="st0" d="M32.74,21.24c0-0.16-0.01-0.31-0.01-0.47c0.39,0.19,0.77,0.39,0.51,0.93c-0.09,0.01-0.17,0.01-0.26,0.02
		C32.79,21.62,32.76,21.43,32.74,21.24z"/>
    <path class="st0" d="M115.34,63.46c0.29-0.5,0.63-0.18,0.95-0.05C115.99,63.75,115.69,64.03,115.34,63.46z"/>
    <path class="st0" d="M103.13,69.16c0-0.08-0.01-0.16-0.01-0.25c0.25-0.29,0.59-0.4,0.95-0.5
		C104.05,69.05,103.57,69.08,103.13,69.16z"/>
    <path class="st0" d="M125.64,55.26c-0.36,0.27-0.78,0.28-1.2,0.24C124.75,54.99,125.14,54.85,125.64,55.26z"/>
    <path class="st0" d="M61.48,43.52c-0.08,0-0.16,0.01-0.24,0.01c-0.24-0.09-0.49-0.18-0.73-0.27
		C60.88,42.86,61.18,42.94,61.48,43.52z"/>
    <path class="st0" d="M77.76,24.37c0.08,0.9-0.7,0.14-0.91,0.47C76.97,24.34,77.36,24.33,77.76,24.37z"/>
    <path class="st0" d="M109.84,60.78c-0.09,0.94-0.59,0.38-0.97,0.26C109.19,60.96,109.52,60.87,109.84,60.78z"/>
    <path class="st0" d="M70.32,59.32c0.4-0.44,0.91-0.49,1.45-0.45C71.34,59.18,70.87,59.38,70.32,59.32z"/>
    <path class="st0" d="M77.78,29.61c0.34,0.02,0.58,0.19,0.67,0.53C78.04,30.2,77.5,30.42,77.78,29.61z"/>
    <path class="st0" d="M72.96,58.38c0.16,0.08,0.32,0.16,0.48,0.24c-0.32,0.18-0.63,0.7-0.96,0.02
		C72.64,58.56,72.8,58.47,72.96,58.38z"/>
    <path class="st0" d="M64.83,44.49c0,0.17-0.01,0.33-0.01,0.5c-0.25,0.2-0.48,0.17-0.71-0.03c0.09-0.23,0.17-0.47,0.26-0.7
		C64.52,44.33,64.67,44.41,64.83,44.49z"/>
    <path class="st0" d="M71.07,47.11c-0.24,0-0.49,0.01-0.73,0.01c-0.01-0.15-0.01-0.31-0.02-0.46
		C70.59,46.79,71.23,46.28,71.07,47.11z"/>
    <path class="st0" d="M79.67,55.51c0,0.08,0,0.17,0,0.25c-0.08-0.01-0.15-0.01-0.23-0.01c-0.24,0.06-0.49,0.38-0.73,0
		C78.97,55.41,79.31,55.4,79.67,55.51z"/>
    <path class="st0" d="M128.04,54.8c0,0.37-0.16,0.61-0.53,0.69C127.68,55.26,127.27,54.57,128.04,54.8z"/>
    <path class="st0" d="M77.99,49.77c-0.08-0.09-0.16-0.17-0.24-0.26c0.4-0.39,0.63-0.26,0.71,0.25
		C78.31,49.77,78.15,49.77,77.99,49.77z"/>
    <path class="st0" d="M119.61,48.83c0.36-0.04,0.7-0.06,0.77,0.42C120.02,49.31,119.71,49.26,119.61,48.83z"/>
    <path class="st0" d="M61.47,62.21c-0.24-0.81,0.46-0.33,0.69-0.5C62.07,62.07,61.83,62.23,61.47,62.21z"/>
    <path class="st0" d="M58.13,42.08c-0.16,0.08-0.32,0.17-0.48,0.25c-0.08-0.16-0.16-0.32-0.24-0.48
		C57.81,41.41,57.94,41.83,58.13,42.08z"/>
    <path class="st0" d="M97.63,37.28c-0.27,0.03-0.53,0.05-0.73-0.2C97.28,36.66,97.51,36.78,97.63,37.28z"/>
    <path class="st0" d="M79.43,26.5c0.23,0,0.42,0.06,0.5,0.31c0,0.13,0.01,0.26,0.01,0.39C79.59,27.1,79.43,26.86,79.43,26.5z"/>
    <path class="st0" d="M109.35,45.39c0.02-0.16,0.07-0.38,0.25-0.32c0.37,0.13,0.05,0.38,0.05,0.58
		C109.55,45.56,109.45,45.47,109.35,45.39z"/>
    <path class="st0" d="M31.55,20.04c0.24,0.53-0.1,1.45,0.96,1.43c0.04,0.35,0.11,0.7,0.12,1.04c0.01,0.86,0.23,1.55,1.09,1.95
		c0.94,0.44,1.38,1.34,1.76,2.24c0.1,0.23,0.15,0.42,0.38,0.52c-0.05,0.53,0.54,0.4,0.72,0.71c-0.19,0.27-0.42,0.49-0.68,0.7
		c-0.37,0.24-0.72,0.55-1.21,0.37c-0.83-0.45-1.13-1.35-1.72-2c-0.49-0.26-0.48-0.73-0.5-1.19c-1.04-0.59-1.07-1.89-1.88-2.65
		c-0.74-0.72-0.6-1.84-1.22-2.61c-0.19-0.62,0.13-1.1,0.43-1.59C30.29,19.47,31.44,18.92,31.55,20.04z"/>
    <path class="st0" d="M47.12,41.13c0.8,0.22,1.68,0.48,2.13,1.14c0.31,0.46,1.16-0.43,0.98,0.54c-0.08,0.09-0.16,0.08-0.24,0
		c-0.63,0.3-1.12,0.01-1.63-0.34c-2.06-1.41-4.02-2.98-6.22-4.17c-0.96-0.52-1.21-1.73-2.19-2.21c-0.2-0.18-0.22-0.4-0.13-0.64
		c0.46-0.44,0.83,0.28,1.27,0.1c0.47,0.93,1.08,1.65,2.06,2.16c0.88,0.46,1.47,1.37,2.28,1.99c0.17,0.43,0.61,0.52,0.96,0.72
		C46.71,40.58,46.78,40.98,47.12,41.13z"/>
    <path class="st0" d="M49.99,42.81c0.08,0,0.16,0,0.24,0c0,0,0,0,0,0c0.47,0.12,0.87,0.36,1.2,0.72c1.33,0.52,2.37,1.65,3.83,1.92
		c0.13,0.09,0.14,0.22,0.1,0.37c-0.03,0.03-0.06,0.07-0.09,0.1c-1.98-0.37-3.59-1.46-5.15-2.66C50.02,43.17,50.03,42.96,49.99,42.81
		z"/>
    <path class="st0" d="M58.13,46.88c1.25,0.13,2.41,0.57,3.59,0.96c-0.03,0.16-0.12,0.26-0.27,0.29c-2.3-0.08-4.2-1.27-6.19-2.22
		c0,0,0.01-0.02,0.01-0.02c0.18-0.26,0.37-0.45,0.7-0.21c0.25,0.48,0.71,0.63,1.2,0.72C57.47,46.6,57.91,46.51,58.13,46.88z"/>
    <path class="st0" d="M68.87,50.73c1.8-0.02,3.13,1.09,4.56,1.92c-1.41-0.36-2.83-0.7-4.24-1.1C68.84,51.46,68.91,51.04,68.87,50.73
		z"/>
    <path class="st0" d="M37.75,33.72c-1.17-0.99-1.66-2.47-2.61-3.61c0.62-0.77,0.85-0.12,1.15,0.31c0.36,0.62,0.82,1.18,1.34,1.65
		c0.55,0.49,0.75,0.99,0.43,1.67C37.95,33.8,37.85,33.79,37.75,33.72z"/>
    <path class="st0" d="M64.88,49.25c1.18,0.49,2.36,0.98,3.55,1.47c-0.04,0.11-0.05,0.29-0.12,0.32c-0.76,0.31-3.18-0.69-3.55-1.47
		C64.72,49.5,64.84,49.36,64.88,49.25z"/>
    <path class="st0" d="M36.1,30.59c-0.28-0.23-0.31-0.99-0.96-0.48c-0.16-0.31-0.53-0.51-0.5-0.92c-0.07-0.1-0.06-0.19,0.02-0.28
		c0.44-0.02,0.78-0.28,1.14-0.48c0.39-0.01,0.77-0.02,0.89,0.48C36.82,29.58,36.62,30.14,36.1,30.59z"/>
    <path class="st0" d="M61.45,48.13c0.09-0.1,0.18-0.19,0.27-0.29c0.65,0.79,1.68,0.59,2.5,0.95c0.21,0.09,0.47,0.03,0.61,0.28
		C63.86,49.67,62.76,49.36,61.45,48.13z"/>
    <path class="st0" d="M49.99,61.53c-0.56,0.97-1.7,0.82-2.51,1.3c-0.44,0.26-0.87,0.54-1.34,0.06c0.08-0.62,0.76-0.51,1-0.53
		C48.15,62.26,49.06,61.9,49.99,61.53z"/>
    <path class="st0" d="M41.13,35.62c-0.47,0.28-0.8-0.21-1.21-0.23c-0.24,0.18-0.47,0.2-0.68-0.04c-0.01-0.06-0.03-0.12-0.05-0.17
		c-0.2-0.28-0.48-0.53-0.3-0.93c0.71,0.11,1.6-0.57,2.09,0.49c0.1,0.19,0.19,0.38,0.23,0.6C41.23,35.43,41.2,35.53,41.13,35.62z"/>
    <path class="st0" d="M30.59,23.16c0.47-0.02,0.53,0.39,0.7,0.68c0.4,0.65,0.78,1.32,1.18,1.97c-0.31,0.16-0.48,0.05-0.68-0.23
		C31.27,24.83,30.93,23.99,30.59,23.16z"/>
    <path class="st0" d="M34.66,28.91c-0.01,0.09-0.02,0.19-0.02,0.28c-1.13-0.29-1.13-1.45-1.67-2.19
		C33.66,27.53,34.19,28.19,34.66,28.91z"/>
    <path class="st0" d="M41.37,65.36c-0.61,0.61-1.31,1.02-2.17,1.17C39.94,66.17,40.15,64.83,41.37,65.36z"/>
    <path class="st0" d="M73.43,52.65c0.64,0,1.29-0.01,1.93-0.01c-0.54,0.25-0.93,1.02-1.69,0.47C73.59,52.95,73.51,52.8,73.43,52.65z
		"/>
    <path class="st0" d="M42.57,64.86c-0.15,0.54-0.5,0.65-0.99,0.45C41.66,64.62,42.04,64.59,42.57,64.86z"/>
    <path class="st0" d="M37.75,33.72c0.09-0.01,0.18-0.02,0.27-0.02c0.52-0.25,0.73,0.02,0.82,0.49c-0.09,0.33-0.27,0.44-0.57,0.24
		C38.11,34.17,37.74,34.09,37.75,33.72z"/>
    <path class="st0" d="M38.27,34.42c0.2,0,0.37-0.05,0.47-0.25c0.08-0.07,0.16-0.06,0.23,0.01c0.07,0.33,0.15,0.66,0.22,0.99
		C38.73,35.1,38.45,34.82,38.27,34.42z"/>
    <path class="st0" d="M55.5,59.39c-0.44,0.03-0.64,0.77-1.21,0.4C54.56,59.27,55.03,59.32,55.5,59.39z"/>
    <path class="st0" d="M39.24,35.34c0.23,0.01,0.45,0.03,0.68,0.04c0.01,0.23,0.02,0.47,0.03,0.7
		C39.46,36.08,39.22,35.84,39.24,35.34z"/>
    <path class="st0" d="M65.55,55.76c-0.1,0.63-0.52,0.57-0.97,0.44C64.79,55.78,65.16,55.74,65.55,55.76z"/>
    <path class="st0" d="M56.92,58.62c-0.21,0.37-0.41,0.78-0.96,0.48C56.15,58.67,56.53,58.63,56.92,58.62z"/>
    <path class="st0" d="M68.68,55.26c-0.26,0-0.52-0.01-0.77-0.01C68.17,54.39,68.42,54.92,68.68,55.26z"/>
    <path class="st0" d="M37.56,67.27c0.02,0.19,0.11,0.49,0.04,0.54c-0.28,0.19-0.3-0.25-0.52-0.29
		C37.16,67.29,37.34,67.25,37.56,67.27z"/>
    <path class="st0" d="M110.96,61.39c0.11,0,0.34,0.02,0.31,0.36c-0.02,0.21-0.1,0.44-0.32,0.37c-0.2-0.06-0.43-0.26-0.49-0.44
		C110.38,61.46,110.61,61.36,110.96,61.39z"/>
    <path class="st0" d="M111.16,42.78c0.43,0.08,0.69,0.12,0.97,0.17c-0.04,0.12-0.04,0.23-0.09,0.25
		C111.73,43.34,111.46,43.32,111.16,42.78z"/>
    <path class="st0" d="M120.88,47.19c0.39,0.2,0.69,0.33,0.58,0.83C120.97,47.95,120.96,47.61,120.88,47.19z"/>
    <path class="st0" d="M78.69,50.48c0.17,0.08,0.33,0.16,0.5,0.24c0.1,0.04,0.28,0.05,0.29,0.11c0.06,0.23-0.15,0.3-0.31,0.39
		c-0.16,0.13-0.31,0.14-0.46-0.01c-0.27-0.15-0.01-0.32-0.02-0.47c-0.07-0.05-0.09-0.11-0.07-0.16
		C78.65,50.5,78.67,50.48,78.69,50.48z"/>
    <path class="st0" d="M78.71,51.2c0.16,0,0.31,0.01,0.46,0.01c0.01,0.07,0.02,0.15,0.02,0.22c0,0.08,0,0.16,0,0.25
		C78.63,51.92,78.47,51.76,78.71,51.2z"/>
    <path class="st0" d="M78.69,50.48c0,0.08,0,0.16,0,0.25c-0.31,0-0.63,0-0.94,0c0.08-0.16,0.15-0.31,0.23-0.47
		C78.22,50.32,78.46,50.4,78.69,50.48z"/>
    <path class="st0" d="M41.13,35.62c0-0.08,0-0.15,0-0.23c0.04-0.25,0.07-0.51,0.18-0.75c0.07-0.08,0.15-0.15,0.23-0.21
		c0.33-0.15,0.63-0.42,1.03-0.24c0.53,0.33,0.52,1.58,1.62,0.97c0.1,0.08,0.19,0.16,0.29,0.24c-0.03,0.51,0.56,0.38,0.72,0.7
		c-0.48,0.23-0.73,0.51-0.23,0.96c0.22,0.22,0.23,0.5,0.23,0.78c0.23,0.6-0.16,1.28,0.24,1.85c-1.55-0.46-2.3-2.08-3.83-2.63
		C41.32,36.95,41.05,36.19,41.13,35.62z"/>
    <path class="st0" d="M64.11,44.96c0.24,0.01,0.47,0.02,0.71,0.03c0.11,0.19,0.3,0.2,0.49,0.21c0.16,0.16,0.32,0.32,0.48,0.48
		c-0.98,0.55-1.5-0.27-2.16-0.71C63.79,44.97,63.95,44.96,64.11,44.96z"/>
    <path class="st0" d="M61.24,44c0.46,0.05,0.66,0.46,0.96,0.72c-0.67,0.14-1.27-0.23-1.92-0.24c-0.11-0.25,0.02-0.39,0.24-0.48
		C60.76,44.01,61,44.01,61.24,44z"/>
    <path class="st0" d="M60.52,44.01c-0.08,0.16-0.16,0.32-0.24,0.48c-0.62-0.28-0.79-0.95-1.2-1.41
		C59.88,42.9,60.07,43.66,60.52,44.01z"/>
    <path class="st0" d="M50.7,39.22c0.69,0.08,1.19,0.52,1.68,0.95C51.46,40.49,51.17,39.7,50.7,39.22z"/>
    <path class="st0" d="M51.42,43.52c-0.62,0.13-0.78-0.51-1.2-0.72C50.85,42.67,51.46,42.56,51.42,43.52z"/>
    <path class="st0" d="M75.12,48.56c0.14,0.25,0.52,0.35,0.48,0.72c-0.6,0.09-1.01-0.12-1.2-0.72
		C74.64,48.56,74.88,48.56,75.12,48.56z"/>
    <path class="st0" d="M69.89,50.25c-0.21-0.01-0.4-0.06-0.32-0.34c0.05-0.2,0.16-0.37,0.39-0.36c0.23,0.01,0.36,0.15,0.34,0.37
		C70.27,50.15,70.1,50.24,69.89,50.25z"/>
    <path class="st0" d="M58.13,46.88c-0.38-0.04-0.72-0.16-0.96-0.48C57.58,46.37,58.21,45.91,58.13,46.88z"/>
    <path class="st0" d="M55.97,45.68c-0.23,0.07-0.47,0.14-0.7,0.21c-0.01-0.15-0.01-0.3-0.02-0.45C55.54,45.38,55.9,45.1,55.97,45.68
		z"/>
    <path class="st0" d="M72.71,48.09c0.24,0.08,0.49,0.15,0.73,0.23c-0.19,0.27-0.46,0.3-0.72,0.18
		C72.67,48.47,72.72,48.23,72.71,48.09z"/>
    <path class="st0" d="M50.94,40.76c-0.11,0.13-0.16,0.26-0.24,0.27c-0.2,0.04-0.25-0.14-0.31-0.29c-0.04-0.12-0.03-0.26,0.12-0.23
		C50.66,40.54,50.77,40.66,50.94,40.76z"/>
    <path class="st0" d="M45.2,37.84c-0.31-0.19-0.25-0.49-0.23-0.78C45.58,37.17,45.53,37.46,45.2,37.84z"/>
    <path class="st0" d="M74.38,51.44c0.08,0.1,0.14,0.18,0.2,0.25c-0.08,0.05-0.18,0.15-0.24,0.13c-0.09-0.03-0.16-0.14-0.24-0.22
		C74.18,51.55,74.26,51.5,74.38,51.44z"/>
    <path class="st0" d="M71.52,48.57c-0.15,0.07-0.25,0.15-0.31,0.13c-0.09-0.03-0.15-0.14-0.22-0.21c0.08-0.05,0.17-0.13,0.24-0.13
		C71.31,48.37,71.39,48.47,71.52,48.57z"/>
    <path class="st0" d="M53.44,44.31c0.13-0.11,0.21-0.21,0.3-0.22c0.06-0.01,0.14,0.11,0.21,0.17c-0.08,0.07-0.14,0.17-0.23,0.19
		C53.66,44.46,53.57,44.38,53.44,44.31z"/>
    <path class="st0" d="M47.12,41.13c-0.47,0-0.55-0.41-0.72-0.72C46.87,40.42,46.94,40.82,47.12,41.13z"/>
    <path class="st0" d="M52.87,40.17c0.19,0.1,0.23,0.28,0.24,0.47c-0.35,0.02-0.59-0.15-0.73-0.47
		C52.54,40.17,52.71,40.17,52.87,40.17z"/>
    <path class="st0" d="M41.6,34.66c-0.08,0-0.16,0-0.24,0c-0.12,0.16-0.26,0.26-0.46,0.24c-0.35-0.1-0.53-1.29-1.08-0.17
		c-0.28-0.18-0.57-0.36-0.85-0.55c-0.08,0-0.16-0.01-0.23-0.01c-0.14-0.31-0.38-0.46-0.72-0.48c0.18-1.07-0.76-1.49-1.27-2.14
		c-0.24-0.31-0.47-0.62-0.65-0.96c0.16-0.57,0.32-1.14,0.48-1.7c0.07-0.09,0.13-0.09,0.2,0c0.33,0.09,0.66,0.18,0.99,0.27
		c0.13,0.24-0.07,0.33-0.19,0.44c-0.09,0-0.1,0.06-0.03,0.06c0.16,0-0.07,0.04,0.03-0.08c0.11-0.12-0.03,0.06,0.1-0.04
		c0.49,0.32,0.97,0.62,1.52,0.82c0.09,0.08,0.17,0.15,0.26,0.23c0,0.16,0,0.33,0,0.49c0,0.06-0.18,0.07-0.07,0.13
		c0.09,0.05,0.22,0.02,0.3,0.11c0.79,0.18,0.66,1.26,1.44,1.44c0.49,0.25,0.39,0.88,0.79,1.18C41.96,34.24,41.74,34.43,41.6,34.66z"
    />
    <path class="st0" d="M37.54,29.63c0.08-0.16,0.16-0.32,0.24-0.47c0.33,0.13,0.73,0.13,0.96,0.47c0,0,0,0,0,0
		c-0.36,0.65,0.46,0.18,0.46,0.49c0.01,0.08,0.01,0.16,0.01,0.23C38.23,30.36,38.23,30.36,37.54,29.63L37.54,29.63z"/>
    <path class="st0" d="M36.78,28.89l-0.1,0c0,0-0.1-0.01-0.1-0.01c-0.18-0.29-0.63-0.1-0.78-0.46c0.19-0.28,0.42-0.49,0.77-0.49
		C36.77,28.23,36.84,28.54,36.78,28.89z"/>
    <path class="st0" d="M41.6,34.66c0.08-0.24,0.16-0.48,0.24-0.72c-0.21-0.32-0.28-0.64,0-0.95c0.32,0.29,0.68,0.54,0.96,0.87
		c0.22,0.26-0.04,0.3-0.24,0.33C42.25,34.34,41.93,34.5,41.6,34.66z"/>
    <path class="st0" d="M41.84,32.99c0,0.32,0,0.64,0,0.95c-0.73-0.1-0.44-0.82-0.72-1.19c0-0.08,0-0.16,0-0.24
		C41.37,32.66,41.61,32.82,41.84,32.99z"/>
    <path class="st0" d="M39.69,31.3c-0.08,0.01-0.15,0.02-0.23,0.03c-0.21,0.03-0.42,0.26-0.63,0.04c-0.06-0.06-0.02-0.21-0.03-0.32
		c0.22,0,0.43,0.01,0.65,0.01C39.53,31.14,39.61,31.22,39.69,31.3z"/>
    <path class="st0" d="M39.2,30.11c-0.24-0.07-0.54,0.15-0.71-0.14c-0.03-0.05,0.16-0.23,0.25-0.35
		C38.97,29.71,39.13,29.87,39.2,30.11z"/>
    <path class="st0" d="M34.08,25.17c-0.19,0.07-0.27,0.12-0.36,0.12c-0.15,0.01-0.33-0.01-0.36-0.21c-0.01-0.05,0.16-0.18,0.22-0.16
		C33.72,24.96,33.85,25.06,34.08,25.17z"/>
    <path class="st0" d="M40.9,34.9c0.1-0.19,0.27-0.23,0.46-0.24c0.24,0.35,0.11,0.57-0.24,0.73C40.94,35.28,40.91,35.09,40.9,34.9z"
    />
    <path class="st0" d="M37.54,29.63c-0.07,0.18,0.15,0.49-0.21,0.52c-0.07,0.01-0.23-0.21-0.23-0.33
		C37.07,29.39,37.34,29.57,37.54,29.63L37.54,29.63z"/>
</g>
</svg>
