<?xml version="1.0" encoding="utf-8"?>
<!-- Generator: Adobe Illustrator 24.0.3, SVG Export Plug-In . SVG Version: 6.00 Build 0)  -->
<svg version="1.1" id="Layer_1" xmlns="http://www.w3.org/2000/svg" xmlns:xlink="http://www.w3.org/1999/xlink" x="0px" y="0px"
	 viewBox="0 0 446.82 437.84" style="enable-background:new 0 0 446.82 437.84;" xml:space="preserve">
<style type="text/css">
	.st0{fill:#4A8F54;}
</style>
<g>
	<path class="st0" d="M299.53,409.42c-0.05-0.02-0.1-0.02-0.15-0.05c0.02,0.02,0.04,0.03,0.06,0.05c0,0,0,0,0,0
		C299.46,409.42,299.5,409.41,299.53,409.42z"/>
	<path class="st0" d="M413.33,301.69c0,0,0,0.01,0.01,0.01L413.33,301.69C413.33,301.69,413.33,301.69,413.33,301.69z"/>
	<path class="st0" d="M81.92,28.66c0.06,0.02,0.13,0,0.22-0.1C82.06,28.63,81.99,28.65,81.92,28.66z"/>
	<polygon class="st0" points="82.15,28.56 82.15,28.56 82.15,28.56 	"/>
	<path class="st0" d="M407.14,26.09c-0.05,0.02-0.11,0.04-0.16,0.06c0.04,0,0.09,0,0.13,0c0.04-0.02,0.07-0.04,0.11-0.06
		C407.19,26.09,407.16,26.09,407.14,26.09z"/>
	<polygon class="st0" points="75.66,412.27 75.66,412.27 75.67,412.26 	"/>
	<path class="st0" d="M420.34,29.54c0.08-0.81-0.01-1.58-0.53-2.22c-0.95-1.15-2.3-1.2-3.65-1.28c-1.88-0.12-3.77-0.01-5.62,0.19
		c-0.74,0.08-1.49-0.43-2.18,0.08c-0.02,0-0.05-0.01-0.07-0.02c0.01,0.03,0.03,0.05,0.04,0.08c-0.5,0.41-0.84-0.01-1.22-0.22
		c-0.18,0.86-0.83,0.32-1.22,0.33c-0.54,0.02-1.18,0.19-1.65-0.31c0.08-0.02,0.16-0.02,0.24-0.03c-0.07-0.01-0.14-0.02-0.21-0.02
		c-2.09-0.01-4.19,0.06-6.27-0.07c-1.1-0.07-2.24,0.26-3.2,0.1c-2.14-0.36-4.25-0.14-6.36-0.12c-1.88,0.01-3.75,0.18-5.63,0
		c-1.92-0.19-3.87-0.18-5.79-0.28c-2.07-0.11-4.19-0.02-6.28,0.02c-1.07,0.02-2.15-0.64-3.18-0.04c-0.38,0.22-0.68,0.19-1.07,0.18
		c-1.72-0.03-3.45-0.31-5.12-0.28c-3.57,0.06-7.14,0.4-10.7-0.02c-1.82-0.22-3.58,0.25-5.38,0.17c-0.46-0.02-0.93-0.07-1.4-0.08
		c-1.26-0.01-2.51,0.23-3.74,0.25c-1.8,0.03-1.8-0.18-3.22,0.28c-0.03,0.01-0.08,0.01-0.1-0.01c-0.94-0.94-2.14-0.35-3.2-0.47
		c-1.97-0.22-3.96-0.33-5.94-0.31c-2.77,0.03-5.54-0.01-8.3-0.22c-0.02,0.01-0.04,0.01-0.06,0.01c0.01,0.01,0.03,0.01,0.04,0.02
		c-0.64,0.67-1.41,0.6-2.21,0.39c0.01-0.01,0.02-0.02,0.03-0.03c0,0-0.01,0-0.01,0c-0.77,0.04-1.48-0.38-2.27-0.27
		c-2.01,0.27-4.05,0.16-6.04,0.03c-2.31-0.15-4.66,0.28-6.93-0.41c-0.19-0.06-0.37,0.1-0.55,0.15c-1.85,0.48-3.72,0.55-5.6,0.25
		c-0.63-0.1-1.17-0.36-1.86,0.05c-0.52,0.31-1.09-0.53-1.77-0.33c-1.43,0.41-2.91,0.23-4.37,0.28c-0.94,0.03-1.97,0.06-2.83-0.08
		c-2.31-0.39-4.57-0.17-6.86-0.14c-0.02,0.01-0.03,0-0.05,0c0.01,0.01,0.03,0.02,0.04,0.04c-0.23,0.41-0.48,0.11-0.72,0.02
		c0.02-0.02,0.04-0.03,0.06-0.05c-0.02,0.01-0.03,0-0.05,0.01c-1.03,0.25-2.05-0.15-3.09,0.03c-2.09,0.37-4.15-0.3-6.23-0.25
		c-0.02,0.02-0.04,0.02-0.05,0.03c0.02,0,0.04,0,0.05,0c-0.2,0.76-0.67,0.03-0.98,0.17c0.03-0.02,0.05-0.03,0.08-0.05
		c-0.03,0.01-0.06,0.01-0.08,0.02c-1.76-0.09-3.53-0.34-5.27-0.2c-0.9,0.07-1.77-0.54-2.63-0.02c-0.79,0.47-1.66,0.37-2.43,0.11
		c-1.17-0.4-2.26-0.35-3.36,0.15c-0.01,0-0.02-0.01-0.04-0.01c0.01,0.02,0.02,0.04,0.04,0.05c-0.38,0.21-0.67,0.04-0.96-0.19
		c0.02-0.02,0.03-0.03,0.04-0.04c-0.02,0-0.03,0-0.04,0c-2.42-0.04-4.85,0.01-7.26-0.17c-2.31-0.17-4.58,0.66-6.88,0.12
		c-0.01,0-0.02,0.01-0.04,0.01c0.01,0.01,0.02,0.01,0.04,0.02c-0.28,0.24-0.52,0.69-0.97,0.23c0-0.01,0.01-0.02,0.01-0.03
		c0,0-0.01,0-0.01,0c-0.74-0.88-1.6-0.21-2.42-0.22c-3.67-0.03-7.33-0.55-10.99,0.08c-0.15,0.02-0.33-0.2-0.5-0.3
		c-0.01,0-0.02,0-0.04,0c0.01,0.02,0.02,0.02,0.04,0.04c-0.24,0.3-0.48,0.28-0.72-0.01c0.01-0.02,0.03-0.02,0.04-0.04
		c-0.01,0-0.03,0-0.04,0c-0.5,0.02-0.95,0.22-1.51,0.12c-2.39-0.42-4.88-0.46-7.22-0.17c-2.33,0.29-4.6-0.98-6.88,0.01
		c-0.14,0.07-0.37-0.1-0.57-0.12c-1.21-0.11-2.44-0.19-3.64-0.18c-2.54,0.03-5.09,0.58-7.63,0.17c-2.39-0.38-4.76-0.01-7.13-0.04
		c-1.55-0.02-3.12,0.11-4.65-0.08c-1.31-0.17-2.56-0.2-3.86-0.01c-0.96,0.14-1.96,0.21-2.95,0.03c-0.01,0-0.02-0.01-0.03-0.01
		c0.01,0.02,0.03,0.02,0.04,0.04c-0.41,0-0.81,0.01-1.22,0.01c0.02-0.02,0.04-0.03,0.06-0.05c-0.02,0.01-0.04,0.01-0.07,0.02
		c-0.3-0.13-0.72,0.58-0.93-0.13c-0.56,0.19-1-0.33-1.57-0.23c-2.02,0.34-4.05,0.59-6.07,0.12c-0.51-0.12-0.99-0.18-1.49-0.11
		c-1.92,0.29-3.84,0.21-5.76,0.12c-0.01,0-0.02,0-0.04,0c0.02,0.01,0.03,0.02,0.05,0.03c-0.4,0.26-0.8,0.68-1.2,0
		c0.01-0.01,0.03-0.02,0.04-0.03c-0.02,0-0.04,0-0.05,0c-0.21,0.12-0.4,0.17-0.67,0.15c-2-0.19-3.99-0.54-5.99-0.01
		c-0.26,0.07-0.57,0.13-0.81,0.05c-1.84-0.59-3.75-0.42-5.6-0.27c-1.83,0.15-3.65,0.01-5.47,0.12c-1.89,0.12-3.83-0.04-5.71-0.34
		c-1.45-0.23-2.84,0.12-4.26,0.07c-0.64-0.02-1.45-0.4-1.85-0.13c-0.71,0.49-1.33,0.24-1.91,0.08c-0.55-0.15-1-0.18-1.49,0.04
		c-0.42,0.19-0.82,0.15-1.27,0.08c-1.2-0.2-2.52-0.71-3.6-0.4c-2.46,0.7-4.94,0.35-7.38,0.42c-1.68,0.04-3.47-0.04-5.2-0.24
		c-0.8-0.09-1.65-0.25-2.4-0.21c-2.36,0.13-4.72-0.2-7.07,0.15c-0.04-0.01-0.07,0-0.11,0.01c0.04,0.01,0.08,0.02,0.13,0.01
		c-0.41,0.21,0.02,0.83-0.55,1.04c-0.38,0.14-0.75,0.23-0.94-0.1c-0.31-0.53,0.22-0.5,0.53-0.62c0.09-0.03,0.14-0.07,0.16-0.1
		c-0.03-0.1-0.09-0.18-0.21-0.3c-1.12,0.15-2.26-0.07-3.37-0.02c-1.75,0.08-3.47,0-5.2-0.25c-0.5-0.07-0.98-0.08-1.48,0.09
		c-1.2,0.4-2.42,0.47-3.66,0.14c-0.93-0.24-1.87-0.17-2.79,0.07c-0.01,0-0.01,0-0.02,0c0.01,0.01,0.02,0.01,0.03,0.02
		c-0.81,0.23-1.61,0.09-2.42-0.01c0.01-0.01,0.02-0.02,0.03-0.04c-0.01,0.01-0.03,0.01-0.04,0.02c-0.81,0.08-1.57-0.38-2.39-0.2
		c0,0,0.01,0.01,0.01,0.01c-0.56,0.3-1.12,0.34-1.68-0.02c0.01,0,0.01-0.01,0.02-0.01c-0.01,0-0.02,0-0.03,0
		c-0.99-0.17-2.03,0.17-2.98-0.34c-0.17-0.09-0.42-0.18-0.47,0.11c-0.13,0.7-0.68,0.52-1.04,0.44c-2.51-0.58-5.05,0.05-7.54-0.3
		c-0.87-0.12-1.62,0.22-2.45,0.16c-1.74-0.12-3.48-0.05-5.21-0.22c-2.25-0.23-4.47,0.4-6.71,0.12c0,0,0.01,0,0.01,0.01
		c-0.62,0.54-1.26,0.33-1.9,0.06c0,0,0,0,0,0c-0.01,0-0.02-0.01-0.03-0.01c-0.35,0.27-0.76,0.14-1.14,0.11
		c-1.24-0.1-2.5-0.38-3.73-0.31c-2.13,0.12-4.25,0.39-6.35-0.19c-0.56-0.15-1.01-0.03-1.46,0.27c-1.16,0.78-1.71,1.94-1.64,3.25
		c0.13,2.48,0.31,4.96,0.22,7.44c-0.02,0.35,0.3,0.44,0.42,0.68c0,0,0,0.01,0,0.01c0.01-0.01,0.02-0.01,0.03-0.02
		c0.06,0.7,0.08,1.39-0.48,1.93c0-0.02-0.01-0.03-0.01-0.05c-0.01,0.02-0.01,0.04-0.02,0.06c-0.26,0.42,0.37,0.71,0.19,1.07
		c-0.64,1.28-0.13,2.65-0.04,3.87c0.16,2.03-0.77,4.06,0.07,6.05c0.07,0.16-0.17,0.44-0.17,0.66c-0.02,0.8-0.8,1.52-0.3,2.35
		c0.48,0.8,0.38,1.65,0.21,2.47c-0.11,0.54-0.03,1.02,0.06,1.51c0,0,0.01,0,0.01,0c-0.08,0.25,0.38,0.63-0.19,0.75
		c0,0,0-0.01,0-0.01c0,0.01,0,0.01-0.01,0.02c-0.16,0.52,0.48,0.85,0.35,1.34c-0.39,1.53-0.21,3.07-0.13,4.6
		c0.03,0.62-0.46,1.03-0.39,1.76c0.26,2.75,0.51,5.54,0.33,8.29c-0.16,2.31-0.07,4.64-0.31,6.95c-0.13,1.21,0.08,2.48-0.03,3.63
		c-0.12,1.19,0.14,2.3,0.14,3.45c-0.01,1.07-0.11,2.15-0.01,3.23c0.03,0.32,0.21,0.84,0.05,1.2c-0.57,1.3-0.81,2.29-0.4,2.99
		c0.55,0.94,0.46,1.88,0.37,2.88c-0.12,1.29-0.3,2.6-0.15,3.87c0.13,1.02,0.25,2,0.11,3.01c0-0.01,0.01-0.01,0.01-0.02
		c0.21,0.41,0.14,0.82,0.03,1.23c-0.01-0.01-0.01-0.02-0.02-0.04c0.01,0.02,0.01,0.04,0.01,0.06c-0.15,2.58-0.3,5.15-0.45,7.73
		c-0.19,3.38,0.46,6.73,0.01,10.14c-0.2,1.51-0.32,3.22,0.06,4.83c0.21,0.93-0.6,1.92-0.29,2.71c0.95,2.42-0.44,4.85,0.23,7.21
		c0.41,1.45-0.51,2.78-0.07,4.29c0.8,2.74-0.06,5.57,0.08,8.38c0.13,2.6-0.55,5.22-0.16,7.87c0.2,1.35-0.31,2.72-0.21,4.11
		c0.1,1.31-0.16,2.65,0.02,3.93c0.08,0.61,0.3,1.15,0.06,1.77c-0.22,0.56-0.24,1.16-0.19,1.76c0-0.01,0-0.01,0-0.02
		c0.83,0.81,0.18,1.61,0.01,2.42c0,0,0,0,0,0c0,0.01,0,0.01,0,0.02c0.15,0.57,0.35,1.11,0.31,1.72c-0.1,1.53-0.36,3.02-0.16,4.61
		c0.1,0.76,0.32,1.76,0.11,2.48c-0.36,1.2-0.39,2.37-0.19,3.52c0.19,1.06-0.4,1.97-0.22,3.02c0.37,2.17,0.35,4.35-0.1,6.53
		c-0.13,0.6-0.13,1.26-0.01,1.94c0.19,1.1,0.36,2.21,0.4,3.35c0.05,1.21-0.33,2.34-0.27,3.53c0.08,1.43,0.23,2.85,0.14,4.29
		c-0.09,1.57-0.34,3.2-0.15,4.7c0.25,2.01,0.04,3.95-0.18,5.89c-0.1,0.83-0.1,1.68-0.05,2.45c0.13,1.82,0.52,3.65,0.14,5.44
		c-0.33,1.58,0.43,3.19-0.36,4.73c-0.21,0.4,0.09,0.93,0.26,1.37c0.15,0.38,0.16,0.72,0.11,1.14c-0.19,1.56,0.01,3.13-0.23,4.7
		c-0.14,0.95,0.25,1.98,0.16,2.95c-0.26,2.79-0.15,5.57,0.07,8.36c0.02,0.35,0.39,0.62,0.18,0.97c-0.76,1.29-0.1,2.69-0.32,4.02
		c-0.15,0.92-0.31,1.8-0.11,2.83c0.34,1.75,0.14,3.61-0.28,5.39c-0.01,0.02-0.01,0.03-0.02,0.05c-0.02,0.41,0.06,0.8,0.21,1.18
		c0.01,0.01,0.01,0.02,0.02,0.03c0,0.05-0.01,0.12-0.01,0.17c0.26-0.05,0.38-0.4,0.8-0.3c-0.12,0.46-0.39,0.76-0.76,1.01
		c0,0.01-0.01,0.02,0,0.03c-0.03,0.35-0.09,0.71-0.06,1.05c0.15,1.74,0,3.47-0.12,5.2c-0.05,0.67,0.79,1.44-0.25,1.99
		c0.52,1.28-0.4,2.71,0.39,3.97c0,0,0,0,0,0.01c0.19,0.3,0.18,0.55-0.16,0.72c0,0.01,0,0.01-0.01,0.02
		c0.05,0.15,0.15,0.31,0.13,0.45c-0.34,2.56-0.31,5.13-0.19,7.71c0.08,1.77-0.03,3.55,0.04,5.32c0.03,0.75-0.58,1.29-0.31,2.16
		c0.54,1.75,0.42,3.59,0.08,5.39c0.01,0.02,0,0.04,0.01,0.06c0.1,0.4,0.8,0.81-0.05,1.18c0,0,0,0,0,0.01
		c0.86,1.3-0.74,2.81,0.36,4.09c-0.82,0.96-0.17,2.07-0.32,3.1c0.39,0.66,0.4,1.31,0.06,1.95c0.01,0.07,0.01,0.14,0.03,0.21
		c-0.39,0.41,0.24,0.61,0.2,0.94c0,0.04,0,0.09,0,0.13c0.35,0.38,0.11,0.79,0,1.19c0.02,0.13,0.04,0.26,0.08,0.39
		c-0.62,2.1-0.19,4.26-0.38,6.39c-0.17,1.85,0.22,3.7,0.06,5.58c-0.05,0.6-0.45,1.25-0.14,1.83c0.38,0.69,0.34,1.5,0.15,2.06
		c-0.47,1.4-0.2,2.78-0.15,4.14c0.04,0.99-0.24,2.08,0.41,3.01c-0.07,0.07-0.12,0.15-0.17,0.23c-0.05,0.26-0.12,0.52-0.26,0.76
		c-0.01,0.07-0.02,0.15-0.03,0.22c-0.03,1.1-0.27,2.22,0.41,3.23c0.09,0.13,0.02,0.38,0.02,0.57c-0.01,0.05-0.01,0.11-0.02,0.16
		c0.25,0.37,0.36,0.76,0.05,1.21c-0.09,0.13-0.13,0.26-0.15,0.4c0,0.09,0,0.19-0.01,0.28c0.04,0.38,0.2,0.77,0.12,1.18
		c-0.07,0.37-0.17,0.59-0.39,0.78c-0.01,0.04-0.02,0.08-0.04,0.12c0,0.08-0.01,0.16-0.02,0.24c0,0.06,0.01,0.11,0.01,0.17
		c0.13,0.2,0.12,0.43,0.1,0.66c0.03,0.13,0.06,0.26,0.11,0.39c-0.07,0.14-0.18,0.28-0.19,0.43c-0.21,2.32-0.47,4.61-0.11,6.97
		c0.4,2.63,0.14,5.31,0.17,7.96c0.03,2.77-0.44,5.56-0.06,8.35c0.12,0.89-0.47,1.89,0.44,2.65c0.01,0.01,0.01,0.01,0.02,0.02
		c0.26,0.05,0.54,0.22,0.41,0.34c-0.47,0.44-0.58,1.06-0.9,1.56c-0.01,0.08-0.01,0.16-0.01,0.24c-0.29,0.88,0.12,1.77-0.01,2.66
		c-0.08,0.51-0.44,0.94-0.33,1.49c0.36,1.92,0.16,3.83,0.05,5.75c-0.13,2.22-0.3,4.46-0.04,6.68c0.06,0.47-0.31,0.94,0.06,1.37
		c-0.09,0.15-0.1,0.31-0.07,0.47c0.01,0.02,0.02,0.04,0.03,0.05c0.32,0,0.55,0.14,0.66,0.47h0c0.63,0.75,0.52,1.13-0.35,1.37
		c-0.02,0.02-0.04,0.04-0.05,0.06c-0.07,0.02-0.21,0.05-0.21,0.08c-0.23,2.59-0.43,5.19-0.18,7.8c0.05,0.51,0.04,1-0.02,1.51
		c-0.15,1.32-0.33,2.67-0.19,3.98c0.07,0.69,0.3,1.42,0.09,2.06c-0.25,0.76-0.11,1.4,0.1,2.08c0.01,0.01,0.02,0.03,0.04,0.04
		c0.23,0.09,0.3,0.28,0.31,0.51c0.04,0.06,0.08,0.12,0.12,0.17c0.58,0.53,1.34,0.73,2.04,0.88c2.04,0.44,4.14,0.06,6.21,0.13
		c2.72,0.09,5.45,0.23,8.16,0.06c1.07-0.06,2.1,0.3,3.11,0.08c0.67-0.15,1.32-0.24,1.99-0.17c3.25,0.36,6.5-0.21,9.75,0.04
		c1.13,0.09,2.31-0.17,3.37,0.08c2.36,0.55,4.65-0.23,6.97-0.13c0,0,0-0.01-0.01-0.01c0.56-0.44,0.96,0.16,1.44,0.22
		c-0.01,0.01-0.03,0.02-0.04,0.03c0.05-0.01,0.1-0.01,0.15-0.02c1.16,0.04,2.33,0.47,3.49,0.02c0-0.01-0.01-0.01-0.01-0.02
		c0,0.01-0.01,0.01-0.01,0.02v-0.01c-0.23-0.55-0.04-0.79,0.54-0.75c0.24,0.18,0.2,0.43,0.19,0.68c0.03,0.04,0.06,0.08,0.11,0.11
		c1.99-0.03,3.97,0.27,5.97,0.02c1.13-0.14,2.29-0.07,3.39,0.35c0.32,0.12,0.64,0.1,0.99,0.04c1.68-0.28,3.32-0.9,5.07-0.46
		c0.67,0.17,1.38,0.18,2.08,0.26c0,0,0,0,0,0c0.3,0,0.6,0.01,0.9,0.01c-0.02,0.03-0.03,0.06-0.05,0.09
		c0.06-0.03,0.11-0.05,0.17-0.09c0.33,0.21,0.61,0.4,1.07,0.24c0.61-0.21,1.28-0.41,1.9-0.36c2.8,0.23,5.59,0.27,8.39,0.02
		c0.65-0.06,1.35-0.23,1.97-0.09c1.98,0.46,3.96,0.09,5.93,0.24c1.38,0.11,2.76-0.24,4.12,0.13c0.31-0.19,0.61-0.64,0.94-0.01
		c0.04,0,0.08-0.01,0.11,0c0.72-0.26,1.44,0.1,2.2,0.02c1.28-0.12,2.59-0.2,3.91-0.13c1.19,0.06,2.38,0.57,3.6,0.16
		c1.34-0.45,2.82-0.24,4.05-0.02c2.19,0.4,4.32-0.32,6.46,0.18c1.36,0.32,2.78-0.26,4.16,0.07c0.22-0.13,0.42-0.27,0.7-0.21
		c-0.01,0.04-0.02,0.05-0.03,0.09c0.04-0.03,0.09-0.06,0.13-0.1c1.68,0.32,3.4,0.32,5.08,0.1c1.81-0.24,3.6,0.1,5.42-0.14
		c1.02-0.14,2.2,0.24,3.33,0.25c0.31-0.15,0.62-0.26,0.97-0.18c-0.01,0.01-0.01,0.01-0.02,0.02c0.04-0.01,0.08-0.02,0.12-0.03
		c1.97-0.25,3.89,0.21,5.78,0.63c0.73,0.17,1.04-0.43,1.75-0.35c1.26,0.15,2.54,0.48,3.85,0.17c2.13-0.5,4.31-0.13,6.46-0.15
		c1.42-0.01,2.86,0.08,4.29,0.11c1.19,0.02,2.37-0.11,3.57,0.03c2,0.24,4-0.15,6.04,0.1c0.93,0.12,2.07-0.17,3.13-0.1
		c0.01-0.12,0-0.23,0.02-0.34c0.03-0.1,0.07-0.23,0.23-0.1c0.42,0.35,1.09,0.15,1.43,0.67c0.04,0,0.08,0,0.11,0
		c1.4-0.29,2.83-0.18,4.22-0.11c2.48,0.13,4.94-0.08,7.44,0.16c2.01,0.19,4.16-0.01,6.25-0.04c0.71-0.28,1.41-0.28,2.12-0.04
		c0.04-0.01,0.08-0.01,0.12-0.02c7.32,0.22,14.63-0.13,21.95,0.02c0.04-0.18,0.08-0.36,0.32-0.39c0.22-0.03,0.32,0.07,0.39,0.22
		c0.05,0.04,0.11,0.09,0.16,0.15c0.59,0.36,1.19,0.3,1.84,0.17c0.65-0.13,1.33-0.26,1.98-0.19c2.11,0.23,4.22,0.61,6.35,0.22
		c0.91-0.17,1.88,0.37,2.6,0.15c1.52-0.47,2.88,0.12,4.3,0.12c1.23,0,2.47,0.38,3.66,0.03c1.3-0.38,2.59-0.09,3.87-0.13
		c2.15-0.07,4.32,0.09,6.48-0.08c0.57-0.36,1.07-0.1,1.57,0.17c0.06,0.01,0.12,0.01,0.18,0.02c0.83-0.22,1.69,0.18,2.51-0.16
		c0,0,0,0,0,0c0,0,0.01,0,0.01,0c0.03-0.01,0.06-0.02,0.09-0.03c0.05,0.02,0.09,0.03,0.14,0.05c0.71,0.05,1.41,0.11,2.12,0.17
		c0.06-0.01,0.11-0.01,0.17-0.02c2.78-0.02,5.56-0.04,8.32,0.33c0.3,0.04,0.54-0.01,0.85-0.12c0.39-0.14,0.91-0.33,1.44,0.02
		c0.32,0.2,0.85,0.24,1.33,0.03c0.77-0.33,1.58-0.33,2.38-0.03c0.1-0.18,0.16-0.44,0.47-0.19c1.32-0.05,2.66,0.02,3.96-0.2
		c0.45-0.07,0.56,0.12,0.72,0.29c0.06,0.02,0.12,0.03,0.18,0.06c0.2-0.03,0.43-0.15,0.58-0.08c1.5,0.7,3.08,0.06,4.63,0.23
		c1.47,0.16,3.05-0.18,4.58-0.3c0.73-0.06,1.38,0.28,2.13,0.18c1.17-0.15,2.43-0.22,3.53-0.1c2.35,0.27,4.66,0.23,6.99,0.07
		c0.66-0.04,1.4-0.12,1.96,0.01c2.26,0.52,4.54-0.17,6.78,0.27c0.01,0,0.01,0,0.02,0c0.42-0.16,0.83-0.3,1.24-0.02
		c0.06,0.01,0.12,0,0.17,0.03c0.46,0.08,0.9,0.13,1.39,0.04c0.89-0.17,1.86-0.36,2.72-0.18c1.73,0.38,3.47,0.07,5.2,0.31
		c1.21,0.17,2.57-0.48,3.72-0.2c1.01,0.25,1.94-0.09,2.96,0.17c1.32,0.34,2.81,0.04,4.24,0.12c3.11,0.18,6.25,0.01,9.37-0.02
		c0.36,0,0.81,0.04,1.04-0.15c0.63-0.54,1.44-0.17,1.69,0.07c0.39,0.37,0.72,0.26,1.03,0.21c1.03-0.17,2.05-0.08,3.08-0.13
		c0.63-0.41,1.18,0.05,1.75,0.2c0.06,0,0.12,0,0.19-0.01c0.56-0.16,1.17-0.17,1.62-0.61c-0.01,0-0.02,0-0.03,0c0,0-0.01,0-0.01,0.01
		c0,0-0.01-0.01,0-0.01c0,0,0.01,0,0.01,0c0.27-0.36,0.56-0.24,0.86,0.04c-0.27-0.01-0.54-0.03-0.8-0.04
		c-0.15,1.03,0.63,0.69,1.1,0.66c1.76-0.13,3.51-0.05,5.27-0.03c0.05-0.24,0.03-0.51,0.36-0.58c0.26-0.05,0.35,0.1,0.4,0.3
		c0.03,0.02,0.07,0.03,0.1,0.06c0.82-0.33,1.59-0.15,2.42,0.11c0.93,0.3,1.92,0.5,2.91,0.36c0.61-0.09,1.22-0.47,1.79-0.41
		c2.01,0.23,4.05,0.06,6.04,0.45c0,0,0.01,0,0.01,0c0.26-0.16,0.55-0.22,0.86-0.22c0,0.01,0,0.01-0.01,0.02
		c0.02-0.02,0.05-0.04,0.08-0.06c2.4,0,4.8-0.01,7.2-0.01c0.01,0,0.02,0,0.04,0c0.6-0.23,1.19-0.5,1.79-0.02c0.04,0,0.08,0,0.12,0
		c0.59,0.06,1.19,0.17,1.79,0.17c1.87-0.01,3.72-0.51,5.64-0.03c0.6,0.15,1.24,0.6,2.03,0.28c1.26-0.51,2.65-0.4,3.95-0.18
		c1.16,0.19,2.09,0.07,2.85-0.85c-0.01,0-0.02,0-0.03,0c0.11-0.35,0.37-0.57,0.67-0.75c0.01,0.03,0,0.05,0.01,0.08
		c0.02-0.04,0.04-0.07,0.05-0.12c0.63-0.95,0.77-2.04,0.5-3.08c-0.29-1.12-0.23-2.22-0.1-3.31c0.17-1.53,0.42-3.04,0.02-4.56
		c-0.07-0.27-0.13-0.52,0.01-0.8c0.37-0.74,0.29-1.49,0.15-2.28c-0.26-1.42-0.3-2.94-0.13-4.3c0.26-1.98,0.06-3.95,0.28-5.92
		c0.21-1.84-0.69-3.7,0.23-5.56c0.26-0.53-0.04-1.37-0.19-2.05c-0.22-1,0.56-2.01,0.15-2.88c-0.89-1.9-0.38-3.88-0.25-5.73
		c0.12-1.68,0.32-3.32,0.15-5.02c-0.16-1.68-0.31-3.37-0.19-5.04c0.1-1.32,0.44-2.64,0.34-3.97c-0.19-2.59-0.06-5.18,0.01-7.77
		c0.04-1.58,0.14-3.17,0.08-4.73c-0.07-1.9,0.13-3.79-0.04-5.69c-0.09-0.9,0.17-1.82,0.14-2.71c-0.05-1.48-0.25-2.95-0.1-4.45
		c0.15-1.57,0.07-3.17,0.04-4.75c-0.01-0.71,0.54-1.4,0.19-2.07c-0.51-0.97-0.46-1.92-0.23-2.92c0.48-2.06-0.19-4.12,0.07-6.21
		c0.23-1.89-0.15-3.83-0.06-5.76c0.04-0.74-0.32-1.44,0.04-2.27c0.49-1.11-0.06-2.34,0.05-3.54c0.21-2.19,0.36-4.41,0.29-6.6
		c-0.08-2.54-0.12-5.1-0.11-7.63c0.01-3.09-0.06-6.2,0.14-9.3c-0.02-0.03-0.02-0.06-0.03-0.09c-0.02,0.03-0.04,0.07-0.05,0.11
		c-0.59-0.35-0.55-0.67,0.03-0.98c0.03,0.02,0.04,0.04,0.06,0.06c0.01-0.03,0.01-0.05,0.02-0.08c-0.38-0.55-0.34-1.14-0.1-1.71
		c0.11-0.25,0.32-0.45,0.14-0.76c-0.38-0.65-0.44-1.41,0.05-1.95c0.6-0.66-0.4-0.71-0.34-1.32c0.16-1.64,0.51-3.26,0.35-4.99
		c-0.28-3.04-0.27-6.13,0.14-9.18c0-0.02-0.01-0.03-0.01-0.05c-0.02,0.03-0.03,0.05-0.06,0.08c-0.29-0.17-0.25-0.45-0.26-0.72
		c0.04,0.03,0.09,0.06,0.13,0.09c-0.02-0.04-0.03-0.08-0.07-0.12c0.24-0.44,0.24-0.91,0.15-1.39c-0.21-1.05-0.26-2.11-0.12-3.17
		c0.01-0.11,0.01-0.22,0.01-0.33c-0.02,0.12-0.04,0.24-0.07,0.36c0-0.89-0.79-1.82,0.16-2.65c0,0.04,0,0.08,0,0.12
		c0.02-0.05,0.03-0.1,0.06-0.15c-0.2-0.66,0.09-1.32-0.09-2.03c-0.21-0.82-0.21-1.76-0.04-2.59c0.44-2.14,0.26-4.3,0.45-6.44
		c0.1-1.22-0.15-2.42-0.2-3.61c-0.07-1.84-0.44-3.68-0.02-5.57c0.48-2.17,0.19-4.42,0.24-6.63c0.04-1.98-0.38-3.97-0.1-5.96
		c0,0,0,0,0,0c-0.02,0.01-0.03,0.02-0.05,0.03c-0.13,0.02-0.36,0.06-0.36,0.05c-0.08-0.33,0.2-0.41,0.41-0.54
		c0.01,0.01,0.02,0.02,0.03,0.03c0-0.02,0.01-0.04,0.01-0.06c0.24-0.9,0.1-1.79-0.04-2.69c-0.13-0.81-0.23-1.64-0.19-2.45
		c0.16-3.07,0.24-6.13,0.28-9.21c0.04-2.85,0.07-5.71,0.09-8.56c0.03-3.85,0.35-7.71-0.07-11.56c-0.07-0.68-0.07-1.33,0.14-1.98
		c0,0,0-0.01,0-0.01c-0.01,0.01-0.02,0.02-0.04,0.03c-0.28-0.24-0.29-0.48-0.02-0.73c0.01,0.02,0.02,0.03,0.02,0.05
		c0.01-0.02,0-0.05,0.02-0.07c0.01-0.28-0.02-0.57,0.05-0.83c0.19-0.72-0.46-1.5-0.25-1.97c0.52-1.18,0.38-2.38,0.42-3.54
		c0.08-2.42-0.19-4.85,0.03-7.28c0.1-1.08,0.11-2.18,0.16-3.27c0.07-1.42-0.25-2.86,0.06-4.3c0.06-0.26-0.01-0.56-0.05-0.83
		c-0.29-2.19-0.32-4.4-0.2-6.57c0.15-2.61,0.22-5.21,0.09-7.81c-0.02,0-0.03,0.01-0.05,0.01c-0.02-0.27-0.09-0.56,0.21-0.75
		c0.01,0.02,0.01,0.04,0.02,0.05c0.01-0.03,0.01-0.06,0.03-0.08c0.36-0.74,0-1.4-0.15-2.12c-0.19-0.95,0.18-2.03,0.11-2.89
		c-0.11-1.37-0.22-2.73-0.19-4.11c0-0.01,0-0.02,0-0.03c-0.02,0.02-0.03,0.05-0.05,0.07c-0.43-0.65-0.13-1.3,0.01-1.95
		c0.03,0.03,0.05,0.06,0.08,0.09c-0.01-0.04-0.01-0.09-0.03-0.13c0.35-1.14,0.32-2.29,0.14-3.46c-0.43-2.84,0.27-5.67,0.09-8.51
		c-0.1-1.71-0.1-3.43,0.06-5.16c0.33-3.54-0.39-7.12,0.22-10.66c0-0.01,0-0.02,0-0.03c-0.02,0.02-0.03,0.05-0.06,0.07
		c-0.45-0.22-0.11-0.48-0.04-0.72c0.05,0.03,0.07,0.07,0.1,0.1c-0.01-0.05-0.01-0.1-0.04-0.14c-0.09-0.63-0.16-1.23-0.07-1.88
		c0.25-1.91-0.09-3.83,0.19-5.77c0.16-1.16-0.13-2.44-0.13-3.67c0-0.91,0.09-1.81-0.05-2.74c-0.08-0.47-0.39-1.02-0.24-1.4
		c0.52-1.29,0.58-1.27-0.01-2.49c-0.09-0.19-0.13-0.32-0.04-0.54c0.46-1.18,0.49-2.46,0.43-3.66c-0.12-2.62,0.15-5.23,0.02-7.85
		c-0.02-0.53,0.28-1.1-0.35-1.47c-0.18-0.1-0.2-0.3-0.02-0.37c0.81-0.3,0.36-0.91,0.41-1.41c0.13-1.33-0.12-2.69,0.09-3.98
		c0.27-1.73,0.14-3.48,0.06-5.16c-0.08-1.66-0.05-3.35-0.06-4.99c-0.03-3.33-0.24-6.68,0.28-10.02c0.24-1.53-0.15-3.16-0.25-4.75
		c-0.04-0.64-0.19-1.29,0.17-1.89c0-0.01-0.01-0.02-0.01-0.03c-0.01,0.03-0.01,0.07-0.02,0.1c-0.75-0.56-0.41-0.9,0.16-1.2
		c0.04-0.04,0.06-0.08,0.11-0.12c-0.08-1.01-0.2-2.02-0.24-3.03c-0.06-1.39,0.06-2.8,0.07-4.17
		C420.16,32.49,420.2,31.01,420.34,29.54z M30.98,214.65c0.12-0.4,0.22-0.72,0.41-1.31C31.63,214.1,31.55,214.43,30.98,214.65z
		 M32.41,399.66c-0.07-0.07-0.11-0.2-0.09-0.3c0.03-0.13,0.16-0.14,0.25-0.06c0.07,0.08,0.09,0.2,0.16,0.34
		C32.58,399.65,32.45,399.7,32.41,399.66z M97.49,25.29c0.11-0.03,0.21,0.05,0.18,0.29c-0.05,0.04-0.16,0.13-0.27,0.21
		c-0.04-0.09-0.13-0.19-0.11-0.28C97.31,25.42,97.41,25.31,97.49,25.29z M34.12,199.1c0.18,0,0.27,0.12,0.3,0.3
		c0,0.23-0.14,0.25-0.32,0.2c-0.16-0.04-0.32-0.09-0.32-0.28C33.77,199.09,33.97,199.1,34.12,199.1z M60.35,410.29
		c-0.19-0.01-0.24-0.17-0.23-0.33c0.01-0.18,0.13-0.27,0.3-0.28c0.16-0.01,0.31,0.04,0.3,0.25
		C60.66,410.11,60.59,410.3,60.35,410.29z M89,411.07c-0.04,0.15,0.11,0.44-0.24,0.42c-0.18-0.12-0.49-0.13-0.49-0.42
		c0-0.22,0.23-0.31,0.41-0.34C88.9,410.7,89.07,410.83,89,411.07z M139.14,409.06c-0.09-0.03-0.15-0.14-0.22-0.22
		c0.08-0.04,0.16-0.12,0.25-0.13c0.12-0.01,0.22,0.06,0.2,0.25C139.31,408.99,139.21,409.09,139.14,409.06z M183.93,410.04
		c-0.14,0.04-0.22-0.07-0.16-0.21c0.07-0.18,0.14-0.4,0.4-0.33c0.11,0.01,0.18,0.13,0.32,0.26
		C184.27,409.87,184.11,409.99,183.93,410.04z M413.52,385.56c-0.19-0.07-0.5-0.08-0.47-0.4c0.02-0.18,0.07-0.42,0.33-0.38
		c0.26,0.06,0.3,0.33,0.42,0.52C413.79,385.48,413.69,385.62,413.52,385.56z M415.25,49.43c0.78,0.39-0.19,0.79,0.01,1.19
		c-0.04-0.05-0.06-0.09-0.09-0.14c0.02,0.06,0.03,0.11,0.06,0.17c0.44,1.78,0.1,3.56-0.11,5.33c-0.06,0.5-0.06,0.94,0.11,1.39
		c0.01-0.01,0.02-0.02,0.03-0.03c0,0.39-0.01,0.79-0.02,1.19c-0.03-0.03-0.05-0.06-0.08-0.08c0.02,0.04,0.03,0.08,0.05,0.11
		c0.15,0.57-0.25,1.13-0.01,1.7c0.01-0.01,0.02-0.03,0.03-0.04c0.09,0.24,0.37,0.46,0.04,0.71c-0.01-0.01-0.02-0.02-0.03-0.03
		c0,0.02,0.01,0.05,0,0.07c0.07,1.16,0.17,2.4,0.07,3.46c-0.14,1.46,0.03,2.95-0.33,4.44c-0.46,1.89,0.03,3.88,0.15,5.82
		c0.06,0.91-0.41,1.68-0.24,2.59c0.12,0.61,0.13,1.19,0.59,1.66c0.02-0.01,0.03-0.01,0.04-0.02c-0.16,0.48-0.32,0.97-0.48,1.45
		c0-0.01,0-0.03-0.01-0.04c-0.01,0.03-0.01,0.06-0.02,0.08c0.21,1.35-0.13,2.68-0.22,4.01c0,0.01,0,0.02,0.01,0.02
		c0.01-0.02,0.02-0.04,0.02-0.05c0.15-0.04,0.3-0.14,0.44-0.11c0.15,0.03,0.08,0.22,0,0.26c-0.39,0.19-0.24,0.61-0.4,0.89
		c-0.05-0.03-0.09-0.06-0.13-0.1c0.02,0.04,0.05,0.08,0.1,0.13c-0.09,1.14,0.24,2.23,0.35,3.35c0.01-0.01,0.02-0.03,0.03-0.04
		c0.04,0.4,0.21,0.82-0.18,1.14c0-0.01,0-0.02-0.01-0.03c-0.01,0.02-0.01,0.05-0.02,0.07c-0.01,1.21-0.01,2.43-0.02,3.64
		c-0.01,0.01-0.01,0.03-0.01,0.04c0.01-0.03,0.03-0.06,0.04-0.08c-0.02,0.42,0.17,0.86-0.18,1.21c-0.01-0.01-0.02-0.02-0.03-0.03
		c0,0.02,0,0.05,0,0.07c0.06,0.4,0.12,0.79,0.19,1.19c0,0,0,0,0,0c0.01-0.01,0.01-0.02,0.02-0.03c-0.03,0.39,0.31,0.79-0.03,1.17
		c-0.01-0.02-0.02-0.03-0.03-0.05c0,0.03,0.01,0.05,0.01,0.08c0.05,0.34-0.52,0.57-0.18,0.96c0.01,0.01,0,0.02,0.01,0.03
		c0.01-0.02,0.02-0.04,0.02-0.06c0.51,0.26,0.18,0.49-0.03,0.73c-0.02-0.01-0.03-0.03-0.05-0.04c0.01,0.02,0,0.05,0.02,0.07
		c-0.24,1.84,0.31,3.67,0.02,5.51c0.01,0.03,0.01,0.06,0.01,0.09c0.01-0.04,0.01-0.08,0.02-0.12c0.41,0.69,0.28,1.43,0.23,2.17
		c-0.03-0.05-0.04-0.09-0.07-0.14c0.01,0.06,0.02,0.11,0.04,0.17c-0.27,1.08-0.47,2.15-0.05,3.26c0.15,0.39,0.06,0.86,0.07,1.29
		c0.01-0.01,0.02-0.02,0.03-0.02c0.3,0.43,0.82,0.79-0.02,1.28c-0.45,0.26,0.35,0.97-0.21,1.36c0,0,0,0,0,0c0,0,0,0,0,0
		c-0.09,0.25,0,0.56-0.25,0.76c0-0.03,0-0.05,0-0.08c-0.01,0.04-0.02,0.07-0.03,0.11c0.49,1.25-0.24,2.5,0,3.74
		c0.02,0.03,0.03,0.05,0.05,0.08c0-0.03,0-0.07-0.02-0.1c0.61,0.41,0.4,0.83,0,1.23c0.42,0.33-0.07,0.64-0.03,0.96
		c-0.05-0.04-0.08-0.08-0.11-0.11c0.02,0.04,0.04,0.09,0.08,0.13c0.11,0.56-0.02,1.15,0.26,1.68c0.01,0,0.02,0,0.03-0.01
		c0.09,0.96,0.45,1.92,0,2.88c0-0.05-0.02-0.11-0.02-0.16c0,0.06,0,0.11,0,0.17c-0.65,1.65-0.27,3.35-0.18,5.02
		c0.11,2.01-0.02,4.01-0.08,6.01c-0.02,0.02-0.03,0.04-0.04,0.06c0.02-0.02,0.04-0.05,0.07-0.07c-0.09,0.32,0.44,0.63,0,0.95
		c0-0.01-0.01-0.02-0.01-0.03c-0.01,0.01-0.01,0.03-0.02,0.04c0.16,1.2,0.26,2.41,0,3.61c0,0.01-0.01,0.02-0.01,0.03
		c0.01-0.01,0.02-0.03,0.03-0.04c0,0.39,0,0.79-0.01,1.19c-0.02-0.03-0.03-0.06-0.05-0.09c0.01,0.03,0.02,0.06,0.03,0.1
		c0.19,1.1,0.19,2.21,0.04,3.31c0.01,0.02,0.01,0.04,0.01,0.06c0-0.02,0.01-0.04,0.01-0.06c0.37,0.46,0.16,0.98,0.17,1.48
		c0,0.02-0.05,0.06-0.08,0.06c-0.03-0.01-0.07-0.04-0.11-0.05c-0.01-0.02-0.01-0.03-0.01-0.05c0,0.02-0.01,0.03-0.01,0.05
		c-0.44,0.92-0.3,1.89-0.23,2.86c0.01,0.02,0.01,0.04,0.02,0.06c0-0.02,0-0.04,0-0.07c0.36,0.35,0.21,0.78,0.18,1.19
		c-0.02-0.02-0.02-0.05-0.04-0.07c0.01,0.03,0.01,0.05,0.02,0.08c-0.11,0.71,0.36,1.41,0.08,2.13c0,0.02,0,0.05,0.01,0.07
		c0.01-0.02,0.01-0.05,0.01-0.07c0.3,0.67,0.28,1.35,0,2.03c0-0.03,0-0.07,0-0.1c-0.01,0.03-0.01,0.07-0.02,0.1
		c-0.2,1.23-0.35,2.46-0.24,3.7c0.01,0.02,0.01,0.04,0.02,0.06c0-0.02,0-0.04,0-0.07c0.66,0.7,0.21,1.49,0.2,2.23
		c-0.02-0.02-0.03-0.05-0.04-0.07c0.01,0.03,0.01,0.05,0.02,0.08c0.25,1.69-0.24,3.32-0.44,4.97c0.01,0.02,0.02,0.04,0.03,0.06
		c0-0.02,0-0.05,0-0.07c0.6,0.34,0.09,0.86,0.2,1.27c-0.06-0.06-0.08-0.12-0.12-0.18c0.02,0.06,0.04,0.13,0.09,0.19
		c0.07,0.64,0.15,1.29,0.22,1.93c-0.01,0.02-0.01,0.03-0.02,0.05c0.01-0.02,0.02-0.04,0.04-0.06c-0.01,0.55,0.22,1.12-0.21,1.61
		c0-0.02,0-0.03,0-0.05c-0.01,0.02-0.01,0.04-0.02,0.06c-0.4,1.03-0.1,2.12-0.23,3.17c0,0.01,0,0.01,0,0.02
		c0.01-0.01,0.01-0.02,0.02-0.03c0.33,0.49,0.38,0.98-0.01,1.46c0.02-0.05,0.03-0.1,0.03-0.15c-0.02,0.05-0.02,0.1-0.05,0.16
		c-0.22,0.15,0.05,0.28,0.02,0.42c0.01,0.01,0.02,0.03,0.03,0.04c0-0.02,0-0.03,0-0.05c0.28,0.08,0.56,0.16,0.85,0.24
		c0.05,0.44-0.59,0.13-0.57,0.52c-0.03-0.01-0.04-0.03-0.07-0.05c0.01,0.02,0.02,0.04,0.04,0.06c0.37,0.8,0.23,1.6-0.05,2.39
		c-0.2,0.57-0.03,1.13,0,1.69c0,0.01,0,0.01-0.01,0.02c0.01-0.01,0.01-0.02,0.03-0.03c0.13,0.38,0.05,0.7-0.25,0.97
		c0-0.01,0-0.03,0-0.04c-0.01,0.02-0.01,0.03-0.02,0.05c-0.13,0.59,0.21,1.12,0.2,1.69c-0.01,0.05-0.02,0.1-0.03,0.16
		c0.02-0.05,0.03-0.1,0.06-0.16c-0.02,0.69-0.03,1.39-0.05,2.1c-0.02-0.05-0.02-0.1-0.04-0.15c0,0.05,0.01,0.1,0.01,0.15
		c-0.04,1.44-0.08,2.89-0.12,4.33c0,0.01-0.01,0.02-0.01,0.03c0.01-0.01,0.02-0.02,0.04-0.03c0.14,0.04,0.38,0.03,0.34,0.21
		c-0.01,0.11-0.25,0.19-0.39,0.29c-0.03-0.02-0.04-0.04-0.06-0.06c0.01,0.02,0.01,0.04,0.03,0.06c0.09,0.31,0.17,0.62,0.26,0.93
		c0,0.04,0.01,0.08,0.01,0.12c0.01-0.04,0.02-0.08,0.03-0.12c0.28,0.48,0.46,0.93-0.25,1.2c0-0.01,0.01-0.03,0.01-0.04
		c-0.02,0.01-0.03,0.03-0.05,0.04c-0.39,1.52,0.37,3.01,0.13,4.55c-0.36,2.34-0.33,4.73-0.09,7.07c0.19,1.84-0.69,3.68,0.11,5.5
		c0.13,0.29-0.12,0.75-0.19,1.13c-0.01,0.03-0.01,0.06-0.02,0.09c0.02-0.03,0.03-0.05,0.05-0.08c0.01,0.71,0.02,1.43,0.03,2.15
		c-0.02-0.03-0.03-0.05-0.05-0.08c0.01,0.02,0.01,0.04,0.02,0.07c0.01,0.4,0.02,0.8,0.03,1.2c-0.01,0.01-0.01,0.03-0.02,0.04
		c0.02-0.01,0.03-0.02,0.05-0.03c0.15,0.4-0.03,0.79-0.07,1.18c-0.02-0.04-0.04-0.09-0.06-0.13c0.01,0.04,0.02,0.08,0.03,0.12
		c0.2,1.48-0.1,2.92-0.22,4.38c-0.1,1.22-0.05,2.5,0.17,3.78c0.22,1.29,0.32,2.79-0.32,4.12c-0.08,0.17-0.23,0.44-0.17,0.54
		c0.76,1.16,0.22,2.42,0.32,3.63c0.04,0.44,0.19,0.87,0.28,1.31c-0.02,0.03-0.03,0.07-0.05,0.1c0.03-0.03,0.06-0.06,0.09-0.08
		c-0.01,0.34-0.1,0.66-0.3,0.94c-0.02-0.02-0.02-0.04-0.04-0.06c0,0.02,0,0.03,0,0.04c0.12,0.4-0.23,0.81,0.02,1.22
		c-0.01,0.02-0.02,0.03-0.03,0.05c0.02-0.01,0.04-0.02,0.06-0.03c0.02,0.24,0.03,0.48,0.03,0.72c-0.01-0.01-0.02-0.01-0.03-0.02
		c0.42,0.57,0.01,1.12-0.09,1.65c-0.1,0.52-0.13,0.99,0.08,1.47c0,0.03,0,0.06,0,0.09c0.01-0.02,0.02-0.04,0.03-0.07
		c0.25,0.39,0.26,0.79,0.03,1.2c-0.01-0.02-0.02-0.04-0.03-0.05c0,0.01,0,0.02,0,0.03c0.21,1.61-0.1,3.2-0.26,4.8
		c0.01,0.03,0.01,0.06,0.02,0.08c0.01-0.02,0-0.04,0.01-0.06c0.41,0.56,0.59,1.12,0.01,1.69c0-0.04,0-0.07,0-0.11
		c-0.01,0.03-0.01,0.06-0.03,0.09c0.06,0.64,0.11,1.28,0.17,1.92c-0.02,0.04-0.02,0.07-0.03,0.11c0.03-0.03,0.04-0.06,0.07-0.09
		c0.08,0.35,0.1,0.68-0.16,0.97c-0.02-0.03-0.02-0.05-0.03-0.07c0,0.02,0,0.04-0.01,0.05c0.01,0.06,0.01,0.12-0.01,0.18
		c0.02,0.04,0.03,0.09,0.04,0.13c0-0.04,0-0.07,0-0.11c0.25,0.41,0.34,0.82-0.01,1.23c0-0.05,0-0.1,0-0.15
		c-0.01,0.04-0.02,0.08-0.04,0.13c0.01,1.18,0.02,2.36,0.04,3.53c0.01,0.03,0,0.05,0.01,0.07c0.01-0.01,0.01-0.03,0.02-0.04
		c0.29,0.39,0.28,0.69-0.25,0.85c-0.01-0.03,0-0.05,0-0.08c-0.01,0.02-0.02,0.03-0.03,0.05c0.39,0.37-0.01,0.72-0.01,1.09
		c0.01,0.01,0.02,0.03,0.03,0.04c0-0.01,0-0.01,0-0.02c0.44,0.14,0.55,0.39,0.25,0.77c-0.01-0.01-0.02-0.02-0.03-0.03
		c0,0,0,0,0,0.01c0.03,1.44-0.11,2.88,0.15,4.3c-0.02,0.08-0.03,0.15-0.04,0.23c0.03-0.07,0.05-0.13,0.08-0.2
		c-0.12,1.21,0.4,2.45-0.16,3.64c0.01-0.1,0.01-0.2,0.01-0.3c-0.02,0.09-0.03,0.18-0.05,0.27c0.24,0.88-0.29,1.73-0.07,2.61
		c-0.02,0.02-0.02,0.05-0.04,0.07c0.02-0.02,0.04-0.03,0.07-0.05c-0.07,0.42,0.42,0.9-0.17,1.24c0.01-0.03,0.01-0.06,0.01-0.09
		c-0.01,0.02-0.02,0.05-0.04,0.07c0.46,0.5-0.25,1.14,0.2,1.63c-0.03,0.05-0.04,0.1-0.06,0.15c0.03-0.04,0.05-0.08,0.09-0.12
		c-0.14,0.64,0.92,1.26,0.02,1.91c-0.01-0.02-0.01-0.04-0.02-0.06c0,0.01,0,0.02-0.01,0.03c-0.29,0.48-0.3,1-0.29,1.55
		c0.05,2.2,0.05,4.41,0.07,6.61c0,0.02,0,0.04,0,0.07c0.02-0.02,0.02-0.03,0.04-0.05c0.31,0.32,0.31,0.64,0,0.96
		c-0.02-0.01-0.02-0.03-0.04-0.04c0,0.01,0,0.02,0,0.02c-0.5,1.18-0.06,2.39,0,3.57c0.02,0.47-0.08,1,0.05,1.48
		c-0.01,0.03-0.01,0.05-0.02,0.08c0.02-0.02,0.03-0.04,0.06-0.06c0.04,0.39,0.08,0.78,0.12,1.17c-0.01-0.07-0.04-0.13-0.07-0.19
		c0.01,0.06,0.03,0.11,0.03,0.17c0,0.09,0,0.17,0.01,0.26c-0.01,0.01-0.01,0.02-0.02,0.03c0.02,0,0.03-0.01,0.06-0.01
		c0.03,0.36,0.06,0.71-0.42,0.79c0.04-0.04,0.06-0.09,0.07-0.14c-0.03,0.04-0.06,0.09-0.11,0.12c0.06,0.54-0.06,1.1,0.23,1.61
		c-0.01,0.01-0.01,0.03-0.02,0.04c0.02-0.01,0.03-0.02,0.05-0.02c0.03,0.42,0.3,0.89-0.24,1.2c-0.01-0.03-0.02-0.06-0.03-0.08
		c0,0.02,0,0.04,0,0.06c0.08,3.12,0.16,6.24,0.24,9.37c0.01,0.01,0.02,0.03,0.03,0.04c0-0.01,0-0.01,0-0.02
		c0.4,0.3,0.12,0.62,0.01,0.94c0,0-0.01-0.01-0.01-0.01c0.14,0.58,0.77,1.15,0.01,1.73c0-0.03,0-0.05,0.01-0.08
		c-0.01,0.02-0.01,0.04-0.03,0.06c-0.02,1.35-0.03,2.7-0.05,4.04c0,0.03,0,0.06,0,0.09c0.01-0.02,0.02-0.04,0.03-0.06
		c0.42,0.39,0.08,0.78,0.01,1.18c-0.02-0.02-0.02-0.04-0.04-0.06c0,0.01,0,0.02,0.01,0.03c0.2,1.59-0.15,3.16-0.2,4.75
		c0.01,0.03,0.01,0.06,0.02,0.09c0-0.02,0.01-0.05,0.01-0.07c0.55,0.44,0.44,1.34-0.22,1.77c0.01-0.05,0.01-0.09,0.02-0.14
		c-0.02,0.04-0.03,0.08-0.05,0.12c-0.01,0.14-0.03,0.28-0.04,0.42c0.03,0.05,0.03,0.11,0.05,0.17c0-0.05,0-0.1-0.01-0.15
		c0.26,0.46,0.32,0.96,0.24,1.47c-0.02-0.02-0.04-0.04-0.05-0.07c0.01,0.02,0.01,0.03,0.01,0.05c0.02,0.07,0.02,0.13,0.01,0.2
		c-0.01,0.04-0.01,0.09-0.02,0.13c0.02-0.04,0.03-0.07,0.06-0.11c-0.3,1.04,0.93,2.09-0.02,3.12c0-0.03-0.01-0.07-0.01-0.1
		c-0.01,0.03-0.02,0.05-0.03,0.08c-0.42,0.93,0.17,1.79,0.19,2.69c-0.01,0.03-0.02,0.07-0.03,0.1c0.02-0.03,0.05-0.05,0.07-0.08
		c-0.07,0.24,0.4,0.59-0.15,0.73c-0.02-0.02-0.02-0.03-0.04-0.05c0,0.01,0,0.02,0,0.03c-0.03,0.24-0.06,0.47-0.1,0.71
		c-0.02,0.03-0.02,0.06-0.03,0.09c0.02-0.02,0.04-0.05,0.07-0.07c0,0.42,0.19,0.86-0.17,1.22c-0.01-0.03-0.01-0.07-0.02-0.1
		c-0.01,0.03-0.01,0.06-0.02,0.08c0.02,0.05,0.02,0.1,0,0.15c0.03,0.13,0.03,0.26,0.05,0.4c0-0.12,0-0.24,0-0.37
		c0.3,0.59,0.38,1.18,0,1.78c0-0.14,0-0.28,0-0.43c-0.02,0.13-0.02,0.26-0.05,0.4c0.3,0.73,0.17,1.5,0.15,2.24
		c-0.02,0.96-0.36,1.92,0.33,2.81c0.07,0.09-0.15,0.4-0.24,0.62c0.02,0.04,0.01,0.06,0.02,0.1c0.01-0.03,0.02-0.06,0.03-0.09
		c0.25,0.37,0.32,0.67-0.26,0.73c0.02-0.04,0.03-0.08,0.04-0.12c-0.03,0.04-0.07,0.08-0.1,0.11c-0.29,0.36,0.31,0.46,0.22,0.76
		c-0.01,0.01-0.01,0.03-0.02,0.04c0.02-0.01,0.04-0.02,0.07-0.03c0.23,0.38,0.08,0.67-0.22,0.92c0-0.03-0.01-0.07-0.01-0.1
		c-0.01,0.03-0.02,0.06-0.04,0.09c0.02,2.53-0.24,5.06,0.15,7.59c0.1,0.66-0.09,1.37-0.15,2.06c0.03,0.05,0.05,0.11,0.07,0.17
		c0-0.05,0-0.1-0.01-0.15c0.43,0.5,0.13,1.09,0.22,1.64c-0.05-0.06-0.09-0.12-0.12-0.18c0.02,0.05,0.03,0.11,0.06,0.16
		c0.23,1.17-0.6,2.45,0.37,3.54c-0.79,1.13,0.13,2.6-0.73,3.73c-0.01,0.02,0.09,0.12,0.13,0.18c0.04,0.04,0.05,0.09,0.07,0.13
		c0-0.03,0-0.07,0-0.1c0.32,0.25,0.44,0.55,0.24,0.94c-0.05-0.03-0.07-0.07-0.1-0.11c0.01,0.03,0.01,0.05,0.03,0.08
		c-0.12,0.56-0.37,1.12-0.05,1.7c-0.03,0.09-0.04,0.18-0.05,0.27c0.03-0.08,0.06-0.16,0.11-0.24c0,0.46-0.01,0.92-0.02,1.39
		c-0.04-0.07-0.05-0.13-0.08-0.2c0.01,0.05,0.01,0.1,0.02,0.16c-0.03,0.24-0.06,0.49-0.09,0.73c0,0.04,0,0.09-0.01,0.13
		c0.02-0.03,0.05-0.07,0.07-0.1c0.22,0.34,0.25,0.67-0.04,0.98c-0.03-0.02-0.04-0.04-0.06-0.05c0,0.01,0,0.02,0,0.02
		c-0.01,0.08-0.02,0.16-0.03,0.24c-0.04,0.07-0.06,0.12-0.06,0.18c0.03-0.04,0.07-0.09,0.12-0.14c0.07,0.33,0.68,0.51,0.28,0.97
		c-0.01-0.02-0.04-0.05-0.06-0.07c0,0.01,0,0.02,0,0.03c-0.64,2.28-0.56,4.6-0.27,6.92c0,0.04,0,0.07,0.01,0.11
		c0.02-0.02,0.02-0.05,0.04-0.07c0.32,0.56,0.39,1.07-0.26,1.45c0-0.04,0-0.08-0.01-0.12c-0.02,0.03-0.02,0.06-0.04,0.08
		c0.02,0.16,0.03,0.31,0.05,0.47c0,0.03-0.01,0.07-0.02,0.1c0.02-0.02,0.03-0.04,0.06-0.06c0.41,0.35-0.13,0.64-0.05,0.97
		c-0.03-0.03-0.05-0.07-0.07-0.1c0.01,0.02,0.01,0.04,0.02,0.06c-0.28,0.57,0.17,1.11,0.05,1.67c0,0.04,0.01,0.07,0.01,0.11
		c0.02-0.02,0.02-0.04,0.05-0.07c0.55,0.34,0.46,0.66-0.02,0.98c-0.01-0.03-0.03-0.07-0.05-0.1c-0.01,0.02-0.01,0.04-0.01,0.06
		c0.16,0.39,0.15,0.79,0.01,1.18c0,0.05,0,0.1,0,0.14c0.02-0.03,0.04-0.07,0.06-0.1c0.4,0.49,0.19,0.97-0.03,1.45
		c-0.03-0.04-0.04-0.08-0.07-0.12c0,0.03,0,0.05,0.01,0.08c-0.14,1.33,0.43,2.7-0.25,4.03c-0.13,0.25-0.09,0.97,0.4,1.14
		c0.66,0.23-0.03,0.55,0.13,0.78c0.03,0.02,0.04,0.05,0.06,0.08c0-0.01,0-0.02,0-0.03c0.28-0.09,0.56-0.36,0.86-0.04
		c-0.05,0.42-0.57,0.26-0.69,0.57c-0.03-0.02-0.04-0.04-0.06-0.06c0,0,0,0.01,0,0.01c-0.01,0.08-0.02,0.17-0.02,0.25
		c-0.01,0.08-0.05,0.15-0.1,0.22c0.08-0.04,0.14-0.09,0.15-0.17c0.08,0.41-0.27,0.63-0.43,0.94c-0.02-0.02-0.03-0.04-0.05-0.06
		c0,0,0,0,0,0.01c0,0.08,0,0.16,0,0.24c-0.03,0.05-0.04,0.11-0.06,0.16c0.04-0.04,0.07-0.08,0.12-0.11c0,0.56,0.01,1.12,0.01,1.68
		c-0.03-0.03-0.05-0.07-0.08-0.1c0.01,0.02,0.01,0.04,0.02,0.05c-0.01,0.08-0.02,0.16-0.03,0.25c-0.02,0.07-0.03,0.14-0.05,0.21
		c0.03-0.06,0.07-0.11,0.11-0.17c0,0.64,0,1.27-0.01,1.9c-0.03-0.06-0.06-0.12-0.09-0.18c0.01,0.05,0.02,0.09,0.03,0.14
		c-0.02,1.75-0.02,3.51-0.08,5.26c-0.01,0.46,0.25,0.81,0.32,1.23c-0.05,0.04-0.09,0.09-0.12,0.14c0.05-0.03,0.11-0.07,0.18-0.1
		c-0.14,0.5-0.28,1-0.42,1.5c0.03-0.11,0.02-0.22,0.01-0.34c-0.01,0.1-0.03,0.21-0.07,0.3c-0.18,1.98,0.06,3.98-0.26,5.96
		c0.03,0.03,0.04,0.07,0.06,0.1c0-0.02,0-0.04,0-0.05c0.57,0.38,0.36,0.89,0.22,1.4c-0.03-0.03-0.05-0.07-0.08-0.1
		c0.01,0.02,0.01,0.04,0.02,0.05c-0.04,0.65-0.23,1.29-0.01,1.94c-0.02,0.08-0.03,0.16-0.04,0.24c0.03-0.07,0.05-0.13,0.1-0.2
		c0.2,0.6,0.08,1.16-0.2,1.7c-0.01-0.07-0.02-0.13-0.03-0.2c-0.01,0.05-0.01,0.1-0.03,0.16c0.21,0.46-0.02,0.94,0.05,1.41
		c0.26,1.78,0.26,1.63-1.56,1.7c-2.22,0.08-4.42-0.16-6.65,0.05c-1.31,0.13-2.76,0.23-4.09-0.33c-0.06,0.02-0.13,0.04-0.19,0.06
		c0.08,0,0.17-0.01,0.25-0.01c-0.41,0.34-0.83,0.38-1.26,0.04c0.04,0,0.07,0,0.11,0c-0.06-0.01-0.11-0.02-0.17-0.05
		c-0.21-0.01-0.42-0.01-0.63-0.02c-0.05,0.04-0.1,0.04-0.15,0.06c0.07,0.01,0.14,0.01,0.21-0.01c-0.33,0.28-0.66,0.3-0.99,0.01
		c0.02-0.01,0.03-0.02,0.05-0.03c-0.04-0.01-0.07-0.02-0.11-0.02c-0.72,0.24-1.41,0.28-2.17,0.06c-1.19-0.35-2.38,0.41-3.6,0.11
		c-0.03-0.01-0.07-0.01-0.1-0.02c0.05,0.02,0.1,0.04,0.15,0.06c-0.56,0-1.17,0.39-1.69-0.16c0.02-0.01,0.05-0.01,0.07-0.02
		c-0.04-0.01-0.08-0.01-0.12-0.02c-2.68,0.52-5.37-0.1-8.08,0.16c-2.05,0.19-4.15-0.25-6.23-0.41c-0.05,0.03-0.1,0.03-0.15,0.05
		c0.07,0,0.13,0.01,0.2-0.01c-0.41,0.26-0.83,0.36-1.25,0.01c0.02-0.01,0.05-0.01,0.07-0.02c-0.04-0.01-0.08-0.01-0.12-0.02
		c-0.23,0-0.46,0.01-0.69,0.01c-0.01,0-0.02,0-0.03,0.01c0.03,0.02,0.06,0.02,0.09,0.04c-0.25,0.57-0.64,0.05-0.95,0.12
		c0.05-0.02,0.09-0.05,0.14-0.07c-0.07,0.01-0.13,0.01-0.2,0.02c-0.9-0.19-1.79,0.05-2.67,0.02c-2.4-0.08-4.81,0.22-7.2-0.14
		c-0.74-0.11-1.45,0.02-2.16,0.17c-0.03-0.01-0.06-0.01-0.09-0.02c0.05,0.03,0.09,0.04,0.14,0.07c-0.58,0-1.17,0.14-1.71-0.19
		c0.04-0.01,0.08-0.01,0.12-0.02c-0.06-0.01-0.12-0.01-0.17-0.03c-1.95,0.07-3.9,0.1-5.84,0.21c-1.49,0.08-2.96-0.25-4.44-0.26
		c-0.01-0.01-0.03-0.01-0.04-0.01c0.03,0.02,0.06,0.04,0.09,0.06c-0.49-0.03-1.02,0.17-1.47-0.19c0.05,0.01,0.11,0.01,0.17,0.01
		c-0.07-0.02-0.14-0.02-0.21-0.06c-1.75,0.07-3.49,0.15-5.24,0.22c-0.02-0.01-0.04-0.01-0.05-0.02c0.03,0.02,0.06,0.04,0.09,0.07
		c-0.39-0.01-0.78-0.03-1.18-0.04c0.07-0.05,0.13-0.08,0.2-0.11c-0.08,0.01-0.16,0.03-0.24,0.06c-0.86,0.09-1.72,0.13-2.56-0.17
		c-0.56-0.21-1.14-0.1-1.71,0c-0.03,0.02-0.06,0.03-0.09,0.05c0.05,0,0.1,0,0.14,0c-0.29,0.79-0.59,0.79-1.29-0.02
		c0.02,0,0.04,0,0.06,0c-0.04-0.02-0.07-0.03-0.11-0.05c-0.22-0.08-0.44-0.16-0.67-0.24c-0.03,0.02-0.05,0.03-0.08,0.05
		c0.05,0,0.1,0.01,0.14,0c-0.32,0.65-0.82,0.1-1.22,0.2c0.07-0.07,0.14-0.1,0.22-0.14c-0.1,0.01-0.19,0.03-0.28,0.09
		c-0.76,0.11-1.53,0.2-2.29,0.34c-0.28,0.05-0.53,0.13-0.77-0.07c-0.55-0.46-1.06-0.41-1.71-0.09c-1.1,0.55-2.22-0.2-3.34-0.13
		c-0.05,0.03-0.1,0.03-0.15,0.05c0.07,0,0.14,0.01,0.2,0c-0.38,0.3-0.81,0.21-1.23,0.17c0.06-0.05,0.13-0.08,0.19-0.1
		c-0.08,0.01-0.16,0.02-0.24,0.05c-0.09-0.01-0.18-0.01-0.26-0.02c0.02,0.02,0.03,0.03,0.05,0.05c-0.81,0.3-1.5-0.1-2.2-0.39
		c0.11,0.03,0.22,0.03,0.34,0.03c-0.13-0.02-0.26-0.04-0.39-0.08c-0.84,0.44-1.73,0.18-2.6,0.21c-0.03-0.01-0.05-0.02-0.08-0.03
		c0.04,0.03,0.09,0.05,0.13,0.08c-0.4-0.03-0.8,0.3-1.19-0.01c0.02-0.03,0.04-0.05,0.06-0.08c-0.04,0.01-0.07,0.02-0.11,0.03
		c-2.96,0.01-5.92,0.02-8.88,0.03c-0.01,0-0.03,0-0.04,0c0.03,0.02,0.06,0.03,0.09,0.05c-0.28,0.1-0.2,0.78-0.73,0.45c0,0,0,0,0,0
		c-0.97,1.03-1.42,1.08-2.15,0.27c-0.32-0.4-0.58-0.81-1.22-0.35c-0.61,0.45-0.72-0.52-1.19-0.56c0.03,0,0.06-0.01,0.1-0.01
		c-0.05-0.01-0.09-0.02-0.14-0.04c-0.88,0.49-1.75,0.37-2.62-0.03c-0.03,0-0.05,0.01-0.08,0.01c0.04,0.01,0.08,0.01,0.13,0.04
		c-0.41,0.27-0.82,0.29-1.22-0.02c-0.32,0.07-0.65,0.41-0.94-0.03c0.02-0.01,0.03-0.02,0.05-0.03c-0.03,0-0.06,0-0.1-0.01
		c-0.49,0-0.97,0-1.46,0c-0.01,0-0.01,0-0.02,0c0.02,0.02,0.04,0.02,0.07,0.04c-0.8,0.45-1.62,0.42-2.44,0.05
		c0.13,0.03,0.25,0.03,0.37,0.02c-0.14-0.01-0.28-0.02-0.42-0.06c-1.1,0.06-2.19,0.12-3.29,0.18c0.01,0.01,0.02,0.02,0.03,0.03
		c-0.42,0.04-0.83,0.05-1.17-0.26c0.01-0.01,0.03-0.01,0.04-0.02c-0.03,0-0.07-0.01-0.1-0.01c-2.09,0.07-4.17,0.33-6.25,0.05
		c0.02,0.02,0.04,0.02,0.05,0.04c-0.32,0.02-0.64,0.04-0.95,0.06c0.06-0.09,0.13-0.16,0.2-0.21c-0.09,0.02-0.17,0.07-0.26,0.17
		c-1.7,0.41-3.38-0.05-5.05-0.23c-1.52-0.17-2.99,0.28-4.5,0.15c-1.56-0.13-3.14-0.06-4.71-0.03c-2.88,0.05-5.76-0.07-8.64,0
		c-1.3,0.03-2.74,0.27-4.03-0.31c-0.49-0.22-0.76,0.25-1.21,0.23c-2.1-0.11-4.21-0.03-6.29-0.22c-0.71-0.06-1.32,0.21-2.01,0.17
		c-1.3-0.08-2.62-0.25-3.89-0.21c-1.5,0.05-3-0.09-4.49,0.06c-0.77,0.07-1.48,0.1-2.21-0.14c-0.26-0.09-0.57-0.25-0.8-0.18
		c-2.64,0.77-5.24,0.03-7.87-0.06c-1.02-0.04-2.11,0.12-3.16,0.25c-1.49,0.17-2.98-0.07-4.46,0.24c-1.13,0.24-2.19-0.38-3.3-0.48
		c0,0,0,0.01,0,0.01c-0.26-0.01-0.63,0.35-0.76-0.19c0,0,0,0,0.01,0c-0.02-0.01-0.05,0-0.07-0.02c-1.26,0.45-2.58,0.24-3.87,0.43
		c-2.74,0.41-5.46-0.37-8.21-0.21c-1.7,0.1-3.39,0.14-5.09,0.21c0.01,0,0.01,0.01,0.02,0.01c-1.22,0.15-2.44,0.08-3.64-0.25
		c0.01,0,0.03-0.01,0.04-0.01c-0.03,0-0.07,0-0.1,0c-0.52-0.3-1.1-0.22-1.64-0.14c-1.69,0.22-3.32,0.43-5.05,0.03
		c-1.16-0.27-2.45,0.08-3.68,0.12c-1.15,0.04-2.47,0.43-3.4-0.01c-1.26-0.59-2.37-0.33-3.48-0.12c-2.39,0.44-4.72-0.25-7.08-0.21
		c-1.43,0.02-2.82,0.36-4.23,0.26c-1.82-0.12-3.66-0.2-5.45-0.18c-1.71,0.02-3.42-0.4-5.18,0.02c-1.33,0.32-2.87,0.37-4.18,0.03
		c-1.38-0.37-2.65-0.02-3.96-0.04c-0.92-0.01-1.82-0.01-2.75-0.14c-1.11-0.15-2.27-0.16-3.41,0.02c-0.57,0.09-1.25,0.25-1.74,0.04
		c-1.73-0.72-3.43,0.04-5.14-0.06c-1.51-0.08-3.09,0.56-4.52-0.43c-0.16-0.11-0.47-0.03-0.69,0.01c-1.81,0.38-3.65,0.49-5.45,0.15
		c-1.11-0.21-2.18,0.62-3.32-0.1c-0.3-0.19-1.12,0.14-1.73,0.17c-1.49,0.06-2.95,0.32-4.45-0.21c-0.54-0.19-1.29,0.28-1.96,0.32
		c-1.07,0.06-2.2-0.31-3.17-0.2c-1.25,0.14-2.48-0.11-3.73,0.15c-1.76,0.36-3.52-0.47-5.34-0.33c-1.19,0.09-2.35,0.39-3.59,0.19
		c-3.03-0.48-6.11,0.19-9.13-0.09c-3.7-0.34-7.38,0.25-11.05-0.05c-1.99-0.16-3.96,0.03-5.94-0.16c-1.35-0.13-2.72,0.06-4.09,0.03
		c-2.72-0.06-5.45,0.01-8.16-0.08c-3.07-0.09-6.13-0.08-9.2-0.13c-1.45-0.02-2.91,0.2-4.35,0.02c-3.15-0.41-6.28,0.04-9.42,0.05
		c-1.3,0.01-1.72-0.49-1.69-1.98c0.03-1.54,0.14-3.08,0.21-4.62c0,0,0-0.01,0-0.01c-0.21-0.18-0.18-0.42-0.15-0.65
		c-0.02-0.03-0.02-0.06-0.04-0.09c0.04-1.6,0.25-3.22,0.07-4.79c-0.19-1.62,0.13-3.21-0.01-4.83c-0.15-1.72,0.01-3.46-0.06-5.19
		c-0.1-2.49,0.1-4.96,0.18-7.44c0.03-0.99,0.6-2.07-0.5-2.86c0.32-0.33,0.24-0.82,0.43-1.18c0.59-1.12,0.05-2.27,0.13-3.4
		c0.02-0.22-0.1-0.5-0.08-0.78c0.13-2.48,0.39-4.96-0.24-7.42c-0.06-0.23,0.16-0.23,0.19-0.37c0.4-1.59,0.11-3.21,0.17-4.77
		c0.07-2.01-0.44-4-0.06-6.03c0.24-1.27,0.52-2.62-0.02-4.02c-0.16-0.42,0.05-1.44,0.17-2.17c0.23-1.39,0.16-2.77-0.1-4.17
		c-0.15-0.83,0.25-1.76,0.4-2.64c0-0.01,0-0.02,0-0.03c-0.28-0.21-0.06-0.42,0.05-0.62c-0.01-0.02-0.01-0.05-0.02-0.07
		c-0.16-0.39,0.19-1.09-0.66-1.09c-0.04,0-0.2-0.44,0.11-0.39c0.6,0.09,0.43-0.28,0.31-0.5c-0.34-0.65-0.13-1.31-0.08-1.96
		c0.09-1.05,0.24-2.04-0.32-3.08c-0.24-0.43,0.17-1.22,0.3-1.85c0.13-0.64,0.28-1.26,0.21-1.95c-0.24-2.24-0.1-4.47,0.08-6.71
		c0.07-0.86-0.12-1.74-0.19-2.61c0.01-0.02,0.01-0.03,0.02-0.05c-0.12-0.2-0.1-0.41,0-0.62c-0.01-0.02-0.01-0.04-0.03-0.06
		c0.11-3.33,0.19-6.67,0.32-10c0.1-2.69-0.09-5.37,0-8.06c0.09-2.43-0.12-4.87-0.13-7.3c0-0.92,0.51-1.77,0.36-2.76
		c-0.06-0.39-0.38-0.7-0.29-1.11c0.04-0.05,0.07-0.09,0.1-0.14c0.11-0.56-0.32-1.18,0.11-1.72c0-0.03-0.01-0.06-0.01-0.09
		c0.05-1.1,0.42-2.17-0.01-3.32c-0.45-1.22-0.04-2.54-0.05-3.81c-0.01-2.14,0.09-4.27,0.01-6.4c-0.02-0.59,0.42-1.02,0.26-1.57
		c-0.67-2.34,0.24-4.67,0-7.02c-0.36-3.37,0.31-6.79,0.03-10.13c-0.17-2.02,0.2-3.98,0.06-5.97c-0.08-1.14,0.13-2.38,0.29-3.57
		c0.03-0.25-0.04-0.56-0.16-0.79c-0.57-1.09-0.27-2.2-0.11-3.31c0.09-0.61,0.64-1.34-0.44-1.62c-0.22-0.06-0.1-0.15-0.01-0.18
		c0.91-0.37,0.59-1.19,0.48-1.75c-0.34-1.77,0.41-3.47,0.26-5.23c-0.04-0.54-0.63-1.07-0.16-1.65c-0.88-0.03-0.28-0.43-0.16-0.72
		c-0.01-0.02-0.01-0.03-0.02-0.05c-0.01-0.15-0.02-0.31-0.04-0.46c0-0.01,0.01-0.02,0.01-0.03c-0.29-0.22-0.05-0.43,0.04-0.64
		c-0.01-0.02-0.01-0.04-0.03-0.05c0.08-1.04,0.16-2.08,0.24-3.12c0-0.01,0-0.01,0-0.02c-0.26-0.19-0.07-0.4,0.01-0.61
		c-0.01-0.02-0.01-0.04-0.03-0.07c-0.21-1.66-0.25-3.33,0.05-4.98c0.08-0.45-0.09-0.83-0.09-1.25c0.03-2.14,0.1-4.28,0.5-6.39
		c0.02-0.1,0.06-0.23,0.02-0.31c-1.03-2.33-0.18-4.77-0.45-7.15c-0.23-2.04,0.48-4.05,0.19-6.07c-0.26-1.77,0.31-3.5,0.21-5.17
		c-0.09-1.45,0.25-2.93-0.02-4.26c-0.29-1.47,0.18-2.9-0.23-4.36c-0.24-0.85,0.44-1.81,0.39-2.76c-0.03-0.58-0.05-1.17-0.33-1.68
		c-0.18-0.33-0.32-0.73-0.2-1.03c0.68-1.68,0.02-3.44,0.4-5.17c0.41-1.89-0.4-3.87,0.05-5.8c0-0.02,0-0.03,0-0.05
		c-0.21-0.28-0.2-0.57-0.03-0.86c0-0.03,0-0.07,0.01-0.1c-0.3-0.28,0.05-0.56,0.01-0.84c-0.23,0.06-0.49,0.32-0.67-0.01
		c-0.27-0.49,0.34-0.2,0.42-0.42c0.05-0.11,0.11-0.22,0.17-0.33c0.02-0.09,0.06-0.18,0.1-0.27c-0.41-0.62,0.06-1.21,0.05-1.82
		c-0.01-0.68,0.23-1.38-0.27-1.99c0.02-0.02,0.02-0.03,0.04-0.05c0-0.34-0.09-0.68,0.08-0.99c0.01-0.06,0.03-0.13,0.07-0.19
		c0.24-1.12-0.07-2.24,0.06-3.36c0.02-0.05,0.03-0.1,0.04-0.15c0.01-0.38,0.01-0.76,0.02-1.14c-0.01-0.05-0.02-0.09-0.04-0.14
		c-0.03-2.81-0.06-5.61-0.09-8.42c0.01-0.04,0.02-0.08,0.03-0.12c-0.06-0.42-0.1-0.85,0.21-1.19c0.01-0.04,0.02-0.08,0.03-0.12
		c0-1.11,0.1-2.32-0.07-3.3c-0.25-1.46,0.27-2.77,0.09-4.15c-0.01-0.01,0-0.03-0.01-0.04c-0.32-0.27-0.11-0.54,0.02-0.81
		c-0.01-0.03,0-0.05-0.02-0.08c-0.18-0.56-0.37-1.13,0.01-1.69c0.01-0.03,0.01-0.05,0.02-0.08c-0.16-0.42-0.18-0.85-0.05-1.29
		c-0.01-0.03-0.02-0.06-0.03-0.08c0.44-0.64,0.22-1.38,0.15-2.03c-0.14-1.35-0.17-2.72-0.21-4.05c-0.05-1.45,0-2.96,0.21-4.42
		c0.09-0.66-0.05-1.31,0.07-1.95c0.05-0.04,0.07-0.08,0.1-0.12c0.01-0.19-0.22-0.37-0.08-0.56c-0.01-0.01-0.02-0.03-0.03-0.04
		c0-0.8-0.27-1.61,0.08-2.4c0.02-0.03,0.03-0.06,0.04-0.08c-0.14-0.11-0.66-0.2-0.07-0.38c0,0,0-0.01-0.01-0.02
		c0.29-0.55-0.45-1.13,0.04-1.68c0.01-0.01,0-0.02,0.01-0.03c-0.22-0.21-0.39-0.43-0.06-0.67c0.01-0.02,0-0.04,0.01-0.06
		c-0.02-0.05-0.02-0.11,0.01-0.16c0-0.04-0.01-0.08-0.01-0.13c-0.28-0.49-0.32-0.97-0.03-1.46c0.01-0.06,0.01-0.12,0.03-0.18
		c-0.38-0.95-0.11-1.89,0.04-2.83c0-0.02,0.01-0.03,0.01-0.05c-0.19-0.26,0.01-0.53,0-0.79c-0.02-0.04-0.03-0.08-0.07-0.11
		c-0.2-0.09-0.18-0.17,0-0.26c0.04-0.03,0.05-0.06,0.08-0.09c-0.01-0.19-0.18-0.39,0-0.57c-0.01-0.02-0.02-0.03-0.03-0.05
		c0-0.88,0.01-1.76,0.01-2.64c0.02-0.03,0.04-0.06,0.06-0.09c-0.02-0.37-0.03-0.74-0.05-1.11c-0.03-0.08-0.05-0.15-0.07-0.23
		c-0.25-0.15-0.29-0.44-0.19-0.62c0.37-0.66,0.21-1.35,0.2-2.03c0.02-0.03,0.02-0.06,0.04-0.09c-0.11-0.33-0.3-0.67,0.17-0.85
		c0.01-0.02,0.01-0.04,0.03-0.06c-0.38-0.41-0.14-0.94-0.26-1.4c0.02-0.02,0.04-0.05,0.05-0.07c-0.03-0.33-0.04-0.66,0.13-0.94
		c0.01-0.08,0.04-0.15,0.08-0.22c-0.27-0.63-0.02-1.26,0.01-1.88c0-0.01,0-0.03,0-0.04c-0.21-0.2-0.2-0.39-0.01-0.6
		c0-0.03,0-0.06,0-0.09c-0.02-0.06-0.03-0.12-0.03-0.19c-0.53-0.22-0.26-0.6-0.17-0.93c-0.02-0.03-0.02-0.06-0.05-0.08
		c-0.06-0.32-0.12-0.63-0.19-0.95c0.03-0.05,0.04-0.1,0.06-0.15c0-0.46,0.13-0.89,0.43-1.27c0,0,0.01,0,0.01,0
		c0.13-0.89-0.45-1.66-0.37-2.59c0.04-0.47,0.19-0.6,0.43-0.72c0.04-0.04,0.07-0.08,0.12-0.11c-0.07-0.15-0.14-0.3-0.22-0.44
		c0.03-0.03,0.05-0.06,0.07-0.1c0-0.16,0.01-0.33,0.01-0.49c-0.02-0.04-0.04-0.08-0.07-0.12c-0.63-0.99-0.25-2.12-0.18-3.11
		c0.17-2.22,0.07-4.42,0.08-6.64c0-0.42,0.16-0.84,0.25-1.26c0.03-0.04,0.04-0.09,0.06-0.13c-0.1-0.72-0.55-1.43-0.34-2.19
		c-0.01-0.13-0.01-0.26,0.07-0.39c0.01-0.08,0.03-0.15,0.08-0.22c0-0.01,0-0.01,0-0.02c-0.52-0.39-0.51-0.69,0.14-0.89
		c0-0.02,0-0.04,0.01-0.06c-0.19-2.06-0.69-4.12,0.03-6.18c-0.02-0.06-0.03-0.13-0.05-0.19c-0.2-0.38-0.27-0.76-0.01-1.14
		c0.02-0.07,0.03-0.13,0.05-0.2c-0.1-1.6,0-3.19,0.01-4.78c0.01-1.33,0.21-2.75-0.47-4.03c0.01-0.02,0.02-0.05,0.03-0.07
		c-0.19-0.4-0.54-0.82,0.16-1.08c0-0.02,0-0.04-0.01-0.06c0.65-0.64-0.09-1.45,0.25-2.12c-0.01-0.02-0.01-0.04-0.01-0.06
		c-0.42-0.42-0.33-0.84,0-1.25c0.01-0.05,0.02-0.11,0.03-0.16c-0.33-1.42,0.07-2.86-0.07-4.26c-0.2-2.09,0.34-4.18-0.08-6.26
		c-0.12-0.61,0-1.3,0.4-1.88c-0.68-0.09-0.31-0.41-0.12-0.68c-0.01-0.03-0.01-0.06-0.03-0.09c-0.03-0.16-0.06-0.31-0.09-0.47
		c-0.01-0.02-0.01-0.03-0.01-0.05c-0.27-0.22-0.51-0.45,0.03-0.63c0-0.02,0.01-0.04,0.01-0.06c-0.04-0.72-0.22-1.46,0.23-2.13
		c0,0,0-0.01,0-0.01c-0.48-0.22-0.2-0.42,0.02-0.63c0-0.04,0.01-0.07,0-0.11c-0.03-0.07-0.04-0.13-0.02-0.21
		c-0.01-0.02-0.02-0.04-0.03-0.07c-0.51-0.46-0.12-0.77,0.22-1.08c0.01-0.05,0.03-0.09,0.03-0.14c-0.3-0.49-0.03-1.14-0.44-1.61
		c0.03-0.05,0.05-0.1,0.08-0.14c0-0.24,0-0.47-0.01-0.71c-0.03-0.04-0.04-0.08-0.08-0.11c0.01-0.15,0.01-0.31,0.02-0.46
		c0.02-0.04,0.06-0.06,0.08-0.09c0.03-0.36,0.29-0.38,0.56-0.37c0.02-0.01,0.04-0.02,0.05-0.04c0.15-0.01,0.29-0.01,0.44-0.02
		c0.09-0.05,0.17-0.07,0.25-0.08c0.26-0.16,0.53-0.13,0.79,0.09c0.3,0,0.6,0,0.89,0c0.22,0.08,0.31,0.23,0.47,0.22
		c-0.13-0.06-0.25-0.13-0.38-0.19c-0.15-0.26-0.26-0.64,0.15-0.63c0.67,0.02-0.05,0.59,0.23,0.82c0.42-0.55,0.75-0.14,1.09,0.11
		c0.01,0,0.01,0,0.02,0c-0.01,0-0.01-0.01-0.02-0.01c0.3-0.34,0.6-0.06,0.91,0.02c0.09-0.02,0.17-0.05,0.26-0.07c0,0-0.01,0-0.01,0
		c0.33-0.33,0.71-0.52,1.19-0.41c0,0,0,0-0.01,0.01c0.01,0,0.01,0,0.02-0.01c0.6-0.27,1.15,0.12,1.73,0.13
		c1.34,0.04,2.67,0.05,4.01-0.16c1.38-0.22,2.72,0.33,4.1,0.21c0,0,0,0,0,0c0.81,0.01,1.68-0.83,2.41,0.18c0,0,0,0,0,0
		c0,0,0.01,0,0.01,0c2.05-0.06,4.11-0.1,6.16-0.19c0.3-0.01,0.53,0.11,0.78,0.2c0.26-0.46,0.5-0.38,0.73,0.02
		c0.15,0,0.31,0.01,0.46,0.01c0.25-0.12,0.34-0.7,0.78-0.26c1.13-0.54,2.24,0.1,3.37,0.08c3.02-0.05,6.04,0.85,9.05,0.14
		c1.28-0.3,2.39,0.41,3.6,0.33c0.25-0.1,0.48-0.4,0.76-0.06c0.15-0.07,0.31-0.14,0.46-0.2c0,0,0,0,0,0c0.42-0.5,0.51,0.02,0.69,0.23
		c0.24-0.2,0.47-0.56,0.74-0.04c0.07-0.02,0.14-0.02,0.21,0c0,0,0,0,0,0c0,0,0-0.01,0-0.01c0.36-0.36,0.65-0.1,0.95,0.11
		c-0.01,0-0.01,0.01-0.02,0.01c0.01,0,0.01,0,0.02,0c0.48-0.19,0.98-0.09,1.47-0.04c0.02,0.01,0.04,0.02,0.07,0.03
		c-0.02-0.02-0.04-0.02-0.07-0.04c0.42-0.02,0.74-0.44,1.2-0.28c0,0.01-0.01,0.01-0.01,0.02c0,0,0.01,0,0.01-0.01
		c0.39,0.08,0.77,0.16,1.16,0.25c0.02-0.01,0.04-0.01,0.07-0.02c-0.02,0-0.04,0-0.07,0c0.57-0.37,1.14-0.28,1.7,0.03
		c-0.01,0.01-0.02,0.01-0.04,0.03c0.01,0,0.02,0,0.04-0.01c2.88,0,5.77,0,8.65,0c0,0,0.01,0,0.01,0c0,0-0.01-0.01-0.01-0.01
		c0.24-0.4,0.6-0.25,0.94-0.21c0,0-0.01,0.01-0.01,0.01c0,0,0.01,0,0.01,0c1.03,0.25,2.09,0.16,3.14,0.21c0.01,0,0.01,0,0.02,0
		c0-0.01-0.01-0.02-0.02-0.02c1.05,0.05,2.12-0.21,3.15,0.21c-0.01,0-0.02,0-0.04,0c0.01,0,0.02,0,0.04,0.01
		c0.08,0,0.16,0.02,0.22,0.07c0,0,0.01,0,0.01,0c0,0-0.01-0.01-0.01-0.01c0.22-0.41,0.45-0.37,0.68-0.01c0,0.01-0.01,0.01-0.01,0.01
		c0,0,0.01,0,0.01,0c2.97-0.64,5.93,0.08,8.9-0.02c0,0,0.01,0,0.01,0c0-0.01-0.01-0.01-0.01-0.01c0.47-0.24,0.95-0.08,1.43-0.02
		c-0.01,0-0.02,0.01-0.02,0.01c0,0,0.01,0,0.01,0c1.49-0.51,2.97,0.15,4.46,0.01c1.21-0.12,2.42,0.14,3.6,0.42
		c0.19,0.04,0.41,0.06,0.59,0c2.32-0.77,4.71-0.01,7.01-0.33c1.73-0.24,3.46,0.52,4.96,0.2c2.69-0.59,5.26,0.31,7.87,0.03
		c0.45-0.05,0.72-0.69,1.24-0.32c0.03,0.02,0.06,0.03,0.09,0.04c-0.02-0.02-0.05-0.03-0.07-0.05c0.47,0.04,0.97-0.17,1.38,0.23
		c-0.02,0-0.03,0-0.05,0c0.01,0.01,0.02,0.01,0.03,0.01c0.25,0.39,0.52,0.01,0.78,0.02c0.01,0,0.02,0.01,0.04,0.01
		c-0.01-0.01-0.01-0.01-0.02-0.02c0.4-0.27,0.8,0.02,1.19-0.01c0,0-0.01,0.01-0.01,0.01c2.24-0.01,4.46-0.03,6.7-0.04
		c0.01,0,0.02,0,0.03,0c0,0-0.01-0.01-0.01-0.01c0.44-0.42,0.96-0.11,1.44-0.18c-0.01,0-0.01,0.01-0.02,0.01
		c1.33,0.44,2.71,0.41,4.09,0.45c0.02-0.01,0.04-0.01,0.06-0.01c-0.01,0-0.02,0-0.04-0.01c0.34-0.37,0.78-0.29,1.21-0.26
		c-0.01,0.01-0.02,0.01-0.03,0.02c0,0,0.01,0,0.01,0c1.43,0.26,2.86,0.25,4.28,0.01c0.03,0,0.05,0.01,0.08,0.01
		c-0.02-0.01-0.04-0.02-0.06-0.03c0.48-0.2,0.93-0.26,1.28,0.23c-0.03,0-0.05,0-0.08,0.01c0.02,0.01,0.04,0.01,0.06,0.01
		c2.14,0.09,4.28,0.19,6.42,0.28c0.02,0,0.04,0,0.06,0c-0.01-0.01-0.02-0.01-0.04-0.02c0.45-0.25,0.92-0.41,1.45-0.28
		c-0.01,0.01-0.02,0.02-0.04,0.02c0.01,0,0.01,0,0.02,0c1.51-0.24,3-0.04,4.48,0.24c0.01-0.01,0.02-0.01,0.03-0.02
		c0,0-0.01,0-0.01,0c0.15-0.53,0.45-0.37,0.77-0.17c-0.01,0.01-0.02,0.01-0.03,0.02c0,0,0,0,0.01,0c1.12-0.42,2.25-0.21,3.38-0.01
		c0.03,0.02,0.05,0.03,0.08,0.04c-0.02-0.03-0.04-0.04-0.06-0.07c0.47,0.21,1.06-0.5,1.47,0.2c-0.04-0.02-0.08-0.02-0.12-0.02
		c0.03,0.02,0.07,0.03,0.1,0.05c0.56-0.33,1.28-0.28,1.79-0.19c1.37,0.26,2.63-0.09,3.93-0.26c0.03,0.02,0.05,0.01,0.08,0.02
		c-0.02-0.02-0.04-0.03-0.06-0.05c0.23-0.11,0.46-0.44,0.72-0.03c-0.01,0.01-0.02,0.02-0.03,0.03c0,0,0.01,0,0.01,0
		c0.24,0.01,0.48,0.02,0.72,0.02c0.02,0.02,0.04,0.01,0.07,0.03c-0.01-0.02-0.03-0.03-0.05-0.06c0.44-0.14,0.86-0.19,1.2,0.23
		c-0.02,0-0.04,0.01-0.07,0.01c0.01,0.01,0.03,0.01,0.05,0.02c0.81,0.06,1.57,0.49,2.41,0.29c0.02,0,0.04-0.01,0.06,0
		c-0.01-0.01-0.03-0.01-0.04-0.03c0.28-0.18,0.5-0.6,0.94-0.27c-0.01,0.01-0.03,0.02-0.04,0.04c0.01,0,0.01,0,0.02-0.01
		c1.11-0.06,2.22,0.34,3.33-0.03c0.7-0.23,1.35,0.21,2.03,0.22c1.81,0.04,3.61,0.02,5.42,0.02c0.02-0.01,0.05-0.01,0.07-0.01
		c-0.02,0-0.03-0.01-0.05-0.01c0.72-0.55,1.44-0.39,2.17,0.01c-0.02,0.01-0.04,0.01-0.07,0.02c0.02,0,0.03,0,0.05,0
		c0.59,0.42,1.4,0.4,1.92,0.3c1.43-0.28,2.86-0.02,4.29-0.27c1.82-0.32,3.69,0.13,5.53,0.21c0.01-0.01,0.03-0.02,0.04-0.03
		c0,0-0.01,0-0.01,0c0.32-0.37,0.64-0.19,0.96,0.02c-0.01,0.01-0.02,0.02-0.03,0.03c0,0,0,0,0,0c1.1-0.52,2.23,0,3.34-0.06
		c0.03-0.02,0.06-0.02,0.09-0.03c-0.02,0-0.04-0.01-0.06,0c0.34-0.56,0.66-0.28,0.98,0.03c-0.01,0.01-0.02,0.02-0.03,0.03
		c0.77,0.2,1.6-0.14,2.35,0.24c0.04-0.03,0.08-0.03,0.12-0.04c-0.03,0-0.06,0-0.08,0c0.36-0.34,0.81-0.19,1.24-0.22
		c-0.02,0.02-0.03,0.03-0.05,0.04c0,0,0.01,0,0.01,0c0.23-0.16,0.5-0.33,0.77-0.23c1.27,0.47,2.53,0.18,3.79,0
		c0.04,0.03,0.09,0.04,0.13,0.06c-0.03-0.03-0.07-0.06-0.1-0.1c0.59,0.04,1.2-0.13,1.75,0.21c-0.08-0.03-0.15-0.03-0.23-0.03
		c0.07,0.02,0.14,0.04,0.2,0.07c1.26-0.1,2.51,0.3,3.76,0.02c0.03-0.01,0.06-0.01,0.09-0.01c-0.02-0.01-0.03-0.01-0.05-0.03
		c0.34-0.39,0.8-0.15,1.2-0.24c0.24-0.31,0.48-0.32,0.72,0c-0.03,0.01-0.05,0.02-0.08,0.03c0.02,0.01,0.03,0,0.05,0.01
		c0.72,0.41,1.44,0.03,2.16,0c0.02-0.01,0.05,0,0.07,0c-0.01-0.02-0.03-0.02-0.04-0.04c0.24-0.37,0.48-0.06,0.72,0.01
		c-0.02,0.02-0.04,0.03-0.05,0.05c0.01-0.01,0.02,0,0.02-0.01c1.12-0.07,2.19,0.56,3.33,0.22c0.03,0,0.06,0,0.09-0.01
		c-0.02-0.01-0.04-0.02-0.06-0.03c0.33-0.28,0.67-0.25,1.01,0c-0.02,0.02-0.05,0.02-0.07,0.04c0.01,0,0.03,0,0.04,0
		c0.37,0.08,0.74,0.15,1.11,0.23c0.06-0.02,0.11-0.02,0.17-0.04c-0.05,0-0.1,0-0.15,0c0.51-0.35,1.02-0.28,1.51,0.02
		c-0.08,0-0.15,0-0.23,0c0.07,0.01,0.14,0.03,0.21,0.04c2.31-0.47,4.65-0.02,6.97-0.2c0.05,0.02,0.11,0.03,0.16,0.05
		c-0.05-0.03-0.09-0.05-0.14-0.09c0.42,0,0.86-0.15,1.23,0.18c-0.03,0.02-0.06,0.02-0.09,0.03c0.02,0,0.05,0,0.07,0.01
		c0.61-0.08,1.22-0.16,1.84-0.24c0.02-0.01,0.04,0,0.07,0c-0.02-0.01-0.04-0.02-0.06-0.03c0.45-0.36,0.74,0.01,1.05,0.24
		c-0.03,0.01-0.06,0-0.1,0.01c0.03,0.01,0.06,0.02,0.09,0.02c1.97,0.38,3.94,0.02,5.91,0c0.03-0.02,0.06-0.02,0.09-0.03
		c-0.03,0-0.05,0-0.08,0c0.37-0.3,0.81-0.22,1.23-0.21c-0.03,0.03-0.06,0.04-0.09,0.06c0.03-0.01,0.06-0.01,0.08-0.03
		c1.11,0.23,2.23,0.44,3.37,0.26c0.02,0.02,0.04,0.02,0.07,0.04c-0.01-0.02-0.03-0.04-0.05-0.07c0.42-0.02,0.86-0.16,1.23,0.19
		c-0.03-0.01-0.07-0.01-0.1-0.01c0.03,0.01,0.06,0.02,0.08,0.04c0.54-0.25,1.08,0.27,1.62,0.01c0.03-0.02,0.05-0.02,0.08-0.03
		c-0.02,0-0.04,0-0.06,0c0.33-0.37,0.78-0.15,1.17-0.2v0l0,0c1.08-0.44,2.18-1.05,3.17,0.18c-0.03,0-0.06,0-0.09,0
		c0.02,0.01,0.05,0.02,0.07,0.03c2.35,0.01,4.7-0.14,7.05,0c0.58,0.04,1.17-0.15,1.76-0.24c1.26-0.2,2.48-0.29,3.74,0.18
		c0.97,0.36,2.02,0,3.03-0.08c0.03,0.02,0.06,0.02,0.09,0.04c-0.02-0.03-0.04-0.05-0.07-0.08c0.48,0.16,1.03-0.37,1.48,0.15
		c-0.03,0.02-0.07,0.03-0.1,0.05c0.03,0,0.05,0,0.08-0.01c1.18,0.32,2.37,0.2,3.56,0.04c0.03,0.01,0.05,0,0.08,0.01
		c-0.02-0.02-0.04-0.03-0.06-0.05c0.4-0.29,0.81-0.34,1.24-0.04c-0.03,0.01-0.05,0.02-0.08,0.03c0.02,0,0.04,0,0.06,0.01
		c0.94-0.5,1.87,0.05,2.81,0.01c0.02-0.01,0.04-0.01,0.06-0.02c-0.01-0.01-0.03-0.01-0.04-0.02c0.33-0.29,0.66-0.22,0.98,0.03
		c-0.02,0.02-0.04,0.04-0.05,0.05c0.01-0.01,0.02-0.01,0.03-0.01c1.04-0.07,2.07-0.08,3.08,0.21c0.03-0.01,0.06-0.02,0.1-0.02
		c-0.03-0.01-0.05-0.02-0.08-0.03c0.23-0.62,0.64-0.27,1-0.18c-0.01,0.02-0.02,0.03-0.03,0.05c0,0,0,0,0.01,0c0.08,0,0.16,0,0.24,0
		c0.02,0.01,0.05,0.02,0.07,0.03c-0.02-0.03-0.03-0.05-0.05-0.08c0.31,0,0.63,0,0.95-0.01c-0.05,0.02-0.1,0.06-0.15,0.09
		c0.04-0.01,0.09-0.03,0.13-0.04c0.65,0.17,1.3,0.26,1.92-0.1c0.02,0.01,0.05,0,0.07,0c-0.02-0.02-0.03-0.02-0.05-0.04
		c0.41-0.3,0.83-0.63,1.21,0.03c-0.03,0.01-0.05,0.01-0.08,0.02c0.02,0.01,0.04,0.01,0.06,0.02c0.4,0.1,0.79,0.28,1.21,0.09
		c0.04,0.01,0.09,0.02,0.14,0.03c-0.04-0.02-0.08-0.04-0.12-0.07c0.39,0,0.77,0,1.16,0c0.36-0.52,0.53-0.1,0.74,0.14
		c-0.03,0-0.07,0-0.1,0.01c0.03,0.01,0.05,0.02,0.08,0.03c2.08,0.02,4.16,0.04,6.23,0.05c0.02,0.02,0.05,0.02,0.07,0.04
		c-0.01-0.02-0.03-0.04-0.04-0.07c0.32-0.07,0.64-0.25,0.94,0.05c-0.01,0.01-0.03,0.02-0.04,0.03c0,0,0.01,0,0.01,0
		c1.34,0.09,2.64-0.21,3.94-0.43c0.35-0.06,0.61-0.02,0.88,0.15c0.05,0.02,0.09,0.03,0.14,0.05c-0.03-0.03-0.07-0.05-0.1-0.08
		c0.48,0.03,1-0.18,1.42,0.23c-0.01,0.01-0.03,0.02-0.04,0.03c0,0,0,0,0,0c0.55-0.01,1.13-0.19,1.63,0.2
		c0.03-0.01,0.05-0.01,0.08-0.02c-0.01,0-0.03,0-0.04,0c0.48-0.52,0.96-0.31,1.44,0.02c-0.04,0-0.08,0-0.12,0
		c0.03,0.01,0.05,0.01,0.08,0.02c0.69,0.22,1.31-0.39,2-0.18c0.03,0.01,0.06,0.01,0.08,0.01c-0.02-0.01-0.04-0.02-0.05-0.04
		c0.39-0.18,0.77-0.64,1.2-0.06c-0.03,0-0.05,0-0.08,0c0.02,0.01,0.03,0.01,0.05,0.03c0.8,0.1,1.6,0.2,2.4,0.3
		c0.03,0,0.06-0.01,0.09-0.01c-0.02-0.01-0.04-0.02-0.06-0.03c0.41-0.39,0.92-0.27,1.41-0.27c-0.02,0.02-0.04,0.03-0.06,0.05
		c0.01,0,0.02,0,0.03-0.01c1.91,0.15,3.83,0.19,5.74-0.06c0.04,0.04,0.09,0.06,0.13,0.08c-0.03-0.03-0.07-0.07-0.1-0.11
		c0.39,0.14,0.98-0.58,1.21,0.28c-0.03,0-0.06,0-0.08-0.01c0.02,0.01,0.04,0.02,0.05,0.04c0.06,0.07,0.12,0.15,0.18,0.22
		c0.01-0.01,0.02-0.02,0.03-0.03c0,0,0,0,0,0c0.13-0.63,0.63-0.4,1.02-0.43c-0.05,0.02-0.1,0.04-0.15,0.07
		c0.04-0.01,0.09-0.02,0.12-0.04c0.86,0.37,1.77,0.08,2.65,0.23c0.02,0.01,0.04,0,0.07,0.01c-0.01-0.01-0.02-0.02-0.04-0.04
		c0.37-0.2,0.72-0.51,1.19-0.23c-0.03,0.01-0.05,0.03-0.08,0.04c0.02,0,0.03-0.01,0.05-0.01c0.8,0.07,1.6,0.13,2.41,0.2
		c0.02,0,0.03,0,0.05,0c-0.01-0.01-0.02-0.02-0.03-0.03c0.26-0.35,0.48-0.06,0.71,0.04c-0.01,0.02-0.03,0.02-0.04,0.03
		c0.01,0,0.01,0,0.02,0c0.16-0.03,0.31-0.05,0.47-0.08c0.02,0,0.04,0,0.05,0c-0.01-0.01-0.02-0.02-0.03-0.03
		c0.37-0.34,0.8-0.14,1.2-0.14c-0.04,0.01-0.08,0.03-0.12,0.05c0.03-0.01,0.07-0.01,0.1-0.02c0.15,0.06,0.31,0.11,0.46,0.17
		c0.03-0.01,0.06-0.03,0.09-0.04c-0.02,0-0.04,0.01-0.06,0.01c0.06-1.28,0.62-0.42,1.03-0.24c-0.02,0-0.04,0.01-0.06,0.01
		c0.01,0.01,0.02,0.01,0.03,0.02c0.95,0.1,1.9,0.2,2.85,0.3c0.03,0.02,0.06,0.02,0.08,0.03c-0.01-0.02-0.03-0.04-0.04-0.06
		c0.3,0,0.61,0,0.93,0c-0.01,0.01-0.02,0.02-0.03,0.03c1.04-0.07,2.09,0.48,3.1-0.08c0.03,0.02,0.06,0.01,0.1,0.03
		c-0.02-0.02-0.04-0.03-0.06-0.06c0.25-0.17,0.5-0.12,0.75,0.01c-0.01,0.01-0.02,0.02-0.03,0.03c1.11,0.11,2.21,0.3,3.32,0.02
		c0.04-0.02,0.08-0.02,0.12-0.03c-0.03,0-0.05,0-0.08,0c0.63-0.31,1.23-0.37,1.74,0.23c-0.05-0.01-0.11-0.02-0.16-0.03
		c0.04,0.02,0.08,0.04,0.12,0.06c0.62-0.09,1.23,0.28,1.85,0c0.03,0,0.06,0,0.1,0c-0.02-0.01-0.04-0.02-0.06-0.03
		c0.44-0.35,0.95-0.18,1.45-0.17c-0.01,0.01-0.02,0.02-0.03,0.03c0.54,0.17,1.08,0.25,1.63,0.15c3.07-0.54,6.12,0.19,9.18,0.07
		c0.03,0.01,0.06,0.01,0.09,0.01c-0.02-0.01-0.03-0.02-0.05-0.04c0.39-0.28,0.77-0.81,1.22-0.06c-0.02,0.01-0.04,0.02-0.05,0.03
		c0,0,0.01,0,0.01,0.01c1.09,0.03,2.19-0.16,3.25,0.24c0.02-0.01,0.03-0.02,0.05-0.03c0,0-0.01,0-0.01,0
		c0.07-0.82,0.46-0.53,0.84-0.25c-0.02,0.01-0.04,0.02-0.06,0.03c0.01,0,0.01,0,0.02,0c1.58,0.1,3.16,0.52,4.75,0.05
		c0.06,0.03,0.12,0.05,0.17,0.07c-0.04-0.03-0.09-0.06-0.13-0.1c0.41-0.01,0.75-0.37,1.18-0.23c-0.01,0.01-0.03,0.02-0.04,0.03
		c0.06-0.04,0.13-0.06,0.21-0.05c0.02-0.01,0.05-0.01,0.07-0.02c-0.01,0-0.02-0.01-0.02-0.01c0.2-0.27,0.41-0.53,0.74-0.14
		c-0.01,0.01-0.01,0.02-0.02,0.03c0.08-0.01,0.15-0.02,0.23-0.03c0.01,0.02,0.03,0.03,0.04,0.05c0-0.03,0-0.06,0-0.09
		c0.26,0.14,0.52,0.28,0.78,0.42c-0.04,0-0.08,0.01-0.12,0.02c0.03,0.01,0.05,0.01,0.08,0.02c1.73,0.08,3.47-0.18,5.18,0.24
		c0.03,0,0.07-0.01,0.1-0.01c-0.02-0.01-0.04-0.02-0.05-0.03c0.42-0.28,0.85-0.36,1.29,0c-0.06-0.01-0.13,0-0.19,0
		c0.05,0.01,0.1,0.02,0.14,0.04c1.99,0,3.97,0.03,5.96-0.01c1.02-0.02,1.38,0.3,1.16,1.37c-0.31,1.47,0.16,2.93,0.21,4.41
		c0.02-0.01,0.02-0.02,0.04-0.03c0.06,0.35,0.12,0.69-0.2,0.95c-0.01-0.02-0.02-0.04-0.03-0.06c0,0.03-0.01,0.07-0.01,0.1
		c0.21,0.37-0.24,0.78,0.05,1.15c0,0.01,0,0.02,0,0.03c0.02-0.02,0.02-0.05,0.04-0.07c0.99,0.76,0.51,1.6,0.14,2.43
		c0.01-0.03,0-0.06,0-0.09c-0.01,0.04-0.02,0.09-0.04,0.13c-0.25,1.43-0.5,2.86-0.16,4.31c0,0.03,0,0.06,0,0.08
		c0.02-0.04,0.02-0.08,0.04-0.11c0.18,0.58,0.83,1.17,0.02,1.76c-0.01-0.02-0.01-0.04-0.02-0.07c-0.01,0.03,0,0.06-0.02,0.1
		c0.01,0.07-0.01,0.13-0.04,0.19c0,0,0,0,0,0c0.01-0.01,0.01-0.02,0.03-0.03c0.19,0.02,0.41,0.04,0.38,0.29
		c-0.01,0.09-0.23,0.15-0.35,0.22c0-0.01-0.01-0.01-0.01-0.02c-0.01,0.02-0.01,0.03-0.02,0.05c-0.01,0.39-0.03,0.78-0.04,1.17
		c0,0.01,0,0.02,0,0.03C415.22,49.47,415.23,49.45,415.25,49.43z M415.88,102.47c-0.13-0.06-0.31-0.1-0.25-0.31
		c0.01-0.03,0.14-0.05,0.2-0.03c0.14,0.05,0.31,0.07,0.32,0.28C416.09,102.56,415.97,102.51,415.88,102.47z"/>
	<path class="st0" d="M414.52,119.4c0,0.03,0,0.05,0.01,0.08v-0.01c0.01,0.01,0,0.02,0.01,0.03c0.01-0.01,0.01-0.03,0.02-0.04
		C414.54,119.43,414.54,119.41,414.52,119.4z"/>
	<path class="st0" d="M413.34,301.76c0.01-0.01,0.01-0.03,0.01-0.04c-0.01-0.01-0.01-0.01-0.02-0.02
		C413.34,301.72,413.34,301.74,413.34,301.76z"/>
</g>
</svg>
