<?xml version="1.0" encoding="utf-8"?>
<!-- Generator: Adobe Illustrator 24.0.3, SVG Export Plug-In . SVG Version: 6.00 Build 0)  -->
<svg version="1.1" id="Layer_1" xmlns="http://www.w3.org/2000/svg" xmlns:xlink="http://www.w3.org/1999/xlink" x="0px" y="0px"
	 viewBox="0 0 469.95 95.29" style="enable-background:new 0 0 469.95 95.29;" xml:space="preserve">
<style type="text/css">
	.st0{fill:#81B4E8;}
</style>
<g>
	<path class="st0" d="M102.35,56.78c0-0.01-0.01-0.01-0.01-0.02c-0.01,0-0.02,0-0.03,0.01C102.32,56.77,102.34,56.77,102.35,56.78z"
		/>
	<path class="st0" d="M107.02,60.16c-0.04,0.03-0.09,0.04-0.13,0.06c0.04-0.01,0.07-0.01,0.11-0.01h-0.01
		c0.04-0.03,0.09-0.04,0.13-0.06C107.09,60.15,107.05,60.15,107.02,60.16C107.02,60.16,107.02,60.16,107.02,60.16z"/>
	<path class="st0" d="M62.59,63.61c-0.06,0.02-0.13,0.03-0.19,0.04C62.46,63.63,62.53,63.62,62.59,63.61z"/>
	<path class="st0" d="M129.97,57.3c0.02,0,0.04,0,0.07-0.01c-0.01,0-0.01,0-0.02-0.01C130,57.29,129.99,57.29,129.97,57.3z"/>
	<polygon class="st0" points="371.02,53.26 371.02,53.26 371.02,53.26 	"/>
	<polygon class="st0" points="179.41,51.33 179.41,51.33 179.41,51.33 	"/>
	<path class="st0" d="M79.64,57.98C79.64,57.98,79.64,57.98,79.64,57.98c0,0,0.01,0,0.01,0c0.01,0,0.02-0.01,0.03-0.01
		C79.67,57.97,79.65,57.97,79.64,57.98z"/>
	<path class="st0" d="M179.41,51.35C179.41,51.35,179.42,51.35,179.41,51.35c0.01-0.01,0.01-0.01,0.02-0.01l-0.02-0.02
		C179.41,51.34,179.41,51.35,179.41,51.35z"/>
	<path class="st0" d="M431.24,54.49c-1.7-0.99-3.56-1.49-5.5-1.76c-0.38,0.34-0.54-0.01-0.74-0.23c0,0-0.01,0-0.01,0
		c-0.39-0.15-0.79-0.3-1.18-0.45c-0.6,0.98-0.61-0.31-0.97-0.25c-0.23,0.08-0.45,0.16-0.68,0.24l0,0l0,0
		c-0.35,0.02-0.7,0.05-0.75-0.43h0l0,0c-0.84-0.38-1.77-0.27-2.64-0.49c-0.4,0.39-0.53,0.05-0.68-0.21c-0.02,0-0.03-0.01-0.05,0
		c-0.64-0.19-1.27-0.44-1.92-0.56c-2.97-0.56-6.01-0.63-8.98-1.25c-0.7-0.15-1.15-0.25-1.38-0.97c-0.13-0.41-0.6-0.48-1-0.52
		c-1.2-0.12-2.5-0.09-3.57-0.39c-1.29-0.37-2.55-0.4-3.82-0.53c-2.62-0.27-5.21-0.7-7.83-0.98c-2.48-0.26-4.96-0.72-7.46-0.95
		c-0.04,0.01-0.08,0.01-0.12,0.01c-0.57,0.35-1.12,0.61-1.81,0.05c-0.03-0.02-0.09-0.07-0.16-0.12c-0.28-0.05-0.56-0.1-0.84-0.16
		c-0.11,0.08-0.21,0.24-0.27,0.51c-0.03,0.12-0.75,0.49-0.67-0.31c0.06-0.52-0.57-0.14-0.67-0.46c-0.01,0-0.02,0-0.03,0
		c-0.08-0.02-0.15-0.02-0.23-0.01c-0.03-0.01-0.05-0.01-0.08-0.01c-0.45,0.24-0.99,0.18-1.38-0.11c-0.07-0.03-0.14-0.06-0.21-0.11
		c-1.28-0.19-2.55-0.54-3.83-0.54c-2.08,0.01-4.15-0.26-6.19-0.46c-3.62-0.35-7.22-0.73-10.85-0.9c-0.05-0.01-0.1-0.02-0.16-0.03
		c-0.41,0.04-0.78-0.15-1.18-0.18c-0.03,0.01-0.06,0.02-0.1,0.04c-1.13-0.1-2.25-0.28-3.38-0.28c-1.76,0-3.51-0.33-5.27-0.17
		c-0.02,0.01-0.04,0-0.05,0c-0.27,0.22-0.53,0.05-0.78-0.06c-0.04,0.01-0.07,0-0.11,0.02c-0.41,0.24-0.55-0.38-0.92-0.28
		c-0.06-0.03-0.12-0.04-0.19-0.05c-0.31,0.03-0.61,0.14-0.92,0.05c-0.04,0.01-0.09,0.02-0.13,0.04c-0.73-0.15-1.49-0.05-2.2-0.15
		c-3.27-0.47-6.58-0.25-9.86-0.58c-3.33-0.33-6.72-0.24-10.08-0.24c-1.24,0-2.49-0.61-3.73-0.02c-0.03-0.03-0.06-0.05-0.1-0.06
		c-0.09,0-0.17-0.01-0.24-0.05c-0.07-0.01-0.13-0.02-0.19-0.06c-0.31-0.05-0.51,0.23-0.93,0.09c-0.66-0.22-1.43-0.35-2.17-0.11
		c0,0,0,0-0.01,0c-0.11,0.29-0.21,0.58-0.33,0.9c-0.21-0.28-0.1-0.59-0.12-0.87c-0.01-0.01-0.01-0.03-0.02-0.04
		c-1.6,0.05-3.22-0.01-4.8-0.13c-3.86-0.29-7.71,0.15-11.57-0.06c-2.41-0.13-4.86,0.1-7.27,0.15c-1.81,0.03-3.68,0.08-5.52,0.03
		c-3.07-0.08-6.15,0.02-9.22,0.22c-1.75,0.12-3.54-0.22-5.25,0.46c-0.01,0-0.02,0-0.03,0c-0.3,0.33-0.45,0.09-0.6-0.14
		c-0.03-0.02-0.06-0.02-0.09-0.04c-1.85-0.19-3.68,0.28-5.52,0.22c-0.01,0-0.02,0-0.04,0c-0.27,0.31-0.55,0.14-0.83-0.02
		c-0.03,0.01-0.07,0-0.1,0.02c-0.32-0.18-0.35,0.37-0.75,0.23c-0.74-0.26-1.53-0.06-2.29-0.07c-1.24-0.01-2.46,0.63-3.57,0.41
		c-2.05-0.4-4.01,0.1-6.01,0.14c-0.23,0.01-0.62,0.01-0.67,0.13c-0.37,0.87-0.84,0.34-1.3,0.15c-0.87-0.34-1.63-0.31-2.24,0.77
		c0.17-0.73-0.19-0.82-0.64-0.79c-1.71,0.13-3.42,0.26-5.13,0.4c-1.74,0.14-3.47,0.45-5.2,0.41c-2.17-0.05-4.28,0.32-6.42,0.48
		c-1.53,0.11-3.06,0.51-4.58,0.45c-1.89-0.07-3.78,0.1-5.6,0.32c-2.96,0.36-5.94,0.37-8.89,0.76c-0.53,0.08-0.94,0.59-1.31,0.5
		c-2.2-0.5-4.3,0.38-6.46,0.38c-0.4,0-0.82,0.41-1.29,0.09c-0.06,0.4-0.39,0.57-0.67,0.79c-0.34-0.24-0.05-0.48-0.01-0.7
		c-0.02-0.02-0.03-0.03-0.05-0.06c-0.09,0-0.17,0.01-0.25,0.01c-0.04,0.02-0.09,0.03-0.14,0.04c-0.49,0.35-1.04,0.46-1.64,0.34
		c-0.05,0.02-0.1,0.03-0.15,0.05c-0.83-0.41-1.72-0.11-2.57-0.19c-0.02,0.26,0.31,0.61-0.13,0.71c-0.36,0.08-0.17-0.35-0.3-0.53
		c-0.03,0-0.07,0-0.1,0.01c-0.39-0.08-0.74-0.1-1.14,0.09c-0.58,0.28-1.28,0.38-1.87,0.44c-1.52,0.15-3.1-0.16-4.61,0.03
		c-2.09,0.26-4.18,0.38-6.28,0.41c-0.02,0-0.03,0-0.05,0c-0.17,0.17-0.34,0.19-0.52,0.07c-0.06,0-0.12-0.01-0.18-0.05
		c-1.69,0.09-3.38,0.26-5.06,0.25c-1.81-0.01-3.61-0.26-5.45,0.06c-0.78,0.14-1.68,0.19-2.55,0.1c-1.76-0.19-3.54-0.06-5.29,0
		c-2.03,0.06-4.09,0.32-6.11,0.21c-2.11-0.12-4.18,0.3-6.33-0.03c-1.4-0.22-3.03,0.05-4.55,0.28c-1.34,0.21-2.72,0.04-4.05,0
		c-1.99-0.05-3.94-0.11-5.9,0.27c-0.03-0.02-0.07-0.02-0.1-0.03c-0.45,0.13-0.89,0.25-1.26-0.16c-0.03,0-0.07,0-0.1-0.01
		c-0.87,0-1.75-0.01-2.62-0.02c-0.14-0.03-0.28-0.03-0.41-0.04c-0.7,0.15-1.37,0.62-2.1,0.23c-0.05,0.01-0.1,0.02-0.15,0.02
		c-1.15-0.14-2.3-0.35-3.45-0.11c-1.34,0.29-2.65-0.27-3.97-0.13c-0.86,0.09-1.71,0.18-2.57,0.03c-1.54-0.26-3.07-0.25-4.61-0.02
		c-0.08-0.02-0.16-0.04-0.23-0.06c-0.5,0.03-0.99,0-1.47-0.16c-0.08,0-0.15,0-0.23,0.01c-0.8,0-1.6-0.01-2.4-0.01
		c-0.03-0.02-0.06-0.01-0.09-0.02c-0.18,0.1-0.35,0.24-0.55,0.05c-0.03,0-0.06,0.01-0.1,0.01c-3.01,0.01-6,0.4-9.02,0.27
		c-2.46-0.11-4.94,0.12-7.41,0.36c-3.1,0.3-6.08,0.93-8.98,1.99c-0.1,0.02-0.19,0.06-0.29,0.08c-0.7,0.37-1.4,0.73-2.17,0.93
		c-0.13,0.06-0.25,0.12-0.38,0.18c-0.72,0.22-1.39,0.56-2.13,0.73c-2.54,0.59-5.15,0.17-7.71,0.6c-1.24,0.21-2.55,0.25-3.86,0.19
		c-1.49-0.07-2.93,0.59-4.45,0.6c-1.46,0.01-2.91,0.36-4.27,0.69c-2.27,0.56-4.54,1.34-6.55,2.63c-0.93,0.6-1.8,1.29-1.69,2.49
		c0.1,1.02,0.53,1.94,1.81,2.02c0.13,0.02,0.26,0.05,0.39,0.08c-0.12-0.06-0.23-0.12-0.36-0.17c0.43,0.05,0.5-0.47,0.9-0.57
		c0.07,0.49,0.27,0.97,0.8,0.98c1.05,0.02,1.26,0.61,1.21,1.46c0.07-0.03,0.18-0.1,0.2-0.07c0.95,0.85,1.94-0.15,2.9,0.09
		c0,0,0,0,0,0c0,0,0.01-0.01,0.01-0.01c0.48,0.2,0.97-0.01,1.45,0.02c0.58-0.17,1.15-0.18,1.67,0.19c0.04-0.21-0.06-0.58,0.21-0.58
		c0.3,0-0.11,0.51,0.27,0.6c-0.02,0.05-0.05,0.1-0.08,0.13c0.02,0,0.05-0.02,0.06-0.04l0.01,0.01c0.03-0.02,0.07-0.03,0.11-0.04
		c-0.03-0.01-0.06-0.03-0.1-0.04c0.24-0.15,0.47-0.31,0.69-0.46c0,0,0,0.01,0.01,0.01c0,0,0-0.01,0-0.01
		c0.79,0.2,1.69-0.69,2.42,0.22c0.64,0.62,1.28-0.31,1.92-0.01c-0.09,0.06-0.2,0.11-0.31,0.17c0.1-0.03,0.2-0.06,0.29-0.09
		c0.38,0.04,0.82-0.14,1.15,0.16c0.03,0,0.06-0.01,0.09-0.02c-0.01,0.02-0.03,0.04-0.04,0.07c0.01,0.01,0.02,0.01,0.02,0.02v-0.01
		h0.11l0.11,0.02c0.06,0.05,0.13,0.08,0.2,0.1c-0.06-0.06-0.12-0.13-0.18-0.18c3.11-0.01,6.23-0.71,9.34-0.01
		c-0.01,0.02-0.03,0.05-0.05,0.07c0.01,0,0.02,0,0.03,0c0.09,0,0.17-0.01,0.26-0.01c-0.08-0.03-0.16-0.04-0.24-0.07
		c0.04-0.11,0.08-0.32,0.11-0.31c1.42,0.16,2.76-0.31,4.14-0.46c0.1-0.01,0.22,0.2,0.33,0.3c-0.04,0.01-0.09,0.02-0.13,0.03
		c0.04,0.02,0.08,0.02,0.11,0.04l-0.01,0.03c0.07-0.01,0.14-0.01,0.21-0.02c-0.06-0.02-0.13-0.03-0.19-0.05
		c0.64-0.32,1.28-0.44,1.94-0.07c-0.06,0.03-0.12,0.04-0.17,0.07c0.05,0,0.1,0,0.15,0c2.57-0.07,5.12-0.39,7.64-0.89
		c0.01,0,0.02-0.01,0.04-0.01c-0.01-0.02-0.01-0.04-0.02-0.06c0.36-0.31,0.62-0.47,1.22-0.22c0.57,0.24,1.38,0,2.06-0.13
		c0.41-0.09,0.82-0.12,1.23-0.13c0.01-0.01,0.02-0.03,0.03-0.04c-0.09-0.2-0.18-0.41,0.01-0.59c0.33-0.34,0.32,0.13,0.45,0.22
		c0.24,0.16,0.49,0.18,0.76,0.17c0.08-0.08,0.16-0.16,0.24-0.24c0.08-0.15,0.16-0.29,0.24-0.44c0,0,0.01,0,0.01-0.01
		c0.26-0.54,0.66-0.37,1.06-0.19c-0.12,0.12-0.24,0.25-0.35,0.36c0.89,0.69,1.93,0.17,2.79,0.08c0.61-0.06,1.2,0.04,1.79-0.02
		c-0.01,0.03-0.03,0.05-0.05,0.07c0.01,0,0.02,0,0.04,0l-0.01,0.01c0.07-0.01,0.14-0.01,0.22-0.01c-0.07-0.02-0.14-0.03-0.2-0.05
		c0.47-0.53,1.11-0.2,1.66-0.29c0.8-0.13,1.62-0.14,2.42-0.2c-0.06,0.04-0.13,0.07-0.19,0.11c0.06-0.02,0.12-0.03,0.18-0.05h-0.01
		c0.03-0.02,0.06-0.03,0.1-0.04c-0.03,0-0.05-0.01-0.08-0.01c0.16-0.61,1.01-0.15,1.19-0.74c0,0,0,0,0,0
		c0.07-0.29-0.39-0.72-0.03-0.8c0.54-0.12,0.48,0.44,0.51,0.81c0.09,0.92,0.92,0.07,1.22,0.5c0.8-0.86,1.76-0.14,2.64-0.26
		c-0.03,0.03-0.07,0.05-0.1,0.08c0.03-0.01,0.05-0.02,0.08-0.03c0.06-0.02,0.11-0.05,0.17-0.07c-0.05,0.01-0.1,0.01-0.16,0.02
		c0.63-0.49,1.2-1,2.15-0.79c1.28,0.29,2.57-0.19,3.86-0.16c-0.03,0.03-0.06,0.05-0.09,0.07c0.03-0.01,0.06-0.01,0.08-0.02
		c1.29-0.02,2.55-0.19,3.8-0.5c0.02-0.02,0.04-0.02,0.06-0.04c-0.02,0-0.04-0.01-0.05-0.01c0.15-0.3,0.36-0.52,0.74-0.46
		c0.54-0.24,0.98,0.05,1.44,0.24c-0.01,0.02-0.02,0.03-0.03,0.05c0.01,0,0.02,0,0.02,0c0.67,0.29,1.22,0.15,1.64-0.45
		c0.01,0.01,0.02,0.01,0.04,0.01c-0.01-0.02-0.02-0.03-0.03-0.05c1.92-0.05,3.78-0.64,5.71-0.58c0.51,0.02,1.02-0.11,1.52-0.17
		c0.65-0.69,1.28,0.11,1.92,0.02c-0.06,0.04-0.11,0.07-0.17,0.1c0.05-0.02,0.11-0.03,0.16-0.05c0.96-0.08,1.92-0.17,2.88-0.25
		c0.01-0.01,0.03-0.02,0.04-0.03c-0.01,0-0.02-0.01-0.03-0.01c0.11-0.36,0.06-0.94,0.73-0.5c0.88-0.04,1.72-0.56,2.63-0.22
		c-0.03,0.03-0.07,0.04-0.1,0.07c0.03-0.01,0.06-0.01,0.09-0.02c0.38-0.41,0.62,0.2,1.04,0.11c2.99-0.66,6.03-0.71,9.08-0.8
		c1.43-0.04,2.84-0.26,4.28,0.06c0.7,0.16,1.55,0.3,2.16,0.04c0.66-0.28,1.12-0.15,1.66,0.06c0.01,0,0.02,0,0.03,0
		c-0.01-0.02-0.01-0.03-0.02-0.05c0.2-0.27,0.48-0.15,0.74-0.15c0,0.02-0.01,0.03-0.01,0.05l0.1-0.03l0.11,0.01
		c0.01,0.01,0.03,0.01,0.04,0.02c-0.01-0.03-0.02-0.04-0.03-0.07c0.46-0.01,0.96-0.1,1.22,0.43c-0.04,0-0.08,0-0.11,0
		c0.03,0.02,0.07,0.02,0.1,0.05c0.67-0.47,1.43-0.15,2.14-0.19c3.19-0.18,6.39,0.26,9.58-0.05c0.01-0.01,0.02-0.02,0.03-0.03
		c0-0.01-0.01-0.01-0.01-0.02c-0.02-0.28-0.03-0.55-0.05-0.9c0.49,0.23,0.16,0.65,0.32,0.91c-0.01,0.02-0.02,0.02-0.02,0.03
		c0,0,0,0,0,0.01c0.15,0,0.31,0.01,0.46,0.01c0.05-0.02,0.1-0.03,0.14-0.05c-0.04,0-0.08,0-0.12,0.01c0.63-0.37,1.28-0.32,1.92-0.04
		c-0.02,0.02-0.05,0.03-0.07,0.05c0.02,0,0.03,0,0.05-0.01c1.12,0.06,2.2,0.09,3.35-0.06c2.23-0.28,4.53-0.12,6.8-0.13
		c0.32,0,0.66,0.03,0.93,0.16c0.67,0.34,1.27,0.24,1.86-0.16c0.06,0,0.12,0,0.17,0c-0.05-0.01-0.1-0.03-0.14-0.04
		c0.14-0.13,0.35-0.4,0.4-0.38c1.18,0.63,2.47,0.14,3.68,0.41c-0.06,0.03-0.12,0.05-0.18,0.08c0.05-0.01,0.1-0.02,0.15-0.03
		c1.66-0.02,3.33,0.13,4.96-0.09c2.64-0.36,5.26,0.31,7.91-0.11c2.15-0.33,4.36-0.2,6.55-0.27c0.03,0.02,0.06,0.02,0.09,0.04
		c-0.02-0.03-0.04-0.05-0.06-0.09c0.26,0.03,0.63-0.43,0.78,0.15c-0.02,0.02-0.05,0.02-0.07,0.04c0.01,0.01,0.03,0,0.04,0.01
		c1.98,0.04,3.95-0.48,5.94-0.18c0.05,0,0.09,0,0.14,0.01c-0.04-0.02-0.07-0.03-0.11-0.06c0.43-0.46,0.98-0.14,1.47-0.21
		c-0.02,0.03-0.05,0.04-0.07,0.07c0.01-0.01,0.03-0.01,0.04-0.02c0.61,0.1,1.27,0.39,1.84,0.26c1.29-0.28,2.55-0.14,3.82-0.18
		c1.07-0.04,2.1,0.23,3.12,0.2c1.97-0.06,3.93-0.42,5.92-0.31c0.68,0.04,1.38,0.24,2.01,0.11c2.03-0.43,4.12-0.22,6.13-0.26
		c1.87-0.04,3.78-0.19,5.67-0.09c0.01,0.01,0.02,0.01,0.02,0.02c0-0.02,0.01-0.05,0.01-0.07c0.24,0.08,0.48,0.17,0.72,0.25
		c-0.02,0.02-0.04,0.04-0.06,0.05c0.01,0,0.02,0,0.03,0c1.1-0.1,2.26-0.24,3.31-0.13c2.78,0.29,5.53-0.27,8.29,0.03
		c0.58,0.06,1.27-0.55,1.46-0.43c1.44,0.94,2.95,0.21,4.41,0.29c1.01,0.05,2.01,0.36,3.07,0.11c0.43-0.1,0.66-0.64,1.26-0.38
		c1.36,0.59,2.84,0.23,4.25,0.41c1.75,0.23,3.49-0.59,5.2,0.08c0.48,0.18,0.95,0.12,1.39,0.01c1.6-0.4,3.19-0.03,4.79-0.02
		c0,0,0,0,0,0c0-0.01,0.01-0.03,0.02-0.04c0.16,0.01,0.32,0.01,0.48,0.02c0,0.01-0.01,0.02-0.01,0.04c0.84-0.42,1.58,0.22,2.38,0.23
		c0.03,0,0.07-0.01,0.1-0.01c-0.03-0.01-0.05-0.02-0.08-0.03c0.64-0.3,1.29-0.41,1.94-0.05c-0.08-0.01-0.16,0-0.25,0
		c0.08,0.01,0.15,0.01,0.23,0.04c1.62,0.34,3.24-0.08,4.86-0.03c1.55,0.04,3.12,0.05,4.65-0.07c1.02-0.08,1.88,0.39,2.89,0.29
		c3.18-0.32,6.36,0.08,9.54,0.06c2.11-0.01,4.23,0.48,6.31-0.19c0.05,0.02,0.11,0.03,0.16,0.05c-0.05-0.03-0.1-0.05-0.15-0.08
		c1.22,0.08,2.44,0.16,3.66,0.24c-0.03,0.02-0.06,0.02-0.1,0.04c0.03,0,0.06-0.01,0.09-0.01c0.75,0.1,1.49,0.2,2.24,0.32
		c1.83,0.28,3.65-0.3,5.48,0c0.66,0.11,1.32,0.37,1.96,0.31c2.34-0.2,4.68-0.18,7.01,0.07c0.97,0.1,1.98,0.49,2.91,0.36
		c2.95-0.43,5.87,0,8.8,0c0.79,0,1.67-0.34,2.33-0.09c1.25,0.48,2.47,0.57,3.75,0.39c0.01,0,0.02-0.01,0.03-0.01
		c-0.01-0.01-0.01,0-0.02-0.01c0.33-0.71,0.67-0.06,1.01-0.01c-0.01,0-0.03,0.01-0.04,0.01c0.01,0,0.02,0,0.03,0.01
		c1.11-0.06,2.2,0.43,3.31,0.09c0.01,0,0.01,0,0.02,0.01c0-0.01-0.01-0.02-0.01-0.03c0.31-0.21,0.58-0.23,0.77,0.15
		c-0.01,0-0.02,0.01-0.03,0.01c0.01,0,0.01,0,0.02,0.01c0.71,0.02,1.43,0.03,2.14,0.04c0-0.01,0.01-0.01,0.01-0.02c0,0,0,0,0,0
		c0.02-0.18,0.03-0.52,0.05-0.52c0.35-0.01,0.26,0.35,0.41,0.52c-0.01,0-0.02,0.01-0.02,0.01c0,0,0.01,0.01,0.01,0.01
		c2.57,0.22,5.16,0.42,7.74,0.36c3.36-0.08,6.65,0.87,10.04,0.42c1.07-0.15,2.22,0.24,3.34,0.38c0.01,0,0.02,0,0.03,0
		c-0.01-0.01-0.01-0.01-0.02-0.02c0.29-0.67,0.61-0.12,0.92-0.02c-0.01,0.01-0.01,0.01-0.02,0.02c0,0,0.01,0,0.01,0
		c0.35-0.57,0.65,0.55,1,0.03c0,0,0.01,0,0.01,0c0,0-0.01,0-0.01-0.01c0.2-0.29,0.49-0.22,0.78-0.19c0,0,0,0.01,0,0.01c0,0,0,0,0,0
		c0.61,0.26,1.19,0.53,1.9,0.55c1.6,0.04,3.21-0.66,4.79,0.1c0.06,0.03,0.16,0,0.23-0.03c1.06-0.44,2.09,0.19,3.18,0.06
		c1.38-0.16,2.76,0.46,4.18,0.26c0.03,0,0.05,0,0.08,0.01c-0.02-0.01-0.05-0.01-0.07-0.02c1.45,0.08,2.94-0.46,4.37,0.2
		c-0.02,0-0.04,0-0.05,0.01c0.01,0,0.03,0,0.04,0c2.32,0.15,4.64,0.34,6.96,0.25c0,0,0.01,0,0.01,0c0,0-0.01-0.01-0.01-0.01
		c0.53-0.38,1.14-0.11,1.7-0.23c0,0.01-0.01,0.01-0.01,0.02c0,0,0.01-0.01,0.01-0.01c3.73,0.89,7.48,0.3,11.23,0.25
		c0,0,0.01,0,0.01,0c0-0.01-0.01-0.01-0.01-0.01c0.32-0.01,0.65-0.02,0.97-0.03c0,0.01-0.01,0.01-0.01,0.01c0,0,0.01,0,0.01,0
		c0.47-0.04,0.92-0.08,1.4-0.05c2.27,0.14,4-1.18,4.1-3.04C432.35,55.33,431.86,54.85,431.24,54.49z M111.06,51.13
		c0.04,0.05,0.15,0.12,0.16,0.2c0.02,0.2-0.15,0.24-0.3,0.21c-0.08-0.02-0.2-0.12-0.21-0.19C110.7,51.16,110.86,51.14,111.06,51.13z
		 M102.33,51.35c-0.5-0.04-0.89,0.14-1.47-0.38C101.5,50.99,101.9,50.81,102.33,51.35z M95.95,51.01c0.25-0.16,0.53-0.18,0.74,0.1
		c0.16,0.04,0.38-0.07,0.53,0.24c-0.37,0-0.69,0-1.01,0c-0.21,0.04-0.24,0.47-0.56,0.26c-0.09-0.06-0.22-0.17-0.22-0.27
		C95.42,50.99,95.78,51.12,95.95,51.01z M93.93,51.68c-0.91-0.42-1.95,0.32-3.12-0.45C92.09,51.18,93.13,50.57,93.93,51.68z
		 M89.08,51.67c-0.27,0.19-0.51,0.34-0.94,0.12C88.49,51.5,88.76,51.58,89.08,51.67z M72.98,52.79c0.11,0.09,0.23,0.15,0.26,0.23
		c0.09,0.24-0.13,0.22-0.25,0.21c-0.08-0.01-0.19-0.12-0.2-0.19C72.79,52.96,72.91,52.89,72.98,52.79z M69.48,53.56
		c0.14-0.25,0.34-0.39,0.65-0.2c-0.19,0.17-0.27,0.47-0.58,0.46C69.52,53.82,69.45,53.62,69.48,53.56z M90.15,61.42
		c-0.16,0.05-0.31-0.06-0.3-0.22c0-0.12,0.14-0.23,0.2-0.31c0.24,0.02,0.35,0.12,0.31,0.29C90.34,61.27,90.24,61.39,90.15,61.42z
		 M91.53,59.63c-0.14,0-0.36,0-0.4-0.09c-0.09-0.15,0.08-0.28,0.21-0.29s0.26,0.08,0.34,0.1C91.76,59.58,91.64,59.63,91.53,59.63z
		 M112.81,55.52c-0.1,0.38-0.53,0.48-0.96,0.37c-0.33-0.09-0.68,0.2-1.01-0.03c0,0,0-0.01,0-0.01c0,0-0.01,0.01-0.01,0.01
		c-0.54,0.06-1.16-0.11-1.53,0.48c-0.49-1.01-1.29,0.21-1.86-0.26h-0.08h-0.08c0-0.02,0.01-0.02,0-0.04
		c-0.01,0.01-0.01,0.03-0.02,0.04c-0.89,0.19-1.68,0.87-2.66,0.49c-0.46,0.39-1.19,0.16-1.59,0.89c-0.17,0.31-0.88-0.66-1.53-0.41
		c0-0.01,0.01-0.01,0.01-0.02c0,0-0.01,0.01-0.01,0.01c-0.16,0-0.32,0-0.48,0c0,0-0.01,0.01-0.01,0.01
		c-0.46,0.18-0.88,0.64-1.44,0.24c0,0-0.01-0.01-0.01-0.01c-0.63,0-1.26,0-1.9,0c0,0,0,0-0.01-0.01c-0.16,0.08-0.32,0.16-0.46,0.23
		c0,0-0.01-0.01-0.01-0.01c0,0.01,0,0.02-0.01,0.03c-0.53,0.32-1.07,0.55-1.69,0.24c0,0,0,0,0,0c-0.31,0-0.62-0.01-0.93-0.01
		c-0.01,0-0.01-0.01-0.01-0.01c0,0,0,0.01,0,0.01c-0.16,0.08-0.31,0.16-0.47,0.23c0-0.01-0.01-0.01-0.01-0.02
		c0,0.01-0.01,0.01-0.01,0.02c-0.31,0.51-0.63,0.47-0.96,0.02l0,0c-0.55,0-1.1,0-1.66-0.01c0-0.01,0-0.01,0-0.01
		c-0.01,0-0.01,0.01-0.02,0.01c0,0.33,0.08,0.78-0.51,0.44c-0.44-0.26-0.89-0.38-1.39-0.2c0,0,0,0,0,0
		c-0.68,0.78-1.53,0.27-2.31,0.28c-0.37,0.01-0.86-0.09-0.92,0.29c-0.17,1.11-0.59,0.02-0.85,0.13c-0.01,0-0.02-0.01-0.03-0.01
		c0.01,0.01,0.02,0.01,0.03,0.02c-0.93-0.04-2.03,0.53-2.64-0.71c0.01,0,0.01,0,0.02-0.01c-0.01,0-0.01,0-0.02,0
		c-0.3,0.07-0.64,0.07-0.9,0.21c-0.63,0.33-1.2,0.72-1.56-0.31c-0.04-0.11-0.43-0.1-0.66-0.14c0.22,0.49-0.92,1.53,0.74,1.46
		c-1.11,0.42-1.59-0.4-2.2-0.82c-0.47-0.06,0.39,0.8-0.4,0.51c-0.6-0.22-1.11,0.36-1.75,0.18c-0.45-0.13-0.37-0.3-0.23-0.57
		c-0.08-0.1-0.15-0.19-0.23-0.29c-0.74,0.12-1.64,0.02-2.17,0.34c-1.01,0.6-1.91,0.11-2.85,0.17c0,0,0,0,0,0c0,0,0,0,0,0
		c-0.32,0.54-0.71,0.71-1.23,0.26c-0.43-0.11-0.77,0.22-1.17,0.25h0c-0.14,1.02-0.67,0.01-0.97,0.19c-0.08,0-0.15-0.01-0.23-0.02
		c-0.24,0.09-0.49,0.42-0.74-0.01h0c-2.91-0.02-5.8,0.23-8.7,0.53c-1.89,0.2-3.84,0.09-5.76,0.19c-0.53,0.03-1.02-0.14-1.49-0.36
		c-0.29-0.14-0.84,0.05-0.8-0.49c0.03-0.49,0.44-0.65,0.9-0.79c1.53-0.46,3.04-0.99,4.56-1.49c0,0,0.01,0,0.01-0.01
		c0.08-0.46,0.43-0.4,0.77-0.38c0,0,0,0,0,0.01c0.33,0.48,0.82,0.18,1.14,0.11c1.43-0.3,2.95-0.14,4.31-0.48
		c3.09-0.77,6.22-0.11,9.31-0.67c1.31-0.24,3-0.63,3.9,1.17c0.18,0.36,0.79,0.16,1.21-0.01c0.85-0.34,1.49-1.05,2.32-1.36
		c1.37-0.51,2.9-0.61,4.3-0.38c1.54,0.24,2.98-0.21,4.47-0.17c1.98,0.06,3.96-0.07,5.94-0.12c0.01,0,0.01,0,0.02,0
		c0,0-0.01,0-0.01-0.01c0.3-0.66,0.63-0.5,0.98-0.04c-0.01,0-0.01,0.01-0.02,0.01c0,0,0,0,0.01,0c1.17-0.1,2.34-0.27,3.51-0.29
		c0.74-0.01,1.48,0.19,2.22,0.29c0,0.01,0,0.01,0,0.01c0,0,0-0.01,0.01-0.01c0.07-0.01,0.14-0.01,0.2,0c0,0,0.01,0,0.01,0.01
		c0,0,0,0,0-0.01c0.23-0.15,0.48-0.29,0.72-0.44c0.51,0.05,1.31-0.88,1.46,0.41c0,0,0.01,0,0.01,0.01c0.32-0.15,0.63-0.29,0.95-0.44
		c0.32-0.24,0.64,0.13,0.95,0c-0.03,0.03-0.05,0.06-0.08,0.08c0.04-0.02,0.08-0.04,0.09-0.08c0.32,0,0.64,0,0.96,0c0,0,0,0,0.01,0
		c0,0,0,0,0,0c0.02-0.16,0.05-0.33,0.25-0.32c0.31,0.02,0.67,0.19,0.92,0.09c1.32-0.54,2.21,0,2.95,1.03
		c0.04,0.05,0.28-0.05,0.43-0.09c-0.04-0.19-0.46-0.23-0.26-0.49c0.16-0.21,0.34-0.02,0.46,0.12c0.25,0.27,0.08,0.36-0.19,0.38
		c0.33,0.64,0.62,0.22,0.87-0.05c0.62-0.66,1.28-0.68,2-0.19c0,0,0,0.01,0,0.01c0,0,0,0,0,0C112.25,55.2,112.96,54.95,112.81,55.52z
		 M114.55,55c0.4-0.1,0.64-0.18,0.87,0.04C115.16,55.19,114.92,55.19,114.55,55z M115.27,51.48c-0.61,0.25-0.64-0.36-0.87-0.71
		c0.38,0.14,0.88-0.07,1.11,0.37C115.54,51.2,115.38,51.43,115.27,51.48z M116.88,51.09c-0.05-0.06-0.11-0.14-0.18-0.21
		c0.09-0.04,0.17-0.12,0.26-0.12c0.05-0.01,0.14,0.08,0.16,0.14C117.17,51.05,117.05,51.08,116.88,51.09z M123.7,51.01
		c0.42-0.28,0.74-0.03,1.18,0.17C124.3,51.69,123.97,51.56,123.7,51.01z M126.51,51.21c-0.05,0.12-0.23,0.18-0.41,0.3
		c-0.09-0.17-0.2-0.28-0.22-0.41c-0.03-0.23,0.18-0.21,0.32-0.21C126.4,50.9,126.63,50.93,126.51,51.21z M127.22,51.22
		c-0.18,0.07-0.28-0.06-0.27-0.23c0-0.08,0.1-0.21,0.17-0.23c0.06-0.02,0.16,0.09,0.26,0.16C127.32,51.05,127.29,51.19,127.22,51.22
		z M130.41,52.17c-0.16-0.72-0.3-1.14,0.21-1.37c0.1-0.04,0.37,0.07,0.4,0.16C131.19,51.51,130.5,51.48,130.41,52.17z M135.07,51.34
		c-0.83-0.03-1.65-0.35-2.46,0.2c-0.31,0.21-0.69-0.03-0.91-0.34c-0.05-0.08-0.09-0.24-0.04-0.31c0.23-0.33,0.52-0.16,0.84-0.13
		c0.84,0.08,1.69,0.07,2.54,0.1c0,0,0,0,0,0c0.4,0.08,0.82-0.31,1.29,0.13C135.91,51.2,135.54,51.4,135.07,51.34z M139.06,51.01
		c-0.05-0.03-0.08-0.25-0.03-0.3c0.34-0.36,0.7,0,1.27-0.03C139.8,51.05,139.46,51.23,139.06,51.01z M141.78,50.68
		c0.6-0.03,1.19-0.05,1.79-0.08C142.94,50.92,142.36,50.92,141.78,50.68z M154.07,52.74c-0.09-0.01-0.22-0.12-0.23-0.19
		c-0.02-0.2,0.16-0.21,0.37-0.22c0.05,0.05,0.17,0.12,0.18,0.2C154.41,52.75,154.21,52.76,154.07,52.74z M164.3,50.34
		c-0.16,0.03-0.31-0.07-0.34-0.23c-0.02-0.17,0.11-0.26,0.34-0.3c0.06,0.09,0.17,0.2,0.2,0.33
		C164.51,50.19,164.38,50.33,164.3,50.34z M174.17,53.78c-0.2,0-0.39-0.11-0.45-0.32c-0.05-0.16,0-0.3,0.19-0.36
		c0.24-0.01,0.36,0.15,0.42,0.34C174.38,53.59,174.38,53.78,174.17,53.78z M174.1,52.1c-0.18,0.03-0.46,0.35-0.55-0.08
		c-0.03-0.16,0.21-0.19,0.36-0.21c0,0,0,0,0,0c0.04-0.46,0.33-0.51,0.71-0.42c-0.08,0.15-0.16,0.29-0.24,0.43
		C174.83,52.42,174.22,52.09,174.1,52.1z M371.32,44.57c0.4,0.11,0.74,0.36,1.07,0.54c0,0.31-0.17,0.49-0.35,0.46
		c-0.4-0.08-0.92-0.03-1.08-0.52C370.9,44.87,371.06,44.5,371.32,44.57z M369.37,44.94c0.19,0.03,0.55-0.02,0.51,0.14
		c-0.14,0.52-0.64,0.28-1,0.33c-0.26-0.1-0.51-0.2-0.83-0.33C368.51,44.84,368.91,44.71,369.37,44.94z M364.97,44.85
		c0.19-0.34,0.49-0.33,0.81-0.15c0,0,0,0.01,0.01,0.01c0.32,0,0.66-0.3,0.96,0.09c-0.22,0.49-0.59,0.36-0.97,0.18
		c-0.16,0.21-0.29,0.54-0.63,0.28C365.04,45.18,364.92,44.94,364.97,44.85z M273.21,40.51c0.1,0.04,0.15,0.16,0.2,0.21
		c-0.01,0.17-0.04,0.3-0.2,0.23c-0.09-0.04-0.18-0.15-0.2-0.25C272.97,40.56,273.08,40.47,273.21,40.51z M261.69,42.81
		c0.32,0,0.63,0,0.95,0c0.01-0.01,0-0.01,0.01-0.02c0.21-0.52,0.57-0.43,0.96-0.21c0.56,0,1.12,0,1.68-0.01c0,0,0.01,0.01,0.01,0.01
		c0.16,0.01,0.31,0.01,0.47,0.02c0,0,0-0.01,0-0.01c0.62-0.02,1.25-0.03,1.87-0.05c0-0.15-0.21-0.37,0.11-0.41
		c0.27-0.05,0.38,0.17,0.46,0.39c0,0,0,0,0,0c0.46-0.07,0.93-0.14,1.39-0.22c0,0,0,0.01,0.01,0.01c0.48-0.01,0.96-0.12,1.43,0.05
		c-0.01,0.01-0.01,0.01-0.02,0.02c0.01,0,0.02,0,0.03-0.01c2.92,0.01,5.83-0.39,8.76-0.15c1.17,0.09,2.36-0.19,3.54-0.23
		c1.93-0.07,3.86-0.08,5.79-0.1c3.42-0.03,6.83-0.06,10.25-0.08c1.14-0.01,2.28,0.03,3.43,0.04c0.94,0.01,1.91,0.2,2.77-0.39
		c0.17-0.11,0.38-0.03,0.5,0.16c0,0,0-0.01,0-0.01c0.62,0.14,1.37-0.65,1.88,0.26c0.62,0.04,0.36-0.56,0.63-0.85
		c0.16,0.4,0.14,0.97,0.79,0.88c-0.02,0.01-0.04,0.02-0.07,0.03c0.03,0,0.05-0.01,0.08-0.01c1.84,0.05,3.67,0.11,5.51,0.16
		c0,0,0.01,0,0.01,0c-0.01,0-0.02,0-0.02-0.01c0.13-0.39,0.73-0.39,1.25,0c-0.01,0-0.01,0-0.02,0c0.01,0,0.02,0,0.03,0.01
		c1.87,0.18,3.71,0.18,5.51-0.46c0,0,0,0,0,0c0,0,0,0,0,0c0,0,0,0,0.01,0c0,0,0,0.01,0.01,0.01c0.22,0.15,0.45,0.3,0.67,0.46
		c0,0,0.01,0,0.01,0c1.63,0.07,3.27,0.15,4.9,0.22c2.07,0.09,4.14,0.15,6.2,0.28c0.77,0.05,1.53,0.13,2.3,0c0.01,0,0.01,0,0.02,0.01
		c-0.01-0.01-0.02-0.01-0.03-0.02c0.43,0.01,0.85,0.01,1.27,0.01c0.14,0.01,0.28,0.01,0.42,0.02c0.37,0.29,0.99-0.18,1.24,0.41
		c0.12-0.1,0.27-0.32,0.34-0.3c1.39,0.45,2.84-0.06,4.22,0.29c0.96,0.24,1.9,0.21,2.85,0.03c0.01,0,0.01,0,0.02-0.01
		c0.26-0.33,0.56-0.44,0.95-0.22c0,0,0,0.01,0,0.01c0.01,0,0.01-0.01,0.01-0.01c0.34-0.01,0.69-0.02,0.71,0.47
		c0.57,0.48,1.2,0.05,1.8,0.12c2.75,0.31,5.54,0.15,8.25,0.84c0.01,0.01,0,0.01,0.01,0.02c0,0,0-0.01,0-0.01
		c0.24-0.08,0.49-0.16,0.73-0.24c0,0,0,0,0,0c0,0,0-0.01,0-0.01c0.4-0.24,0.7-0.07,0.99,0.21c-0.01,0-0.01,0-0.02,0
		c0.01,0.01,0.01,0,0.02,0.01c1.21,0.07,2.44-0.08,3.59,0.47c0,0,0.01,0,0.01-0.01c0.22,0.02,0.45,0.04,0.67,0.05
		c0.19-0.05,0.44-0.38,0.56-0.04c0.15,0.45-0.27,0.41-0.56,0.43c0,0,0,0.01,0,0.01c-0.31-0.07-0.63-0.15-0.94-0.22
		c-0.86-0.06-1.72-0.12-2.58-0.18c-0.36,0.07-0.72,0.63-1.06-0.02c-0.47,0.17-0.94,0.04-1.4-0.01c0-0.01,0-0.02,0-0.03
		c-0.01,0.01,0,0.01-0.01,0.02c-1.76,0.57-3.51-0.11-5.27-0.02l0,0c-0.15,0.04-0.3,0.07-0.44,0.12c-0.15,0.06-0.23,0.38-0.43,0.18
		c-0.07-0.05,0.08-0.31,0.14-0.49c0,0-0.01,0-0.01-0.01c-1.46,0.22-2.91,0.01-4.36-0.1c-0.93-0.07-1.88-0.08-2.75,0.24
		c-0.41,0.15-0.44-0.55-0.78-0.18c0.01,0,0.01,0.01,0.02,0.01c-0.83,0.05-1.64,0.07-2.42-0.21c0,0,0-0.01,0.01-0.01
		c-0.01,0-0.01,0-0.02,0c-3.75-0.3-7.52,0.11-11.25-0.49c0,0,0,0.01,0,0.01c-0.16,0.01-0.32,0.03-0.47,0.04c0,0-0.01,0-0.01,0
		c-0.24,0.39-0.49,0.5-0.74,0c-2.97,0.2-5.94-0.47-8.86-0.23c-2.51,0.21-4.95-0.27-7.42-0.07c0,0,0,0,0,0
		c-0.28,0.05-0.55,0.1-0.74-0.18c0,0-0.01,0-0.01,0c-1.3,0.04-2.61,0.17-3.9,0.12c-1.89-0.08-3.78,0.04-5.69-0.26
		c-0.89-0.14-2-0.06-2.95,0.15c-1.45,0.32-2.77-0.22-4.15-0.35c-0.5-0.05-0.86,0.27-1.33,0.26c-1.9-0.04-3.81-0.02-5.71-0.09
		c-0.4-0.02-0.83-0.06-1.16,0.06c-1.56,0.55-3.16,0.18-4.67,0c-1.89-0.22-3.78,0.49-5.61-0.14c-0.56-0.19-1.01,0.48-1.53,0.06
		c0,0-0.01,0-0.01-0.01c-0.39,0.18-0.78,0.32-1.17-0.03c0,0-0.01,0-0.01,0c-0.6-0.36-1.07,0.3-1.64,0.19c-0.01,0-0.02,0-0.03-0.01
		c-0.96,0.14-1.93,0.24-2.89,0.02c0,0,0-0.01,0-0.01c0,0,0,0,0,0c-1.22,0.33-2.41,0.16-3.59-0.22c0,0-0.01,0-0.01-0.01
		c0.01,0.01,0.01,0.02,0.02,0.04c-0.07,0-0.14,0-0.2,0.01c0,0-0.01,0-0.01,0c-0.28,0.29-0.65,0.14-0.99,0.2
		c-0.01,0-0.01,0.01-0.02,0.01c0,0,0.01,0,0.01,0c-0.31,0.61-0.75,0.49-1.22,0.21c0,0,0.01-0.01,0.01-0.01c0,0,0,0,0,0
		c-0.32-0.08-0.63-0.16-0.95-0.25c0,0.01,0,0.01,0,0.02c-0.32-0.01-0.63,0-0.94,0.01c-0.35,0.05-0.71-0.05-1.19,0.26
		C261.31,42.51,261.31,42.51,261.69,42.81z M260.2,47.46c0.06-0.18,0.13-0.45,0.33-0.43c0.19,0.03,0.36,0.24,0.52,0.36
		c-0.06,0.36-0.3,0.38-0.54,0.39C260.3,47.79,260.09,47.77,260.2,47.46z M256.43,43.32c-0.02-0.21,0.06-0.46,0.28-0.44
		c0.97,0.06,1.99-0.5,3.05,0.2c-1.09,0.47-2.13,0.41-3.16,0.45C256.38,43.54,256.44,43.41,256.43,43.32z M251.59,43.24
		c0.42-0.29,0.83-0.32,1.22,0.03c0.04,0,0.08-0.01,0.12,0c0.38,0.1,0.74-0.37,1.11-0.04c0.05,0.05,0.02,0.2,0.02,0.3
		c-0.43-0.1-0.84,0.41-1.27,0.02c-0.01-0.01,0-0.02-0.01-0.03c0,0.01,0,0.01,0,0.02c-0.24,0.06-0.47,0.12-0.71,0.19
		c0,0,0,0.01,0,0.01c-0.31-0.03-0.73,0.05-0.47-0.49C251.6,43.24,251.59,43.24,251.59,43.24z M245.82,43.58
		c0.05-0.19,0.37-0.92,1-0.54c0.83,0.11,1.62,0.69,2.49,0.09c0.46-0.31,0.62,0.37,1.02,0.43c-1.33,0.12-2.6,0.7-3.95,0.2
		c-0.02,0-0.03,0-0.04,0C246.1,43.83,245.69,44.03,245.82,43.58z M244.33,43.51c0.45-0.21,0.77-0.05,0.97,0.37
		c0.07,0.14,0.09,0.41-0.05,0.4c-0.36-0.01-0.81,0.18-1.03-0.33c-0.03-0.08-0.18-0.13-0.28-0.2
		C244.07,43.67,244.19,43.58,244.33,43.51z M243.71,43.76c0.07,0,0.15,0,0.22,0c-0.04,0.6-0.65,0.45-0.96,0.69c0,0,0,0,0,0.01
		c0,0-0.01,0-0.01,0c0,0,0,0,0,0c0,0,0,0,0,0c-0.2-0.03-0.4-0.05-0.42-0.3c-0.04-0.32,0.19-0.38,0.43-0.41
		C243.21,42.88,243.46,43.49,243.71,43.76z M242.97,42.68c-0.52,0.12-0.83,0.28-1.31,0.02C242.13,42.39,242.45,42.58,242.97,42.68z
		 M239.75,44.6c0.11-0.93,1.14-0.48,1.55-1.01c0.13-0.17,0.44,0.05,0.46,0.35c0,0.2-0.05,0.5-0.27,0.43
		c-0.56-0.18-0.8,0.09-1.03,0.52c-0.09,0.17-0.28,0.3-0.5,0.2C239.74,45,239.72,44.81,239.75,44.6z M228.68,53.23
		c-0.04,0.15-0.19,0.27-0.26,0.35c-0.35-0.1-0.56-0.19-0.53-0.49c0.03-0.24,0.2-0.31,0.41-0.29
		C228.55,52.83,228.76,52.94,228.68,53.23z M366.71,54.79c-0.04,0.29-0.16,0.56-0.51,0.52c-0.42-0.05-0.29-0.41-0.3-0.65
		c-0.02-0.34,0.21-0.49,0.49-0.56C366.72,54.24,366.75,54.51,366.71,54.79z M403.99,58.03c-0.05-0.07-0.01-0.29,0.02-0.3
		c0.33-0.07,0.58,0.03,0.69,0.39C404.43,58.29,404.18,58.3,403.99,58.03z M421.66,56.09c-0.72-0.14-1.44,0.62-2.16,0.01
		c-0.16,0.01-0.33,0.02-0.49,0.03c-0.3,0.38-0.54-0.36-0.82-0.19c-0.03,0.04-0.06,0.09-0.08,0.15c-0.01,0-0.03-0.01-0.04-0.01
		c0,0.01-0.01,0.01-0.01,0.01c0-0.01,0-0.01,0-0.02c-0.22-0.07-0.45-0.15-0.66-0.22c-0.02,0-0.05,0-0.07-0.01c0,0,0.01,0,0.01,0.01
		c-0.65,0.33-1.3,0.08-1.94-0.01c0,0,0,0,0.01,0c-2.76-0.05-5.5-0.45-8.3-0.2c-1.41,0.13-2.87-0.38-4.31-0.48
		c-1.83-0.13-3.67-0.15-5.51-0.22c-0.05,0.03-0.09,0.04-0.14,0.06c-0.32,0.26-0.64,0.43-0.96-0.06c0,0,0-0.01,0-0.01c0,0,0,0,0,0
		c-0.32-0.05-0.69,0.07-0.94-0.24c0,0,0,0-0.01,0c-1.86-0.08-3.73-0.3-5.58,0.14c-0.18,0.04-0.3,0-0.41-0.14
		c-0.77-0.27-0.46,0.56-0.78,0.83c-0.15-0.41-0.27-0.75-0.39-1.09c-0.89-0.07-1.77-0.14-2.66-0.21c-0.39-0.2-0.79,0.44-1.18-0.01h0
		c-0.45,0.05-0.86,0.24-1.37,0.07c-0.4-0.13-0.89-0.16-1.36,0.16c-0.57,0.38-1.27,0.37-1.83-0.13c-0.31-0.27-0.58-0.36-0.93-0.15
		c0,0-0.01-0.01-0.01-0.01c0,0,0,0.01,0,0.01c-0.37,0.08-0.69,0.06-0.77-0.41c-2,0.22-3.97-0.06-5.95-0.28h0l0,0
		c-0.36,0.02-0.94,1.13-1-0.21c-0.36,0.24-0.77,0.19-1.17,0.23h0c-0.41,0.36-0.82,0.36-1.21-0.03l0,0
		c-0.53,0.01-1.09,0.24-1.55-0.27c-0.11-0.12-0.41-0.2-0.54-0.13c-1.15,0.58-2.28-0.1-3.41-0.05c-0.01,0-0.01,0-0.02,0c0,0,0,0,0,0
		c-0.39,0.18-0.79,0.46-1.2,0c-2.59,0.29-5.11-0.59-7.67-0.43c-1.92,0.12-3.81-0.43-5.72-0.08c0,0-0.01,0-0.01,0c0,0,0,0,0,0
		c-0.24,0.32-0.47,0.9-0.74,0.02c0,0,0,0,0.01,0c-0.27-0.28-0.62-0.16-0.94-0.18c0,0-0.01,0-0.01,0.01
		c-0.12,0.62-0.47,0.28-0.75,0.16c-0.07,0.03-0.13,0.06-0.2,0.08c0,0-0.01,0-0.01,0c0,0,0,0,0,0c0.04,0.23,0.09,0.45,0.19,0.96
		c-0.41-0.54-1.25-0.11-1.13-1.02c0,0,0-0.01,0.01-0.01c-0.02-0.07-0.05-0.21-0.07-0.2c-2.49,0.17-4.97,0.06-7.43-0.39
		c-0.14-0.03-0.3,0.08-0.45,0.12c-0.01,0-0.01,0-0.02-0.01c0,0,0.01,0,0.01,0.01c-0.21,0.1-0.44,0.17-0.62,0.31
		c-0.6,0.46-0.21-0.22-0.34-0.29c0,0,0,0,0,0c-0.88-0.22-1.75,0.01-2.63,0c0-0.01-0.01-0.01-0.01-0.02c0,0,0,0,0,0.01
		c-0.45-0.14-0.91-0.29-1.4-0.24c-0.01,0-0.02,0.01-0.03,0.01v0.01c-0.01,0-0.01,0-0.01,0c-0.74,0.8-1.27-0.12-1.89-0.25
		c-0.01,0-0.01,0-0.02,0c-1.04,0.23-2.08,0.2-3.12,0.01l0,0c-0.12,0.52-0.36,0.62-0.73,0.19c-0.09-0.05-0.18-0.11-0.27-0.16
		c0,0,0,0-0.01,0c-0.29,0.35-0.59,0.55-0.9,0.03c0,0-0.01,0-0.01-0.01c-1.41-0.29-2.88,0.31-4.27-0.27c0,0-0.01,0-0.01,0
		c-0.34,0.58-0.69,0.14-1.04,0c-0.06,0.01-0.12,0.01-0.18,0.01c0,0-0.01,0-0.01,0c0,0,0.01,0.01,0.01,0.01
		c-0.2,0.24-0.48,0.19-0.73,0.19c0,0,0.01-0.01,0.01-0.02c0,0-0.01,0-0.01,0.01c-1.25-0.13-2.51-0.15-3.77-0.34
		c-0.71-0.1-1.57,0.15-2.39,0.12c-1.02-0.04-2.06,0.03-3.05,0.23c-0.67,0.13-0.23-0.77-0.57-0.53c-1.04,0.73-2.46-0.57-3.3,0.71
		c-0.3-1.03-0.92-0.7-1.51-0.45c-0.01,0-0.03,0-0.04,0c0.01,0,0.02,0.01,0.03,0.01c-0.65,0.22-1.3,0.3-1.95,0.01
		c0,0,0.01-0.01,0.01-0.01c0,0,0,0,0,0c-1.35-0.2-2.69-0.72-4.08-0.23c0,0-0.01,0-0.01,0c-0.61,0.33-1.33-0.25-1.91,0.22
		c-0.01,0.01-0.01,0.01-0.02,0.02c0,0,0,0,0,0c0,0,0,0-0.01,0c0,0,0,0,0-0.01c-0.24-0.27-0.47-0.49-0.87-0.27
		c-0.56,0.3-1.15,0.14-1.73,0.04c-0.01,0-0.01,0-0.02,0c0,0,0,0,0.01,0c-1.44-0.16-2.9,0.09-4.32-0.24
		c-1.51,0.3-3.01-0.14-4.51-0.06c-1.95,0.09-3.91-0.42-5.83,0.19c-0.78,0.24-1.48-0.16-2.16-0.29c-1.17-0.22-2.21,0.54-3.32,0.18
		c-0.01,0-0.01,0-0.02,0c-0.33,0.43-0.64,0.13-0.95-0.02c0,0,0,0-0.01,0c-2-0.18-4.04-0.39-6.01-0.03c-0.97,0.17-1.82,0.01-2.7-0.13
		c-1.29-0.2-2.47,0.41-3.73,0.33c-2.23-0.15-4.47,0.07-6.69,0.01c-2.22-0.06-4.44-0.02-6.65,0c-2,0.02-4-0.08-6-0.01
		c-0.59,0.02-1.17,0.57-1.78,0.12c0,0-0.01,0-0.01,0c-0.61,0.18-0.97,0.5-0.8,1.19c0.08,0.33,0.26,0.77-0.26,0.85
		c-0.49,0.08-0.61-0.42-0.77-0.76c-0.2-0.43,0.31-0.91-0.08-1.34c0,0,0.01,0,0.01,0c-0.1-0.06-0.22-0.2-0.3-0.17
		c-1.95,0.51-3.97-0.09-5.91,0.41c-0.01-0.01-0.01,0-0.02-0.01c-0.34,0-0.7,0.13-0.95-0.2c-0.01-0.01-0.02,0-0.02-0.01h0.01
		c-0.01,0-0.02,0-0.02-0.01c-0.55,0.15-1.1,0.33-1.69,0.22c-0.01,0-0.01,0.01-0.02,0.01c-1.06,0.04-2.19-0.73-3.15,0.3
		c-0.97-0.8-2.07-0.33-3.12-0.33c-1.53-0.01-3.05-0.02-4.58,0c-1.41,0.02-2.8,0.29-4.22,0.08c-1.15-0.17-2.27,0.03-3.41,0.36
		c-0.94,0.27-2-0.08-3.01-0.12c-2.97-0.11-5.93,0.08-8.9,0.06c-0.02-0.01-0.03-0.01-0.05-0.01c-0.33,0.24-0.64,0.19-0.93-0.04
		c0,0-0.01,0-0.01,0c-0.63,0-1.26-0.01-1.88-0.01c-0.03,0.01-0.05,0.01-0.08,0.01c-0.44,0.3-0.93,0.13-1.4,0.18v0c0,0,0,0,0,0
		c0,0-0.01,0-0.01,0c0,0,0,0,0,0c-0.72-0.13-1.51,0.12-2.17-0.38c0,0,0,0,0-0.01c-0.33,0.33-0.77,0.34-1.2,0.38
		c-0.01-0.01-0.02-0.01-0.04-0.02c0.01,0.01,0.02,0.01,0.03,0.02c-0.54,0.01-1.09,0.01-1.64,0.01c-0.26-0.43-0.83,0.75-1-0.19
		c0,0,0,0,0,0c-0.15-0.01-0.3-0.03-0.45-0.04c0-0.01,0-0.01,0-0.02c0,0.01,0,0.02-0.01,0.03c-1.06,0.75-2.21,0.24-3.33,0.27
		c-0.69,0.43-1.44,0.26-2.17,0.21c-0.48,0-0.96,0-1.45,0c-0.2,0-0.38-0.04-0.48-0.25c-0.16,0.08-0.32,0.17-0.47,0.26
		c-0.58,0.31-1.47-0.37-1.88,0.57c-0.05,0.12-0.26-0.1-0.32-0.23c-0.2-0.44,0.16-0.61,0.45-0.63c0.58-0.04,1.16,0.02,1.74,0.04
		c0-0.09,0.01-0.17,0.01-0.26c-0.18-0.06-0.43-0.23-0.28-0.35c0.21-0.17,0.57-0.21,0.76,0.14c0.17-0.08,0.33-0.16,0.47-0.24
		c0.87,0.16,1.82-0.5,2.64,0.24c0,0.01-0.01,0.01-0.01,0.02c0.01,0,0.01,0,0.02-0.01c0.16,0.27,0.32,0.02,0.48,0
		c0.01-0.01,0.01,0,0.02-0.01c-0.01,0-0.02,0-0.03,0c-0.07-0.24-0.36-0.5-0.04-0.72c0.31-0.22,0.32,0.22,0.5,0.3
		c0.17,0.07,0.35,0.13,0.53,0.2c0,0.01-0.01,0.01-0.02,0.02c0-0.01,0.01-0.01,0.02-0.01c0.07,0.01,0.13,0,0.2,0c0,0,0,0,0,0
		c0-0.01-0.01-0.01-0.01-0.02c0.3-0.17,0.61-0.29,0.96-0.25c0,0,0.01,0.01,0.01,0.01c0,0,0-0.01,0-0.01
		c0.08-0.13-0.04-0.55,0.32-0.24c0.08,0.07-0.06,0.36,0.17,0.47c0.23,0,0.47,0,0.7,0c0.01,0,0.02,0,0.03-0.01c-0.01,0-0.01,0-0.02,0
		c0.26-0.76,0.79-0.15,1.19-0.23c0,0,0,0,0,0l0,0c0,0,0.01,0,0.01,0c0,0,0,0.01,0,0.01l0.01,0.01c0.06-0.13,0.1-0.35,0.19-0.38
		c0.28-0.08,0.26,0.2,0.33,0.36c0,0,0,0.01,0,0.01c0.01,0,0-0.01,0.01-0.01c0.39,0.08,0.77-0.24,1.15,0.02
		c0.71-0.98,1.58-0.34,2.4-0.24c0,0,0,0.01,0,0.01c0,0,0.01-0.01,0.01-0.01c0.08,0.07,0.15,0.14,0.23,0.21c0,0,0.01,0.01,0.01,0.01
		c0.8-0.1,1.59-0.23,2.39,0.03c0,0.03,0,0.05,0,0.08c0.01-0.02,0.02-0.04,0.03-0.07c1.4-0.49,2.8-0.2,4.23-0.17
		c1.37,0.03,2.89-0.04,4.09-0.99c0-0.01,0-0.02,0-0.04c0.66,0.08,1.31,0.16,1.96,0.23c0,0-0.01,0.01-0.01,0.01c0.01,0,0.02,0,0.02,0
		c0.71,0.03,1.43-0.19,2.16,0.01c-0.01,0.01-0.01,0.01-0.02,0.01c0.02,0,0.03-0.01,0.05-0.01l-0.01-0.03c0,0,0.01,0,0.01,0
		c-0.02,0-0.04-0.01-0.05-0.01c0.42-0.57,1.03-0.49,1.59-0.37c0.59,0.13,1.15,0.27,1.7-0.12c0.11-0.08,0.34-0.16,0.42-0.11
		c0.64,0.42,1.41,0.09,2.07,0.39c0,0,0,0,0,0c1.11,0.17,2.21-0.76,3.33-0.04c0.02,0.01,0.04,0.01,0.06,0.02
		c2.81-0.54,5.65-0.44,8.49-0.43c2.43,0.02,4.88-0.36,7.3-0.2c2.49,0.16,4.94-0.46,7.43-0.1c1.69,0.25,3.36-0.26,5.05-0.18
		c0,0-0.01-0.01-0.01-0.01c0.31-0.19,0.59-1.11,0.95-0.03c0,0,0,0,0,0c0.02,0,0.03,0,0.04,0.01c0.58-0.3,1.14,0.12,1.67,0.08
		c2.6-0.23,5.2-0.07,7.79-0.1c2.12-0.03,4.24-0.23,6.34,0.2c0.07,0.02,0.17,0,0.23-0.03c1.54-0.69,3.11,0.01,4.66-0.14
		c0.55-0.05,1.11,0.12,1.58-0.51c0.38-0.51,0.35,0.56,0.6,0.41c1.19-0.71,2.41-0.06,3.6-0.11c2.27-0.1,4.54-0.05,6.81-0.06
		c0.01-0.01,0.02,0,0.04-0.01c-0.02,0-0.04,0-0.07,0c0.25-0.28-0.65-0.46-0.1-0.69c0.65-0.26,0.3,0.59,0.67,0.69c0,0,0,0-0.01,0
		c0.01,0.01,0.02,0,0.04,0.01c2.17-0.06,4.36-0.29,6.52-0.13c2.4,0.18,4.77-0.14,7.15-0.09c-0.01-0.01-0.02-0.01-0.04-0.02
		c0.55,0,1.09,0.01,1.63,0.02c-0.04,0.03-0.08,0.04-0.13,0.06c0.06-0.02,0.11-0.03,0.17-0.04c4.88,0,9.76,0.01,14.64,0.01
		c0.02,0,0.04,0,0.05,0c-0.03-0.01-0.06-0.01-0.09-0.03c1.03-0.32,2.08-0.43,3.15-0.21c0,0.01,0,0.02,0,0.02c0.01,0,0.03,0,0.04,0
		c0.84,0.37,1.74,0.1,2.54,0.01c2.21-0.23,4.39,0.32,6.6,0.01c1.22-0.17,2.41,0.71,3.69,0.21c0.39-0.16,0.83-0.17,1.26-0.25
		c-0.01-0.01-0.01-0.01-0.02-0.01c0.34-0.52,0.67-0.44,0.99,0.02c-0.01,0.01-0.01,0.01-0.02,0.01c0.02,0,0.04,0,0.06,0
		c2.13,0.35,4.27,0.38,6.42,0.35c2.06-0.03,4.13-0.12,6.17,0.11c1.64,0.18,3.25,0.3,4.89,0.18c-0.01,0-0.02-0.01-0.03-0.01
		c0.81-0.3,1.61,0.01,2.42,0.06c-0.03,0.01-0.07,0.02-0.1,0.03c0.05-0.01,0.09-0.01,0.14-0.02c0.59,0.24,1.19,0.35,1.84,0.28
		c1.12-0.13,2.25,0.17,3.34,0.13c1.28-0.05,2.53-0.2,3.82,0c1.53,0.23,3.09,0.23,4.62,0.46c0.53,0.08,1.1,0.16,1.46-0.11
		c0.6-0.43,1.1-0.22,1.64-0.07c0.59-0.45,1.82-0.35,2.19,0.17c0,0,0,0-0.01,0c0.02,0,0.03,0,0.05,0.01
		c1.77-0.16,3.51,0.26,5.28,0.29c0.46,0.01,0.93,0.01,1.39,0.01c-0.01,0-0.02-0.01-0.03-0.01c0.82-0.51,1.63,0.07,2.44,0.04
		c-0.03,0.01-0.07,0.02-0.1,0.03c0.05-0.01,0.1-0.01,0.15-0.02c1.46,0.16,2.92,0.3,4.38,0.5c0.27,0.04,0.55,0.1,0.81,0.05
		c2.11-0.35,4.18,0.54,6.29,0.25c1.01-0.14,1.82,0.7,2.84,0.59c-0.01,0-0.01-0.01-0.02-0.01c0.4-0.21,0.81-0.48,1.2,0.03
		c0,0,0,0,0,0c0.02,0,0.04,0,0.05,0.01c3.11,0.57,6.28,0.41,9.41,0.81c2.18,0.28,4.36,0.52,6.54,0.77c0.34,0.04,0.68,0.03,1.03,0.04
		c1-0.09,2.1,0.39,2.99-0.44c0.04-0.03,0.25,0.14,0.38,0.22c-0.02,0.02-0.04,0.02-0.05,0.04c0.04-0.02,0.08-0.02,0.11-0.04
		c0.16,0.01,0.44-0.02,0.46,0.03c0.48,1.4,1.73,1.16,2.78,1.26c0.85,0.08,1.69,0.72,2.56,0.09c0.43,0.89,1.46,0.52,2.09,0.99
		c0,0,0,0.01,0.01,0.01c0.31,0.07,0.6,0.13,0.91,0.2c0.49-0.06,0.96,0.33,1.46,0.02c0,0,0,0,0,0c0,0,0.01,0,0.01,0c0,0,0,0,0,0
		c0,0,0,0,0,0c0.28,0.02,0.57,0.06,0.61,0.39C422.1,56.05,421.85,56.07,421.66,56.09z"/>
	<path class="st0" d="M65.81,63.64c-0.2-0.01-0.41,0.04-0.6-0.01c0.06,0.05,0.11,0.1,0.17,0.1c2.98,0.22,5.95-0.24,8.92-0.2
		c0.01,0,0.02-0.01,0.02-0.02C71.48,63.15,68.65,63.72,65.81,63.64z"/>
	<path class="st0" d="M94.58,61.28c-0.11,0.11-0.24,0.2-0.39,0.25c-0.11,0.03-0.23,0.06-0.33,0.02c-0.25,0.04-0.52-0.04-0.77,0
		c0,0,0,0,0,0c-0.02,0-0.04,0-0.06,0c-0.05,0.06-0.1,0.12-0.16,0.22c-0.85,0.22-1.74,0.1-2.58,0.35c-0.24,0.07-0.54,0.14-0.68-0.03
		c-0.39-0.46-0.73-0.08-1.07,0c0.12,0.49,0.53,0.24,0.82,0.25c0.87,0.04,1.69-0.27,2.58-0.26c1.29,0.01,2.66,0.01,3.84-0.73
		c-0.36-0.08-0.71-0.16-1.07-0.24C94.67,61.17,94.63,61.23,94.58,61.28z"/>
	<path class="st0" d="M130.04,57.29c0.15,0.07,0.28,0.1,0.37,0.05c-0.12-0.02-0.23-0.04-0.35-0.05
		C130.05,57.29,130.04,57.29,130.04,57.29z"/>
	<path class="st0" d="M123.3,57.84c0.15,0.54,0.75,0.56,1,0.45c1.8-0.85,3.84-0.36,5.67-0.99c-1.75,0.16-3.5,0.2-5.21,0.63
		C124.28,58.04,123.77,58.05,123.3,57.84z"/>
	<path class="st0" d="M112.07,59.33c-0.86-0.09-1.55,0.26-2.27,0.55c1.37-0.13,2.71-0.44,4.09-0.4c0.57,0.03,1.19-0.02,1.67-0.46
		C114.42,59.41,113.24,59.45,112.07,59.33z"/>
	<path class="st0" d="M95.41,61.08c-0.05-0.11-0.04-0.2-0.01-0.3c-0.12-0.03-0.24-0.05-0.36-0.08c-0.05,0.03-0.1,0.04-0.14,0.09
		c-0.03,0.05-0.05,0.1-0.08,0.15c0.37-0.08,0.66,0.19,0.96,0.41c1.13,0.01,2.27,0.05,3.39,0c0.31-0.01,0.66-0.1,0.84-0.43
		C98.47,60.99,96.97,61.56,95.41,61.08z"/>
	<path class="st0" d="M94.82,60.93c-0.09,0.02-0.19,0.06-0.3,0.13c0.06,0.02,0.13,0.03,0.19,0.04C94.75,61.05,94.79,61,94.82,60.93z
		"/>
	<path class="st0" d="M77.69,63.12c-1.02,0.17-2.04,0.38-3.08,0.38c1.47,0.48,2.81-0.25,4.2-0.52
		C78.43,62.81,78.05,63.05,77.69,63.12z"/>
	<path class="st0" d="M53.53,64.15c0.19,1.25,1.37,1.01,2.13,1.4c0.09-0.4-0.15-0.61-0.44-0.84c-0.4-0.31-0.7-0.71-0.71-1.24l0,0
		C53.96,63.39,53.95,64.05,53.53,64.15z"/>
	<path class="st0" d="M186.52,55.42c1.24,0.37,2.5,0.69,3.76,0.07C189.03,55.79,187.78,55.42,186.52,55.42z"/>
	<path class="st0" d="M103.94,60.48c-1.2,0.38-2.45,0.33-3.68,0.43C101.54,61.22,102.77,61.15,103.94,60.48z"/>
	<path class="st0" d="M53.72,63.7c-0.68,0.26-1.34,0.14-1.97-0.33c-0.01-0.02-0.02-0.03-0.02-0.04c-0.04,0.04-0.08,0.08-0.12,0.12
		c0,0-0.01,0-0.01,0c0,0,0,0,0,0c0.36,1.01,1.31,0.42,1.93,0.71c0,0,0,0,0,0c0,0,0-0.01,0-0.01C53.6,64.01,53.65,63.84,53.72,63.7z"
		/>
	<path class="st0" d="M54.72,63.44c-0.1-0.02-0.21-0.02-0.31-0.01c0.03,0.01,0.06,0.02,0.09,0.04c0,0,0,0.01,0,0.01l0.08,0.01h0.09
		c0.02,0,0.03,0,0.04,0.01c-0.01-0.01-0.02-0.01-0.03-0.02C54.7,63.47,54.71,63.45,54.72,63.44z"/>
	<path class="st0" d="M53.72,63.7c0.13-0.05,0.26-0.09,0.4-0.17c0.09-0.06,0.19-0.08,0.3-0.1C54,63.27,53.83,63.44,53.72,63.7z"/>
	<path class="st0" d="M406.01,58.94c-1.41-0.15-2.84,0.05-4.24-0.19C403.16,59.23,404.58,59.2,406.01,58.94z"/>
	<path class="st0" d="M63.28,63.37c-0.23,0.08-0.46,0.17-0.69,0.23C62.84,63.54,63.07,63.47,63.28,63.37z"/>
	<path class="st0" d="M61.53,63.51c-0.08-0.07-0.15-0.12-0.23-0.16c-0.51,0.1-1.05-0.07-1.55,0.11c0.46,0.36,1.64,0.4,2.65,0.19
		C62.12,63.69,61.83,63.68,61.53,63.51z"/>
	<path class="st0" d="M105.56,59.85c-0.02-0.06-0.01-0.13-0.02-0.19c-0.04,0-0.07,0-0.11,0c0,0.03,0,0.06-0.01,0.09
		c-0.17,0.67-0.79,0.48-1.21,0.65c0.91,0.11,1.82,0.26,2.68-0.18C106.4,60.29,105.84,60.61,105.56,59.85z"/>
	<path class="st0" d="M317.92,55c1.1,0.6,2.24,0.74,3.42,0.2C320.18,55.36,319.03,55.42,317.92,55z"/>
	<path class="st0" d="M59.42,63.32c0.03,0.05,0.06,0.1,0.09,0.15c0,0,0.01,0,0.01,0c0.07-0.01,0.15-0.01,0.23-0.01
		c0.08-0.06,0.14-0.11,0.21-0.16C59.78,63.32,59.6,63.34,59.42,63.32z"/>
	<path class="st0" d="M59.96,63.3c0.45-0.06,0.91-0.17,1.34,0.05c0.13-0.03,0.25-0.06,0.37-0.13C60.58,63.09,60.28,63.08,59.96,63.3
		z"/>
	<path class="st0" d="M107.12,60.15c0.8-0.1,1.68,0.48,2.43-0.17C108.77,60.32,107.9,59.77,107.12,60.15z"/>
	<polygon class="st0" points="107.02,60.16 107.01,60.15 107.01,60.16 	"/>
	<path class="st0" d="M130.49,57.18c-0.01,0.08-0.04,0.14-0.08,0.17c0.63,0.1,1.26,0.15,1.84-0.18
		C131.67,57.33,131.06,57.01,130.49,57.18z"/>
	<path class="st0" d="M130.02,57.29c0.01,0,0.03,0,0.04,0.01c0.06-0.01,0.13-0.01,0.19-0.02c0.08-0.04,0.16-0.07,0.24-0.1
		c0.01-0.04,0.02-0.08,0.01-0.14C130.4,57.24,130.21,57.26,130.02,57.29z"/>
	<path class="st0" d="M136.2,56.51c0.03,0.03,0.05,0.06,0.08,0.09c0.78-0.06,1.59,0.05,2.28-0.43c-0.77,0.16-1.55,0.26-2.33,0.34
		C136.22,56.51,136.21,56.51,136.2,56.51z"/>
	<path class="st0" d="M413.03,59.2c0.64,0.51,1.21,0.51,1.67-0.22C414.19,59.42,413.59,59.13,413.03,59.2z"/>
	<path class="st0" d="M79.13,63.04c0.53,0.16,1.05,0.17,1.58-0.05C80.18,62.96,79.65,62.97,79.13,63.04z"/>
	<path class="st0" d="M120.28,58.27c-0.27,0.05-0.54,0.05-0.78,0.19c0.54,0.15,1.08,0.33,1.66,0.23c-0.2-0.14-0.41-0.29-0.61-0.44
		C120.46,58.24,120.37,58.24,120.28,58.27z"/>
	<path class="st0" d="M136.03,56.54c-0.26,0.04-0.5,0.11-0.71,0.29c0.36,0.13,0.79,0.5,0.95-0.23
		C136.15,56.62,136.07,56.59,136.03,56.54z"/>
	<path class="st0" d="M136.03,56.54c0.06-0.01,0.11-0.02,0.17-0.03c-0.06-0.07-0.12-0.13-0.17-0.19
		C136,56.42,136,56.49,136.03,56.54z"/>
	<path class="st0" d="M171.63,55.6c0.58-0.04,1.16,0.46,1.73,0.02C172.78,55.72,172.2,55.42,171.63,55.6z"/>
	<path class="st0" d="M121.01,58.31c0.08,0.08,0.14,0.19,0.15,0.38c0.21-0.06,0.35-0.2,0.44-0.41
		C121.4,58.36,121.2,58.34,121.01,58.31z"/>
	<path class="st0" d="M121.01,58.31c-0.21-0.19-0.59-0.16-0.82-0.32c0.12,0.09,0.24,0.17,0.36,0.26
		C120.7,58.25,120.86,58.28,121.01,58.31z"/>
	<path class="st0" d="M56.38,63.42c-0.48,0.11-0.96,0.23-1.46,0.09c-0.02-0.01-0.03-0.01-0.05-0.02c-0.04,0.01-0.08,0.01-0.15,0
		c0.57,0.36,1.12,0.2,1.67-0.05c0-0.01,0-0.02,0-0.03C56.39,63.42,56.38,63.42,56.38,63.42z"/>
	<path class="st0" d="M54.87,63.49c0.09-0.03,0.11-0.12,0.07-0.27c-0.08,0.08-0.14,0.15-0.22,0.23
		C54.77,63.45,54.82,63.47,54.87,63.49z"/>
	<path class="st0" d="M57.99,63.63c-0.52-0.04-1.01-0.32-1.56-0.21c-0.01,0.01-0.02,0.03-0.04,0.03c0.58-0.01,1.1,0.35,1.69,0.23
		c0-0.07,0-0.13-0.01-0.2C58.04,63.5,58.01,63.54,57.99,63.63z"/>
	<path class="st0" d="M56.43,63.41c0.01-0.01,0.03-0.01,0.04-0.04c0.03-0.05,0.01-0.1-0.07-0.15c-0.01,0.06-0.01,0.13-0.01,0.19
		C56.4,63.41,56.41,63.42,56.43,63.41z"/>
	<path class="st0" d="M287.67,54.94c0.54,0.24,1.07-0.03,1.61-0.08C288.74,54.77,288.2,54.92,287.67,54.94z"/>
	<path class="st0" d="M216.71,54.96c0.48,0.29,0.9,0.21,1.28-0.2C217.59,54.98,217.16,54.99,216.71,54.96z"/>
	<path class="st0" d="M158.94,55.83c-0.34-0.19-0.77-0.1-1.08-0.36C158.05,56.04,158.52,55.84,158.94,55.83z"/>
	<path class="st0" d="M384.74,57.98c0.3,0.31,0.59,0.38,0.88-0.02C385.33,58.08,385.04,57.92,384.74,57.98z"/>
	<path class="st0" d="M425.96,59.22c0.33,0.62,0.66,0.62,0.95-0.03C426.6,59.44,426.28,59.43,425.96,59.22z"/>
	<path class="st0" d="M355.93,56.55c0.32,0.23,0.63,0.07,0.95-0.01C356.56,56.44,356.24,56.42,355.93,56.55z"/>
	<path class="st0" d="M59.23,63.39c-0.19,0.05-0.4,0.04-0.58,0.11c0.29,0.13,0.57,0.33,0.86-0.03c0,0,0,0,0,0
		C59.35,63.47,59.27,63.44,59.23,63.39z"/>
	<path class="st0" d="M59.23,63.39c0.07-0.02,0.13-0.04,0.19-0.07c0,0,0,0,0,0c-0.06-0.1-0.12-0.2-0.18-0.31
		C59.18,63.17,59.16,63.3,59.23,63.39z"/>
	<path class="st0" d="M63.92,63.76c0.46,0.26,0.67,0.03,0.85-0.26c-0.02-0.02-0.03-0.03-0.05-0.05
		C64.44,63.49,64.08,63.33,63.92,63.76z"/>
	<path class="st0" d="M156.9,55.62c0.06,0.18,0.16,0.37,0.36,0.34c0.25-0.03,0.33-0.26,0.35-0.49l0,0
		C157.4,55.64,157.16,55.69,156.9,55.62z"/>
	<path class="st0" d="M170.92,55.13c-0.06,0.16,0.01,0.35-0.13,0.48c0.07,0.14,0.15,0.16,0.24,0.03
		C170.87,55.49,170.9,55.3,170.92,55.13z"/>
	<path class="st0" d="M246.57,54.5c-0.02,0.14-0.05,0.32-0.01,0.33c0.25,0.11,0.49,0.1,0.68-0.1
		C246.96,54.82,246.76,54.68,246.57,54.5z"/>
	<path class="st0" d="M360.97,56.78c-0.23-0.1-0.5-0.03-0.73-0.14C360.38,57.21,360.69,56.91,360.97,56.78z"/>
	<path class="st0" d="M58.1,63.46c0.03,0.04,0.05,0.08,0.03,0.13c-0.02,0.06-0.04,0.09-0.06,0.09c0.15,0.01,0.29-0.01,0.39-0.11
		C58.36,63.58,58.21,63.43,58.1,63.46z"/>
	<path class="st0" d="M58.1,63.46c-0.01-0.01-0.02-0.03-0.04-0.04c0,0.02,0,0.04,0,0.06C58.08,63.47,58.09,63.46,58.1,63.46z"/>
	<path class="st0" d="M387.41,57.81c-0.22,0.19-0.52,0.07-0.76,0.18C386.95,58.11,387.28,58.39,387.41,57.81z"/>
	<path class="st0" d="M363.14,56.81c0.14,0.24,0.28,0.06,0.43,0.01C363.43,56.72,363.29,56.5,363.14,56.81z"/>
	<path class="st0" d="M284.7,54.7c-0.05,0.15-0.21,0.34,0.09,0.41c0.29,0.06,0.37-0.16,0.4-0.39c0,0-0.01,0-0.01,0
		C285.01,54.84,284.85,54.85,284.7,54.7z"/>
	<path class="st0" d="M210.59,55.12c-0.2-0.08-0.44-0.02-0.65-0.1C210.1,55.3,210.33,55.28,210.59,55.12z"/>
	<path class="st0" d="M51.7,63.27c-0.47-1.07-1.36-1.55-2.41-1.78c0.75,0.36,1.36,0.88,1.71,1.67c0.1,0.23,0.36,0.26,0.6,0.28
		C51.62,63.37,51.65,63.32,51.7,63.27z"/>
	<path class="st0" d="M51.7,63.27c0.01,0.02,0.02,0.03,0.02,0.05c0.04-0.04,0.07-0.08,0.11-0.12c0,0,0,0,0-0.01
		c0,0-0.01,0-0.01,0.01C51.78,63.22,51.74,63.24,51.7,63.27z"/>
	<path class="st0" d="M379.99,44.69c0.65,0.11,1.3,0.18,1.97,0.08c0.04-0.02,0.08-0.05,0.12-0.07c-1.52-0.2-3.01-0.64-4.56-0.49
		c0,0.03,0.01,0.04,0.02,0.06c0.54,0.04,1.08,0.15,1.62,0.26C379.42,44.33,379.78,44.54,379.99,44.69z"/>
	<path class="st0" d="M127.91,47.82c0.15-0.03,0.29-0.05,0.44-0.04c-0.92-0.26-1.84-0.54-2.67,0.21c0.04,0.03,0.08,0.04,0.12,0.06
		C126.51,47.97,127.2,47.77,127.91,47.82z"/>
	<path class="st0" d="M80.63,50.19c-1.16-0.11-1.97,0.61-2.84,1.19c0.12-0.02,0.23-0.06,0.34-0.09c0.71-0.34,1.4-0.72,2.17-0.93
		C80.41,50.3,80.52,50.24,80.63,50.19z"/>
	<path class="st0" d="M377.2,44.24c0.03-0.02,0.06-0.02,0.09-0.04c-0.5-0.49-1.08-0.43-1.68-0.24c0.06,0.07,0.13,0.11,0.2,0.16
		C376.25,44.3,376.74,44.17,377.2,44.24z"/>
	<path class="st0" d="M197.4,45.45c-0.63,0.17-1.45-0.46-1.93,0.43c0.04,0.01,0.08,0.01,0.12,0.02c0.52-0.21,1.11-0.14,1.64-0.34
		C197.29,45.52,197.34,45.49,197.4,45.45z"/>
	<path class="st0" d="M132.44,48.01c-0.39-0.73-0.91-0.55-1.46-0.2c0.02,0.03,0.05,0.05,0.07,0.08c0.42,0.05,0.86-0.02,1.26,0.16
		C132.35,48.03,132.4,48.02,132.44,48.01z"/>
	<path class="st0" d="M110.83,47.77c0.08-0.01,0.17-0.01,0.25-0.02c-0.59-0.48-1.22-0.7-1.93-0.21c0.07,0.03,0.14,0.04,0.21,0.07
		C109.85,47.58,110.34,47.64,110.83,47.77z"/>
	<path class="st0" d="M198.34,45.47c0,0,0.01,0,0.01,0.01c0-0.03,0.02-0.05,0.02-0.08c-0.25-0.14-0.49-0.12-0.71,0.05
		c0.01,0.04,0.01,0.08,0.01,0.12C197.91,45.89,198.12,45.62,198.34,45.47z"/>
	<path class="st0" d="M354.57,42.08c0.06-0.01,0.12,0,0.18-0.02c-0.43-0.48-0.89-0.65-1.44-0.18c0.03,0,0.05,0.01,0.08,0.01
		C353.81,41.73,354.18,41.98,354.57,42.08z"/>
	<path class="st0" d="M423.81,52.05c-0.28-0.26-0.53-0.62-0.97-0.25h0l0,0C423.22,51.68,423.43,52.2,423.81,52.05z"/>
	<path class="st0" d="M311.65,40.77c0.1-0.18-0.03-0.61,0.37-0.74c0.01-0.02,0.02-0.05,0.03-0.07c-0.16-0.02-0.32-0.27-0.48,0
		c0.01,0.03,0,0.07,0,0.1C311.77,40.32,311.6,40.58,311.65,40.77z"/>
	<path class="st0" d="M192.85,45.76c0.01,0,0.01,0,0.02,0c0-0.02,0-0.05,0.01-0.07c-0.21-0.04-0.39-0.01-0.51,0.19
		c0.03,0.01,0.05,0.03,0.07,0.06C192.59,45.93,192.77,45.96,192.85,45.76z"/>
	<path class="st0" d="M261.63,40.72c0.02-0.02,0.04-0.04,0.06-0.06c-0.32-0.32-0.65-0.32-0.97,0c0.03,0.01,0.05,0.03,0.08,0.04
		C261.08,40.65,261.35,40.76,261.63,40.72z"/>
	<path class="st0" d="M342.58,41.11c0.07-0.01,0.14-0.02,0.21-0.01c-0.43-0.39-0.84-0.4-1.24,0.04c0.04,0.02,0.07,0.01,0.11,0.02
		C341.96,41.07,342.27,41.03,342.58,41.11z"/>
	<path class="st0" d="M418.05,50.85c0.01,0.02,0.03,0.04,0.04,0.06c0.24,0,0.43,0.19,0.68,0.21
		C418.59,50.87,418.46,50.49,418.05,50.85z"/>
	<path class="st0" d="M344.58,41.49c0.02-0.02,0.05-0.04,0.07-0.06c-0.31-0.1-0.61-0.55-0.95-0.04c0.03,0.01,0.06,0.03,0.09,0.04
		C344.06,41.38,344.32,41.55,344.58,41.49z"/>
	<path class="st0" d="M425.74,52.73C425.74,52.73,425.74,52.73,425.74,52.73c-0.19-0.26-0.36-0.59-0.74-0.23c0,0,0,0,0,0
		C425.26,52.52,425.47,52.72,425.74,52.73C425.73,52.73,425.73,52.73,425.74,52.73z"/>
	<path class="st0" d="M315.68,40.16c0.05-0.17,0.22-0.38-0.02-0.49c-0.29-0.13-0.3,0.27-0.51,0.32c0.05,0.06,0.11,0.09,0.17,0.12
		c0.08,0.01,0.17,0.02,0.24,0.05C315.6,40.15,315.64,40.16,315.68,40.16z"/>
	<path class="st0" d="M421.41,51.61c0.21,0.21,0.5,0.29,0.75,0.43C421.99,51.77,421.78,51.56,421.41,51.61z"/>
	<path class="st0" d="M267.94,40.63c-0.19-0.29-0.46-0.24-0.73-0.19c0.02,0.03,0.05,0.07,0.07,0.1c0.19,0.11,0.38,0.17,0.6,0.14
		C267.9,40.66,267.92,40.65,267.94,40.63z"/>
	<path class="st0" d="M106.64,47.59c0.04-0.02,0.08-0.04,0.12-0.06c-0.26-0.32-0.5-0.27-0.73,0.04c0.02,0.03,0.04,0.05,0.07,0.07
		C106.28,47.63,106.46,47.55,106.64,47.59z"/>
	<path class="st0" d="M178.39,46.92c0.03-0.02,0.05-0.04,0.08-0.07c-0.26-0.41-0.5-0.06-0.74,0.02c0.05,0.05,0.1,0.08,0.15,0.12
		C178.05,46.99,178.22,46.9,178.39,46.92z"/>
	<path class="st0" d="M89.66,56.79c-0.2,0.01-0.42-0.02-0.61,0.05C89.25,56.82,89.45,56.81,89.66,56.79z"/>
	<path class="st0" d="M90.21,56.57c-0.13,0.07-0.25,0.18-0.39,0.21c-0.04,0.01-0.09,0.01-0.14,0.02c0.16-0.01,0.32-0.03,0.48-0.04
		c1.7-0.12,3.36-0.49,5.04-0.76c1.28-0.2,2.6-0.1,3.86-0.47c0.05-0.04,0.09-0.07,0.13-0.11c-0.03-0.03-0.06-0.04-0.1-0.07
		C96.1,55.51,93.14,55.92,90.21,56.57z"/>
	<path class="st0" d="M90.21,56.57c-2.26-0.13-4.43,0.5-6.63,0.82c-1.3,0.19-2.65,0.07-3.9,0.58c0.6-0.25,1.21,0,1.83-0.05
		c2.4-0.18,4.73-0.74,7.11-1.02c0.12-0.14,0.29-0.21,0.52-0.21C89.51,56.69,89.87,56.7,90.21,56.57z"/>
	<path class="st0" d="M89.68,56.79c-0.01,0-0.02,0-0.03,0C89.67,56.79,89.67,56.79,89.68,56.79z"/>
	<path class="st0" d="M88.71,57.19c0.08-0.2,0.2-0.3,0.34-0.34c-0.14,0.01-0.28,0.03-0.43,0.05c-0.05,0.06-0.09,0.13-0.12,0.21
		c-0.12,0.31,0.01,0.54,0.26,0.71c0.22,0.15,0.42,0.36,0.71,0.41c0.01,0,0.01,0,0.02,0c-0.05-0.11-0.15-0.21-0.15-0.31
		C89.33,57.49,88.45,57.82,88.71,57.19z"/>
	<path class="st0" d="M76.17,58.5c0.13,0.01,0.26,0.02,0.39,0.01c0.99-0.35,2.16,0.29,3.07-0.53c-1.03,0.09-2.04,0.18-3.07,0.27
		C76.44,58.33,76.31,58.42,76.17,58.5z"/>
	<path class="st0" d="M212.04,50.15c0.06-0.06,0.12-0.11,0.18-0.17c-0.05-0.01-0.09,0-0.13-0.01c-0.42-0.05-0.86-0.06-1.28-0.08
		c-1.33-0.07-2.66-0.11-4,0.03C208.55,50.27,210.31,49.94,212.04,50.15z"/>
	<path class="st0" d="M104.33,56.62c0.09,0.05,0.18,0.03,0.26-0.05c-0.08,0-0.15,0-0.23,0c-0.02,0-0.02,0-0.04-0.01
		C104.32,56.58,104.33,56.6,104.33,56.62z"/>
	<path class="st0" d="M101.79,56.4c0.72-0.56,1.47,0.07,2.2-0.08c0.02-0.01,0.03,0,0.05-0.01c0.01-0.07,0.04-0.14,0.08-0.21
		c-0.6-0.24-1.26,0.04-1.89-0.37c-0.49-0.32-0.47,0.27-0.51,0.6C101.74,56.36,101.76,56.37,101.79,56.4
		C101.79,56.4,101.79,56.4,101.79,56.4z"/>
	<polygon class="st0" points="104.59,56.57 104.6,56.57 104.6,56.57 	"/>
	<path class="st0" d="M237,51.08C237,51.09,237,51.09,237,51.08c0.63,0.39,1.26,0.07,1.9,0.06c0,0,0,0,0,0
		C238.27,50.97,237.63,50.98,237,51.08z"/>
	<path class="st0" d="M270.49,42.82c0.03,0.34,0.32,0.22,0.54,0.24c0.48,0.04,0.98,0.03,1.45,0.19c0.01,0,0.01,0,0.02,0
		c-0.43-0.89-1.35,0.02-1.89-0.5c0.14-0.13,0.28-0.25,0.41-0.37C270.77,42.44,270.46,42.46,270.49,42.82z"/>
	<path class="st0" d="M269.6,43.04c-0.01,0.08-0.01,0.14-0.01,0.22c0.07-0.05,0.13-0.13,0.17-0.22
		C269.71,43.03,269.65,43.03,269.6,43.04z"/>
	<path class="st0" d="M269.61,42.52c0.05,0.02,0.11,0.03,0.17,0.03c0,0,0,0,0,0c-0.04-0.1-0.1-0.17-0.17-0.24c0,0,0,0-0.01,0
		C269.61,42.38,269.61,42.45,269.61,42.52z"/>
	<path class="st0" d="M289.66,50.48c-0.09-0.02-0.26,0.25-0.4,0.38c0,0,0,0,0.01,0c0,0,0,0,0.01,0c1.45-0.19,2.9-0.18,4.31,0.24
		C292.38,50.2,290.94,50.85,289.66,50.48z"/>
	<path class="st0" d="M204.08,50.25c-0.06,0.04-0.12,0.07-0.18,0.11c0,0,0,0,0,0.01c1.08,0.74,1.98,0.22,2.86-0.41
		C205.88,50.19,205.02,50.67,204.08,50.25z"/>
	<path class="st0" d="M194.3,50.96c-0.2,0.46-0.21,0.78,0.44,0.65c0.02-0.01,0.03-0.01,0.05-0.02
		C194.36,51.56,194.29,51.29,194.3,50.96z"/>
	<path class="st0" d="M214.54,49.68c-0.7,0.13-1.38,0.36-2.1,0.32c-0.12,0.07-0.31,0.06-0.4,0.15c0.44,0.25,0.98,0.25,1.36,0.08
		c0.81-0.36,1.64-0.45,2.49-0.56c-0.01,0-0.01-0.01-0.02-0.01C215.43,49.45,214.97,49.6,214.54,49.68z"/>
	<path class="st0" d="M212.22,49.98c0.07,0.01,0.15,0.01,0.22,0.02c0.08-0.05,0.13-0.12,0.1-0.3c0,0-0.01,0-0.01,0
		C212.43,49.79,212.33,49.88,212.22,49.98z"/>
	<path class="st0" d="M82.79,58.22c0.88,0.17,1.72,0.49,2.59,0.7C84.58,58.47,83.84,57.76,82.79,58.22z"/>
	<path class="st0" d="M312.09,48.39c0-0.1-0.01-0.21-0.01-0.32c-1.02,0.09-2.04,0.2-3.06,0.21
		C310.03,48.63,311.08,48.12,312.09,48.39z"/>
	<path class="st0" d="M192.89,51.23c-0.37,0.02-0.76,0.03-0.98-0.37c0,0-0.01,0-0.01,0c-0.02,0.66,0.61,0.66,0.88,0.55
		c0.54-0.22,0.34,0.31,0.55,0.39c0,0,0.01,0,0.01,0c0,0,0,0,0,0C193.36,51.48,193.35,51.2,192.89,51.23z"/>
	<path class="st0" d="M191.17,51.22c0.32-0.04,0.52-0.19,0.49-0.57c-0.16,0.17-0.32,0.32-0.48,0.48
		C191.18,51.16,191.17,51.19,191.17,51.22z"/>
	<path class="st0" d="M111.54,55.19c-0.01,0.08-0.02,0.15-0.05,0.2c0.03-0.02,0.06-0.03,0.08-0.05c0.12-0.18,0.56-0.03,0.47-0.43
		c-0.16,0.08-0.32,0.17-0.48,0.25C111.55,55.18,111.54,55.18,111.54,55.19z"/>
	<path class="st0" d="M111.07,55.61c-0.07,0.01-0.14,0.01-0.21,0.02c-0.01,0.01-0.02,0.01-0.02,0.01c0,0.07,0,0.13,0,0.2
		c0.06-0.04,0.12-0.09,0.15-0.17C111.01,55.65,111.04,55.63,111.07,55.61z"/>
	<path class="st0" d="M92.55,57.22c-0.46,0.02-1.12-0.02-1.14,0.76c0.55-0.36,1.12-0.94,1.66,0.02c0,0,0.01,0,0.01,0
		C93.42,57.39,92.9,57.2,92.55,57.22z"/>
	<path class="st0" d="M183.28,51.37c-0.01-0.01-0.01,0-0.02-0.01c-0.01,0-0.01,0-0.02,0c-0.05,0.04-0.09,0.09-0.11,0.17
		c0.04,0.21,0.06,0.43,0.38,0.32c0,0,0.01,0,0.01,0c0,0,0,0,0,0C183.33,51.74,183.28,51.57,183.28,51.37z"/>
	<path class="st0" d="M182.53,51.36c-0.31,0.15-0.63,0.24-0.98,0.23c-0.41-0.01-0.27,0.25-0.2,0.46
		C181.65,51.65,182.34,51.94,182.53,51.36z"/>
	<path class="st0" d="M411.06,52.84c-1.06,0.45-2.16,0.54-3.28,0.18c-0.01,0-0.03,0-0.04,0c-0.01,0-0.01,0-0.02,0
		C408.87,53.45,410,53.74,411.06,52.84z"/>
	<path class="st0" d="M366.03,49.63c-0.71-0.21-1.44,0.02-2.14-0.16c-0.01,0-0.03-0.01-0.04-0.01c0,0,0,0,0,0
		C364.56,49.81,365.28,49.92,366.03,49.63z"/>
	<path class="st0" d="M189.27,50.88C189.27,50.88,189.27,50.89,189.27,50.88c0.47,0.79,1.15,0.46,1.79,0.35c0.01,0,0.02,0,0.04-0.01
		c0.01-0.04,0.03-0.07,0.08-0.1C190.54,51.03,189.87,51.27,189.27,50.88z"/>
	<path class="st0" d="M191.17,51.22c-0.03,0-0.05,0.01-0.07,0.01c-0.02,0.06-0.01,0.11,0.06,0.18c0,0,0,0,0,0
		C191.17,51.35,191.17,51.28,191.17,51.22z"/>
	<path class="st0" d="M344.95,52.5c0,0,0,0.01,0,0.01c0.36-0.67,0.61,0.07,0.93,0.06C345.61,52,345.31,51.75,344.95,52.5z"/>
	<path class="st0" d="M263.79,43.29c0.02-0.02,0.03-0.03,0.05-0.05c0,0,0,0,0,0c0,0,0.01-0.01,0.01-0.01
		c-0.08-0.22-0.16-0.44-0.24-0.66C263.49,42.87,263.57,43.11,263.79,43.29z"/>
	<path class="st0" d="M99.47,56.83c-0.69-0.06-1.39-0.04-2.08-0.05c0.11,0.07,0.17,0.16,0.21,0.26c0.64,0.12,1.36-0.29,1.94,0.24
		c0.01,0,0.02,0,0.02,0C99.59,57.12,99.78,56.85,99.47,56.83z"/>
	<path class="st0" d="M330.04,51.58c0.01,0,0.01,0.01,0.02,0.01c0.67-0.2,1.22,0.45,1.89,0.25c0.01-0.01,0.01-0.01,0.01-0.01
		C331.34,51.59,330.76,50.99,330.04,51.58z"/>
	<path class="st0" d="M302.23,51.33c0.64-0.25,1.27-0.06,1.91-0.01C303.5,51.02,302.87,50.68,302.23,51.33z"/>
	<path class="st0" d="M341.55,44.21c0.82-0.2,1.59,0.17,2.39,0.21c0,0,0,0,0,0c-0.65-0.48-1.49-0.3-2.19-0.57
		C341.74,43.85,341.63,44.08,341.55,44.21z"/>
	<path class="st0" d="M203.89,50.37c0,0,0.01,0,0.01-0.01c0.01-0.07,0.03-0.11,0.05-0.17c-0.41-0.19-1,0.07-1.26-0.49
		c-0.01,0.01-0.02,0.02-0.04,0.03C202.66,50.7,203.49,50.13,203.89,50.37z"/>
	<path class="st0" d="M203.95,50.19c0.03,0.01,0.06,0.02,0.09,0.04c0.01,0.01,0.03,0.01,0.04,0.01c0.17-0.1,0.34-0.21,0.52-0.32
		C204.31,49.9,204.05,49.92,203.95,50.19z"/>
	<path class="st0" d="M246.34,43.75c0.01,0.01,0.03,0.01,0.04,0.01c0.62,0.07,0.51-0.33,0.44-0.72
		C246.9,43.44,246.64,43.61,246.34,43.75z"/>
	<path class="st0" d="M228.07,51.32c0.01,0,0.02,0,0.03,0c0.54-0.24,1.08-0.5,1.69-0.22c0,0,0.01,0,0.01,0
		C229.12,50.38,228.58,50.75,228.07,51.32z"/>
	<path class="st0" d="M357.85,44.26c0.01,0.14,0.01,0.27,0.01,0.41C357.97,44.53,357.97,44.39,357.85,44.26z"/>
	<path class="st0" d="M359.29,44.23c-0.01,0.01-0.03,0.01-0.04,0.02c-0.02,0.22,0.08,0.35,0.22,0.46c0.03,0,0.06,0,0.09,0
		C359.47,44.55,359.38,44.39,359.29,44.23z"/>
	<path class="st0" d="M375.06,49.99c-0.77,0.13-1.53-0.02-2.29-0.06c-0.01,0-0.01,0-0.02,0C373.52,50.24,374.28,50.26,375.06,49.99z
		"/>
	<path class="st0" d="M346.99,48.79c-0.76,0.17-1.52-0.03-2.28-0.08c0,0-0.01,0-0.01,0C345.45,49.06,346.21,49.1,346.99,48.79z"/>
	<path class="st0" d="M307.22,42.08c0.13-0.17,0.31-0.19,0.49-0.2c-0.06-0.02-0.13-0.02-0.19-0.04c-0.46-0.13-0.99,0.19-1.42-0.21
		c0,0,0,0-0.01-0.01C306.2,42.39,306.92,41.74,307.22,42.08z"/>
	<path class="st0" d="M189.24,51.3c-0.04-0.01-0.09-0.02-0.13-0.03c0,0.03-0.01,0.05-0.01,0.08c0.11,0.46,0.55,0.27,0.82,0.42
		C189.7,51.61,189.47,51.46,189.24,51.3C189.24,51.3,189.24,51.3,189.24,51.3z"/>
	<path class="st0" d="M188.6,51.14c-0.01,0-0.03-0.01-0.04-0.01c0,0-0.01,0-0.01,0c0,0,0,0,0,0c-0.08,0.22-0.16,0.45-0.24,0.67
		C188.5,51.61,188.67,51.42,188.6,51.14z"/>
	<path class="st0" d="M100.75,54.96c-0.2-0.05-0.42-0.05-0.64,0.02c-0.07,0.03-0.14,0.06-0.21,0.1c0.05,0.02,0.09,0.05,0.14,0.07
		c0,0,0,0,0,0c0,0,0.01,0,0.01,0c0.33-0.07,0.69,0.11,1.01-0.12c-0.06-0.49-0.62-0.28-0.8-0.58
		C100.19,54.85,100.58,54.82,100.75,54.96z"/>
	<path class="st0" d="M307.87,41.92c-0.2,0.09-0.47,0-0.65,0.16c0.7-0.07,1.43,0.19,2.1-0.15C308.83,42,308.35,42.01,307.87,41.92z"
		/>
	<path class="st0" d="M307.87,41.92c0.04-0.01,0.07-0.02,0.1-0.05c-0.08,0.01-0.17,0.01-0.26,0.01
		C307.76,41.89,307.81,41.91,307.87,41.92z"/>
	<path class="st0" d="M419.01,55.65c0,0.02,0,0.03,0,0.05c0.04-0.01,0.08-0.03,0.12-0.06c0.09-0.16,0.07-0.32-0.06-0.46
		c-0.02,0-0.05-0.01-0.07-0.01C419.01,55.33,419.01,55.49,419.01,55.65z"/>
	<path class="st0" d="M419.98,55.38c-0.2,0.22-0.64,0.28-0.48,0.72C419.66,55.86,420.05,55.77,419.98,55.38z"/>
	<path class="st0" d="M415.4,55.83c0.02,0,0.04,0,0.05,0c0.63-0.12,1.24-0.11,1.87,0C416.69,55.24,416.05,55.64,415.4,55.83z"/>
	<path class="st0" d="M186.39,51.09c0.27,0.03,0.46,0.15,0.47,0.46C187.03,51.06,186.82,50.96,186.39,51.09z"/>
	<path class="st0" d="M187.57,50.86L187.57,50.86C187.56,50.86,187.56,50.86,187.57,50.86c-0.19,0.21-0.43,0.4-0.26,0.74
		c0,0,0.01,0,0.01,0C187.4,51.36,187.49,51.11,187.57,50.86z"/>
	<path class="st0" d="M101.72,56.33c-0.53-0.05-0.77,0.19-0.72,0.71c0,0,0,0,0,0c0.2-0.24,0.46-0.4,0.71-0.58
		C101.71,56.41,101.71,56.38,101.72,56.33z"/>
	<path class="st0" d="M102.31,56.77c-0.32-0.06-0.67-0.28-0.82,0.26C101.66,56.73,102.01,56.85,102.31,56.77z"/>
	<path class="st0" d="M102.34,56.76c0.05-0.02,0.1-0.04,0.15-0.07c-0.25-0.17-0.53-0.11-0.7-0.29c-0.02,0.02-0.05,0.04-0.08,0.05
		C101.72,56.82,102.26,56.53,102.34,56.76z"/>
	<path class="st0" d="M95.22,57.11c-0.36-0.09-0.55,0.14-0.69,0.43c0,0.02,0,0.04,0,0.06c0.02-0.01,0.04-0.01,0.05-0.02
		c0.34-0.2,0.64-0.15,0.88,0.18c0.01,0,0.02,0,0.03,0C95.47,57.52,95.57,57.2,95.22,57.11z"/>
	<path class="st0" d="M183.26,51.36c0,0,0.01,0,0.01,0c0.31,0.15,0.56,0.12,0.72-0.21c-0.18,0.21-0.54,0.04-0.75,0.2
		C183.25,51.35,183.25,51.35,183.26,51.36z"/>
	<path class="st0" d="M183.25,51.35c-0.06-0.05-0.13-0.05-0.2,0C183.11,51.35,183.18,51.35,183.25,51.35
		C183.24,51.35,183.24,51.35,183.25,51.35z"/>
	<path class="st0" d="M103.39,54.67c-0.07,0.08-0.15,0.15-0.23,0.23c0,0,0,0.01,0,0.01c0.47-0.04,0.94-0.05,1.4-0.12
		c0.36-0.06,0.2-0.22,0.04-0.36C104.26,54.88,103.81,54.68,103.39,54.67z"/>
	<path class="st0" d="M388.08,54.43c0.32,0.38,0.86-0.17,1.17,0.26C389.01,53.96,388.45,54.59,388.08,54.43z"/>
	<path class="st0" d="M135.04,50.86c0,0-0.01,0-0.01,0c0.01,0.16,0.03,0.32,0.04,0.48C135.2,51.17,135.2,51.01,135.04,50.86z"/>
	<path class="st0" d="M69.33,59.22c0.42-0.03,0.84-0.08,1.23-0.26C70.12,58.89,69.71,58.97,69.33,59.22z"/>
	<path class="st0" d="M296.2,51.33C296.2,51.33,296.2,51.33,296.2,51.33c0.01,0,0.02-0.01,0.02-0.01c0.56-0.7,1.27-0.16,1.91-0.22
		l0,0C297.46,50.96,296.74,50.41,296.2,51.33z"/>
	<path class="st0" d="M102.92,54.91c-0.07-0.03-0.11-0.08-0.15-0.13c-0.34,0.11-0.66,0.35-1.04,0.09c0,0-0.01,0-0.01,0
		C102.09,55.63,102.51,55.15,102.92,54.91z"/>
	<path class="st0" d="M245.13,48.73c-0.3-0.08-0.6,0.13-0.91,0.04c-0.01,0-0.02,0-0.03,0C244.53,49.05,244.83,49.06,245.13,48.73z"
		/>
	<path class="st0" d="M252.78,43.52c0.01-0.08,0.02-0.17,0.03-0.25C252.74,43.35,252.73,43.43,252.78,43.52z"/>
	<path class="st0" d="M93.09,61.55c0.07-0.08,0.15-0.12,0.23-0.13c-0.1,0-0.18,0.02-0.26,0.1c0.01,0.01,0.01,0.02,0.02,0.04
		C93.08,61.55,93.09,61.55,93.09,61.55z"/>
	<path class="st0" d="M93.32,61.41c0.12,0,0.27,0.04,0.53,0.14c0,0,0.01,0,0.01,0c0.15-0.02,0.3-0.08,0.42-0.24
		C94.01,61.58,93.63,61.34,93.32,61.41z"/>
	<polygon class="st0" points="371.02,53.26 371.02,53.26 371.02,53.26 	"/>
	<path class="st0" d="M371.84,53.13c-0.29,0.11-0.51,0.27-0.82,0.13c0.24,0.49,0.7,0.01,1,0.21
		C372.03,53.31,372.3,52.95,371.84,53.13z"/>
	<path class="st0" d="M361.93,53.01C361.93,53.01,361.93,53.01,361.93,53.01c0,0,0.01,0,0.01,0c0.4-0.02,0.79-0.13,1.18,0
		C362.73,52.79,362.33,52.35,361.93,53.01z"/>
	<path class="st0" d="M331.95,51.81c0.01,0,0.02,0,0.04,0c0.52-0.21,1.02-0.35,1.4,0.23C333.08,50.97,332.51,51.42,331.95,51.81z"/>
	<path class="st0" d="M390.71,51.39c-0.37-0.1-0.76,0.1-1.15-0.02c-0.01,0-0.02,0-0.03,0C389.91,51.69,390.3,51.65,390.71,51.39z"/>
	<path class="st0" d="M274.14,43.06c0.01,0.01,0.01,0.01,0.02,0.01c0.38,0.15,0.79-0.3,1.17,0.03c0,0,0,0,0,0
		C274.95,42.36,274.54,42.82,274.14,43.06z"/>
	<path class="st0" d="M105.45,59.54c0,0.02-0.01,0.04-0.01,0.06c0.02-0.01,0.04-0.02,0.06-0.02
		C105.48,59.56,105.47,59.55,105.45,59.54z"/>
	<path class="st0" d="M105.5,59.57c0.03,0.02,0.04,0.05,0.05,0.08c0.09,0,0.17,0,0.26,0C105.7,59.57,105.6,59.55,105.5,59.57z"/>
	<path class="st0" d="M105.43,59.66c0-0.02,0.01-0.04,0.01-0.06c-0.04,0.02-0.08,0.02-0.12,0.05c0,0,0,0.01,0,0.01
		C105.36,59.66,105.39,59.66,105.43,59.66z"/>
	<path class="st0" d="M395.98,54.67c0.07,0.02,0.14,0.03,0.2,0.05c0.33,0.01,0.62,0.37,0.97,0.27c0.02-0.02,0.05-0.04,0.07-0.06
		C396.77,55.03,396.56,54.03,395.98,54.67z"/>
	<path class="st0" d="M179.9,51.11c-0.1,0.32-0.18,0.64,0,0.95C180.12,51.74,180.14,51.42,179.9,51.11z"/>
	<path class="st0" d="M368.64,53.46L368.64,53.46c0.41-0.02,0.8,0.12,1.21,0.03l0,0C369.45,53.31,369.05,53.06,368.64,53.46z"/>
	<path class="st0" d="M384.24,54.21L384.24,54.21c0.39,0,0.79-0.45,1.18,0.01C385.04,53.43,384.64,53.87,384.24,54.21z"/>
	<path class="st0" d="M316.13,42.07c-0.4-0.16-0.8-0.04-1.21,0.01C315.32,42.32,315.72,42.06,316.13,42.07z"/>
	<path class="st0" d="M95.42,60.73c0.03-0.06,0.06-0.11,0.1-0.17c-0.07,0-0.14,0.02-0.21,0.03C95.35,60.63,95.38,60.67,95.42,60.73z
		"/>
	<path class="st0" d="M95.42,60.73c-0.01,0.02-0.02,0.04-0.02,0.05c0.02,0.01,0.05,0.01,0.07,0.02c0,0,0,0,0.01-0.01c0,0,0,0-0.01,0
		C95.45,60.76,95.44,60.75,95.42,60.73z"/>
	<path class="st0" d="M95.04,60.7c0.08-0.05,0.17-0.09,0.27-0.11c-0.15-0.14-0.32-0.17-0.54,0.03c0,0.01-0.01,0.01-0.01,0.02
		C94.85,60.66,94.95,60.68,95.04,60.7z"/>
	<path class="st0" d="M336.03,52.05C336.03,52.06,336.04,52.06,336.03,52.05c0.32,0.06,0.63-0.23,0.95-0.03
		C336.65,51.74,336.34,51.71,336.03,52.05z"/>
	<path class="st0" d="M263.81,43.31c0.03,0.03,0.06,0.05,0.1,0.08c0.31,0.15,0.61,0.07,0.88-0.1c-0.32-0.01-0.63-0.03-0.95-0.04
		C263.84,43.28,263.82,43.29,263.81,43.31z"/>
	<path class="st0" d="M263.81,43.31c-0.01-0.01-0.01-0.01-0.02-0.02c-0.07,0.06-0.13,0.13-0.2,0.19
		C263.68,43.45,263.77,43.4,263.81,43.31z"/>
	<path class="st0" d="M99.29,55.29c0.07-0.11,0.1-0.23,0.04-0.39c-0.08,0.15-0.16,0.3-0.23,0.45
		C99.16,55.34,99.22,55.31,99.29,55.29z"/>
	<path class="st0" d="M99.74,55.15c-0.15,0.07-0.3,0.11-0.45,0.15c-0.03,0.04-0.06,0.08-0.1,0.12c0.37,0.28,0.65,0.18,0.85-0.27
		C99.91,55.2,99.82,55.19,99.74,55.15z"/>
	<path class="st0" d="M99.74,55.15c0.05-0.02,0.11-0.05,0.16-0.07c-0.12-0.06-0.24-0.12-0.36-0.18
		C99.59,55.01,99.65,55.1,99.74,55.15z"/>
	<path class="st0" d="M418.99,55.7c0.01-0.02,0.01-0.04,0.02-0.06c-0.4-0.01-0.88-0.22-0.95,0.42c0,0,0.01,0,0.01,0
		c0.04-0.06,0.08-0.11,0.12-0.13C418.38,55.7,418.72,55.78,418.99,55.7z"/>
	<path class="st0" d="M418.99,55.7c-0.09,0.14-0.08,0.28,0.02,0.42c0-0.14,0-0.29,0-0.43C419,55.7,418.99,55.7,418.99,55.7z"/>
	<path class="st0" d="M327.16,48.07c-0.31,0.03-0.62,0.04-0.93-0.02c-0.01,0-0.01,0-0.02,0C326.51,48.35,326.83,48.35,327.16,48.07z
		"/>
	<path class="st0" d="M365.78,44.98c0.13-0.09,0.12-0.17,0.01-0.27c-0.01,0-0.01,0-0.02,0C365.78,44.8,365.78,44.89,365.78,44.98z"
		/>
	<path class="st0" d="M262.64,43.24C262.64,43.24,262.64,43.24,262.64,43.24c0-0.14,0.01-0.29,0.01-0.43c0,0-0.01,0-0.01,0
		C262.52,42.95,262.51,43.09,262.64,43.24z"/>
	<path class="st0" d="M261.69,42.81c0,0.15,0.01,0.31,0.01,0.46C261.83,43.11,261.83,42.95,261.69,42.81z"/>
	<path class="st0" d="M97.44,57.03c-0.04-0.08-0.06-0.16-0.06-0.25c-0.62,0.08-0.68,0.32-0.23,0.71
		C97.22,57.31,97.19,57.08,97.44,57.03z"/>
	<path class="st0" d="M97.59,57.04c-0.04-0.01-0.08-0.01-0.12-0.02c-0.02,0-0.02,0.01-0.03,0.01c0.04,0.09,0.1,0.17,0.19,0.24
		c0,0,0,0,0.01,0C97.64,57.18,97.62,57.11,97.59,57.04z"/>
	<path class="st0" d="M93.58,54.89c-0.32-0.11-0.64-0.09-0.95,0.04C92.96,55.14,93.27,55.1,93.58,54.89z"/>
	<path class="st0" d="M103.16,54.69c-0.09,0.01-0.18,0.03-0.26,0.05c0,0-0.01,0-0.01,0c0.01,0.05,0.03,0.11,0.03,0.17
		c0.08,0,0.16,0,0.24,0c0,0,0.01-0.01,0.01-0.01C103.14,54.8,103.14,54.73,103.16,54.69z"/>
	<path class="st0" d="M103.16,54.69c0.02,0,0.03-0.01,0.05-0.01c0.06-0.01,0.12-0.01,0.18-0.01c0.05-0.05,0.1-0.1,0.15-0.16
		C103.42,54.57,103.22,54.56,103.16,54.69z"/>
	<path class="st0" d="M102.89,54.74c-0.03-0.12-0.08-0.24-0.21-0.31c0,0.12,0.02,0.25,0.09,0.35
		C102.81,54.76,102.85,54.75,102.89,54.74z"/>
	<path class="st0" d="M346.95,43.02c-0.04,0.08-0.08,0.15-0.13,0.23c0,0.01,0,0.01,0,0.01c0.32,0.01,0.64,0.01,0.96,0.02
		c0,0,0,0,0,0c0,0-0.01,0-0.01-0.01C347.55,43.03,347.24,43.05,346.95,43.02z"/>
	<path class="st0" d="M322.36,42.09C322.36,42.09,322.36,42.09,322.36,42.09c-0.37,0.04-0.56-0.16-0.67-0.46
		c0,0-0.01-0.01-0.01-0.01c0,0,0,0,0,0C321.64,42.15,321.7,42.54,322.36,42.09z"/>
	<path class="st0" d="M278.5,48.47c0.17,0,0.33,0,0.5,0C278.83,48.39,278.66,48.38,278.5,48.47z"/>
	<path class="st0" d="M196.68,51.6c0.01,0.01,0.02,0.01,0.03,0.02c0.3,0.1,0.63-0.08,0.93,0.04c0.01-0.01,0.02-0.01,0.03-0.02
		C197.37,51.1,197.02,51.46,196.68,51.6z"/>
	<path class="st0" d="M67.19,59.66c0.31-0.16,0.67-0.01,0.97-0.19l0,0C67.82,59.44,67.46,59.34,67.19,59.66z"/>
	<path class="st0" d="M359.27,44.22c0.01,0,0.02,0,0.02,0.01c0.09-0.01,0.18-0.01,0.26-0.02C359.45,44.13,359.36,44.14,359.27,44.22
		z"/>
	<path class="st0" d="M359.25,44.24c0-0.01,0-0.01,0-0.02c0.01-0.01,0.01,0,0.02-0.01c-0.21-0.12-0.49-0.04-0.69-0.21
		C358.63,44.59,358.95,44.39,359.25,44.24z"/>
	<polygon class="st0" points="189.27,50.88 189.27,50.88 189.26,50.87 189.26,50.88 	"/>
	<path class="st0" d="M189.11,51.16c0.04,0.04,0.08,0.09,0.12,0.14c0,0,0.01,0,0.01,0c0-0.14,0.01-0.28,0.02-0.42
		c0,0-0.01-0.01-0.01-0.01C189.17,50.95,189.13,51.06,189.11,51.16z"/>
	<path class="st0" d="M188.15,51c-0.02,0-0.05-0.02-0.07-0.03c-0.01,0.04-0.01,0.08-0.02,0.12c0.01,0,0,0.01,0.01,0.01
		c0.16,0.01,0.32,0.01,0.48,0.02c0.02-0.01,0.03-0.01,0.04-0.02C188.46,51,188.31,51.01,188.15,51z"/>
	<path class="st0" d="M188.59,51.1C188.59,51.1,188.6,51.1,188.59,51.1c0.01,0.02,0.01,0.02,0.01,0.04c0.17,0.04,0.34,0.09,0.5,0.13
		c0-0.04,0-0.07,0.01-0.1C188.97,51.01,188.81,50.93,188.59,51.1z"/>
	<path class="st0" d="M272.46,50.85c0.01,0,0.01,0.01,0.02,0.01c0.32-0.11,0.63,0.07,0.95,0.02c0,0,0.01-0.01,0.01-0.01
		C273.12,50.53,272.79,50.59,272.46,50.85z"/>
	<path class="st0" d="M338.69,43.02c-0.37-0.28-0.96,0.11-1.24-0.41C337.67,43.3,338.25,42.97,338.69,43.02z"/>
	<path class="st0" d="M369.37,44.94c-0.16,0.16-0.33,0.31-0.49,0.47C369.01,45.21,369.51,45.4,369.37,44.94z"/>
	<path class="st0" d="M242.98,43.76c0,0,0,0.01,0,0.01c0.25,0.36,0.49,0.57,0.73-0.01C243.47,44.12,243.23,43.82,242.98,43.76z"/>
	<path class="st0" d="M294.16,48.32c-0.49,0.14-0.98,0.16-1.46-0.06c0,0,0,0,0,0C293.18,48.61,293.67,48.6,294.16,48.32z"/>
	<path class="st0" d="M325,51.64c0,0.01,0.01,0.01,0.01,0.02c0.3,0.26,0.6-0.25,0.9-0.03c0,0,0,0,0.01-0.01
		C325.6,51.14,325.31,51.71,325,51.64z"/>
	<path class="st0" d="M185.18,51.11c0-0.02,0-0.04,0-0.06c-0.02-0.01-0.04-0.02-0.07-0.02c-0.32-0.12-0.57,0.31-0.9,0.11
		C184.55,51.85,184.85,50.84,185.18,51.11z"/>
	<path class="st0" d="M346.82,43.26c0,0,0-0.01,0.01-0.01c-0.04-0.11-0.03-0.19,0.01-0.25c-0.24-0.06-0.48-0.14-0.72,0.04
		c-0.01,0.01-0.01,0.01-0.02,0.02C346.34,43.12,346.58,43.19,346.82,43.26z"/>
	<path class="st0" d="M346.84,42.99c0.04,0.01,0.07,0.02,0.11,0.03c0,0,0,0,0,0c0.04-0.07,0.08-0.13,0.11-0.2
		C346.97,42.87,346.89,42.92,346.84,42.99z"/>
	<path class="st0" d="M421.45,55.4C421.45,55.4,421.45,55.4,421.45,55.4c-0.01,0-0.01,0-0.01,0c0.08,0.23,0.15,0.46,0.22,0.69
		C421.92,55.76,421.69,55.58,421.45,55.4z"/>
	<path class="st0" d="M242.98,43.76c0,0,0-0.01,0-0.01c0,0,0,0-0.01,0C242.97,43.75,242.97,43.75,242.98,43.76
		C242.97,43.76,242.98,43.76,242.98,43.76z"/>
	<path class="st0" d="M242.97,43.76c-0.18,0.22-0.19,0.46-0.01,0.7c0,0,0,0,0,0c0,0,0.01,0,0.01,0c0-0.23,0.01-0.45,0.01-0.68
		C242.98,43.76,242.97,43.76,242.97,43.76z"/>
	<polygon class="st0" points="109.16,55.15 109.16,55.14 109.16,55.14 109.16,55.15 	"/>
	<path class="st0" d="M351.85,44.47C351.85,44.47,351.85,44.47,351.85,44.47c0.19,0.23,0.51,0.01,0.72,0.2c0,0,0.01,0,0.01,0
		C352.39,44.42,352.11,44.47,351.85,44.47z"/>
	<path class="st0" d="M55.71,56.83C55.7,56.83,55.7,56.83,55.71,56.83c-0.22,0.19-0.53,0.21-0.76,0.37c0,0,0,0,0,0.01
		C55.33,57.35,55.61,57.28,55.71,56.83z"/>
	<path class="st0" d="M377.97,53.75C377.97,53.75,377.97,53.75,377.97,53.75c0,0,0.01,0,0.01,0c0.23,0.19,0.54,0.21,0.76,0.4
		C378.65,53.7,378.32,53.71,377.97,53.75z"/>
	<path class="st0" d="M173.91,51.8c0,0,0,0.01,0,0.01c0.16,0,0.31,0,0.47,0C174.22,51.68,174.07,51.69,173.91,51.8z"/>
	<path class="st0" d="M347.8,52.51C347.8,52.52,347.8,52.52,347.8,52.51c0.25,0.19,0.48-0.17,0.73-0.02
		C348.28,52.17,348.04,52.46,347.8,52.51z"/>
	<path class="st0" d="M326.19,51.79c0.27,0.04,0.53,0.03,0.73-0.19v0C326.66,51.58,326.38,51.53,326.19,51.79z"/>
	<path class="st0" d="M329.56,43.54c0.03,0.03,0.06,0.06,0.09,0.09c0.23-0.14,0.43-0.07,0.63,0.1c0,0,0,0,0.01,0
		C330.15,43.24,329.94,43.13,329.56,43.54z"/>
	<path class="st0" d="M185.21,51.06c-0.01,0.02-0.02,0.05-0.03,0.05c0.17,0.25,0.33,0.24,0.48-0.01h0
		C185.47,51.27,185.34,51.13,185.21,51.06z"/>
	<path class="st0" d="M185.21,51.06c0.01-0.01,0.02-0.01,0.02-0.03c0.02-0.06-0.01-0.1-0.06-0.15c0,0.06,0,0.11,0.01,0.17
		C185.19,51.05,185.2,51.06,185.21,51.06z"/>
	<path class="st0" d="M329.56,43.54c-0.21-0.02-0.39,0.02-0.49,0.24c0.17-0.01,0.33-0.04,0.48-0.11
		C329.55,43.63,329.55,43.58,329.56,43.54z"/>
	<path class="st0" d="M329.65,43.63c-0.01,0-0.02,0.01-0.02,0.01c-0.02,0.01-0.05,0.02-0.08,0.03c0.01,0.11,0.08,0.17,0.25,0.11
		c0,0,0,0,0,0C329.76,43.73,329.71,43.68,329.65,43.63z"/>
	<path class="st0" d="M75.96,58.49c0.17-0.13,0.43-0.12,0.61-0.24c-0.34,0-0.71-0.14-0.99,0.2c0,0,0,0,0,0c0,0,0.01,0,0.01,0
		C75.71,58.45,75.83,58.47,75.96,58.49z"/>
	<path class="st0" d="M75.96,58.49c-0.07,0.05-0.13,0.13-0.15,0.25c0.13-0.08,0.24-0.16,0.37-0.24
		C76.1,58.49,76.03,58.49,75.96,58.49z"/>
	<path class="st0" d="M94.46,57.62c0,0,0-0.01,0-0.01c0.01-0.05,0.04-0.07,0.07-0.07c-0.23,0.07-0.81-0.24-0.49,0.42
		C94.1,57.73,94.28,57.68,94.46,57.62z"/>
	<path class="st0" d="M94.46,57.62c-0.02,0.04,0,0.08,0.06,0.12c0-0.05,0-0.1,0.01-0.14C94.5,57.6,94.48,57.61,94.46,57.62z"/>
	<path class="st0" d="M107.85,55.49c-0.29,0.12-0.57,0.16-0.57,0.55c0.03-0.07,0.03-0.18,0.17-0.14c-0.05,0.05-0.05,0.11-0.01,0.18
		h0.01C107.52,55.87,107.91,55.9,107.85,55.49z"/>
	<path class="st0" d="M395.94,54.78c0.04-0.03,0.08-0.03,0.12-0.04c-0.03-0.02-0.07-0.04-0.08-0.07c-0.25,0.01-0.49,0.01-0.75,0.01
		c0,0.01,0.01,0.01,0.02,0.01C395.43,54.81,395.66,54.78,395.94,54.78z"/>
	<path class="st0" d="M396.18,54.72c-0.04,0-0.08,0-0.12,0.02c0.08,0.04,0.16,0.07,0.13,0.19c0.04-0.06,0.07-0.12,0.11-0.18
		C396.26,54.74,396.22,54.73,396.18,54.72z"/>
	<path class="st0" d="M66.22,59.63L66.22,59.63c0.25,0.07,0.5-0.15,0.74,0.01C66.72,59.35,66.47,59.35,66.22,59.63z"/>
	<path class="st0" d="M346.09,52.5C346.09,52.5,346.09,52.5,346.09,52.5c0.01,0,0.01,0,0.01,0c0.24-0.1,0.53,0.05,0.75-0.15
		c0,0,0,0,0-0.01C346.58,52.29,346.3,52.22,346.09,52.5z"/>
	<polygon class="st0" points="319.68,51.38 319.68,51.38 319.69,51.38 	"/>
	<path class="st0" d="M319.69,51.38c0.35,0.11,0.68,0.15,1.03,0c0,0,0,0,0,0C320.38,51.38,320.04,51.38,319.69,51.38z"/>
	<path class="st0" d="M318.78,51.57c0.21-0.18,0.45-0.23,0.71-0.18C319.1,50.9,318.96,51.32,318.78,51.57z"/>
	<polygon class="st0" points="179.43,51.35 179.43,51.34 179.43,51.34 	"/>
	<path class="st0" d="M96.21,51.35c0.12-0.17,0.37-0.07,0.48-0.24C96.5,51.12,96.31,51.15,96.21,51.35z"/>
	<path class="st0" d="M229.8,51.1c0.01,0.01,0.01,0.01,0.02,0.02c0.28,0.22,0.68-0.05,0.95,0.2c0.01,0,0.01,0,0.02,0
		C230.55,50.84,230.16,51.05,229.8,51.1z"/>
	<path class="st0" d="M188.06,51.09c-0.06-0.05-0.07-0.1-0.05-0.15c-0.14-0.08-0.26-0.19-0.43-0.07c0.16,0.07,0.32,0.15,0.48,0.23
		C188.06,51.1,188.06,51.1,188.06,51.09z"/>
	<path class="st0" d="M188.08,50.97c0.01-0.04,0.01-0.07,0.02-0.1c-0.05,0.02-0.07,0.05-0.09,0.08
		C188.03,50.96,188.06,50.96,188.08,50.97z"/>
	<path class="st0" d="M363.17,44.69C363.17,44.68,363.16,44.68,363.17,44.69c-0.1,0.07-0.18,0.14-0.27,0.22
		C362.99,44.84,363.14,44.82,363.17,44.69z"/>
	<path class="st0" d="M363.84,45.12c0-0.14,0-0.26,0-0.39C363.71,44.87,363.73,45,363.84,45.12z"/>
	<path class="st0" d="M359.51,44.73c0.03,0.02,0.07,0.05,0.1,0.07c0.24,0.01,0.48,0.04,0.71-0.08c-0.26-0.01-0.51-0.01-0.76-0.02
		C359.54,44.72,359.52,44.72,359.51,44.73z"/>
	<path class="st0" d="M359.51,44.73c-0.01-0.01-0.03-0.02-0.04-0.03c-0.07,0-0.14,0-0.21,0C359.34,44.79,359.42,44.79,359.51,44.73z
		"/>
	<path class="st0" d="M252.06,43.73C252.06,43.73,252.06,43.72,252.06,43.73c0.04-0.34-0.17-0.44-0.46-0.48c0,0,0,0,0,0
		C251.7,43.46,251.92,43.55,252.06,43.73z"/>
	<path class="st0" d="M312.05,43.3C312.05,43.3,312.05,43.3,312.05,43.3c0.27-0.03,0.5,0.06,0.73,0.18c0,0,0.01,0,0.01,0
		C312.58,43.26,312.43,42.84,312.05,43.3z"/>
	<path class="st0" d="M337.03,42.59c-0.41,0.15-0.83,0.16-1.24,0.01C336.2,42.85,336.62,42.93,337.03,42.59z"/>
	<path class="st0" d="M265.99,43.03c-0.07-0.15-0.15-0.29-0.22-0.43c0,0,0,0,0,0C265.64,42.85,265.87,42.92,265.99,43.03z"/>
	<path class="st0" d="M265.8,43.07c0,0,0.01,0,0.01-0.01c-0.11-0.22-0.36-0.31-0.51-0.49c0,0-0.01,0-0.01,0
		C265.29,42.91,265.51,43.02,265.8,43.07z"/>
	<path class="st0" d="M268.21,42.53c0,0,0-0.01,0-0.01c-0.19-0.1-0.38-0.12-0.57,0.02c0,0,0,0,0,0c0,0,0,0.01,0,0.01
		C267.83,42.54,268.02,42.54,268.21,42.53z"/>
	<path class="st0" d="M178.94,51.82c0.01,0.08,0.01,0.17,0.01,0.25c0.02,0,0.05-0.03,0.07-0.08
		C179.04,51.93,179.02,51.87,178.94,51.82z"/>
	<path class="st0" d="M179.41,51.35c-0.03,0.03-0.06,0.06-0.09,0.09c-0.04,0.14-0.04,0.27,0.1,0.36c0,0,0,0,0,0c0,0,0,0,0.01,0
		C179.42,51.66,179.42,51.51,179.41,51.35z"/>
	<polygon class="st0" points="179.41,51.33 179.41,51.33 179.41,51.33 	"/>
	<path class="st0" d="M178.95,51.56c0.2,0.02,0.35-0.07,0.46-0.23C179.26,51.41,179.1,51.48,178.95,51.56z"/>
	<path class="st0" d="M104.32,56.54c0.01,0.01,0.02,0.02,0.04,0.03c0.13-0.16,0.26-0.33,0.39-0.49c-0.21,0.01-0.42,0.01-0.63,0.02
		c0.01,0.07,0.02,0.13,0.03,0.2C104.27,56.31,104.3,56.42,104.32,56.54z"/>
	<path class="st0" d="M104.15,56.29c-0.03,0-0.07,0.01-0.11,0.02c-0.03,0.15,0.03,0.25,0.28,0.25c0-0.01,0-0.02,0-0.02
		C104.22,56.48,104.18,56.39,104.15,56.29z"/>
	<path class="st0" d="M111.54,55.19c0-0.02,0.01-0.02,0.01-0.04c-0.16,0.28-0.71-0.01-0.72,0.48c0.01,0,0.02,0,0.03,0
		C111.07,55.46,111.41,55.48,111.54,55.19z"/>
	<path class="st0" d="M111.49,55.4c-0.13,0.08-0.29,0.12-0.42,0.21C111.25,55.59,111.4,55.55,111.49,55.4z"/>
	<path class="st0" d="M269.61,42.52c0,0.18,0,0.35-0.01,0.52C269.82,42.88,269.77,42.7,269.61,42.52z"/>
	<path class="st0" d="M269.78,43.02c0,0.01-0.01,0.01-0.02,0.02c0.2,0.01,0.42,0.02,0.45-0.18c0.04-0.33-0.21-0.29-0.43-0.31
		C269.82,42.71,269.82,42.86,269.78,43.02z"/>
</g>
</svg>
