<?xml version="1.0" encoding="utf-8"?>
<!-- Generator: Adobe Illustrator 24.0.3, SVG Export Plug-In . SVG Version: 6.00 Build 0)  -->
<svg version="1.1" id="Layer_1" xmlns="http://www.w3.org/2000/svg" xmlns:xlink="http://www.w3.org/1999/xlink" x="0px" y="0px"
	 viewBox="0 0 328.9 314.08" style="enable-background:new 0 0 328.9 314.08;" xml:space="preserve">
<style type="text/css">
	.st0{fill:#82B5E9;}
</style>
<g id="english_1_">
	<path class="st0" d="M229.52,19.43c-25.27,0.13-49.22,11.3-65.56,30.58c-16.34-19.28-40.3-30.45-65.58-30.58
		c-45.08,0-80.08,35-80.08,80.05c0,37.81,23.1,70.88,61.83,109.37l83.83,83.81l83.81-83.81c38.73-38.49,61.83-71.56,61.83-109.37
		C309.6,54.43,274.6,19.43,229.52,19.43z M120.73,172.36l-2.93,3.49h-3.07l-1.45,1.74c0.19,3.49,0.31,5.23,0.52,8.59l-4.24,5.23
		h-3.05l-2.84,3.49c0.09,1.38,0.14,2.07,0.21,3.49l-1.45,1.74c0,0.68,0,1.03,0.1,1.74l1.62,1.74h1.53c0.14,3.49,0.19,5.23,0.21,8.59
		h-4.64c-1.24-1.38-1.88-2.06-3.17-3.49c0-2.07,0-3.1-0.16-5.23l-1.74-1.74c-0.14-2.75-0.23-4.13-0.42-6.89l-3.49-3.49
		c-0.14-2.06-0.21-3.1-0.37-5.23l-1.74-1.74c-0.45-6.21-0.68-9.29-0.92-15.5h-3.16c-1.32-1.36-1.99-2.06-3.28-3.49
		c0-0.68,0-1.03,0-1.74l-3.21-3.49v-1.74l-3.19-3.49c0-2.74,0-4.11,0-6.87l3.12-3.49v-5.23h-4.74l-1.6-1.74c0-0.7,0-1.05,0-1.74
		l-3.22-3.49h-4.79c0-0.7,0-1.03,0-1.74h-6.33c-0.64-0.68-0.96-1.03-1.59-1.74h-1.59c-1.27-1.36-1.9-2.06-3.17-3.49v-1.74l1.57-1.74
		c0-0.7,0-1.03,0-1.74c-1.88-2.06-2.84-3.09-4.72-5.23v-3.49h-1.57v5.23l1.57,1.74l-1.57,1.74l-3.14-3.49c0-3.49,0-5.23,0-8.59
		l-1.57-1.74v-5.23l3.14-3.49V95.9l3.14-3.49V87.2l-1.57-1.74v-3.49l-3.14-3.49h-6.31l-1.57,1.74h-6.29l-1.57-1.74v-1.74L30.48,75
		h4.72v-1.74l1.57-1.74h3.14l3.16-3.49h9.41c0.63,0.7,0.94,1.05,1.59,1.74h7.84l1.57-1.74h7.86l3.14,3.49h1.57v-5.14l-1.57-1.74
		V62.9h7.86v3.49h3.07l1.57,1.74v1.74h-3.14v1.74h6.28l1.57-1.74v-5.23h4.72v1.74l-1.57,1.74v1.74h3.14v-3.49l1.57-1.74h7.84
		l3.16,3.49h1.57l3.14,3.49v1.74h-4.71l-1.57,1.74h-3.16v-1.74l1.57-1.74v-1.74h-6.29l-1.57,1.74h-1.57l-1.57,1.74v1.74h-9.43
		l-3.14,3.49v3.49l1.57,1.74h4.71v3.49h1.57l3.16-3.49h3.14v-6.89h6.28v3.49h1.57l1.57-1.74h3.16v3.49l1.57,1.74v1.74l-1.57,1.74
		v1.74l3.14,3.49v1.74h-4.71l-1.59-1.74v-1.74h-6.28l-6.28,6.89v1.74h-3.16l-4.71,5.23v1.74l-6.28,6.87c0,2.07,0,3.1,0,5.23H79.1
		l-1.57-1.74c0-1.38,0-2.07,0-3.49h-11l-3.14,3.49c0,1.38,0,2.06,0,3.49l-3.12,3.49l3.17,3.49h3.16l3.12-3.49h1.57l1.6,1.74
		c0,1.38,0,2.07,0,3.49h1.59c0.63,0.7,0.96,1.05,1.6,1.74c0,2.07,0,3.1,0,5.23h7.9l1.55-1.74h4.72v1.74l1.6,1.74h7.86l3.19,3.49
		h3.42l3.17,3.49c0,0.7,0,1.05,0,1.74l3.16,3.49h7.77l3.14,3.49h1.55c0,1.38,0,2.06,0,3.49c-1.85,2.07-2.79,3.1-4.64,5.23
		C120.52,166.17,120.57,168.24,120.73,172.36L120.73,172.36z M267.15,170.16c-0.82,1.24-1.22,1.85-2.07,3.09
		c0.14,0.94,0.21,1.41,0.37,2.35c-1.45,2.02-2.2,3.05-3.73,5.11c-5.65,3.49-8.35,5.23-13.13,8.72h-1.27
		c-1.1,0.84-1.64,1.26-2.67,2.09h-2c0.23-0.78,0.33-1.17,0.54-1.95c1.03-1.57,1.53-2.35,2.53-3.92h-0.91
		c0.26-1.36,0.37-2.02,0.52-3.38h-1.08c-0.47,0.51-0.7,0.75-1.13,1.26h-1.74c-0.52,0.66-0.77,0.99-1.26,1.74h-1.64
		c-0.63,0.91-0.91,1.36-1.48,2.25h-0.64c0.31-1.17,0.47-1.74,0.77-2.91l1.29-1.93c1.06-3.77,1.57-5.67,2.51-9.43l1.74-2.02h3.73
		l1.74-1.9c0.21-0.49,0.3-0.75,0.49-1.26c1.31-1.32,1.99-1.97,3.38-3.29h2.3c2.56-2.28,3.87-3.49,6.69-5.74
		c0.23,0.77,0.33,1.15,0.56,1.9h1.48c-0.35,0.75-0.54,1.12-0.92,1.85h-1.1c-0.35,0.68-0.52,1.03-0.89,1.74
		c0.31,1.52,0.44,2.3,0.63,3.84h2.09c1.17-1.9,1.74-2.84,2.81-4.72l2.04-1.46c0.28,1.01,0.4,1.53,0.64,2.56
		c-1.36,2.25-2.07,3.38-3.49,5.67L267.15,170.16z M246.57,149.75l0.85-0.75l0.4,0.92l-1.29,1.12c-0.31,0.89-0.47,1.32-0.77,2.21
		h-0.75c-0.96-2.21-1.45-3.31-2.49-5.53l-1.06-2.2c0.21-0.59,0.31-0.87,0.51-1.46c-0.58-1.19-0.87-1.74-1.48-2.96
		c0.35-1.15,0.51-1.74,0.84-2.91c0.58,1.06,0.84,1.6,1.38,2.67c0.54,1.06,0.96,1.93,1.57,3.24l0.92,2h1.22l-0.64,1.74
		c0.26,0.78,0.42,1.22,0.75,1.9h0.04V149.75z M251.26,146.26c0.19-0.51,0.3-0.75,0.51-1.26h2.16c3.12-2.53,4.74-3.78,8-6.31
		l0.87,2.23l-2.55,1.95c0.35,0.94,0.51,1.39,0.84,2.32c-1.74,1.29-2.49,1.93-4.1,3.22c-0.49,1.08-0.73,1.62-1.2,2.7h-4.97
		c0.47-1.17,0.7-1.74,1.19-2.93L251.26,146.26z M251.05,155.9h1.74c-0.21,0.51-0.31,0.77-0.51,1.29h-1.74
		c-0.17-0.49-0.26-0.73-0.45-1.22h-4.13l-0.45-1.1c0.14-0.45,0.21-0.68,0.37-1.13h1.74l2.6-0.1c0.3,0.94,0.45,1.39,0.8,2.3
		L251.05,155.9z M276.1,158.38c-0.17-0.52-0.26-0.78-0.42-1.31l-0.73-2.3h-0.99l-2.18,1.52c-0.24,0.47-0.38,0.7-0.63,1.15h-1.74
		l0.52-0.96h-3.12l1.57-1.17l0.66-1.22c-0.37-1.26-0.56-1.87-0.92-3.12h-1.27c-0.21-0.71-0.31-1.06-0.54-1.74h-0.42l0.26-0.51
		c0,0.21,0.1,0.31,0.16,0.51h4.18c0.38-0.7,0.58-1.05,0.94-1.74h3.99c0.68,2.11,0.99,3.17,1.74,5.23c-0.44,0.77-0.66,1.15-1.12,1.92
		c0.47,1.5,0.71,2.25,1.2,3.75L276.1,158.38z M286.69,104.56l-1.6,1.74l-2.16,2.37h-3.49v1.1l-0.89,0.98
		c-0.49-0.55-0.95-1.14-1.38-1.74l0.87-1.5l1.19-1.38c0.68-0.16,1.38-0.25,2.07-0.28l1.9-2.09v-1.95l0.23-2.11
		c-0.84-0.31-1.6-0.79-2.25-1.41v-3.03h2.02l1.62,1.74v1.52c0,0.47-0.75,1.08-0.75,1.08c0.92,0.65,1.8,1.37,2.61,2.14L286.69,104.56
		z M294.14,77.88h-6.97v3.02l2.34,2.56v3.78l-5.23-5.68v-4.83h-6.35v1.48h-6.69l-4.06,4.45v2.06h5.56l2.93,3.21l2.04,2.23v4.88
		l-3.17,3.49l-2.28,2.51l3.17,3.49v2.68h-2.77l-1.59-1.74v-2.53l-2.02-2.21h-2.34c-0.71-0.78-1.06-1.19-1.74-1.95l-3.14,3.49
		l2.42,2.63h2.46l-1.74,1.92l4.06,4.45c0.01,1.04-0.04,2.07-0.14,3.1c-2.7,2.72-4.15,4.06-7.16,6.76h-4.2
		c-1.59,1.45-2.41,2.16-4.08,3.61c1.45,2.32,2.11,3.49,3.33,5.79c-0.37,1.05-0.56,1.59-0.96,2.65l-1.59,1.27h-2.6
		c-1.06-2.14-1.64-3.21-2.88-5.35c-0.33,1.08-0.51,1.62-0.85,2.7c-0.35,1.08-0.68,1.99-1.15,3.33c0.75,1.46,1.12,2.2,1.74,3.66
		l-1.27,3.33l-1.1,2.88c-0.47-1.08-0.73-1.6-1.24-2.68l0.75-1.99c-0.59-1.24-0.91-1.85-1.53-3.09l0.91-2.58
		c0.58-2.21,0.85-3.33,1.32-5.56c-0.33-0.58-0.51-0.85-0.85-1.43l-1.6,1.34l0.66-2.3c-1.39-2.21-2.14-3.31-3.75-5.53h-4.76
		c-0.16,0.8-0.23,1.2-0.42,2c-2.96,2.58-4.51,3.87-7.74,6.45c-0.38,1.31-0.59,1.95-0.99,3.24l0.82,1.31
		c-1.74,1.39-2.67,2.09-4.38,3.49l0.26-2.23h-0.19c0.12-0.37,0.17-0.56,0.3-0.94c0.12-0.38,0-0.59,0.12-0.99l-0.89-1.5
		c0.21-0.68,0.31-1.03,0.51-1.74c-0.84-1.38-1.26-2.06-2.14-3.49c0.64-2.3,1.15-4.62,1.55-6.97c-1.01-1.38-1.53-2.06-2.61-3.49
		h-9.29l-1.41-1.74h-6.24c-1.17-1.39-1.74-2.07-3.02-3.49v-1.74h-3.28c0,1.38,0,2.07,0,3.49c1.22,1.38,1.74,2.06,2.96,3.49h3.1
		c1.13,1.38,1.74,2.06,2.72,3.49h1.53c-0.09,0.7-0.14,1.05-0.24,1.74c-3.59,3.49-5.42,5.23-8.89,8.59h-4.32
		c-0.49-0.68-0.73-1.03-1.24-1.74c0.17-1.38,0.26-2.06,0.42-3.49c-1.05-1.38-1.57-2.07-2.68-3.49c0.1-1.38,0.14-2.06,0.23-3.49
		c-1.17-1.38-1.74-2.07-3-3.49h-3.12c0,1.36,0,2.06,0,3.49l1.48,1.74c-0.1,2.07-0.16,3.1-0.31,5.23c2.27,2.76,4.4,5.62,6.38,8.59
		h8.47l-0.35,1.74c-4.5,4.33-8.74,8.93-12.69,13.77c-0.1,1.38-0.17,2.06-0.26,3.49l1.13,1.74c-0.21,3.49-0.21,5.23-0.21,8.59
		c-1.92,2.75-2.89,4.13-4.86,6.89v3.49H182l-1.26,1.74v3.49c-2,2.75-3.03,4.13-5.23,6.89h-8.45v-6.89
		c-1.19-1.38-1.74-2.06-3.05-3.49v-6.87c-0.61-0.7-0.94-1.03-1.57-1.74v-3.49c1.26-1.38,1.9-2.06,3.1-3.49v-1.74
		c-1.22-1.38-1.85-2.06-3.1-3.49v-1.74l-3.12-3.49v-8.61h-3.14l-1.57-1.74h-4.69l-1.55,1.74h-7.81l-7.86-8.59c0-2.75,0-4.13,0-6.87
		c0.61-0.7,0.92-1.05,1.55-1.74c0-0.7,0-1.03,0-1.74h-1.55c0-1.38,0-2.06,0-3.49c1.87-2.07,2.81-3.1,4.69-5.23h1.57l1.57-1.74v-3.49
		l1.59-1.74h7.81l1.57-1.74h7.86v3.49l1.57,1.74h6.29c0.63,0.7,0.92,1.05,1.57,1.74h1.57c0-1.38,0-2.06,0-3.49h3.14
		c1.27,1.38,1.87,2.06,3.16,3.49h6.28c1.24-1.38,1.88-2.06,3.14-3.49v-3.49h-7.84l-3.14-3.49v-1.74h-1.59l-1.57,1.74h-1.57v-5.23
		l-3.14-3.49h-4.72v3.49l3.16,3.49h1.57v3.49h-3.14l-1.59-1.74v-1.74l-3.14-3.49h-4.71l-3.16,3.49v1.74l-1.57,1.74h-6.28l-1.57-1.74
		V95.2l1.57-1.74h1.57l1.57,1.74h3.14v-3.5h-1.57v-1.74l1.57-1.74h3.14l3.16-3.49h1.57l1.57-1.74h1.57V79.5h-4.71v-3.49l1.57-1.74
		h1.57l1.57-1.74v-1.74l1.57-1.74h1.59l3.14-3.49h14.08l1.57,1.74v3.49h1.57l3.14-3.49h1.59v3.49h1.57l3.14-3.49h9.43v-3.49h3.14
		l1.57,1.74v3.49h3.14v-3.49l3.16-3.49h1.57l1.57-1.74h7.86l0.51-0.56c0.25,0.56,0.43,1.14,0.56,1.74h3.28l3.1,3.4h11.68l1.34,1.46
		h5.61l2.74-2.98h5.51l1.41,1.53h8.72c0.77,0.84,1.15,1.24,1.9,2.07h14.96l3.28,3.59h8.09v1.19h-5.46l-1.53,1.74L294.14,77.88z"/>
</g>
</svg>
