<?xml version="1.0" encoding="utf-8"?>
<!-- Generator: Adobe Illustrator 24.0.3, SVG Export Plug-In . SVG Version: 6.00 Build 0)  -->
<svg version="1.1" id="Layer_1" xmlns="http://www.w3.org/2000/svg" xmlns:xlink="http://www.w3.org/1999/xlink" x="0px" y="0px"
	 viewBox="0 0 1200 1682.63" style="enable-background:new 0 0 1200 1682.63;" xml:space="preserve">
<style type="text/css">
	.st0{fill:#FFFFFF;}
</style>
<g>
	<path class="st0" d="M62.2,1632.42c0,6.45,0,6.45,6.59,6.45c355.05,0,710.1,0,1065.15-0.02c1.97,0,3.95-0.26,5.92-0.39
		c-0.01-2.16-0.04-4.33-0.04-6.49c0-530.45,0-1060.91,0-1591.36c-359.22,0-718.44,0-1077.65,0c0.01,2.16,0.03,4.33,0.03,6.49
		C62.2,575.54,62.2,1103.98,62.2,1632.42z M328.32,1536.82c-0.82,1.95-2.2,1.64-3.63,1.64c-6.32,0.01-12.64,0-18.97,0
		c-6.16,0-12.31-0.12-18.47,0.06c-2.65,0.08-3.22-0.64-2.29-3.08c1.65-4.32,3.14-8.7,4.67-13.07c1.84-5.25,0.46-8.01-4.88-9.82
		c-9.49-3.22-18.73,0.7-22.29,10.31c-5.97,16.15-11.41,32.49-17.01,48.77c-1.48,4.31,0.58,6.98,4.44,8.66
		c9.07,3.94,18.64,0.01,22.91-9.74c1.79-4.09,2.96-8.45,4.3-12.73c0.63-2.01,1.6-2.85,3.89-2.83c12.64,0.13,25.29,0.14,37.93,0.01
		c3.21-0.03,2.85,1,2.16,3.52c-6.99,25.2-24.94,37.79-49.24,42.92c-16.77,3.54-33.06,0.87-48.7-5.45
		c-16-6.46-22.1-19.22-17.22-35.83c3.26-11.1,6.95-22.1,11.09-32.9c5.87-15.34,17.39-25.42,32.4-31.18
		c24.14-9.27,48.11-8.1,70.29,5.33C334.33,1510.26,333.73,1524.03,328.32,1536.82z M457.13,1561.95
		c-7.33,21.52-23.36,33.01-44.53,38.6c-18.26,4.82-35.91,2.09-52.99-4.8c-15.24-6.14-21.55-20.14-16.63-35.72
		c3.19-10.1,6.83-20.06,10.22-30.09c6.18-18.32,19.61-29.15,37.17-35.34c7.82-2.76,15.99-4.53,28.58-4.06
		c8.96,0.68,22.06,1.62,33.89,8.21c13.58,7.57,18.37,18.57,14.07,33.53C464.03,1542.27,460.49,1552.09,457.13,1561.95z
		 M619.69,1598.71c-13.63-0.16-27.26-0.08-41.47-0.08c5.5-15.66,10.86-30.9,16.22-46.14c-0.38-0.04-0.76-0.08-1.14-0.12c0,0,0,0,0,0
		c-9.2,13.6-18.53,27.11-27.51,40.85c-2.51,3.83-5.05,5.82-9.89,5.52c-7.45-0.46-14.96-0.25-22.44-0.06
		c-2.89,0.08-4.01-0.44-3.95-3.72c0.26-13.14,0.19-26.28,0.25-39.43c-0.92-1.53,0.77-3.64-1.1-4.96
		c-5.32,15.15-10.65,30.3-15.93,45.47c-0.54,1.55-1.07,2.61-3.01,2.6c-13.93-0.06-27.86-0.03-42.25-0.03
		c7-19.48,13.81-38.47,20.63-57.45c3.3-9.19,6.55-18.41,9.99-27.55c0.93-2.48,0.51-3.84-1.75-5.26
		c-7.28-4.58-14.42-9.38-21.66-14.12c0.9-1.74,2.4-0.94,3.53-0.95c26.79-0.05,53.58,0.06,80.37-0.15c4.13-0.03,4.95,1.4,5.08,5.07
		c0.4,11.59,1.14,23.18,1.82,36.17c4.88-6.81,9-12.51,13.07-18.25c4.61-6.51,9.24-13,13.68-19.62c1.53-2.27,3.11-3.36,6.02-3.34
		c18.97,0.15,37.94,0.15,56.91,0.01c3.53-0.03,4.15,0.71,2.94,4.11c-11.68,32.76-23.21,65.56-34.76,98.36
		C622.7,1597.47,622.19,1598.74,619.69,1598.71z M701.64,1595.45c-0.63,1.82-1.05,3.26-3.56,3.24c-13.79-0.11-27.57-0.05-41.96-0.05
		c10.19-28.18,20.01-55.58,30.07-82.89c1.46-3.97,1.01-6.09-2.76-8.32c-6.89-4.08-13.42-8.77-21.1-13.88c25.74,0,50.19,0,75.13,0
		c-5.05,14.2-10.01,28.03-14.88,41.89C715.56,1555.42,708.58,1575.43,701.64,1595.45z M862.26,1535.53c-0.77,2.25-1.79,3.02-4.22,3
		c-13.47-0.13-26.94-0.06-41-0.06c2.13-5.87,4.11-11.11,5.92-16.4c1.73-5.08,0.32-7.72-4.79-9.49c-9.84-3.41-18.91,0.63-22.75,11.03
		c-5.9,16.01-11.26,32.22-16.74,48.38c-1.5,4.42,1.09,6.89,4.84,8.43c9.18,3.77,18.89-0.55,22.7-10.2c1.52-3.85,2.78-7.8,3.93-11.78
		c0.78-2.67,2.21-3.49,5-3.45c11.98,0.17,23.96,0.18,35.94,0c3.52-0.05,4.1,0.75,3.09,4.18c-7.31,24.82-25.15,37.3-49.31,42.29
		c-17.15,3.54-33.74,0.74-49.62-5.95c-13.02-5.49-21.89-18.76-16.2-35.01c3.61-10.31,6.9-20.74,10.42-31.09
		c5.71-16.79,17.88-27.39,33.83-33.68c21.14-8.35,42.48-6.99,63.04,1.77C863.51,1504.83,868.35,1517.83,862.26,1535.53z
		 M994.13,1525.8c-12.97-0.16-25.94-0.07-39.57-0.07c0.37-1.47,0.55-2.45,0.87-3.37c2.45-7.13,0.52-10.48-7-11.74
		c-2.9-0.49-5.77-1.36-8.85-0.29c-5.36,1.86-7.04,7.93-2.97,11.84c3.27,3.14,7.34,5.1,11.4,7.02c6.13,2.9,12.3,5.72,18.35,8.76
		c23.93,12,21.46,31.23,6.1,47.26c-9.15,9.55-21.5,12.92-34.04,15.07c-16.34,2.8-32.46,1.47-48.02-4.48
		c-13.5-5.16-21.28-17.66-19.65-30.72c0.32-2.61,0.97-3.57,3.83-3.53c12.15,0.19,24.3,0.16,36.45,0.03
		c3.09-0.03,4.06,0.75,2.51,3.63c-0.08,0.15-0.14,0.3-0.18,0.46c-1.14,4.26-4.55,8.67,1.25,12.33c5.73,3.62,14.04,3.35,18.51-0.84
		c7.95-7.46,7.06-12.83-2.83-17.8c-9.77-4.91-20.37-7.99-29.87-13.49c-6.77-3.92-13.14-8.37-14.47-16.69
		c-1.75-10.94,1.42-20.34,10.33-27.44c9.75-7.78,21.44-10.36,33.32-11.94c16.32-2.17,32.51-1.39,48.1,4.67
		c12.33,4.79,19.72,15.35,19.59,27.77C997.27,1524.53,997.06,1525.84,994.13,1525.8z M79.86,62.55c0-4.54,1.1-5.67,5.66-5.67
		C430.25,57,774.97,57,1119.7,56.86c5.17,0,6.15,1.36,6.14,6.28c-0.13,329.75-0.13,659.5-0.02,989.25c0,4.37-0.84,5.75-5.55,5.74
		c-98.21-0.16-196.41-0.12-294.62-0.12c-1.61,0-3.23,0-5.32,0c7.42-19.38,13.71-38.56,19.15-57.99
		c9.89-35.33,17.58-71.1,22.9-107.46c6.41-43.81,8.78-87.73,6.32-131.88c-1.98-35.53-7.19-70.67-14.47-105.52
		c-7.85-37.56-18.6-74.27-32.31-110.07c-16.83-43.95-37.45-86.03-63.42-125.39c-2.43-3.68-5.74-6.83-6.98-11.25
		c-0.03-0.01-0.06-0.02-0.09-0.02l0.05-0.09c0,0-0.05,0.09-0.05,0.08c0-0.03-0.01-0.05-0.02-0.08c-1.89,0.24-2.31-1.05-2.71-2.61
		c2.18-0.23,2.46,1.18,2.71,2.61c0.02,0,0.04,0,0.06,0c0.01,0.04,0.03,0.07,0.04,0.11c2.75,0.59,4.36,2.78,6.27,4.53
		c19.25,17.61,35.66,37.67,50.16,59.27c23.51,35.04,41.63,72.8,55.36,112.67c14.79,42.96,24.46,87.07,30.28,132.15
		c6.47,50.18,8.6,100.49,5.15,150.92c-3.6,52.64-13.01,104.36-27.88,155.01c-0.96,3.27-0.61,3.89,2.71,3.88
		c46.6-0.08,93.21-0.1,139.81,0.05c3.5,0.01,4.48-1.65,5.45-4.31c13.97-38.19,26.03-76.82,32.4-117.2
		c4.67-29.61,7.48-59.34,9.54-89.18c0.12-1.77,0.02-3.56,0.02-6.57c-18.31,26.07-34.15,52.95-61.39,69.81
		c45.5-77.47,62.15-161.73,60.28-251.44c-18.66,27.41-33.52,56.81-62.23,74.77c30.16-73.45,40.56-149.2,29.5-229.32
		c-15.99,26.22-28.28,53.41-53.59,71.47c20-75.28,26.92-149.71-7.55-224.17c-12.04,31.92-19.73,64.2-42.3,90.27
		c0-7.01,0.29-14.03-0.05-21.03c-1.68-34.91-5.27-69.62-14.5-103.43c-9.05-33.16-25.55-62.51-47.84-88.62
		c-0.71-0.83-1.07-2.15-3.13-2.03c-0.52,9.52-0.92,19.09-1.59,28.64c-1.35,19.36-0.59,38.97-6.16,57.87
		c-2.18,7.4-4.36,14.83-8.2,22.22c-22.07-78.61-67.89-138.61-135.53-182.46c12.24,35.69,24.52,71.09,21.67,110.22
		c-8.9-8.07-17.48-15.59-26.31-22.81c-35.76-29.26-75.07-52.28-118.46-68.34c-32.05-11.87-64.6-21.85-98.21-28.22
		c-1.46-0.28-2.95-0.44-4.42-0.66c-0.66,0.31-1.32,0.63-1.97,0.94c29.12,26.07,58.53,51.85,85.34,80.36
		c5.29,5.63,10.34,11.7,13.68,19.41c-114.01-38.03-230.09-46.77-348.5-28.93c61.78,18.35,123.68,36.32,182.28,67.02
		c-14.13,2.76-27,5.31-39.89,7.78c-60.66,11.62-119.31,29.36-174.47,57.62c-17.74,9.09-34.95,19.11-50.7,31.44
		c-1.35,1.06-3.27,1.68-3.84,3.87c67.55-5.52,134.72-15.83,203.49-9.73c-8.53,8.83-16.66,17.29-24.83,25.7
		c-22.49,23.16-44.95,46.35-67.55,69.41c-2.1,2.14-1.74,3.86-0.85,6.18c5.64,14.69,11.17,29.42,16.79,44.12
		c1.22,3.19,1.52,6.27,0.94,9.72c-6.7,39.94-12.78,79.99-19.98,119.84c-5.89,32.62-12.75,65.08-19.84,97.47
		c-2.47,11.26-6.77,22.14-10.57,33.08c-1.3,3.75-1.29,6.7,0.91,10.18c4.78,7.57,8.72,15.69,13.67,23.13
		c3.87,5.81,4.51,11.85,4.04,18.43c-0.67,9.46-1.05,18.95-1.71,28.41c-0.19,2.74,0.35,4.45,2.95,6.05
		c21.66,13.28,43.2,26.75,64.76,40.2c4.94,3.08,11.49,0.57,12.45-5.3c3.05-18.7,11.44-34.95,22.73-49.79
		c8.02-10.54,17.47-19.64,29.42-25.74c6.04-3.09,6.57-2.75,8.35,3.76c5.19,18.97,2.6,37.6-2.52,56.08
		c-1.9,6.86-4.28,13.59-6.52,20.35c-0.63,1.9-1.84,3.76,0.19,5.45c1.87,1.56,4.08,1.36,6.12,0.5c31.29-13.2,58.1-31.46,72.27-64.04
		c1.31-3.02,2.9-6.02,4.86-8.65c5.6-7.53,4.76-15.24,0.98-23.03c-1.66-3.42-3.67-6.7-5.77-9.87c-9.53-14.41-12.32-30.24-10.17-47.16
		c2.39-18.85,7.14-37.07,14.11-54.74c2.49-6.32,6.51-11.06,11.95-15.38c11.18-8.88,21.4-18.96,32.83-27.58
		c8.47-6.4,17.77-11.64,25.64-18.92c21.27-19.69,34.13-43.85,38.57-72.4c3.88-24.96,3.05-49.67-5.29-73.82
		c-1.51-4.37-3.45-8.55-6.11-13.75c4.46,1.96,6.59,4.73,8.66,7.48c12.04,16.04,17.72,34.41,19.08,54.16
		c1.62,23.42-0.38,46.43-8.77,68.64c-9.06,23.98-22.92,44.49-42.88,60.73c-1.58,1.28-3.06,1.99-1.25,4.64
		c12.19,17.89,16.18,38.21,17.12,59.4c1.54,34.87-5.66,68.3-16.63,101.09c-13.76,41.12-31.79,80.18-57.01,115.64
		c-21.52,30.26-46.77,57.05-75.53,80.57c-23.23,18.99-48.15,35.32-74.74,49.17c-8.34,4.35-16.8,6.68-26.52,6.63
		c-68.41-0.36-136.82-0.23-205.24-0.09c-4.23,0.01-5.45-0.78-5.45-5.3C79.98,722.72,79.98,392.64,79.86,62.55z M950.65,1155.26
		c3.91,14.02,7.42,28.16,11.19,42.22c0.82,3.06,0.6,4.36-3.2,4.27c-11.47-0.26-22.96-0.36-34.43,0.04
		c-4.52,0.16-6.31-1.14-7.21-5.56c-2.75-13.45-5.94-26.82-8.98-40.21c-0.22-0.95-0.64-1.85-1.28-3.66
		c-5.48,15.52-10.82,30.16-15.73,44.96c-1.18,3.56-2.77,4.48-6.3,4.42c-12.97-0.21-25.94-0.08-39.55-0.08
		c3.53-9.93,6.95-19.63,10.44-29.3c6.74-18.69,13.49-37.37,20.36-56.01c0.87-2.36,0.28-3.44-1.72-4.73
		c-7.44-4.8-14.75-9.8-23.23-15.48c25.14,0,48.85,0.03,72.56-0.04c3.26-0.01,2.45,1.42,1.76,3.36c-4.24,11.83-8.4,23.69-12.58,35.55
		c-0.21,0.59-0.35,1.21-0.52,1.81c0.24,0.15,0.48,0.31,0.73,0.46c11.94-12.7,23.92-25.36,35.76-38.16c1.97-2.13,3.88-3.09,6.82-3.05
		c14.29,0.15,28.58,0.07,43.19,0.07c-0.18,2.14-1.8,3.13-2.94,4.36c-14.34,15.51-28.66,31.05-43.13,46.43
		C950.23,1149.52,949.68,1151.8,950.65,1155.26z M804.34,1175.71c3.28,8.47,6.69,16.89,10.3,25.95c-12.31,0-23.8-0.24-35.27,0.13
		c-4.09,0.13-5.87-1.28-7.17-4.89c-3.31-9.2-6.93-18.28-10.45-27.41c-0.34-0.89-0.4-2.01-1.87-2.44
		c-3.69,10.34-7.41,20.69-11.06,31.06c-0.68,1.94-1.07,3.64-3.85,3.61c-13.61-0.13-27.23-0.06-41.55-0.06
		c3.87-10.76,7.57-21.02,11.26-31.28c6.28-17.47,12.44-34.98,18.92-52.37c1.39-3.72,0.59-5.57-2.65-7.57
		c-7.01-4.31-13.76-9.04-21.69-14.31c19.24,0,37.14,0,55.03,0c11.65,0,23.3,0.05,34.96-0.01c7.59-0.04,14.69,1.77,21.72,4.56
		c11.57,4.6,16.41,13.36,16.56,25.25c0.2,15.94-11.12,30.84-27.1,36.22c-3.25,1.09-8.27,0.44-9.38,3.41
		C799.9,1168.61,803.03,1172.33,804.34,1175.71z M633.28,1193.46c0.36-2.75-0.9-3.38-3.42-3.34c-8.65,0.12-17.31,0.19-25.96-0.04
		c-2.77-0.07-4.09,1.42-4.86,3.37c-2.8,7.1-7.85,8.84-15.22,8.4c-11.54-0.69-23.14-0.18-35.65-0.18
		c7.4-10.98,14.33-21.25,21.26-31.52c12.16-18.04,24.26-36.13,36.54-54.09c1.75-2.56,0.96-3.57-1.19-4.93
		c-7.27-4.61-14.46-9.34-21.7-14.03c0.8-1.74,2.13-0.91,3.08-0.91c28.29-0.06,56.59,0.05,84.88-0.15c4.02-0.03,4.91,1.21,5,4.96
		c0.78,32.29,1.69,64.58,2.71,96.86c0.1,3.12-0.71,3.93-3.8,3.89c-12.65-0.17-25.3-0.17-37.95,0c-2.97,0.04-4.4-0.56-3.88-3.79
		C633.37,1196.48,633.08,1194.93,633.28,1193.46z M447.43,1110.3c-6.87-4.18-13.44-8.87-21.34-14.15c8.37,0,15.26-0.08,22.16,0.02
		c20.45,0.29,40.93-0.81,61.36,0.66c10.03,0.72,19.6,3.48,28.55,7.98c13.1,6.58,18.41,19,13.98,32.97
		c-2.95,9.31-6.31,18.51-10,27.55c-6.6,16.18-19.62,25.56-35.3,31.6c-8.73,3.37-17.95,4.76-27.34,4.76
		c-18.14-0.01-36.27-0.14-54.4,0.1c-4.44,0.06-4.86-1.09-3.45-4.93c9.53-26.1,18.77-52.31,28.46-78.35
		C451.63,1114.34,451.04,1112.49,447.43,1110.3z M391.07,456.47c-0.35,1.33-0.62,2.81-1.13,4.19
		c-6.55,17.85-15.36,34.53-26.47,49.94c-4.77,6.62-8.74,7.77-16.35,5.47c-9.02-2.72-15.98-8.62-22.6-15.02
		c-1.71-1.66-0.58-2.48,0.53-3.56c12.02-11.73,23.98-23.53,36.07-35.19c4.66-4.5,9.51-8.81,14.42-13.02c2.53-2.16,4.82-5.51,9-3.53
		C388.97,447.85,390.28,451.88,391.07,456.47z M302.01,742.75c-0.58-1.3-1.91-2.32-1.65-3.98c10.62,0.99,20.26,12.47,20.53,24.42
		c0.34,14.87-8.5,26.35-21.78,28.29c-13.65,2-26.7-6.27-30.33-19.21c-1.08-3.52-1.08-3.52-0.34-7.99c0.58,1.23,0.96,2.05,1.35,2.86
		c2.38,2.98,4.53,6.18,7.18,8.89c5.1,5.24,11.12,7.49,18.52,5.06c7.12-2.34,9.78-7.94,11.31-14.48
		C308.83,757.95,305.42,750.35,302.01,742.75z M78.38,1252.29c0.43-11.08,0.13-11.09,11.19-11.09c342.5,0,684.99,0,1027.49,0
		c7.23,0,7.23,0,7.23,6.99c0,9.5,0,9.5-9.6,9.5c-171.25,0-342.5,0-513.74,0c-172.25,0-344.49-0.01-516.74,0.09
		C79.94,1257.79,78.2,1257.17,78.38,1252.29z M931.86,1335.24c2.12,2.85,7.69,0.8,11.76,0.97c4.32,0.19,8.65,0.1,12.98,0.02
		c2.26-0.04,2.99,0.52,2.11,2.9c-2.38,6.37-4.58,12.8-6.77,19.23c-0.78,2.27-2.26,2.83-4.54,2.78c-6.99-0.13-13.99,0.19-20.97-0.15
		c-3.7-0.18-5.17,1.21-6.24,4.56c-3.12,9.77-3.26,9.72,6.75,9.72c14.46,0,28.92,0,43.99,0c-2.89,8.04-5.63,15.6-8.3,23.18
		c-0.7,1.99-2.29,1.6-3.72,1.6c-30.63,0.02-61.25-0.06-91.88,0.09c-4.64,0.02-2.32-2.5-1.79-3.97
		c9.53-26.68,19.05-53.37,28.89-79.93c1.38-3.73,0.42-5.22-2.5-7.06c-7-4.4-13.82-9.08-21.75-14.34c43.73,0,86.15,0,129.38,0
		c-2.92,8.06-5.7,15.78-8.53,23.47c-0.81,2.2-2.79,1.39-4.32,1.4c-14.98,0.05-29.96,0.17-44.94-0.07c-3.76-0.06-5.9,0.75-6.58,4.66
		C934.21,1328.2,930.09,1332.85,931.86,1335.24z M811.15,1311.78c-1.64-0.22-3.31-0.26-4.97-0.33c-3.79-0.16-6.4,1.53-7.63,5.12
		c-1.2,3.51,0.28,6.12,3.05,8.2c3.74,2.81,7.95,4.77,12.17,6.75c8.06,3.8,16.47,6.98,23.62,12.5c11.89,9.18,14.29,18.44,4.94,35.11
		c-5.61,9.99-15.13,15.55-25.9,19.01c-20.77,6.68-41.49,6.76-62-0.84c-13.98-5.18-21.18-16.74-19.84-30.5
		c0.22-2.28,0.54-3.63,3.37-3.61c13.29,0.13,26.59,0.06,40.35,0.06c-1.02,3.16-1.96,5.9-2.79,8.68c-0.71,2.35-0.63,4.53,1.35,6.42
		c7.47,7.11,21.98,3.32,25.06-6.59c0.7-2.25,0.2-4.27-1.31-6.03c-1.99-2.3-4.46-3.88-7.2-5.23c-9.52-4.69-19.77-7.74-29.03-13
		c-20-11.38-20.88-33.23-1.75-46.08c13.38-8.99,28.71-10.7,44.25-11.03c11.51-0.25,22.86,0.93,33.76,5.19
		c12.66,4.96,20.45,15.28,20.52,27.82c0.01,1.67,0.75,3.77-2.37,3.75c-13.45-0.08-26.9-0.03-40.74-0.03c0.4-1.22,0.64-1.97,0.9-2.72
		C821.63,1316.54,819.39,1312.89,811.15,1311.78z M688.96,1368.37c4.38,10.16,8.24,20.54,12.42,31.11
		c-2.14,1.06-4.29,0.56-6.33,0.57c-9.98,0.06-19.97-0.07-29.95,0.09c-2.76,0.04-4.07-0.79-5.08-3.45
		c-3.9-10.34-8.09-20.57-12.7-32.16c-3.17,8.95-6.04,16.73-8.7,24.59c-3.69,10.94-3.62,10.96-15.01,10.96
		c-9.48,0-18.97-0.2-28.45,0.09c-4.25,0.13-4.59-1.03-3.25-4.71c9.63-26.46,19.03-53,28.69-79.44c1.1-3.02,1.03-4.62-1.87-6.43
		c-7.17-4.47-14.11-9.31-22.14-14.66c32.17,0,63.07-0.11,93.95,0.07c9.37,0.05,18.2,3.12,25.37,8.99
		c8.34,6.83,9.92,16.66,7.95,26.75c-3.45,17.63-15.09,27.48-32.02,31.42C687.39,1363.19,687.32,1364.58,688.96,1368.37z
		 M587.97,1332.91c-3.77,11.84-7.31,23.8-11.91,35.32c-7.46,18.68-22.78,28.28-41.38,33.43c-5.91,1.64-11.91,2.92-17.55,3.02
		c-12.35-0.81-23.98-2.35-35.06-6.8c-16.19-6.5-22.88-19.28-18-35.93c3.45-11.77,7.13-23.53,11.77-34.87
		c6.59-16.12,19.71-25.68,35.68-31.19c19.15-6.62,38.39-5.06,57.13,1.83c10.45,3.84,18.25,10.68,20.51,22.43
		C590.01,1324.59,589.27,1328.82,587.97,1332.91z M390.77,1360.43c-5.32,0.19-10.66,0.24-15.97-0.02c-3.15-0.16-4.64,0.77-5.63,3.91
		c-3.31,10.41-7.06,20.69-10.52,31.06c-1.12,3.36-2.73,4.93-6.7,4.82c-11.64-0.34-23.3-0.36-34.94,0c-4.62,0.14-4.36-1.56-3.18-4.79
		c9.56-26.29,18.97-52.65,28.71-78.87c1.42-3.81,0.61-5.51-2.6-7.49c-6.91-4.26-13.57-8.91-21.51-14.19c25.86,0,50.29,0,75.21,0
		c-4.11,11.77-8.16,23.41-12.24,35.04c-1.99,5.68-2.02,5.67,4.06,5.68c4.49,0,9.03-0.37,13.47,0.11c4.2,0.45,5.7-1.32,6.94-5.01
		c3.64-10.83,7.7-21.52,11.58-32.27c0.67-1.84,0.91-3.71,3.76-3.68c13.44,0.14,26.89,0.06,40.96,0.06
		c-1.53,4.52-2.84,8.58-4.27,12.61c-10.42,29.5-20.9,58.99-31.23,88.52c-1.1,3.14-2.54,4.34-6.02,4.26
		c-11.81-0.26-23.63-0.22-35.44-0.03c-3.46,0.05-3.89-0.84-2.76-3.92c3.89-10.58,7.4-21.3,11.38-31.84
		C395.23,1360.67,393.98,1360.31,390.77,1360.43z M78.39,1450.93c0.45-10.47,0.13-10.48,10.75-10.48c342.88,0,685.76,0,1028.64,0
		c6.5,0,6.5,0,6.5,6.51c0,9.71,0,9.71-9.76,9.71c-171.11,0-342.22,0-513.32,0c-172.27,0-344.55-0.02-516.82,0.11
		C79.7,1456.77,78.17,1455.9,78.39,1450.93z"/>
	<path class="st0" d="M1140.82,1638.44c-0.27,0.01-0.54,0.02-0.81,0.02c-0.01,0.02-0.01,0.05-0.02,0.07
		c-2.61,1.63-5.52,0.87-8.28,0.87c-278.97,0.04-557.94,0.04-836.92,0.04c-74.9,0-149.81,0-224.71,0c-1.83,0-3.66,0.02-5.49-0.05
		c-2.04-0.08-3.04-1.06-2.92-3.16c0.07-1.16,0.01-2.33,0.01-3.5c0-528.76,0-1057.51,0.02-1586.27c0-1.95-0.46-3.96,0.46-5.85
		c-2.09,1.11-0.94,3.03-0.94,4.5c-0.06,530.18-0.06,1060.36-0.16,1590.54c0,3.95,0.65,4.91,4.8,4.91
		c356.82-0.13,713.64-0.12,1070.46-0.12c1.17,0,2.33-0.05,3.49,0.01C1141.79,1640.56,1140.41,1639.07,1140.82,1638.44z"/>
	<path class="st0" d="M1140.28,46c0.02,529.02,0.02,1058.04,0.01,1587.07c0,1.71,0.25,3.45-0.22,5.14c0.24-0.21,0.49-0.15,0.75,0.23
		c0-531.11,0-1062.23,0-1593.34c0-1.33-0.03-2.67,0.01-4c0.03-1.01-0.7-0.28-1.01-0.5C1140.74,42.34,1140.28,44.21,1140.28,46z"/>
	<path class="st0" d="M1139.86,1638.46L1139.86,1638.46C1139.86,1638.46,1139.86,1638.46,1139.86,1638.46c0.05,0,0.1,0,0.15,0
		c0.03-0.08,0.04-0.17,0.07-0.25C1140,1638.27,1139.93,1638.35,1139.86,1638.46z"/>
	<path class="st0" d="M269.79,767.13c-2.63,1.26-1.08,3.34-1,5.13C269.47,770.62,268.02,768.56,269.79,767.13z"/>
	<path class="st0" d="M530.48,1548.41c-1.4,0.39-1.95,1.04-1.83,2.18h0l0,0c0.52-0.44,1.17-0.8,1.23-1.37
		c0.1,1.95,0.61,4.15-0.13,6.33C530.78,1553.27,530.45,1550.91,530.48,1548.41z"/>
	<path class="st0" d="M477.54,111.9c-0.52,0.48,0.45,1.26,1.26,1.46c-0.22-2.15,1.13-1.02,1.97-0.94
		C479.83,111.29,478.51,111,477.54,111.9z"/>
	<path class="st0" d="M595.09,1550.2c-1.13-0.46-1.54,1.11-1.8,2.18c0,0,0,0,0,0c0.41-0.29,0.83-0.61,1.14,0.12
		C595.21,1551.84,596.09,1550.61,595.09,1550.2z"/>
	<path class="st0" d="M790.56,1121.62c-4.28-1.14-8.6-0.4-12.89-0.64c-1.47-0.08-1.96,0.83-2.36,2.04
		c-1.92,5.77-3.9,11.52-6.03,17.78c7.44-0.31,14.43,0.73,21.27-1.15c4.26-1.17,7.25-5.99,7.02-10.86
		C797.35,1124.33,794.41,1122.65,790.56,1121.62z"/>
	<path class="st0" d="M675.58,1319.77c-12.26-0.97-12.26-0.97-16.25,10.35c-3.24,9.22-3.24,9.22,6.5,9.05
		c2.48,0,4.96,0.07,7.44-0.03c1.14-0.05,2.28-0.4,3.4-0.66c4.88-1.16,8.18-6.18,7.68-11.68
		C683.99,1322.75,680.78,1320.18,675.58,1319.77z"/>
	<path class="st0" d="M497.84,1167.2c4.64-12.01,8.68-24.27,12.87-36.45c3.02-8.77,1.22-11.67-7.9-13.02
		c-1.8-0.27-3.65-0.17-5.45-0.41c-2.43-0.32-3.36,0.77-4.16,3.04c-6.99,19.93-14.15,39.8-21.42,60.11
		C487.99,1182.2,493.88,1177.46,497.84,1167.2z"/>
	<path class="st0" d="M634.86,1172.8c0.25-7.96,0.7-15.92,1.09-23.88c0.24-4.82,0.5-9.65,0.76-14.47c-0.34-0.04-0.68-0.09-1.02-0.13
		c-8.81,13.91-17.62,27.81-26.88,42.42c8.04,0,15.01-0.15,21.96,0.07C633.89,1176.9,634.77,1175.68,634.86,1172.8z"/>
	<path class="st0" d="M544.28,1314.54c-2.57-1.14-5.3-1.83-8.15-1.85c-6.62-0.02-12.77,4.4-15.52,11.98
		c-5.68,15.69-11.14,31.47-16.51,47.28c-2,5.89,0.04,9.03,6.19,10.49c10.06,2.39,17.32-1.5,21.17-12.19
		c5.72-15.85,10.93-31.89,16.48-47.8C549.36,1318.41,547.73,1316.07,544.28,1314.54z"/>
	<path class="st0" d="M422.19,1512.6c-10.41-3.75-19.68,1.23-23.61,12.68c-5.21,15.18-10.44,30.35-15.65,45.53
		c-1.61,4.68-0.4,7.67,4.21,9.46c2.29,0.89,4.82,1.16,6.55,1.55c7.14,0.34,14.22-5.1,16.89-12.68c5.47-15.61,10.85-31.25,16.2-46.9
		C428.58,1516.92,427.33,1514.45,422.19,1512.6z"/>
</g>
</svg>
