<svg id="Layer_1" data-name="Layer 1" xmlns="http://www.w3.org/2000/svg" viewBox="0 0 198.24 56.08"><defs><style>.cls-1{fill:#fff;}</style></defs><path class="cls-1" d="M94.25,475.36h3.69v8.73h10v-8.73h3.69v21H108v-8.85h-10v8.85H94.25Z" transform="translate(-93.32 -474.64)"/><path class="cls-1" d="M116.48,490.6V480.52h3.63v9c0,2.46,1.23,3.87,3.39,3.87s3.57-1.47,3.57-3.93v-8.94h3.63v15.84h-3.63v-2.47a5.71,5.71,0,0,1-4.95,2.8C118.55,496.69,116.48,494.29,116.48,490.6Z" transform="translate(-93.32 -474.64)"/><path class="cls-1" d="M135.29,480.52h3.63v2.4a5.68,5.68,0,0,1,4.83-2.73,5,5,0,0,1,4.71,2.79,6.47,6.47,0,0,1,5.37-2.79c3.45,0,5.55,2.19,5.55,6.06v10.11h-3.63v-9c0-2.52-1.17-3.87-3.21-3.87s-3.39,1.38-3.39,3.93v8.94h-3.63v-9c0-2.46-1.2-3.84-3.21-3.84s-3.39,1.5-3.39,4v8.91h-3.63Z" transform="translate(-93.32 -474.64)"/><path class="cls-1" d="M173.51,496.36v-1.95a6.4,6.4,0,0,1-5.13,2.28c-3,0-5.64-1.71-5.64-4.89v-.07c0-3.5,2.73-5.18,6.42-5.18a13.33,13.33,0,0,1,4.38.66v-.3c0-2.2-1.38-3.39-3.9-3.39a11,11,0,0,0-4.53,1l-1-2.91a13.58,13.58,0,0,1,6-1.32c4.68,0,7,2.46,7,6.68v9.4Zm.09-6.63a10.37,10.37,0,0,0-3.63-.63c-2.28,0-3.63.93-3.63,2.45v.07c0,1.5,1.35,2.34,3.06,2.34,2.4,0,4.2-1.35,4.2-3.34Z" transform="translate(-93.32 -474.64)"/><path class="cls-1" d="M181.46,480.52h3.63V483a5.7,5.7,0,0,1,4.95-2.79c3.57,0,5.64,2.4,5.64,6.09v10.08h-3.63v-9c0-2.47-1.23-3.87-3.39-3.87s-3.57,1.47-3.57,3.93v8.94h-3.63Z" transform="translate(-93.32 -474.64)"/><path class="cls-1" d="M200.15,474.64h3.9v3.45h-3.9Zm.15,5.88h3.63v15.84H200.3Z" transform="translate(-93.32 -474.64)"/><path class="cls-1" d="M209.45,492v-8.34h-2v-3.12h2v-4.35h3.63v4.35h4.26v3.12h-4.26v7.77a1.73,1.73,0,0,0,1.95,2,4.88,4.88,0,0,0,2.25-.54v3a6.45,6.45,0,0,1-3.27.8C211.34,496.62,209.45,495.46,209.45,492Z" transform="translate(-93.32 -474.64)"/><path class="cls-1" d="M230.72,496.36v-1.95a6.4,6.4,0,0,1-5.13,2.28c-3,0-5.64-1.71-5.64-4.89v-.07c0-3.5,2.73-5.18,6.42-5.18a13.33,13.33,0,0,1,4.38.66v-.3c0-2.2-1.38-3.39-3.9-3.39a11,11,0,0,0-4.53,1l-1-2.91a13.58,13.58,0,0,1,6-1.32c4.68,0,7,2.46,7,6.68v9.4Zm.09-6.63a10.37,10.37,0,0,0-3.63-.63c-2.28,0-3.63.93-3.63,2.45v.07c0,1.5,1.35,2.34,3.06,2.34,2.4,0,4.2-1.35,4.2-3.34Z" transform="translate(-93.32 -474.64)"/><path class="cls-1" d="M238.67,480.52h3.63v3.57c1-2.38,2.82-4,5.61-3.88v3.84h-.21c-3.18,0-5.4,2.07-5.4,6.28v6h-3.63Z" transform="translate(-93.32 -474.64)"/><path class="cls-1" d="M251.15,474.64h3.9v3.45h-3.9Zm.15,5.88h3.63v15.84H251.3Z" transform="translate(-93.32 -474.64)"/><path class="cls-1" d="M269.39,496.36v-1.95a6.4,6.4,0,0,1-5.13,2.28c-3,0-5.64-1.71-5.64-4.89v-.07c0-3.5,2.73-5.18,6.42-5.18a13.22,13.22,0,0,1,4.37.66v-.3c0-2.2-1.37-3.39-3.89-3.39a11,11,0,0,0-4.53,1l-1-2.91a13.58,13.58,0,0,1,6-1.32c4.68,0,7,2.46,7,6.68v9.4Zm.09-6.63a10.37,10.37,0,0,0-3.63-.63c-2.28,0-3.63.93-3.63,2.45v.07c0,1.5,1.35,2.34,3.06,2.34,2.4,0,4.2-1.35,4.2-3.34Z" transform="translate(-93.32 -474.64)"/><path class="cls-1" d="M277.34,480.52H281V483a5.7,5.7,0,0,1,4.94-2.79c3.58,0,5.64,2.4,5.64,6.09v10.08h-3.63v-9c0-2.47-1.22-3.87-3.38-3.87S281,485,281,487.42v8.94h-3.63Z" transform="translate(-93.32 -474.64)"/><path class="cls-1" d="M93.32,519.92v-.06a11,11,0,0,1,22-.06v.06a11,11,0,0,1-22,.06Zm18.09,0v-.06a7.2,7.2,0,0,0-7.14-7.47,7.09,7.09,0,0,0-7.08,7.41v.06a7.19,7.19,0,0,0,7.14,7.46A7.09,7.09,0,0,0,111.41,519.92Z" transform="translate(-93.32 -474.64)"/><path class="cls-1" d="M119.18,524.6V514.52h3.63v9c0,2.46,1.23,3.87,3.39,3.87s3.57-1.47,3.57-3.93v-8.94h3.63v15.84h-3.63v-2.47a5.71,5.71,0,0,1-5,2.8C121.25,530.69,119.18,528.29,119.18,524.6Z" transform="translate(-93.32 -474.64)"/><path class="cls-1" d="M138.74,526v-8.34h-2v-3.12h2v-4.35h3.63v4.35h4.26v3.12h-4.26v7.77a1.73,1.73,0,0,0,1.95,2,4.88,4.88,0,0,0,2.25-.54v3a6.45,6.45,0,0,1-3.27.8C140.63,530.62,138.74,529.46,138.74,526Z" transform="translate(-93.32 -474.64)"/><path class="cls-1" d="M149.45,522.53v-.07a8.16,8.16,0,0,1,8.22-8.27,7.91,7.91,0,0,1,6.33,2.73l-2.25,2.43a5.33,5.33,0,0,0-4.11-2,4.75,4.75,0,0,0-4.56,5v.05a4.82,4.82,0,0,0,4.74,5.11,5.57,5.57,0,0,0,4.11-2l2.19,2.16a8.31,8.31,0,0,1-14.67-5.22Z" transform="translate(-93.32 -474.64)"/><path class="cls-1" d="M166.61,522.53v-.07a8.45,8.45,0,0,1,16.89-.05v.05a8.28,8.28,0,0,1-8.49,8.25A8.18,8.18,0,0,1,166.61,522.53Zm13.26,0v-.07a4.89,4.89,0,0,0-4.86-5.09,4.75,4.75,0,0,0-4.77,5v.05a4.91,4.91,0,0,0,4.83,5.11A4.78,4.78,0,0,0,179.87,522.53Z" transform="translate(-93.32 -474.64)"/><path class="cls-1" d="M187.22,514.52h3.63v2.4a5.68,5.68,0,0,1,4.83-2.73,5,5,0,0,1,4.71,2.79,6.47,6.47,0,0,1,5.37-2.79c3.45,0,5.55,2.19,5.55,6.06v10.11h-3.63v-9c0-2.52-1.17-3.87-3.21-3.87s-3.39,1.38-3.39,3.93v8.94h-3.63v-9c0-2.46-1.2-3.84-3.21-3.84s-3.39,1.5-3.39,4v8.91h-3.63Z" transform="translate(-93.32 -474.64)"/><path class="cls-1" d="M214.88,522.5v-.06c0-4.53,3.21-8.25,7.74-8.25,5,0,7.59,3.95,7.59,8.52,0,.33,0,.66-.06,1H218.51a4.43,4.43,0,0,0,4.56,4,5.75,5.75,0,0,0,4.29-1.89l2.13,1.89a8,8,0,0,1-6.48,3A7.9,7.9,0,0,1,214.88,522.5Zm11.73-1.17c-.24-2.34-1.62-4.17-4-4.17-2.22,0-3.78,1.71-4.11,4.17Z" transform="translate(-93.32 -474.64)"/><path class="cls-1" d="M232.61,528.29l1.62-2.47a8.84,8.84,0,0,0,5.19,2c1.56,0,2.46-.66,2.46-1.71V526c0-1.23-1.68-1.65-3.54-2.22-2.34-.67-5-1.62-5-4.65v-.06c0-3,2.49-4.83,5.64-4.83a11,11,0,0,1,5.82,1.8l-1.44,2.57a9.3,9.3,0,0,0-4.47-1.5c-1.41,0-2.22.67-2.22,1.59v.07c0,1.14,1.71,1.61,3.57,2.22,2.31.71,4.92,1.77,4.92,4.62v.06c0,3.33-2.58,5-5.88,5A11.13,11.13,0,0,1,232.61,528.29Z" transform="translate(-93.32 -474.64)"/></svg>