<svg id="Layer_1" data-name="Layer 1" xmlns="http://www.w3.org/2000/svg" viewBox="0 0 311.81 164.37"><defs><style>.cls-1{fill:#fff;}</style></defs><circle class="cls-1" cx="377.26" cy="338.06" r="10.49" transform="translate(-365.25 -46.61) rotate(-22.35)"/><path class="cls-1" d="M265,348.41V215.67h27.17V348.41Z" transform="translate(-265.04 -215.45)"/><path class="cls-1" d="M409.74,348.55l-2-4-27-57.65-3.39-7.35-10.16,21.54-12.83,27-9.73,20.46H314.76l62.55-133.1,62.41,133.1Z" transform="translate(-265.04 -215.45)"/><path class="cls-1" d="M546.87,348.55l-2-4-27-57.65-3.39-7.35-10.16,21.54-12.83,27-9.73,20.46H451.89l62.55-133.1,62.41,133.1Z" transform="translate(-265.04 -215.45)"/><path class="cls-1" d="M265,369.22h1.58v10.41H265Z" transform="translate(-265.04 -215.45)"/><path class="cls-1" d="M277.58,369.22v10.56h-.3L271,372.67v7h-1.58V369.05h.29l6.32,7.14v-7Z" transform="translate(-265.04 -215.45)"/><path class="cls-1" d="M282.69,370.65h-3.18v-1.43h7.94v1.43h-3.18v9h-1.58Z" transform="translate(-265.04 -215.45)"/><path class="cls-1" d="M295.81,378.18v1.45h-6.43V369.22h6.27v1.43H291v2.9h4.49V375H291v3.19Z" transform="translate(-265.04 -215.45)"/><path class="cls-1" d="M303.57,379.63l-3.83-5.07v5.07h-1.58V369.22h3.34a5.19,5.19,0,0,1,2,.35,2.78,2.78,0,0,1,1.31,1,3,3,0,0,1,.45,1.67,2.67,2.67,0,0,1-.83,2.09,4,4,0,0,1-2.38.89l3.45,4.38ZM301,374.05a3.64,3.64,0,0,0,2-.42,1.46,1.46,0,0,0,.64-1.3c0-1.13-.75-1.69-2.26-1.69h-1.64v3.41Z" transform="translate(-265.04 -215.45)"/><path class="cls-1" d="M315.78,369.22v10.56h-.29l-6.33-7.11v7h-1.58V369.05h.3l6.31,7.14v-7Z" transform="translate(-265.04 -215.45)"/><path class="cls-1" d="M323.68,377.22h-3.95l-1,2.41h-1.69l4.53-10.58h.26l4.52,10.58h-1.73Zm-2-5.14-1.51,3.79h3Z" transform="translate(-265.04 -215.45)"/><path class="cls-1" d="M328.83,370.65h-3.19v-1.43h7.95v1.43h-3.18v9h-1.58Z" transform="translate(-265.04 -215.45)"/><path class="cls-1" d="M335.52,369.22h1.58v10.41h-1.58Z" transform="translate(-265.04 -215.45)"/><path class="cls-1" d="M341.81,379.18a5.09,5.09,0,0,1-1.92-1.88,6.12,6.12,0,0,1,0-5.76,5,5,0,0,1,1.92-1.87,5.27,5.27,0,0,1,2.56-.65,5.39,5.39,0,0,1,2.57.65,4.88,4.88,0,0,1,1.93,1.87,6,6,0,0,1,0,5.76,5,5,0,0,1-1.93,1.88,5.38,5.38,0,0,1-2.57.64A5.26,5.26,0,0,1,341.81,379.18Zm4.34-1.35a3.38,3.38,0,0,0,1.32-1.33,4.12,4.12,0,0,0,.5-2.07,4.17,4.17,0,0,0-.5-2.09,3.34,3.34,0,0,0-1.32-1.34,3.67,3.67,0,0,0-3.56,0,3.29,3.29,0,0,0-1.3,1.34,4.17,4.17,0,0,0-.49,2.09,4.12,4.12,0,0,0,.49,2.07,3.33,3.33,0,0,0,1.3,1.33,3.67,3.67,0,0,0,3.56,0Z" transform="translate(-265.04 -215.45)"/><path class="cls-1" d="M360,369.22v10.56h-.3l-6.33-7.11v7h-1.57V369.05H352l6.31,7.14v-7Z" transform="translate(-265.04 -215.45)"/><path class="cls-1" d="M367.85,377.22h-4l-1,2.41h-1.69l4.54-10.58H366l4.52,10.58h-1.73Zm-2-5.14-1.5,3.79h3Z" transform="translate(-265.04 -215.45)"/><path class="cls-1" d="M377.64,378.18v1.45H372V369.22h1.58v9Z" transform="translate(-265.04 -215.45)"/><path class="cls-1" d="M388.14,377.22h-4l-1,2.41h-1.69l4.53-10.58h.26l4.52,10.58h-1.73Zm-2-5.14-1.51,3.79h3Z" transform="translate(-265.04 -215.45)"/><path class="cls-1" d="M398.12,369.82a4.52,4.52,0,0,1,2,1.76,5.18,5.18,0,0,1,.7,2.75,5.37,5.37,0,0,1-.72,2.84,4.78,4.78,0,0,1-2.05,1.82,6.86,6.86,0,0,1-3.06.64h-2.73V369.22H395A7.41,7.41,0,0,1,398.12,369.82Zm-.9,7.91a3.43,3.43,0,0,0,1.47-1.32,4,4,0,0,0,.52-2.08,3.39,3.39,0,0,0-1.1-2.75,4.64,4.64,0,0,0-3.09-.93h-1.18v7.53H395A5.05,5.05,0,0,0,397.22,377.73Z" transform="translate(-265.04 -215.45)"/><path class="cls-1" d="M410.87,369.22l-4.6,10.56H406l-4.58-10.56h1.78l3,7.35,3-7.35Z" transform="translate(-265.04 -215.45)"/><path class="cls-1" d="M418.73,378.18v1.45h-6.42V369.22h6.27v1.43h-4.71v2.9h4.5V375h-4.5v3.19Z" transform="translate(-265.04 -215.45)"/><path class="cls-1" d="M426.49,379.63l-3.83-5.07v5.07h-1.57V369.22h3.33a5.25,5.25,0,0,1,2,.35,2.76,2.76,0,0,1,1.3,1,3,3,0,0,1,.45,1.67,2.67,2.67,0,0,1-.82,2.09,4,4,0,0,1-2.39.89l3.45,4.38ZM424,374.05a3.64,3.64,0,0,0,2-.42,1.48,1.48,0,0,0,.64-1.3c0-1.13-.76-1.69-2.26-1.69h-1.65v3.41Z" transform="translate(-265.04 -215.45)"/><path class="cls-1" d="M432.51,370.65h-3.18v-1.43h7.94v1.43h-3.18v9h-1.58Z" transform="translate(-265.04 -215.45)"/><path class="cls-1" d="M439.2,369.22h1.58v10.41H439.2Z" transform="translate(-265.04 -215.45)"/><path class="cls-1" d="M444.29,379.38a6,6,0,0,1-1.66-1.13l.95-1.19a4.08,4.08,0,0,0,2.91,1.27,2.87,2.87,0,0,0,1.11-.19,1.53,1.53,0,0,0,.71-.55,1.49,1.49,0,0,0,.25-.84,1.08,1.08,0,0,0-.31-.81,2.06,2.06,0,0,0-.74-.46,12.17,12.17,0,0,0-1.24-.36,11.86,11.86,0,0,1-1.69-.53,2.69,2.69,0,0,1-1.12-.87,2.58,2.58,0,0,1-.47-1.62,2.77,2.77,0,0,1,.47-1.58,3,3,0,0,1,1.31-1.09,4.43,4.43,0,0,1,1.94-.4,4.8,4.8,0,0,1,1.9.36,4.62,4.62,0,0,1,1.45.95l-.9,1.16a3.37,3.37,0,0,0-1.1-.75,3.42,3.42,0,0,0-1.35-.25,2.82,2.82,0,0,0-1.13.2,1.65,1.65,0,0,0-.73.55,1.32,1.32,0,0,0-.25.81,1.09,1.09,0,0,0,.29.78,2.21,2.21,0,0,0,.74.46,12.09,12.09,0,0,0,1.25.37,11.21,11.21,0,0,1,1.7.53,2.72,2.72,0,0,1,1.13.86,2.45,2.45,0,0,1,.47,1.57,3,3,0,0,1-.47,1.67,3.13,3.13,0,0,1-1.31,1.12,4.57,4.57,0,0,1-1.94.39A5.06,5.06,0,0,1,444.29,379.38Z" transform="translate(-265.04 -215.45)"/><path class="cls-1" d="M452.23,369.22h1.58v10.41h-1.58Z" transform="translate(-265.04 -215.45)"/><path class="cls-1" d="M464.77,369.22v10.56h-.29l-6.33-7.11v7h-1.58V369.05h.3l6.31,7.14v-7Z" transform="translate(-265.04 -215.45)"/><path class="cls-1" d="M476.79,374.6a6.11,6.11,0,0,1-.59,2.74,4.42,4.42,0,0,1-1.68,1.82,4.81,4.81,0,0,1-2.51.65,5.16,5.16,0,0,1-2.55-.66,4.94,4.94,0,0,1-1.9-1.87,5.49,5.49,0,0,1-.72-2.85,5.68,5.68,0,0,1,.71-2.87,4.88,4.88,0,0,1,1.88-1.89A5.26,5.26,0,0,1,472,369a5.46,5.46,0,0,1,2.28.45,4.63,4.63,0,0,1,1.7,1.31l-1.09,1.07a3.29,3.29,0,0,0-1.22-1,3.69,3.69,0,0,0-1.61-.34,3.62,3.62,0,0,0-1.81.47,3.38,3.38,0,0,0-1.3,1.35,4.28,4.28,0,0,0-.48,2.07,4.15,4.15,0,0,0,.47,2,3.45,3.45,0,0,0,1.27,1.35,3.52,3.52,0,0,0,1.79.47,3,3,0,0,0,2.16-.75,3.22,3.22,0,0,0,.94-2.1h-3.35V374h5C476.78,374.3,476.79,374.49,476.79,374.6Z" transform="translate(-265.04 -215.45)"/><path class="cls-1" d="M487.35,377.22h-4l-.95,2.41h-1.69l4.53-10.58h.26l4.52,10.58h-1.74Zm-2-5.14-1.51,3.79h3Z" transform="translate(-265.04 -215.45)"/><path class="cls-1" d="M492.28,379.38a6.1,6.1,0,0,1-1.66-1.13l1-1.19a4.06,4.06,0,0,0,2.9,1.27,2.87,2.87,0,0,0,1.11-.19,1.62,1.62,0,0,0,.72-.55,1.48,1.48,0,0,0,.24-.84,1.11,1.11,0,0,0-.3-.81,2,2,0,0,0-.75-.46,11.15,11.15,0,0,0-1.23-.36,12,12,0,0,1-1.7-.53,2.76,2.76,0,0,1-1.12-.87,2.58,2.58,0,0,1-.46-1.62,2.76,2.76,0,0,1,.46-1.58,3.07,3.07,0,0,1,1.31-1.09,4.47,4.47,0,0,1,1.95-.4,4.8,4.8,0,0,1,1.9.36,4.74,4.74,0,0,1,1.45.95l-.9,1.16a3.28,3.28,0,0,0-2.45-1,2.78,2.78,0,0,0-1.13.2,1.59,1.59,0,0,0-.73.55,1.33,1.33,0,0,0-.26.81,1.06,1.06,0,0,0,.3.78,2.12,2.12,0,0,0,.74.46,10.73,10.73,0,0,0,1.25.37,11.21,11.21,0,0,1,1.7.53,2.78,2.78,0,0,1,1.13.86,2.45,2.45,0,0,1,.46,1.57,3,3,0,0,1-.46,1.67,3.13,3.13,0,0,1-1.31,1.12,4.62,4.62,0,0,1-1.95.39A5.09,5.09,0,0,1,492.28,379.38Z" transform="translate(-265.04 -215.45)"/><path class="cls-1" d="M500.83,379.38a6.1,6.1,0,0,1-1.66-1.13l1-1.19a4.06,4.06,0,0,0,2.9,1.27,2.83,2.83,0,0,0,1.11-.19,1.56,1.56,0,0,0,.72-.55,1.48,1.48,0,0,0,.24-.84,1.11,1.11,0,0,0-.3-.81,2,2,0,0,0-.75-.46,11.15,11.15,0,0,0-1.23-.36,12.48,12.48,0,0,1-1.7-.53,2.76,2.76,0,0,1-1.12-.87,2.58,2.58,0,0,1-.46-1.62,2.76,2.76,0,0,1,.46-1.58,3.07,3.07,0,0,1,1.31-1.09,4.47,4.47,0,0,1,1.95-.4,4.8,4.8,0,0,1,1.9.36,4.74,4.74,0,0,1,1.45.95l-.9,1.16a3.47,3.47,0,0,0-1.1-.75,3.42,3.42,0,0,0-1.35-.25,2.82,2.82,0,0,0-1.13.2,1.59,1.59,0,0,0-.73.55,1.33,1.33,0,0,0-.26.81,1.06,1.06,0,0,0,.3.78,2.12,2.12,0,0,0,.74.46,11.37,11.37,0,0,0,1.25.37,11.21,11.21,0,0,1,1.7.53,2.78,2.78,0,0,1,1.13.86,2.45,2.45,0,0,1,.46,1.57,3,3,0,0,1-.46,1.67,3.13,3.13,0,0,1-1.31,1.12,4.62,4.62,0,0,1-1.95.39A5.09,5.09,0,0,1,500.83,379.38Z" transform="translate(-265.04 -215.45)"/><path class="cls-1" d="M510.79,379.18a5,5,0,0,1-1.92-1.88,6.12,6.12,0,0,1,0-5.76,4.86,4.86,0,0,1,1.92-1.87,5.26,5.26,0,0,1,2.55-.65,5.36,5.36,0,0,1,2.57.65,4.91,4.91,0,0,1,1.94,1.87,6,6,0,0,1,0,5.76,5,5,0,0,1-1.94,1.88,5.35,5.35,0,0,1-2.57.64A5.25,5.25,0,0,1,510.79,379.18Zm4.34-1.35a3.38,3.38,0,0,0,1.32-1.33,4.12,4.12,0,0,0,.5-2.07,4.17,4.17,0,0,0-.5-2.09,3.34,3.34,0,0,0-1.32-1.34,3.59,3.59,0,0,0-1.79-.46,3.52,3.52,0,0,0-1.77.46,3.23,3.23,0,0,0-1.3,1.34,4.17,4.17,0,0,0-.49,2.09,4.12,4.12,0,0,0,.49,2.07,3.27,3.27,0,0,0,1.3,1.33,3.52,3.52,0,0,0,1.77.46A3.59,3.59,0,0,0,515.13,377.83Z" transform="translate(-265.04 -215.45)"/><path class="cls-1" d="M522.61,379.13a4.9,4.9,0,0,1-1.84-1.91,5.81,5.81,0,0,1-.66-2.79,5.58,5.58,0,0,1,.68-2.8,4.84,4.84,0,0,1,1.87-1.91,5.17,5.17,0,0,1,2.63-.67,4.86,4.86,0,0,1,3.9,1.7l-1.08,1.09a3.25,3.25,0,0,0-1.2-.95,3.78,3.78,0,0,0-1.56-.32,3.72,3.72,0,0,0-1.86.47,3.36,3.36,0,0,0-1.29,1.35,4.44,4.44,0,0,0-.46,2,4.2,4.2,0,0,0,.46,2,3.25,3.25,0,0,0,1.26,1.36,3.33,3.33,0,0,0,1.8.49,3.49,3.49,0,0,0,2.9-1.48l1.1,1a4.46,4.46,0,0,1-1.74,1.49,5.3,5.3,0,0,1-2.33.51A5,5,0,0,1,522.61,379.13Z" transform="translate(-265.04 -215.45)"/><path class="cls-1" d="M531.11,369.22h1.58v10.41h-1.58Z" transform="translate(-265.04 -215.45)"/><path class="cls-1" d="M540.59,377.22h-4l-1,2.41H534l4.54-10.58h.25l4.52,10.58h-1.73Zm-2-5.14-1.5,3.79h3Z" transform="translate(-265.04 -215.45)"/><path class="cls-1" d="M545.73,370.65h-3.18v-1.43h7.94v1.43h-3.18v9h-1.58Z" transform="translate(-265.04 -215.45)"/><path class="cls-1" d="M552.42,369.22H554v10.41h-1.58Z" transform="translate(-265.04 -215.45)"/><path class="cls-1" d="M558.71,379.18a5,5,0,0,1-1.91-1.88,6,6,0,0,1,0-5.76,4.9,4.9,0,0,1,1.91-1.87,5.39,5.39,0,0,1,5.13,0,5,5,0,0,1,1.94,1.87,6,6,0,0,1,0,5.76,5.07,5.07,0,0,1-1.94,1.88,5.46,5.46,0,0,1-5.13,0Zm4.34-1.35a3.47,3.47,0,0,0,1.33-1.33,4.12,4.12,0,0,0,.5-2.07,4.17,4.17,0,0,0-.5-2.09,3.43,3.43,0,0,0-1.33-1.34,3.67,3.67,0,0,0-3.56,0,3.36,3.36,0,0,0-1.3,1.34,4.27,4.27,0,0,0-.48,2.09,4.22,4.22,0,0,0,.48,2.07,3.4,3.4,0,0,0,1.3,1.33,3.67,3.67,0,0,0,3.56,0Z" transform="translate(-265.04 -215.45)"/><path class="cls-1" d="M576.85,369.22v10.56h-.3l-6.32-7.11v7h-1.58V369.05h.3l6.31,7.14v-7Z" transform="translate(-265.04 -215.45)"/></svg>