<svg version="1.1" xmlns="http://www.w3.org/2000/svg" xmlns:xlink="http://www.w3.org/1999/xlink" viewBox="0 0 120 43" width="120" height="43">
<g stroke="none" stroke-width="1" fill="none" fill-rule="evenodd">
<g class="fill" transform="translate(-655.000000, -32.000000)" fill="#ffffff">
<g id="Logo" transform="translate(655.000000, 32.000000)" fill="#ffffff">
<path d="M111.553851,30.6447872 L111.553851,15.7605928 L119.409605,15.7605928 L119.409605,12.0119403 L111.553851,12.0119403 L111.553851,3.86744904 L107.102774,3.86744904 L107.102774,12.0119403 L101.989666,12.0119403 L101.384128,12.0119403 L94.3901579,12.0119403 L94.3901579,10.6636353 C94.3901579,8.14667773 95.1537272,3.9242965 100.268312,3.9242965 C101.469051,3.9242965 102.523943,3.94105921 102.523943,3.94105921 L102.523943,2.5892659e-15 L99.8529274,2.5892659e-15 C98.4926812,2.5892659e-15 95.8825888,0.233220332 93.6882502,1.79470334 C91.1608655,3.59305074 89.8792654,6.59685574 89.8792654,10.7223048 L89.8792654,12.0119403 L84.5361267,12.0119403 L84.5361267,15.7605928 L89.8792654,15.7605928 L89.8792654,38.2040413 L84.832619,38.2040413 L84.832619,38.2058633 L81.9408034,38.2058633 L81.9408034,38.2393887 L77.3604955,38.2393887 L77.3604955,12.0472878 L69.1148336,12.0472878 L65.8017257,12.0472878 L65.1681257,12.0472878 L61.4902178,12.0472878 L60.4678177,12.0472878 L52.9835096,35.8033295 L46.7778478,12.1719149 L42.0720014,12.1719149 L35.5661549,35.6185752 L28.1401853,12.0472878 L23.4402466,12.0472878 L33.2027086,41.9880412 L33.4836933,41.9880412 L37.5382165,41.9880412 L37.5563088,41.9352022 L44.2449246,18.657991 L50.9508942,41.9880412 L51.0350788,41.9880412 L55.0057867,41.9880412 L55.4056636,41.9880412 L63.9456025,15.7959402 L65.8017257,15.7959402 L69.1148336,15.7959402 L72.849603,15.7959402 L72.849603,38.2393887 L67.8029566,38.2393887 L67.8029566,41.9880412 L81.9408034,41.9880412 L81.9408034,41.990592 L86.2988344,41.990592 L86.2988344,41.9526937 L100.327389,41.9526937 L100.327389,38.2040413 L94.3901579,38.2040413 L94.3901579,15.7605928 L101.384128,15.7605928 L101.989666,15.7605928 L107.043328,15.7605928 L107.043328,30.9964398 C107.043328,35.3569312 108.40062,38.5068633 111.077543,40.3580497 C113.264128,41.8699734 115.901544,42.1873717 117.729236,42.1873717 L119.687636,42.1873717 L119.687636,38.2452192 C119.687636,38.2452192 118.876805,38.2630752 118.085544,38.2630752 C115.646036,38.2630752 111.553851,37.2733464 111.553851,30.6447872 L111.553851,30.6447872 Z M72.6121864,5.7762118 L77.6573554,5.7762118 L77.6573554,0.328330517 L72.6121864,0.328330517 L72.6121864,5.7762118 Z M5.75778476,19.312466 C5.75778476,16.5189236 8.79950792,15.2686439 11.8142772,15.2686439 C14.7038773,15.2686439 17.6928005,16.4963304 17.6928005,18.5508558 L17.6928005,19.394822 L21.8473852,19.394822 L21.8473852,17.3202541 C21.8473852,15.4151354 20.6097236,13.8252286 18.2688005,12.7218048 C16.4381543,11.8592539 13.9805542,11.3439827 11.6953849,11.3439827 C6.60590786,11.3439827 1.12836926,13.8744235 1.12836926,19.429805 C1.12836926,24.5868899 5.58240014,26.6337629 10.5437541,28.4375765 C10.8055387,28.5345087 11.0658464,28.6299833 11.3235695,28.7243646 C15.1554465,30.1298816 18.4644928,31.3433562 18.4644928,34.3715767 C18.4644928,36.5591106 16.3716927,38.7670514 11.6953849,38.7670514 C9.84443102,38.7670514 7.99273866,38.4037378 6.61550786,37.7707632 C5.49267706,37.2547632 4.15458472,36.3073055 4.15458472,34.7228648 L4.15458472,33.9375682 L0,33.9375682 L0,35.4848394 C0,40.1652802 5.93390784,42.6913481 11.5174157,42.6913481 C18.4061543,42.6913481 23.0348314,39.2535344 23.0348314,34.1368987 C23.0348314,28.574229 17.5488004,26.6308476 13.1420311,25.0693645 C9.34449255,23.7064831 5.75778476,22.4193983 5.75778476,19.312466 L5.75778476,19.312466 Z" id="Fill-1" fill="#fff"></path>
</g>
</g>
</g>
</svg>
